<mxfile host="app.diagrams.net" modified="2020-05-27T06:53:09.743Z" agent="5.0 (Macintosh; Intel Mac OS X 10_15_4) AppleWebKit/537.36 (KHTML, like Gecko) Chrome/81.0.4044.138 Safari/537.36" etag="V_5n0V-EsbmRl_0XAhGx" version="13.1.3" type="github">
  <diagram id="rW65vzHXIKsUipkb3YVM" name="Page-1">
    <mxGraphModel dx="2916" dy="754" grid="1" gridSize="10" guides="1" tooltips="1" connect="1" arrows="1" fold="1" page="1" pageScale="1" pageWidth="850" pageHeight="1100" math="0" shadow="0">
      <root>
        <mxCell id="0" />
        <mxCell id="1" parent="0" />
        <mxCell id="0DorSFAY3iXw3XI1K5tr-31" style="edgeStyle=none;rounded=0;orthogonalLoop=1;jettySize=auto;html=1;exitX=1;exitY=0.5;exitDx=0;exitDy=0;entryX=0;entryY=0.5;entryDx=0;entryDy=0;strokeWidth=2;fontSize=20;" parent="1" source="0DorSFAY3iXw3XI1K5tr-7" target="0DorSFAY3iXw3XI1K5tr-26" edge="1">
          <mxGeometry relative="1" as="geometry" />
        </mxCell>
        <mxCell id="0DorSFAY3iXw3XI1K5tr-7" value="Detectron2" style="rounded=1;whiteSpace=wrap;html=1;fontSize=20;" parent="1" vertex="1">
          <mxGeometry x="-469" y="651" width="120" height="60" as="geometry" />
        </mxCell>
        <mxCell id="0DorSFAY3iXw3XI1K5tr-37" style="edgeStyle=none;rounded=0;orthogonalLoop=1;jettySize=auto;html=1;exitX=1;exitY=0.5;exitDx=0;exitDy=0;entryX=0;entryY=0.5;entryDx=0;entryDy=0;strokeWidth=2;fontSize=20;" parent="1" source="0DorSFAY3iXw3XI1K5tr-14" target="0DorSFAY3iXw3XI1K5tr-7" edge="1">
          <mxGeometry relative="1" as="geometry" />
        </mxCell>
        <mxCell id="0DorSFAY3iXw3XI1K5tr-40" style="edgeStyle=orthogonalEdgeStyle;rounded=0;orthogonalLoop=1;jettySize=auto;html=1;exitX=0.5;exitY=1;exitDx=0;exitDy=0;entryX=0;entryY=0.5;entryDx=0;entryDy=0;strokeWidth=2;fontSize=20;" parent="1" source="0DorSFAY3iXw3XI1K5tr-14" target="0DorSFAY3iXw3XI1K5tr-38" edge="1">
          <mxGeometry relative="1" as="geometry" />
        </mxCell>
        <mxCell id="0DorSFAY3iXw3XI1K5tr-14" value="" style="shape=image;verticalLabelPosition=bottom;labelBackgroundColor=#ffffff;verticalAlign=top;aspect=fixed;imageAspect=0;image=data:image/png,iVBORw0KGgoAAAANSUhEUgAAAZYAAAD9CAYAAACfvFG7AAAgAElEQVR4Xuy9B7xU5bX+/91t6ilw6OVQbTdGjV1jcmOSm65JTOyJooKKAoIgKCqKIh2kt1iwxgJYYgzmarwxsceSxK5gBOnlnDNn+uz2+6z3nUP835vc/+8HiGD2JBQPM3v2rL3nfd611vM8ywjDMCR6RBGIIhBFIIpAFIHdFAEjApbdFMnoMFEEoghEEYgioCIQAUt0I0QRiCIQRSCKwG6NQAQsuzWc0cGiCEQRiCIQRSAClugeiCIQRSCKQBSB3RqBCFh2azijg0URiCIQRSCKQAQs0T0QRSCKQBSBKAK7NQIRsOzWcEYHiyLwPyMwbMQwgjCAMCQ0DQxAOP6WaRGPx5gxeUYUtigCn6sIRMDyubqc0YfZWyLw4CPLac1mcF0XyzTxg0ABiu/7VFyXdCpJNptn1LCRe8spR+cRRWC3RSAClt0WyuhAUQT+HoFHf/MrSqUSLZlmLNvGMAwFKL7r4vkBBCHbt21nwvU3RmGLIvC5i0AELJ+7Sxp9oL0hAg8/9gilcpHW1lYqlQohIV7ZpSjAUqlQKhQxLRPbcrjhuvF7wylH5xBFYLdFIAKW3RbK6EBRBP4egXsevJdYLIbveQpATNOkUinjuT5SE/M8n3KpTCGfp5AvcN0110XhiyLwuYlABCyfm0sZfZC9KQL33H8vyXQKyzJUGSwIAtVnCfwAz/XwPJdyqUKxWKQlk+G6sdfuTacfnUsUgV2KQAQsuxS+6MVRBP5xBARY0jVpLNtEfF7ll+d5ClikgS9N/bKUxgpFMpkWxkXAEt1Kn6MIRMDyObqY0UfZeyJwx7130r6hHY7jKCBpbm7mgV8+QO+e3QmxeP3Nv3L8sYeTTtaRL5aYNX3W3nPy0Zl8LiLwH/E4iYqrSq9I1ix/yl/lf4ZBLBmjy1mnsfb2ewjDgET37jy0dt1u+ewRsOyWMEYHiSLwPyOw5JbFxBNJOjXUYTopWlqbMbyQTZvXsHHTNhrataM1m2fiTZOj8H3OInCybeGriSRataT+pn6rru7qJ39/yEIvWa0plPQgVBoneeoWQjpgsjHw6WHKv4Z4QDmEmPzd0O9gyu/yf8Og96DzMTAJbJO1C5eoN+lxYj3+mjJWZxvCACddD+kU7tr1uFsNmjeW1PPC6nEed+Vddv4RAcvOxy56ZRSBfxqBGbOm4Urj3rZwbId4PI6pFhW9WywVS6q/Is37YqmEYZlMnzQtiuheGIEfx+IEqRSGXyQoeUro2v3igXz84MOY2RbwQ3pccjHP/GYlX/vut/DdCi8uvYcTLryAx5feyVHdG/HWfETPi87nN3fdy7ePhSdf8PjueQP46Be30/eigYQGrF98W1U6qwW0PgaBWuoNLAUeO5Z+MCyVZahbKpR7KlQiXMOwQAEQuDEbGuqwcmWI2yRDAzPTimMacnA808ByXULXxRXBLpAAcgqgTNJdO3Pn+o07dUUiYNmpsEUviiLwzyNw08QJ1NXXKDBpzbTS0LEDtmmqJUKa9sVSkVLFpVQsks/n1Q5VVpKKW2bOjDlRaPeiCJxv2dQmallVzlPu00Dq4+168Q9CmTlCYOhF3FBZieQJBpkOtbq/5vn0Tben0NpMqbWAXyzgOClcr0SXpIMTmriOje0HVIR67vvUVDwFJMUgwDRMzCp4iHFDYMh7otwbPAKs0NBZkWFhyBMELwwD0w9xCKiEYMq9Vc1CJCMKjIBAUKwKWkH17P3AxzMMkqbN/t86hq0vvINbW8/ktR/s1NWIgGWnwha9KIrAP47AuPHXUpOuwYmJKFJoxhamqVYDbetCSBCE5AsFKuUKZaEg+77aBcvu1AxllyrPM5g17eYozJ9xBG6e1Iu1k1pocisc2LMn2XUbafIrxE0Dx7CIGQa5IKDGkqxC9vwhFSllCQvQMLANubSyoFetfMIQS+jmgamzDfVLX28/BFuBFjuyW9mOeAJaAhKqXCa3ktxDurZmhCbynNDQwKbKYmYMI3DV69rsgwzHx7RN2h8ew+ngYNUYGAmwwoBY3CYoF6ntcjzF99uz8anf0/mbX+XD3z/HlC2bduoKRMCyU2GLXhRF4H9G4Kprr6K2plY17E1T72Fl9dALgl4cXM8l9H2lvtfsMI/A0/Vs0btImcz39a41DEKmTpkehfozjMDoDvX4RVmgQ3onEoT9DqTrV7/EG/NvoyTXVMpGjX2wN36s+xzVxRwpN5lgOLrEFO9ikO4LYdzCrjFUzSkUZGm7PwJfVnm1EQlkoyE/DwQywFClK9luBJKSKFAJPJNyPk5pe5HS+pBgc4XQE0ATPzpLAVToVzMcVUEL1UbHlg2PlM6knyP3WxjilkukDzxAlb6S/XqzZeVvqTnySN564WUWRsDyGd590Vv/y0fgymuuJJlM4DgxBSqyoRRAUU1YteMMScTjxBMJYgI8lqWzFAGbSkXRjysV+VVWYCNlMgGeyZOm/svH9rMMwOh0rVrIbcuisbE7DV/5Mu6W7Xz8xBP0Pudn/G3pPVSMAE8WbVOyB501+KqEZar+h6QgkrQKWKjKmVSthKUli7th4ks7PpAymmp9SE6rMphqLqKO1/YwHIu4LfeUqTYo8j6W6RCGLqHtgOer0qpkyX0Wz9JnY5rktm1j+1U3qvtQvZH6sU1Ycel+1uls+NXjZJtbSLevIywUqTvycEY89+xOhz7KWHY6dNELowjoCFx59RilspcdYDwWUyWOuro6knEBGhvbsjFMq40gpP5dymFKNOl5eIGvymIinCy7os73KBSKylts8sQpUZg/wwiMSdfR+Yc1bH00R8+e3Sk3t5BsV0fgVyhtbcHq0o26/XuTffc9uk+eQIjPpnvuwfhwE6WNm6ogA1YihpfPq/aMZCBh4Cs3hlASlURMgZf8PKj4GKGn8UjASLdQFBgpd2xF/pAfSlDkOPKnr0AsNE0CT/4uLzTpc+t8wlAoALBg2AguvXkiOElC4R2rDMnE91wsw2LVSy+y6e7l9DQNKk4Co1jkhlzLTkc+ApadDl30wigCID2VVDJOpw6dSNfWqIxFvqy+GE3qQoaul1fLYbJTVTWx6n+LGl/ApVIuU/G8avbiKaaYmFhKWWTK5Igt9lnda+f37kWncoWgtUD/Po1gxwmCMshu37fwcy10vn406YaOFEpFvdgbsHHceGp++h+k+/RT/bWN18+i3djLSXbppD+KSl0kn1CdNVXqUkBTLZ9Klqvvn7bfJReS0QvVSMgtFejMWKdAOiOac+5F/NiOq7/3uW0BCrkEWC4ZwpBFCxXoyO0n1kI7mM8YLLpsBN/IlrFjccL2nak9cD9GPb1yp8MeActOhy564b96BBYsnEt9uzq1W3RsWy0MlmEqmrFkI1LqkK++Ycqi0EYW1WUQxe6R0nn1ufIaMat0K65q6JfFqLJYUj+LgOWzu9NmzJyiFvMNV17LId/7Ln6hjNvSgmEbeJksuYMa2f/n5wt2qExTF8Lg+af/kxO++R297Ichvz7/Qn6w9BZ1FygKsWw8quVQ1YtRRDPdfg9cDzPmYEhTv43BJZmHrqpJMw4MHwJ5oTxH31tykJkDBvETJ6Xwp//SBarPIi+ad9EQht2ySGc94gIhTtt+gOXYxGyH1x77NftbDqaUZ12PyratXPrU73Y68BGw7HToohf+q0dg0eJ5dOjQUepaasdoWZbqnUi/JPD0z+RLrEofbQSgHVoW0amF6sstbLEwCCiXdX+lWC4pgBFaspTIpNcSNfE/m7tt+rRJbLlhCqkuXehz0AG4+YLeLAQhlXyOzleOxBCAkAxUiRuF4Se3hKea5LqXBm9eMoIvLJKeh2QQBovHT+CS8dfrnocCH+l56L7LoquuZsjUSarXooHKUiU2ebzyu2c4+ltfV+Usnd/onEWOOWfQYL4b2Dj4hEaMfrfPUWLIMDCZef4gQtskZlgMXTJPbXRs22bFgoV0buiIY5ocJFgn/RoL1v3X04zfum2ngx4By06HLnphFAFYtuw+DR7Vrqx8WcsV2Q16KoNRegdL/MLkr1qboDIWRQs1VKNVgGNHSaxSUU38clkLKEulsjrWlMkRO+yzuN9mzpxCuHoulec60a1XH/xSmdAtqx5FU+8e7P/jk1VZK/BDbr3qGjItGYKaBCOnV0kXITyz8kl6L3+IXrcvwtR9eeZecimXLVqoeiDSD5lx/iAFEY7lUPY9rrzjFzrHDWHaBRdq81JtxsLxtsOLXoXRty3GdiyduZgw5ZyBnGHGhTXC2u5dOXHSddUMxWDGgPM5xYoTxOP0mTeTmpT0WkJeWXonjYajSGyKXCC/4jHWPvk7JjSLZmfnHhGw7FzcoldFEVARuPPO24kn4iorUaBR3bXqyZGWAhPJZPTGVAOQ6rPoTaZiEYk5pWQusv8sFks7RJTifix9Fvn3SVET/zO54wRYCs1bqXv1DVKBlDqljCSbhpCGQQMFCVSWkc3kuWPsVfzQt/EqLn1unacyWdlvzBh8Cae6Br1vX6hKWUIznjvoIobfsljbvYQGU88dyBl2QmtTTIPet81XGhWhk804ZyCnGolq16XKGJPnLF2g6MLyWPPOOyybNI2fmCkFRo23zMVOiH2L7qnccdYAvpaoo3DOmRz5/f9Q5+YHHhvufgCnUsSwEgrIpPJm1tTy6gMPsjjYeVuXCFg+k9s1etPPUwTuve9upXw2TFvZt4QiTvO07kB0CZ98SA9GvsGqf1/9hzZLfdlBis5FSmL6V0UJKYWOLMebNjVq4u/p+2bajEmK8bffxu1sfOUVmS2NL818t0KXUcNV2UiAYc7QYfyoYiotifQ/+ty2UDXOpVQ184KL+Skx+giwKN5GwLShwxkzb576OFIum3z2OZxmxRXorO3Zma/ddKPIWvANn1nnXMhPTNHSt/FBDIg59LtlrjqebEhmnjuInxox0l9y6PjNOHNui3H53JsU+evj1e9RnjhH3W/9li5SjLRkMsmf//AcXVd/qES5SsOr1PsBZqqOCx+8f5dCHQHLLoUvenEUARBgsYTY4yrJNDHHVrtasdsQIDEsrZhuK4Ep8WPVMFAtNKKu9n1tqR8GagBYxa1QKBYpFwVgSop6HPVZ9vzddngqxVnXjqHPG++Ta23FzWQIKi5upoUeN12nsgjZGMy9bAQ/rIikXui9Ib1una9owGFoMn3ghZxuxel9y3zdMzFg1Vtvst8XvrjDoHLFz87jqHSNEsv2nj8TK53W/ZEQPn5sGQ2HfoHNNy7Eqvbze9+xSGwmq8BiEr4+FgxP0Y/FL+zmWVsYdfdtBF7I7IsG82Nfb3D6CrAIfcDzeHnl0xwkPaNKSdOVA2nmO9CuHRfedecuBTsCll0KX/TiKAJw191LlS+YMG2klGGZNl5VPS9lDavqE6bL2FUX2jZ3qapwTkph0viVRUp6LJKlFAoFRTuuyC/RtES04z16u41K1mL39AnX23Q/6AAScQevtYidSNAUlDjg6jFqly904ekXDOKnoaVdFgytIfkEY6OaoooS3lBeX7qupS1XpHGv3I0JmTFgIFfctVRpWfTuQzsjCxpNO3cQZ1gxxQrrc/t81SORn88eMozLBiUQneWMudsZdXkDc+c0M/Ku2wmkPzfwIs4IHVVi67N0gXrDIPCZNWAQ5574HZIpBzeXw3TihJaBmUpy8fIVuxTrCFh2KXzRi6MIwO2330JtbVqzwQLJPlxsw8J0tF+YWhaq8hVZeIR+rKoa1fq4oh4L76cKLtLMF11LQejG5TIl1cgvRSr8PXyzXZGu1ySLENLpBO16dMNvasaJJ0gPvoCaxsYdQsYF5w3i+5aUQQ0Mx6TPkrn6bKugIWVRJVxU1OC2HlubBaT4yOnsZuaAgVx591JF5lCUYqm1ab99pp5zPmc6abZ/7+scedqpyqBS8qPpAy7gimEdxXFSnY/cV/PmNjHizttUFjzj/As5zUyofk+f26UUplmIsy64iFNCmw4/+CZBtkAQGNjJBLH2NZx/T1QK28O3W/R2UQT+vxH4xS2LqK+t0xlHGCiqsGXbis4pzDAlolY1Cj1NUvVZqouFXmK0l5hihvmeKn+0lb9EgW9ZNtu3b+OmCZOi0O/BCIxO1WrX6TCkn4CKWHzVxKlsydB9yvWYyZTKMGUmyjPnXkg/O6b6ah/t38g3xo7dASB+qG3vVYYi/TUvUC4NUiqV/55z02zM9R/hindcscCYu5Yq7YmUzWYOugjXE9DRrz/TietylnKhDBUbbc55FzJyZA/KbsDc+RvVvJZzrriU7occqTYs0wcIsMTxE0n2WzRDTkA5HE8dMIifOWlivfqQ7N2NSmseOx0j2NrM0L+8vkuRjjKWXQpf9OIoAnDrbUtIpZJqd6gdjLUfhzTylYGg9nDR2Uuby60ETgwDlWeT/LumI2t2GIoN5rriIaZ9w1oymYgZtodvtksTaVXakiFbh3fqREOPnipjwS3TdfINykJF8XSDgFUDh2PhquvZcOO11HfvXj1bgynnDeTqO29VdiwCEEtnTOeC0aMVKMmFn3r+xWrhl+sfM6D30sUYIrCV8teAgZwu/2YEqoyGY9L31nlKdS+32dTzLuS0ULzCNG1ZTqnLnBkk6qRHI/eUx/KfXcAxiRqSY0fT9YC+SmMj2ck9A87na3ZanUeHLx+rymNygC1vv8/4rRt2KdoRsOxS+KIXRxGA2++4VXmEiU+T+H7FY46eAqjciv+uW2kz6FA9FyWik6VDvKBkWqCpdCuS9SibdfEPq7iqb1PIF2lqbmba1EjLsifvNwEWW4gXrkdjXTtS3bpS2boFvJAO148m1aWrykTlKn44aChiJ2mEFn1um6enQRommdYM20aMod/SxaonInuMmy++hMsXL65uPwKmDbiQMywZsSUq25Den+jPTBkwkDNNsULWr+1zh2Qr+u8q6zj3PM6wk5rGLPeUAX3vWqTs8AXlPnr7bdxp87Ax6HXnQlU+kye+/OR/0fG+hxSAybk6DR2JNdRhWDaVmhijX3h5l0IdAcsuhS96cRQBuOOO27BsPdFPwMKxZWisOMxqQZsWnumpfLKNVKWwqpa6zdlY7X6VXYd2RRZWmajupXmfy+UoF4tMipyO9+jtdlkyrYgYTqlI7yMOJ2jO4Ar453Ns71jP4RNv1E33IOT1QcPoWpuk9Rtf5YAf/lBRM+T/M0eN5qeZotalGLKIW8wZdBEjbv2FWuD90Gf6eRdyhvh7BSG5mhq+OE/KVbppP3vAefzESu0wMO195yLd7Sdg9ohRnJgp0U6ckn09kwXbpr+iOmvAmD7oQk4NZT4L9LlTwE1IAQEzBg7mNCOu+y3qvvVpd/AXFFFk1bo1LMoVdinWEbDsUviiF0cREJHkbTtMJdOplGrea0aP7p+o3/UM2R0zz4vFgtrpKuPBNitbQ/hF8jMLz61oOxcvZPOWjQqwbpowOQr3HoyA+IRJ+cm6+14s18TdtEE32b1AuSk0/kJ0JG2WLNphQRZ4q+1ai75k0GBOxaHXbfOUXkTZuUydzMVXjtWMsqp7sTqMKPjzeexUShM71G5EOxULRXjO6KsYMW2q0scoenD1vhKK+s3nDuInZlzdbQIgKhPBV9nQqYY2pey7dKESVMr/ppw7kDOtuCITaGd/YawFWL0buXLVe7sc5QhYdjmEn+0Brh7cg0o5p/yAlG17MqlMEKcu2bnJb5/tp9k3333pHVI/19TR2to6RRWWL/InLVykxFUqlvWcDlvTUlX/RZU1DGKWjR1zFLAowaQfkMtllaZFymDCCpsyOZrNsifvkBkzprD+nkc5yITcmg8JPFdnlVUHhZ4iUFT7B52dCBbcvWAe5w4bumOzMGPghfyUuHIaVvMlhT4sc7zUhkKXQvUepA1AlMppB2NQ9+SkN6N7dJJhKAKAut+0s4M8Jg44j59JZmNC39tE0a+zZ8mGTiUGjkE/lcnoCabTBlzAGWZSb3yqwCLHrO3bl8vee3OXwxwByy6H8LM9wMql36eSfQu79kjKbsjmj18jkzMoewmun/fuZ3ty/wLvvmDBXFLplPqkMoNFKMdqAqQMfZIhTmFAIV/QJS4rroWUnkciFicWj1WNKnWg9IJSdbr1fbK5vJrL0traSrGYZ2Jk67JH76jLkzVqIe7eoQErX1SsLSOU4VohtmHjWdD3lnnaCqU6Z2Xa4GFcsXieTPpSPOXp5w7k2+07cNjc6Spj+YTrfXXQl/xMMhchdnzC+VpLL3c4F085/wKuunOplr9I018GxAUBmUyRfKnCvVeN4mzDoeIkWdm+Fj/TgueVCCoeZ1oJ3BAeNMXjTMZfB8QCk1PEV6zq4C+gImW/eCrF5ds27nKcI2DZ5RB+tgf49cLDCdwtmImD8a0Gtq19itZyLZnWLOMX7bw76Wf7qfadd1/yi4XK8kMsMsQ6X4SMskDIXjSXa1WmgtKclzq8TJgU3zC9Q9QLSuah35F68deEYlQpNfauB9B55GDFMMvl8mSzOQUucqwIWPbsfSHAIiWpfu0bqOSyKgNQ5ScFEIESOr4fhDgDzqdXj0YemnY9fkVmy9t4oVDPZUJoyLlGgvvDCrbtqDEIPWMx1rgVbQNkmHjVP6VMdVIszeOVvCpZBVVPubZs2FRjh3WKI9oa9XogickhQUjfmPiJGRQCH8cwVYak1Pma7Kyo0FJZkw2PZi9rmLMdW4/HFjp1hw5cvn7NLgc6ApZdDuFne4BH5x2MEWYoumlKYSNe7g0851A2r3uD6xZF5bBP8+pMmTaJDg0NSnVfV1uv1Payqy3kc6pUYVuOymZUg7c6byN7/0oSr67UC4faeP69jm7GE5g1KZyx49SuVBr32WxWAUwxn+fGSMfyaV7O/3Hs05w4eeBbHTtTbm3RfbLqvHjdFtMNdumMPemX+DczTqNOPXX5StXHqiAkzxIpU7UPo+kbsr/QfbUdPRV5sTDKMEifWEPu91m9UVEg0uYupxW3+Zoc6WyNVue3ec9JmUzexxEee0Cs3iLRySfVrwbT8DE71GGm87p/Y9s42Rirb9uijxwKsNQxYsOuUY1VCMI22Nqjlyx6s90VgYdn709LzlULmtwdxRyk6zrTUmxHuRJyzfSnd9dbRcf5bxGYO3c29e3rSCaSxGNxWvNZtSNNp2u0Zb40RgMPd+woNZ8cJX40tfI+hNR4i2w+xvqFRXpXLNk6YqUT2GPHK7aQ0I2zrTkKxQK5bJYbbrgpugZ7MAKXxFNYYch+tfWUSsVqH0QP1GprTYiOxUiZpHvauMWQVB+bRKOJmbYxLJ+1s7M0Dm/Hqjs2EssnqDTmMYoQN1N0/UE7NtySof7kFNnflHAPLNL1gP5sfWwtphGn57AUH83KYEnz3jLodUEDHz32MWZTDMO36XV+LetubaXLhXVs+WsT3ksOfYfX8+GcFqwdrjFa36K3MBqY9OyXKq1EleCkFCezY8CLxbi6Zeft8tsuTwQse/BG/TTe6pE5fbCMIsmGr1HxLLZ8/BS+cyi5gknTlle4YXHzp/G20TEBUdzX1taSTqcpFPKYtqPAxHc9gmvHELqVNtKQipc0YHM9W4j95EBW3P4+5wzpQ8IpQ7xI63ittSNVR3z8jVos6Xq0tGYVBbQ1k2F8BCx77L4bkqih75B+bL17O11llIGUtkRAKLmEgIn4bSnl/Cf8v6RUJamDauTL6i2na9I4tB7KJutvaYajAsIWn3CVTfvvtqPlNxkC0VJuCjHiNkG5ghWKxYuQOqrD7tumxFUbNNoeqMoaq6YquqpVzX41xUzbCMkZiPhWMiMhlMiAMJ146fMUm/5qVEV35XbsxNVrVu9ynCNg2eUQfrYHeGTOfhhhK/H2X8HzLZo2/p5swaBYSpLNZ7hhcctne4Kf03efPWcmnbt0JplIqOxEZqbIulMcc7l2tZVpfPKFlrq8BXU32fzt6jIdHZvU9UkW3LCZs906YlaIecQBBJ07kN/vBGWH3tClm1JMyyPTnFFeYRkBlvETPqfR3Ps+1hWpWjr9vJ5eLV9m48onlfC1OlKnerLVccBKFNlW7tKr9Q4nayl/Vn3iNKNLT3xUpa+2n8ufMrve1K/7u3OlNNmrJLTqEDlNVtaoIEJIacKrhENjmQIIuWv0+GN974mXmNCfVW9lRzqxA/NUBq0nVaKcIt4vF1gig8x28REByy4G8LN++SNz+kPYip3+klqACtmNFAstFK1DaN70Z1w/IJv3SKSSTL81aubvruslVvmJeIxEIqnm08tutnz5cHwlhtQ7V8UKO90nt6lA16+3Z/Mqh5p78xg1ltpBVjyDzMARpFNJamtq1SyWltY8XTp11F5RhqF6LEI53t7UFAHL7rp4/xfHEWAJfJ/9e/chv170K3rUtJ5L30YD070R/d8WoSHLeFXaoqpPijxe5fvppr8qO1VBQP23LOvVnoyRSOCXSgp22oSXwiQT0GnryYiyX4OSHgynACQ0aFVsNXk3PfpY+88FbDNCtuNzHAlsASPBJT3dQc1+UTUx0cUAsVicyzO7XgZTudPnscdyybDBLJonXO7P52PEz+uUMV2HjnXUpjzijriaxnErBplshdas3JwWbqVMIplUDcNEzCBuJxg3/+PPZ1D28KdavvwBLNskHkuqoVw+AcXLLiU0RaNi8cGXPA79UR2bn9lCpms93e8pEiJUZNh0yQjsuIyQVS1+XvmgwI/+vT/PvFvkldV5hn+/M+mYXqBU8z6fJ9PSwvVRxrLHrvLodJ0CjR417ajkWhQoCEvLCmVqvQgUJSPQ1iqqzyJOlLLYK5DQMKBHVldTE1UiE0agNo9UjzbuseQwshmpSkp04lItdfltDX5dvnINA9fTwKOgRVW/NMBIViLML1+4YEJHNgLWhj4thHzZsNW8e1tYYG3AI/5jbbOBxBw1GWfULowj/uTF+UyBZfBll+xQrmoan74IwogR/r/s+BxbhERmVRsgUdTCIoWK6lHqP8YAACAASURBVILojyN/+JUKvpQfCk106t6bqdNm7bEbcU++0X3T+yjBnB+WscQnyLBwPVtZhdiGiycGdoGJkTiIcutqKq5PoegSei7jFm/Zk6f6uXyvRYvn06ljR9WETyQSuGUXzwgoDB2KH7d5OJfhvBkd+eBDh663bCc0LGX8t3HIKD0S1jCZPesD7HZdqdm/E159ggu+1sA7LSHvFEIG9Aro0z6uRhQLqIgh5bat2yJg2YN30+hUnVqbOnfoQND09128zk5MRfUNpEMuzvaqz6KRQprg1UkJVeCo5ieydFVd8JXvl5TPqrNW2kZVCxCVgoC48pczqcjBAwO3Sg2OVRc7GXEv65yAihStlDO2WhNDvGqmImunR8gGQloJOAKbFIYyuZQejmCf+iyqpKb1M3ZdPZdvXrdbovypAcvFQy5SXzxBRGW2J6j+CVAwBRQsg8CF++7+K2eef4hWlapSgoCLWFvI91DYTlX0qE7bcyue8mYSTYAZhqSSMYqtWbZt20rv/f+t2kALmTp1xm4J0t52kIenN5JIO1iGTr8lZYcaPF8awf2oZN+h6ILnJSkUs3ieSa6kxVZXz1u/t32cfe58ZM59uiatzlu0KaJdMQouraOHUzPZwS+nKN6Uk5GSqu+y7tLL1P2//Ncfsn59A3SvI96tnmS3NJVkDCtm8I1OcZ7Z6tIjZXB8TYEje9Yic1kkYymVK+revv76qMeyp26Wqec2sn1ZCx26dMbYtk2tTar5rUpf0rOoZgnamFotUZZvEphaKyKbCbFUUWu3+u/qgLcgpAJUZAw1AbWywrevIyiWCP2Qiu+qNU10KJKRqE2iIaulbpz4yn9O05wFTCSLkuN76ny04kV+eaq7AhtEKwV8EZM6DJJCCBCmMZJ5idDTUOMA1PHTKcZs3bxbQrzbgWWIlAOqpyYfNG7ZNPbqTcw0sGOiNDZVCUFPqUCBgxKNeR5mzNkBRLayvTDJZLaSFLdYaS4l65WyWYBH3GOVwlnRHgwShsE7732gREjyHDn853Xi3uPz+uJY4k1UtVuXe07YrAF4rhRlDCpeiOsnKbkOpVJeDY2ykv25YvKzu+XG+Vc+yL2/vEsJIpUVixOn4lXIXDUKM5dXmygRyPm+y8cXD8M0HWbMeJ9Yt97E9q/D6pLGqU9h2KLKl0VBl1D61dp8lPOR7sohtVm+fUCDIgQUcjlyhQKZlgzjrrvhXznse/SzTzu9G9sey7Lf975F829/t6M0VW2769KYAhS92knWoEtf+hml0KAYeFhY+IYUqCwajECMkdW/qz/FM1IU78LGUuLFam9ENfh1V14lIrLBrjK9qjIX9V5fvOcWBTavnTOwqtNvIxGYqtcni8IGI0RUVV/AImWYiJuYIwlLW3VIAEpKeo6l5geN3g1UYw2mu1HHMmb05eoL17lDLYl0A6YZUFvXXgm9ql5qVV5D27jNNkZDGz1Ol8HU6E75sIKqYYCtRrvqR5UgoS+kPKOa0tWla1j2y7vo1vdADVmmwZTP6SjXX83uSzwRx7IdfC+rG4ZBDN+vUPH0TSjmhcUKlMrg+ia5QkXVZq+dv+t2DXv0G74Xvtmy5ffjOI4aOaxEjkZAbvgQJZAUi/XtXbvinXUeN898G6N9I07/BpzGOtrVmxyZXcXXjz2Ece8GStvihBCPGYw92OLqRzbT6QtdaXS3cfaRXRTdWJyNpRTW3NSsMtProj7LHrkjBFgyjxep8aWKIhUXKX+1DWjTICJds2Zfr1NWdTCXVBEkF7BMaZ5rsaOCGik1KQSq/qZ977VfnCrpSw2/+tFk4Tdt5b6gGMcKhGRdNOl84Vl0PPYrvHvRUA68VWzw4bUBFysHGb2qyprpq5KYvN9afDKEHIpF2rBUKUyV1OT8qhUiRTSxbIq2xXV7I7A88MA9tBZKpC1o17Ezra25Km3SUGl9lTqtQEY+vNhdiDmfthbXQZVFUYnLlKeNpH5tQ6GVGY9m21Q52uoSSVqnZoy7vPr8H4jXyZ5P56YSv8mTpu2RG3FPv8lvF++HrZq/mmUSBpbK4PxAdtA+FbdErhAnu3o9VsJjaymO076jSpBvmPvRnj7dz9X7PfTwMlWGNKWUK+WI0CA7/BL8YoXmsddyx52vsX5bJ2I92hPr2o6bTuvM0ttX0ueL/Xkp341SQxwnDDjZLGB4BQ47vBvDb/gTnU4/hljo0z3MMPDITuqLr0thAiwtijU2fnwkktwTN9PUM3tgv1dH8S9/w0k41cxSZw9lTNzAJ9/WvK+q3mVxF2WiWK/YUr6SzW9VJyJrmZ4Lpo0kBXhEC6MeFvSZfgNmTXv+dskI9l+6mNXnD1E/D32PvrcsZPOKh+l++qkEFVdbsCiWms5w3hhwsTqMlMMExqTEJeuo/P1vhkcxDDkImzrJWGS9/ISAX1hnqk1hWlyR232at92asSxf8aCaQSFNR9/V9UU9Ya1a/xMEVtmHbnaprKPKo9M1TD0USaGzwoZqNVHFsM3hsy1d/Dt4SL5oWhZN25vYuGkTvuezeOEfIYjTkntmT9yHe/Q9pl/ZnZhVixnm8cO4EuJJYh4gDX1L3SSeNP18F8+PVcc36PKg/s1hwsLd06Tbox98L3mzhx5ejuPIflA7xcpI4ZYhF5O96nquu/YdrJoEiY41HH9AE6f+5CvMnvcqazv3RjwnbzipjlIF4pbBxD/5BGmbUG1lDRIEpBybTn6GQUe0V9lQa2uGcrlC0/btyrzy+kgkuUfugslnHQg9joTZj2LGLDoddzQtb7ypQGF7PE6YzZETt2NhimnxusaIUJyqLfzAw5HlTzIdARApe1ky4VGAxVdq+v63L2T14GH0XTRXuXkJIKwZNIzei2byzKwFfOPKURi+r3zkmn7/XzR87et/Jy/v0LgYvD3gYk07rh5D3ktW32Los4aAdkBnLOpNC2k26CSomi0J2vkBjhNjZOvuoRqru3l3lsIeWrFMlQUMXwOJJ7OaBUmlF6KAQdcgP9n4UqteNbv4BAhrEZDSAuwgjumcsErnk51Am9Co7bit2SzjrnmUY7/Wg0P374pph0yc+PmyGp85pifJpPSmYpim3D7ayttX7ThL9VYC38X1Alw3oOKJElzSY4m/q8VTqrFoMXlxBC7/r6vUkiUL6NixIzXpGkrlsvqCesUSD618i98+UeDARpfzLz6GWdOeI+PXQ22cm688mEzew6vkmTDrQ4KDu2PFHEhaWHGTVNohcEwSjknKsUhXWhh6dEc17Cufy1Isl2lubsaruBGw/L9esJ18/uTzjsHu+SWs+Q9BuwaCfEbshFWSsKlSUou9V7XQl2mNur0eKDGiNPkPWzIXLEeXpwyD1YOG0P/WBbqYAhRefInUccexauRo9ps5jTWXjaT33Jv58LLL6DdvHs9MmsyJY69Sz5c19J3b7+TfBg7YoYSUtU9W13BrM++NGqMpxopvXM2iDciK0wMBNWaM2jAgjkmyqpJs67FoQ8qAWE0tI7bsukdYW7h3K7DIQR9asVyVvzzFVJK6pFgh6Jqk+iWpoTLf+7vtQKDSFl0S07xsnY1khl5Ou3lzFLtC9uNy8dRkPhUMQVw5vhxTexdUKmU+eP99TNtg/s2vctFlRzNt8pSdvLX2zpfNHtuDWMzBkpTbUEREPco2lMxElxw9mb3uB3iqgQ+uJ9x3HXOZjS0KYEzZJseYumTXnUz3zkh9Ome1dOmt1LerJ+bYyj5dFonrxv2OMWOOV9fhkYfe5NkXc9w8/ctqEXrqyXf56OMif10XJ7AtSMVULcJKOIRxByNh4dTILBYNMPWpOJabZ+SX2yvfsUI+T7FUVpYulXI5ApZP57L+j6NOP6srVuPJsGQFoaw3jmagehWf5tDDVZmHnnEg9F1RwUsjXzyFHcfk3xbLELA2PQr8Zex1HDZ5Au8svpV/GzyQjf/5JN2+823WDB1J7/k379g9rxlyOX0Wzua5eYs4YdilCHqFtkHTH56lecVvcCo5goqvLGaUkl9cshXrWf9dwEVoxnJqlRC241EipK/qsZg4ar6LRjfZ5EtHSJKARG0twzfvxcCyYtn9qvkuNGGVsagGlAYAARjNapCPpkdnqtSwjZK3g1URkht2Ce3mxPCcxeAptrZu/LfRkc2AEZf9npqkwU2TT9xxEd94801+/dDrnHTqESy/+wVWrfv8sKCmjOpGIh5XZnFxW9LsStVBVQRRsjuS7DAk8AJFUxSQ8X1hz6Ga+qJ1keeIpkIBs6IeOkxbsnYPfV33/be59967SKaSyspFeh5yD1836W2uuvwAht/wBl5gUhOvcMFPG1l8x1qCeEz1EfUi4ysaarKzxayLm6k092Lkw56q4SfTcTp2SGDGHWJ+hmFf76bpxmrYl7Z0kZJY5Be2Z+6h6ad3pVePo/jbgqew03WY0s8UYpFhUQhcsvK9khUpCIlJP0UaF24Fy3RIX3QefY45ilUXD6W1oR1HTrmJt0Zdw8EzJ1bBSNoDHlg2q4eOJC7Vhdp6nNaMHiZmGGz/xokcfvZprBl0CWYqhZ8Vn+U2A/02S31tA6MkGYHWrahymFTeFHkAtiiBZMD+hmaFSXlOwEW0MLp8J+uASWg7jNlbS2FymsuWPYAfuCqrkIek84KIqmxVNbXZIYas1qhVs766826zfxYwanntdcyl91A7Z7oK1JgRz6ncZdasrzDq8hc4sHuZD7cm8c3tzJh6smpovfnmWxp8AotQSkVhyOQp0/fM3fgpvsv1Q3sQT5qkYiY1KZnH4CkNi0oMBayF5SAlLqmvCqh4Fd1n8dqyRZkJYqrMpVDWvS5tqieNO5upS6Ky2P/N5XvggXuVk7EM6ZISrzyuvfHPNLWU1S5W8u7AsJEWjGQ0yvJLvvymJCqSNposuuZtvD/+FwOW1XL3gnE8vBpefqqFdEOMdL1FjVVm8PcaVa8ynxdWWIWWlhaVwUTA8n9zlXbtOSNTtXT7YS1OzTcp3bWCWIf2ympFTzjxKWPRGnoEooCXuoxirupNr7ghG8kkB86foaoDbU3ktYNH0GvJHPKv/Zn4/gdheR7rRl9ZHR+pqy+N1/Rn+wM5iu9tJpCWgipf6/do0+trApSu0sg62u/GRsI1zZg9e+B9tBWjsT3vTngXz5eSGGxOp2nJtbA/DimRfBgaWNqcjqUkLndtwbK4LruXNu/lct73y7uxHUeLIpXeRMo1Wm8hTDAl6quWxdoAR3ZmwuXWjp7VpkrVsmDUsJdoqM/SUqhRXHDHCJk99zhGDH+WmbO/QmtLievHvczMOf+usqJ33nmP3zz2Kt/5wZe0qVtoMHnKvt1nuf6yRpKxkLoak3RCeUmoFNw0AmpqOqnwepVmXF/HW0Bd4izZCHYdmebNZHMCInrgj1L4ukJH1o1n5WFgWExesvtS4V37au+9r16x/AFFNZZ7XGx15CabMPV1mpvLZLMVvnTx4VzYfzWW9zTl4HyGTfkbgXR3PaF0mnipAndedgfr3jiHmsOOpN4dwV1bZnFKD5s5d6yifacUzU1bGXvhoaqcnM9mdSmstTUqhe2h22J0qoZ2R9TQpfZIWp59Xpfc9aQDtUWWrfJ2mQ+vvjompu9pPZ5UYNTMFTBq69lv5k28P20B8fff1Z5h1YNIf0OV72VFs6Uk7dN17Nexml9WFj/GZo91D2R39FfaMhVNXP67SjBIWPS7tD3hJpewBswKhHUx/EIFM+UQplO8++Iq+h91Mm/PWEnSN4gJiUBKHnKcKrFKNvbvVyr8olLYbRHe7T0WlbU8eD+TJryMk0iopaw1V2bg4P3p0jGhbFgEUNRIA0HdqmGfLHai95PcZeiwl7DjHoMHfoGFi1cxd/5xXD78BWbefAyjRjzHIUcUeP/tdkyZcbwqF4wZ/TzTZpygXEKbmppYv2EDzz33PCec8GW1iE7ZhzOWCSMaqUv71KVs0nFHxc6yPBKJOC2ZVmo7NGIEFRwBZtmiyNbYEh2LTtvlhvbcLKVsAZwUhVKdpiX7ZQqyYOXKBGranQhSbSYujpT5/9u365GHl6mFxnIcxe6R2fQ33vg625ryfP38Azml13WU/uSRPNbBbw44e05/auxvKqaeTJI86tR+XNRvFEHGpPXVntR/bQ2V9x3mfXw2+Y9rqUvHsZwcl557iLpOMoelXHFpbWlRZIEoY9lta98/PdCVJ32R9vkm7NeKqtIixQDlslUdqCVOx1tEHV8t7TvVSYxOVdQo37oqbqiusPCMlXVktXes+sLq3YXNatLjpjMwtj9PWGgmLPiY7RKE6cPYMOn3qpXQ1o9uGy4mpS45ft8JR+Bt34Qhm8maGGEpJCiUMaXeZZQwAukDGfiZALOrTZh1wapn3YL1egNffYiLycjW3ZetqBbO7mSFtZ3olBm38OJvV/Htsw+mU9rivtte409vlRk55kA6NdRqFlhVsyL+VgsWv0mnTnW89NwmKn5ITdqiVAiYO+8Yhg55ngULj2fUyD8xbebRXH3lnyiVZaZ4yAFfyHPRBd9izBXPM32GgIihnGbfe//9HZoZ2VHuy8Ayf1x3Gmot0qkGDDuORZ6m7Rupb9+lmv3pG1R2Q23uN0pJK5CiUmmxxLEIhBFmmmSbtxBL1FJ2LdywjlJJHHUzVColndGYMGFhJKL8Z6vOI4+uUJ5ssvmU2RZSarzxxpdoynjcfMN7WNtf4LRrk9yz+FJKH5UYPOPX3LP4TBz3l9y5/grO6zkZgi00rxtAum8a3pzLeQtr6dD7XJKOSU06hm1s4cphJ6jSV76QVz2Wlha5RlEp7NOHFZh5SXfC1s6Yj69V3yk9s62asohjtXh0+S5C8lel+2r2IoQapb8zNaVX5zfaykodSJ4r2atujCj3hR4TztYCys1P659ZLkboqBZM4dUSTa9kCctietlGEtaMW9nc9Jl0NP7mVZjip5grE9rSrTcwOsWg8zcI33sCLI8w3h7DyBGug1IBtv5OTF509iPrcCKW4LLm3esh+KkAy333/VJlWYsXvs3ZP+9DTV2cCde/SibvM3PmsUpBPPyyl3EcmDnzGK688hVVzjns4JAX/+Qxd+5xDBv+AvPnH8+QIc+xYP5XGXrps8ye9xXVsBdTygvOaeSu+9YrAZEEdsasr+K7Ilbzeffd97S5WnXk574KLLPG9qB7hwQ16U6ERgEjKKkmfMxuGyRkq8Wt7MLWVofnPujK2qYETX4NgV+hV22Fg7ps54s9t5NO6FqwstsWIoXvqR6M5zuU/HolxCsUMnr0qukwfkHEFvtHi9gjjyzHtmQ6oF5E5i98jvffNxVAL5j4EIQlWjcPZcSM7cqf/NY5zeSeeIn6bzez8cnDWfelUziqw3Xcv3YiZ/R5lMqzz3HpU6dSW9OdulptqpqwtzH60hNUNp5TPRbdvBdW2PgbJv7DtXXIkCEsWKDprLv6kGN98rGrx/3vx5Nj78ox/9HxduWY//14fctPUni5lfp1oWKaWqJb8SrVsYumohPnhJxUNYKU62wLoFimKofpvoj0QavFqyDEkvKTMGJVOUw5fdHt4kOwGveHwnbCba9j1PcjaPkbVkJYnQZGsgPU/ztrJt6KmY9VKzxaGNlrwUUEq1bg+A7+h3m8WvFPTOh2Qrs4ZsHF7/ElWPMKVreeeB9twHsnZOPrTVWlv6Yly/kkU2neO/2Uf3jb/P9dp392LT4VYHnwwV9imhZLl3zA9uatDL/iKBXoG657ne//pIb7795OwiyrXXPZd7DFuM2EmTcfy7BhLzJ//nEMHfoiN9xwMJMmvsUpp9Zy/z3NJNKtdKgLWLehHfPmn6AuZKVcwnZiylNHUkUBrbfffmeHZ4+U1ibto9Yu90/bj7p2XQkRhXarohRKqevZDzpzzxv7KbW9ts7WuyLNPqr2qeRGV50+YZCogeuqzCidltHHP0djJy3UkvKZGyYpVJKqD1MsbMWwEoyf9+Gurk+fu9ffcssiOnXshGMLsGgF9Y0TXqO5VWjBFWZPcbDdW1X2mH2uN5ObfszkH87h/o+nc2bjODav7EfNyReQLo9h3K9+yg0/fpKW3/Vk4p+/wiFnHchfH3yP2roY3To2M+jMY3e4G4uTdVaApVL5p3TjCFh2Hqz+B7AUH2bzfa10T6SUJkyU6aFha/uV0FOkjJJh4ioXEG1bb1UzFck6pBTWVuwSwaQCEmnu75jsGNLj+u/Cqmcx00nCrodC018J25+AUdkIrW+rlkGY8wmkiJCyFLtw4wzJKgxauod88ZpBeK8vw+5Qi7+6uZoVGSprMcSSsWITxCrKUlnWB/OjGGHM4qPfblVaG6FQtwFdJfTZOODcvR9YpA4tyHnX7W+SyQYMvvQg1cyfMumvtLQKDTlk5swj1QcZdtmLDL6oH7ff9hEzZ0vp6wXmLziOIYOfw467mH4cN3CxDYt0bYwLL+pB777dlBeW5mP/XZ2vLToNVn3wgfoSLpr/J0W3tU2fpuwf96mFbsn1fejSuT3pZAe80kfiPsS6pjjX/PZwxRaRLE3NfVA7Z0OTT4TX3qYTUjN8tBGdAhdFSdTzGtTPCJlx0kvERHgrY3CpJ1e0yOdLlF1pRsa5dtab+1TMPu2TvWPprbRr3w7LslV5RG7AMVe/Qi5ToVSs4IYGt89YgREW1S6nYs8i5l/OmaMbeGBGhnJlImZyPc722fzkxq4sm9rEupe/S8/jnuWJDWN44VfrcJIOcWcNIy/6Jp7rUigUKBSKVWuX8j+dex8By+4Dlv3abWfzrMfoVlePWyiqLFIV76tlLDF5zaj+iIUpcgophYVagY/j0nfEYayZ8Q5UxDPMVlUC6XmqBV0SF8Onx1XfIFj9KkafAzGKHyHGftJPMesbCAstom7Ukoy+XyV4948YXRsxs2v5eGmOriN7ERPx5cat0N6AtRbhNpPsJo+607vAto2IhbJUwYkHhJmQsOeBrJrxJ2KmVv+3lcIkk6oEPuvP+/neDyxyhg8/soxyCW5d8hcGDT5ILYJjr/6T8sgp5X3ad1zL2Ct/zPBRrzB//jFcMeIVJk87kuEjXmLUqD7MnfEBXuiQdCrMmPtVXDfUmhhTWGVyIU3cTJZ3n/k9B//oZD3y04TV67Msmv4s+dw2tYiOGHk8QXk6E6cLO23feTx4879RV9+V0N2osoo5/7kff27uxG2nr1T0h0EPncIvfvQrXV/1Da5cdggTf/ImfpAiHitw3rJvYQsrTBqOJiQpK31LLQXGfvslRjxygnJAPefQdzi6fxYRqXphLZm8Ta51E6bTLgKW/3a73H33HdTV1qo+VEya92HI8JEvKLFq09YiJ48+jIfn/ZXbJv4KM8hS+D2kToQpr41h7Jdm8MsN0zij1+00/bbM5Y904NghP6BbO4dTOl3NvGcGsO2tBK7h07PjRi656Duqaa8FkiVyreIZ9s+b9xGw7D5g6Rs8pFmtv3SV47rpu6oM1sYKk43aNkKESqNsWwJhWpk03vQznKY/EIQJglgPNkz63Q4xoh4KZtDt2pOwMy8TthQJ4kmsujRhczNhUMGoqSWsFNTclgAXQ1ohFvixjljdagjtOgxTaM8NeFteICha0Opjd60lKJUJnCROvCwNIIzQJtjk4nUICN928FyTj1/dRkxsZWRjKlpD5S7vkAldtv/87H0HWKSJfNdt7zHggv1VqWrcNS+rlE2YLpBgyswjGDXqFebNPZ6hl77A3PnHc+ng5+jbo8jlV5+oSg3yLZaL3GZSKbuE8po1bHvhD/Q8/efK/3nWrBdY9b7mmVuGh2mFDBrcE8OdQxh63Hufz98+1pqDfeXx2JKvEbdEc7WBTCHOsEeOUI6nd535uMqsBz3wHW458z+5+OaUoqhOPacJ35emsseDv85z2vdqGPz4j5nzzd9ixSqMuLMfX+7+Aqec2FGBzeDl36yaqQYMOfqvHNS9gB8YFCtp1QuTL8fVM1/bV8K1R87z/vvuIZVMqfiJEaDkysNHPU9QDpk0sQvhEzfxs/sP5ozxAzm95xiaV/al/fc/InQtCitreOiI8Xz7o0cYevcL1KXPpMsXa7hiUH8ato4laG8TrE9z4/KTOeWUThxyUE81/iGvBn0J3Vh6LFEpTC70p95jCR6DDz2C54rIRA9xsVbrUHU2vKxKYo5UkYwiEDNdg/2v6oO3vYjlyMa3FqO2E0GiPRuuf2yHO7Fhh3QfewZG9o+E67IYneoh16rZnPUNWE6KsOvXCf50J6a4RZZNrC9+ncrGp7Bk7HEirUWZrSWIpSluKBI4YMWT2CkTo74GSxqwG9fj58FqNaB9QLDF5M0nm0mbtsqqRI6gyuTyp2Wx+qzT/un3Z6/qschZLlt+n/KuunWJ9Eh6UVuTYOb0P+NWfK4a9yVGX6HLVJKuzZl3LE3bM9S3r9GNkiqnS/oHthD1qubHyiFZlbtMLrv0ad2EslDzBWKOwbTZXycsjsYtFXjvQ5df3OZy4eDRzJ07m6zQbfehx8olX8Egi+8XOPeXX1FaiAY7YN5Pf6OsIwYuPZZbz3uZgUsOwur+JX5x0gMMuu9EGp1NbGrJq3hvM/vSsO1JbhposWVjjHmPNRHv0pWrTs6w4rc2T+T/Xcl0hWE3+6QXVMrv+mnypTituby6DONmv7cPRe3TPdUH7r+XVEomdkrZQwuAJWMR/crCKXdjZGHumpu45IgYsdJV3LN+Oom4QyaAldeOoq72DKy4wQlDj+Rnfbey4fm36XF8I3ZuEU9lrudbHadz/7sX8bX9O9OpfRLPrZDN5tXo45ZMBvd/YYVFGctuzFjKK/E+yGK9KiVhbRclJSw1Q0q1OS1KXln12frfeBrWxhfx3QqBF8eMhcrl2unUnTBeT+4PH5L541q6X38WND8JRnvC1k0Ytd0JN2/QrDKBi24Hg7uBMN+MWbEIPE9ZuxthBbNzHX68I8ZHazE6g9FwNAGt4FpsfOKvoi7AaReQhLEZUAAAIABJREFU7pLAcjzCUJr3RYxam7ACrzy1jfh2h3VumbWWSRc/4KCaGupMBycW5/1Tf7TvAMv999+LY8dYMO8tUglLWVOtXdPMNeOP0oAixm2msJPa5g20eVlBKtPKtrUt1BzaW9oHil1TCkzGDPujatQHXlmh7oGNeS4Z+z2cymA8peGQjFWs+A3efqfCXQ92oJhr5qLBQ5g4cd/yDHt88TEY5NmSSTH88UOxLYM7TvkNb30Ihx0YcMnsGhYNzzH/gZC/pM/mlpOXM+iW/XCsjyl1+D7G+8sJen2P6778Oh1qPSY+Wk9H60XWuYdz5Q/ijH+0nmy8vb4GnqcUuTf/8CXFMsuV4jRnWjGtNNfOfv/TXa33oaOLPiuR0OwceUhZdshlz6q5KbMmvI7DG9r9IDD4Q342t1/za0y7kyrRjp9+NF3NO4h5b3PTU+cw7jt3kHXmkarcj/vB8zxacwOn91jMxN9+jUu/cxTppKH83rLZnCqFycx7mVR5wz9xN46AZTcCy4aH2PxEji4yeFDRfH0tfJTykfRBLIOKGdL3qoMJtzTj2zGc7ifivvsY1NZhUcZvKWJ1b8R06vl42h/pcd13CPKbMN1Wgsx2yIT4eTX6kTBp43RzCNsfAn97GUWX9S0Cq4ApGUhZXDbQfmWiyozFCYo5zVZLGhBP8dHjTSQ6N1Cby5HsEEI3A6No0fS0x3NrttE7FsP0fVKJpFLaS3VHspVkTQ3vnPS9fQdY5ExXrFjGvXe9xpZNMYrFVq4ad2zVCFGayQHZO+6j5twzyb21mm0f/436bh1pd8ih+kMa8NCvV/HHJ7erHbr6KocB02Ydh2O5WN5o1bTWTaiqNYmadaCZT2+8IanjJVTcgJhtMmnyvqO+/+XMo2lX40Locv59x1GxZIcc4+6fLNdsjh0PC9+rYfB//pDbvnMvoxYn2NZ4Coh1iIgjZTtUyqiSYtxJ44p3mPZ8wROvEWUO6unZDmHArJNeVI29UtmhKSsiSpNxcz7Yh5b+T/dUly9/gHhcXKX1/NOKGzL88uc4cvCh/Kz7YszgA2WbU3Qn8+sWh582vs9j6w/kJ10n4L65jb92ncrRztWcMqE7y6eu46kt0/mPLpNoeamOlsMupsfmcVxxeycmThpL3NYjvXOtrRTLFWVCKRqtCFg+/VJY78zDbF2RpUcqpYgviuElDErpSTgW3cccDNnNGKKctOOEiR4Y21arHrB6aiyJ+1EJ4mViX/gCbH4D+nwVNv+ZsLVJ05alf1Lw8B1bUZSDrjGsRFf8bAtW+zogRdi6FfJNyiXZPPBH+GsfhLzMqXII6nxMz9ajkOM2ZroTfqmJTb/L0qGzhdM3Rv6PBmZ3i6f/ayPdsKkxhcouYCmlMO174ljwwZln7FvAsnz5MtXwkkmSolCuTsvUcyw2bcPp1BFX2enrxrowL64Y+RzFskFdvUO54KlS19x5x+MVn8b0H1DFMamH/f4vHXjxpQ+56sJaJQQ0DXH09JR6XJ6zZWuch36zP8cec7z6Nzu8nQlTt326K89uOvr9Nx9ObUpXcs+971idh8sNuOp+TC9g8ZgGYrEKw+45kPnnvKcYcmKJc8HNtfgHnIQV6BGoopeSr4PyghZzO8U+9tVcD6kNK/pxKI2+kMCtELMCZvzwL4oCnsl5FIplrpsb6VnaLuuKFQ8qYGlz1b7xxifZ1JRk7rgHKa8s89evTOGI9FW0bh1JbWkORneTresG0bXfEtY8fQJdvvPv2O/cxC/K47nkoBuZ99oILjtqDts3DKWu6x/Y+pf9mPwwTJ12gib7+T4yCkLMJzMZ8QqLMha5Fp9mj6VP0wpIOWx7qEB3O66ugRjyGVZIt6v7Y8nwQisF64qEcQ+K8iUyIS5kDl8RZAzDxc9bFIwy9Uf/B2bcJCgHhG88gdX/EMJNb+GK72to4BzeiyC7jrDgyj4SOvbETqYI0t0JzXrsDU8SlIqQThN6ORAds6gnxVC2LGJMC98JseIhbk17jHia4otriPe3sOt68vjsP1NrmNSaJmnTIK4G1FkYtvSjLUqVCuvPOXPfApZly+5TYiL/vQ9xevfi3ZVPsN+Pf6CNEqsGfoI2V495iUJJqLIoa5KenfOMvOpEDHcYofgxVWccyAIrxosjxvycRbOXcuHQs5k/81ExLdHUW/Wndk4oFOt56vkT6dPYTQmZYpbNhIn/WFy2m/Bgtx5m5S3H4Lst/Pze49U0uoodU1TBQEacGhXMDx7BOOhn2C2rOa7hNZ5/18ba70fKZruckMnWMlPdx1JyfDXYmvHvPKrGkgoVXE+YC1Tp69rDf6pVv3jcfOJ/KtFkSzYgX/AZF+lZdlzXhx9apkcSS0eXgNGjX+Jbg/pzYsdxfPznHzHh7jjHXHE0A7vNpHntaTwe782jE6/jobk5CtZ8EsFyys//lj8fMI1j4uM45aY+PDJ5NYFrknu6nstWVqit/yk3Tz+mahfjV0cT6x6L7/7zeSxRKWz3lML6W7/DX9eC9wyk1ajFUMW9x5jDFI03zItIpExYCrAO+QbuxtWE2zdL5YpgXY6KZWKHAenvfZOweTVmuyPxNz+OVSzpzV1FymkuYZCAchmzZwNBcyvBxgCjLsA84GgMMwbtDsT88A78XIiVNQj7d8DftA0zLyOFDSqtAUbZxmznY7qm2nvSIcAsGWxbVaG+fYw3n95KU2CoccQCLmnLUkPIxHTWdAxsy6HgeWw449R9C1juv/8eRcvUljp6AqTYur/3YYYH716N63mqbqxYTud1Y/+DGjErQxVLQj68ZWhluU+CUWNP4mfn3sdRXwgYMuosNc9Z+OGzpz+keOHyPPlTd/oDikWT99cN5fFfraAU2Gxcu5rWfaiBv3LJ4fh+nnPuPZbQjKmekjTwZccR2raCUcuJ0WndKoZvf1UN7/JlToTMjPB9pn9zhCpzxQKD0X9cpIBVGimGJxmKttYW9X3FiVE6K0G3ugyGHeAHSTw/Tibrkyt4jJsXjTFu+9Y98vBybNtSv2QWxtARz/PzEf05vPYG8AzW23O4/uY/cOuoB1gbzmP86Oc57GcHM+KIcTyxYRLf7T5PVh/Kf4Cw1uae2vGEySRvPHo/zW82k6o7lq+ctT9nHi/jtSWzlIwlp23zpcfiScYSKe8/zYylb3YF4WaT+J8qGPEUYVjRa0vo0+OSvvhbM1TcBLGwgBkX8bGDXwSjW5z197XS7OZpOKKWXv9+PMGH/0WYrMWImRiZAmHMx2/1MdLgbwox60xIp3DfC8ivKpPqYhL7/gmYSXHBrsXMv0dQ2oCxrYhfkZGQphg7EJoBnmw2JeuxTBKdS1jxGEHF4O3XC3ToalETj/HhK81sU+OPfTrbNmnLwbFkXkxcz79yEqw+5aT/dUO817HC5GyXy2wW5b1msGTxW2RayorB0JLLYxlxbpx0JKH7MYY7tWqCaOAFLnc++H/a+w4wu6py7Xe3s0+bPpPJZMIkJAFClY5SFKUo13LtPyqIXJEgQSAQVJROpHdBhIsVBS7SpUqVXgWJISQhCekzydTTd/+f71tngpUkZMqZk+88j5KZOWeftd+19nrX196vFsvmH4B12Qb87PKb8dpfd0Nd03xc/7Ov4LKf/AYnnHIkPvO5X+HJp7+JS8+5g/vdczyVtLEoJbDc7mDeoghX/tTDccd9F3bcxgUXjJ0A/v0/m8738a2bP4yANjIiZ5PSBakCWEedW8BZi/+kUoZZMTrg2FIQ6SiFLjf5oYIsOqFQYmxu2nbo2WM71Dz1GnoCB7ue+j30fP90YKcsWg9VmU7k03f9eo6tDORCZPIezrlWerUMPnn33XMHdNOAZdJhKcCxM56DZgS47vxb4QZJGGEO62LXYlx4Ah7sugB3XvQmPjX7Q/hK449x+ZunINbShi9M0nDyjFlIpQ6HRYcBnbJ/QpgUU/GpoM7A9Td8lHvmUD+jgSypGrtMLHQQkxjLMLvCnAegWeOQvHcNPG4pTO4t2ug1hOkAk749Bcjk4Zcc6Nt+FuG7L0Crpb5R28Bd/gaSU6dByy6k9EropgV/3VoYtTZKvSZMUtBoqEXUm0VExZXNGvx+C/3P5+H3Woj0CONnbAfNqkFkp2CsfR6BW4KW0+AvDaElAT9rqDgOPfi2htJqH6mpEbTAxCMPd8LksADVrVF4XsNq7hUbYaJpoMYwYUWqEZlp2zATNhYc9qmRIZahPA3QtRa+2YSsF8KO6zDdAo47ZVcY3q+AcAkXBVF85KSzmnDhmR7OPOsgXH7RbTjxlK/hkovvxQmza3DTlctx6hn7oJibCsMIce1V9+AX/zsdh39tDdKptXA9C7ruKBEF7vdO/1XicH+b5yO0vocly97F1pMn4cIL/jGA/5/u9Z+R3hBrD75/Y683+P73u+791+/IVt6Rv98TIcngGwZ+8OaduGyPb+CKefeUZSZUdhIF4Si+RFET6ixXClUXOQraE7HEyMKJxdD/7SMxcVIHIidkBeRls7+PKSekoCUpI1+Z/Y5Xy0HpTM7DQNZFj/6Ff6vrtKn3uiFMN/d6/4zpUF2PrkvzRNc79JBPsIxQjDITQx/HzXwenuthl+P2wMyO74NmIFoTQp9Afc41BKs0YMKZeDZbjxtPvw2xxNbrdaSoXw4fubwAgZbBzBMmo6mlgbOOpm0zlTczSq/PZCjG4ihiCQJ0dw+tCu2Q+m+r4GJbZ+5HuCRAc28DBjq7OCuLCmEHW6iPP7oFmudC90yEcKHv8GV4L90JNzEB8e12hN71JMKeAiLPh0aB8gSpwASIbBOaS09ZBC0VoFhsho11CM0YivM9ZFcA9XvEkJ7SwNJNRErRwCqEuQhhV1kbkB2wGnLLAbvGg91uwnFinGJ8+11dVNLHbq84dNi66ha5MvKQ1C20awbqDA0Jy2blCMu2YDfU428H7D8ss/YvWmFDTSzbbbsj2tvrYIdXwA9dBEEJupnEOecfxERwzhl34Nr/3Rkr1qxGcWB//PTymzHzlINgxJegMLAnbrr2Tnz3xC/jogseRk1iLQfmKezCriEWUStr8SiBa7Z8AOpFbmLBIgMujlWZHWQRutfhwiuoE5t6bezmMxrEctdVWyOZaMA3f7sLPN2EVV8PxBKImyYuev4mHj+5CzkxztSgn38ecrNVj2yH3GEUY9FDxLQI6bPOwp2/uAm7fOQj2GWvvdB91jloOOPHuOXcs/FZN0LDLMp9p+VswvESKDkGBnIl5PM+eowvCbGUieWThx7EGWFUHEkn2e/MeBbnXrwrIiOJ2/+WxXHTfggt4+FX2avxtY4Alz6zFEvu7Od1ynIens+iqZ6fwbePbUHLuAY+IJAVyutZC5F1+rHn9ntwnxxqkkcdJEmEMtM/IMQyLFvgP160A/OQf+Qd1HQVYKdTqqGWRxmailxov5nwrfGI8iWANLy6AhS6PCQ+cQiM7N+guV1ASUNE1c2U2ZVbCyQjgJI+4hMRrlyBqDkJtB4IfckfoU/9HPIP3Y/YXntADxdwIlNELRa0OLRsJyKnGeHabj6oeCb1WYrgrTPglwIkOzygycTtv1jH40pBR4xKz2mNRoBjAF1hgFbDQoNuoMYyuRcLHYz0mMEZYnM/deiwoDrsxHLwvvfAsBrL3Qqpf4UFLXJw6pmfxn996VEctFseYWjjzAs+g4FeF5fMuQ+JRBYnnfoNXHbxH2DpJfIUcI92yoqlbNvA92CYMSCkSAt1dKZJVA3FlOQLndbptFeDl974OEgB4O47/oB0rYFVa94rlKxkYqHZfuiGHXH8/Qcgo9XyxqNZFvZ/+lZ8Luai9oLzoKdsBoRiV9efNAv/j5aVocGj2MuF57LF89xv/w9/XTAPB7sRVhy4Nz566Kew6sfn4I/jm3HoO0vRGLNQ/z3y21JLVMoSSaBQBHr6C+iMVFDv3xHrxmL3n1btP19zc683UhYLZd+x6Cl8XPxgJ2bteR7Ovu9wrHk6wM8vvwPe43l8/fdpNNR9EUG5bUEUUNyriGNm1CCVSnFxpR+FeCG6BjW2hpqYjjorBVtPgfwdB7T/mNc4ZVJSgy+qY6F0Y9/30d3TPywbgVxUIdCWexW9t83FxHQtrGRc9Sj0fejUlpjr71T68YQjWzje4XW5yHYHaPjMIYi63oaeXQXkSqDcJJ2IKaS+KGSxUIGlDi1NQpEWwkKRa/tCiplQQkCrBS2bh95cB+QLiCIHQZ+NWE0tvHV9iHxqMR4Avg57152QeWge7O08vHTXAPY750C8euGfobvK66A0ITRktQh5PUStYaGOWmLHbcRoFLoGPWbDy2Sw7Bv/OdV4c9bEsBPLxz5MRWXjOQuMe9xrMYRRCX44DRdesAMGcgEumnMLZv3gq1xJf+2lNyMk1V5iEVLiUaYGND3J3RFJ8I2sEpIuQUQQ0kmbThJUG0P/pY+o3gmZnI7vn1nEzJknorunDz1dK3DHPQ+OCYuFBnnfddOpZyaOeuhQ7lgY6Sa++eRNeORzJ6H1T1dj5nVX4+XzL0JHTw+aTzwJZscEeGHA2R4ca4oiPPGzX+CAY47EFeeeh8YJHfjYOwsRi/modW1eqErlNED9yWTtAUUnjWwhRHdfAb2GknoQYrkOP//5dZjQ1sbri+aCEkfOuG0RzjroCvhOEkYijXBlF27XL8MjF73IaaqRH6I2sQRHHbcHuyt7vFXorb8FW6VsJGJphKHF4qLLKanEsBFEtN51HD71J/x5iqmodgYFZAYybMWIK2xztrsNf7Zj9T3ofjiDKVtNQOjQMxEgorl0STafMrIUuTg1RUz573b4ViuCRStA8fAoEQPiNox1/XAzAfS0qsfTE4Be1OA6gNWuIUrrCAsutKIO7PIFJXC5/G5o9dOgrV2MwKb+LMRMOuA1IIx6YbZuheL8lTCTgD6F6mVszL2hkzXKdjh7T+iohR7P460fv8htyimHqQgNnVqAZstCrW4iYZLFYkKzDJjxJDKdnVhz1Dc2DMoHeMewEwuN6ZD97oNmpjg4TD1B6GG64OIv8QPzraNuxzaTYgg1SsFzygWPtClSKJpyw+kKpBfmcPyEXUDkDiOrhTfQgM1HIhZdT/DEU243xRxKLnDqaTkc891T+HN02pwz58IxQyx0ij9shyfw7Uc+zcF1s6YeME0kLAPnP/IzxK+iZIQIb559PnY558e4Z/YP8blLLsK8783CLtf/lDe2u+78A5J/fhbTdGDSN2rhO3mU7lZWHSHZPamAyZ9naWQEYQy5fArZfAH9OR+9hlgsg8RKkvmtLeM4ccIkZWlDwzHHPIvT5+yBtqdnIdP8BdxY7MD83yxjZYlPf6aIbadPQqbUi2zLjZiYVkkXUZSAH8awvOhyrRGRC02FEdWjqDvoCwOcNO0SPoiRVlgum0O+WOR+LPT8CLF8gF1uEz4y7uF7kF/Vj4ltE2BSV1bPoawZRG6JK8K4nYof8v5TShYx5ZB2PtqWOl2kiAuaDXhLQ6AjBgs5hB4laATQPFIkL2euJnVEMQ/GuFpExQIMI4GAss8yNsIcyR+Su54OyibCYoCgT4PZGsHY53Dkn3sCdmwtFt/Xx6UcVOc39UekFG9zfYvhZZBfFOHduxch1COs1DXUGSbqTR1p217feIxqZRasXoXF7QamHjL05DIyxHLAvWxdRFpciZ+FHFpGFJVUKh9rPKt4AWnjRBqZkFSaGucq0TAk7vVUcSRZI/SAUnkGB+rps1wCqKwVTmvmwg12uy1Y6GFZ539jYns7nx4u+LsA/sa6X0YjxkLPAo3vk9s/hkhPYsazn2d5idMm3oXu2xdgx6AZqasuxSNzzkfH2n5Mv/JS9Mz+IZouuxCXnXoadgpCbBeEKITALt9PYuXVLiyLI4nQwhCZ0MOkk1WvBpLUJ3eiQz1Z8hF6BoqcGdatf1EslrLF9oubbkBLi5JnoeAn5Wz/z3FPI3ID1r8LXEqbj3DkUUm0TqjHO/gdJjethWmqDp5RFMO7WY3rkKhjh+9TPREdgHT0RCZs2NijZl88k3scJ027eD2xsCusWMJAZpBYxBX2fjyx+NHfbwKN/Otb998xjf4H+7D11pMQOg7HVygOpkU6Ai9QcVyNMi+poNHFpC/XQ2/rQLR0NfKuDSvvwugLoe+/FbTMcoQrHOjKYw1YGqKU6gRJqf2w44BXZBeb5hqI9ICTQ4JcyBpflPkVFQwUVgeItwB2K4Dx47DopwuVJaQBU87YhxsAwmqA5q6D5ofwlvRgwR1d7DqfjwDt8SRqNQ3pWBwxSkagr65J4T7nH4ufh5JgRoRYDj3gLpBguxblWDWX24SEFGD3EPopGIaDgIobI5IZIC8gkQtJkngIyO0FyswoQSM5ao3cYaq4T7XkpTB1GkFQ5IpSqt1gNxDVm0c63pxHp4Nj8dSTT+LAAw/EhX/X9GssEAst/U/v/BSOe+oLuOGAmzjl+KWLHEwLEkhfcznuPeMMHJz3YFx4HvKzT+dIk0fNhkhQMgSoiQ+9EvE4xwY0yjAKHEw5lfDjpqhMzEGow3Ft9Od19PTmmKh7xGJZT6y/+tVNaGokbTUdhqmDPCMzTiBiceG7HnbaYQ0+/YV9sFq/FI1p8mNTzCpEEMWwoqhOnx6n3lsIQx0DgQE/ImkNUoqIsLXRiI70rpiXeRxfnnoRx1NKjqs6SBaIWPqxdi11/6uO1+YSwHCh8PE9mrDuni5Mam2FQRs/WfJF2rgNRI7qIknSLetKRVhWDE6UxR7f+xC8Nd0o9AdY8mQGA31Z7PeFcSw5VVquIf7pfYDFTyHKmtDJDVY3Dlq+F1ptDZDrRhRrQ7R2DReXhY4JMn38fgNGghZMCGv3g5G99zHEtwEG5rnoWVhgS4Vek0+eBisR52xCSg4BJXm86+KdJ3rRpxnotA10WCZqQK4wA/FkkuO18ZoU7s4t/rcwDgXBjAixHLTvXWX3FAXXlX+Qm1NR9hb3gaayVWqOpDK9VHof6V1RlauqvGeJSvodWSxUEBlRG1fKBKPUT+rTQn9TcRwlHEevEGu7k7juxhSmTZuMXT60Byxcj3MvzPBfxwqxHDr9T4iRqI82wMWNMJLomeMjdeWlKLkBCrN/wNkipCZN1fYUK/GjCG4UMcl4UQibso9MC0U9xLRTiMTJD0uYKqUCj7LBPA39OWAgQ3LhBjpDpXoqMZbr8Otf34SGhkY+vZI6xIsvr8BNN76DwF2F42fthELtzzExNgXtibUq9V1z8UZ+Curt3VBrbYW4WcuWtOfluDg172ZQY7fA8bMsZR43G1jckNwbSbuGiYUKI3P5AorkCssMjBqxVCoJDDW5bLvcx8Sj90bnL1/C1I6tOHOKlY3dshwS+UEc8pxEKHoBep0CilGEvWfsAG1hN17+00rlaooiECVtt1cz4juPh9bWiuCvr0PfehKiQje0wIPuWwj0PDQzBo2CL9O/jujNmxFQ3IUIpmDD6XVh1wN6K+D2prDqxTVwMuRlULqJzvgQu39nD+h6HIHmQPNdhO/2srWz4O5urCQpK8NAjW2jlupYYgmulyJWIjHKO0tLNwjhByUZ7fjjj1eBi2F8fXL/P7IVwY08NXJn0URRkVnZ3mPaUEVIXNtCjhma05BKe0h+JAFdKyIMuecmE4rq9kmuMEqwo4p7IiD6mf5N2WLEWAHy+RQWr/4WZ4nRq6evj4PbY+m1b8cDaKqrgecVYJlU5mug9ydATxAhTZW0FHsKDdW6mGRaohBrfAdF2sCMCANOhB3iFkqmgZ1OVT23KZNMuSM1eFEdAs9BwdWRyVGKqwfdMNEZvH9V7ljCcHPHus/eu6O+ntKDdW5Wd845f8K3Z2yLhfkLUB+nZJIinro1QtfqEub8qA25fCPSNWuxxPsc6uwpSBiNbJ2wqiwHgVWvIccLWczWyYewqacGPRkxW1kspSLy+QIKRRW8X7tuwxbLlkICmzuf/+7zO67w0fqZZvQ+mkV7SyMMapRHL9Zt81i1gn7wSyV4lEGpBeh3Xdbeo5gwp41zBpnPhYpWpGHbzzTz3lRcqiF5+CEAVeNnI+jbdCiFYj9kzbFgTQ+0uIFo2lcRPvUHRLEQZvM0FF5fAnvnEPnFCSx+blW5LxUdQHTs+qNt4LsF6FYSWuBDC0rw8zaCnhwW3N2DgZiFHj3EBCuORttG3Izx4YX2P6d/AI+lqS/Wxr02lWBGhFho6Ifsf6+qOyH3FQXdKaBCvkFyeXGQnvLuKFVcZXmp7gdKdVcF8MlloGpViITIPQa2VkrQ2J1Ar8EukeViSXIHeRpu+O0O2GuvPRG3Y8z2mYHcxqFZIe+67Xev4eYLehTJanGYWi96L+AepyrFml2Lyphb6zmYfLyBRD25CVW8iRIcgkCdhtXvCGf2yzCJez65Ej3kSyYGci4KJdXWeI0vxDK4BPbZZ0/U19fxj6Zp4p1330YufhWC0OFsrYRnod2agEQsh0efWILDDpmI/7urHzsctg9+eqYJy2zG5VcdhO8f/xfMuWIvnDn7dVx8ze4ca5nzoxfwxS9Nxq4fnqACsqbJ+lQUvCfZ/Hwhj2wmixdu+WmFrMjqHMaOKzy0fH4SBh5ag/bmcUqynnNcyAuiI6KYC2dqucgRyfgu8pELvzUOTAwxad8JaNlmK3Vo0IF533qSCxXJ9d+4ay1SezUjeKkf5if2AvJvg6TDjK32BFY8CmR1RNRLpaTDW6XDHKfBr03DfTWLKKXhby+RgC4lPlFTSepZr2HfUzqgGTFEhgnN1BGuXgfNsBD0e1j4aB+2m7EdEJjI9froenAd4iT/wu69CN1LluLlSSTtsmmvjSWYESOWg/a/Ezq5qDhgWRZGjMhsJEuF5NyNsgWiih4DKhQidxc3/1R1KUo7XxEO64/xJkn9xx3+PEKX30M94SlGQ6REG+q8t10g9j3VQzqKkMm8VyS5abCOzrv33GtXNOevgEVaXgHgui6KV1LmHEVed3cgAAAgAElEQVQEWbsFXb6LbX5AhECdMskVqLTZVCMhRSSU/MB5+PR7wi6k61GD1QQ8slicGPoGSuwSoyuvCT87OjdcYd9KVsDXz7gCdbV15UwcA2/3zYLjDSjfdqQhk3OxZ20ry3LEDY8VcV03gYVGG647oxEaWnH0URPx21/349Qfbo8FC9Zin30n8ecvO/sNTN7Gx7eP+zCnf5P7wvV8eK6DXC7PFosQy/Avih1XemjcrQFNuXEs2cIt7mk/ofoVSjFNxjhLbMKcD7HaMR2OI9QhpFr3CFi5YD7mPjUf/3Xcnuyh+evRT7O0Cp/nQqDtgAZoGSD2xU9AX/1nBC0HAYkY9K77Ea2gdWQgbE0iWOBymMBspahBLR7/5Tu8Lvxyz1c6Ph92/Paw4y4i6v9ek4Bm6Qi6XGglH6D6m7gF3w2gJ5LQljpY+noOMV9jEVUa67srV2J++2DIYNOx3RDBjBixfGLf22GZg7Uo5N9X5EBmWegVue0nTcYf7q/DVz+dR8lPYF0hhra0g8XLTNz4+9W45MwmGKRl7NfC0Hv4oRxsKk0SG1ySwSd02haV3InvhZi3qAHPvjIR+33kI7ypjrVukpFm4eNT7kJtTQM8dwCkYpe5WFldtATHzw4RkQgby+Lz/3P6tfo3EYxSM+ZjFP0cKkuF/r9QTHJQ3/dLyBdtDORdFEvUqdPEGv8/NwDa9KU4Mp8YLlfQEWdehXQ6xQkiph7DvJ4Z8AJSkoiQcXW0xvfF1tpriALKsgOcUh6WY2LduM+jPr4zYkZKWeZUaBdZcNwILz77Gnb+0BQ0Ntejr6+ApoYkH5YMkzJ3QuSLBeQyOc4Ky+XEYhnuFfQh0uSyDbSW4kjW18IkWRWyTHjOIgSlInTbxISf7M5JGJFTAz9ogOOUkGpIIAxdGDoVNw5AwwD+cvSTSHOqarkFbtlDMOUz9YBvAG3N0NonQyssQLi8H8jpQLsJNz0V7pNvw6wHHnhiLQJKSgooSUlnP00mCjFhPHDwlyciJJVi20bYWYI+qQGBQxm0gF4y4a7zgbSN0AyhBybWPlGEEZkcr72vuOH4ysbi/e9IZsSI5eB9/wjN8Li+RIvI12eyvIuhpTjWElB/EA249JoOfP/EpVyAlncaELfy/HtyOaiNUQXwAyISTuMsB/tZ7VgFtZSsi3IR0XvXdFpYlz+KNwHyjw+MMVdYU1Mbrr/mQdx8SQZRUEAYxlH6cwH2Ph5MkosAcPJlTfj8wS3YafJKnHtTLa48eTUH9ClQ/NIr69Ayzsbvn27Gj49QabH0KTppFws6rEQKpF1FLYkH8iEKBUrI13DBzY04+vC9N3Z9bfL7hosENnkgG/GBI8+6Gul0mn3UWmRiXt8MBL6Gfm5Ja8GPNM7y2qtUQrouhpff6kZy521Qb34MNdZUxIw63haoB4ZKPCF2V4cfTrNnDVUlehi3qNYlQKlQ5FovCuAXcjk8L66wjZipD/6WT+xXh9CsR/Z3i9A+der65oJUt8IuZPJd6UDb+Tvi3RVTMHErA9f+xoau5eB5Seyyo4v5i/ox80gDOtbg5aMeQx2ZPay8TiURtDepQ97Uj7fA3H83aFRwueyviKwiIkpBpx4rcQuBkcKvfrFEdbxgp3/E1g/pgJEemEEhA01HfZOGnb+5K5LNNYDbB42SPpb2wWhKQk/blBaKsCcE8jo6X3Fgx0xWRb/vP2SEfXD08A/1MCOSFUaD3Xf3m5FM1PKJjCX0Od1C+fn7fuBy5kXhQIvT9lJr0jCcCPnAh9XWjuaTe7H0x33Y+oI0V5X2/lBH608S6FkwgLqdYug+1UHjJbYK3HOasa+y0EKlv5TPJLCi+xg8/tgjmPvmXOyys4vnXgzHTFYY4XfLLS/g5jkFGLqPgAL1voe4XWJi5XuGgYefTuPQ/fpx2jU1OOsY4MbbHWw/PY4Hnklin11CfPXAdbAsSn2lWiDVypn6YweRyRLtOcdCpqAjl6fUbRtzfleP//nqnhhLBLA5D8b7ffaIs65GbU26nIloYW7/d1B0I7iuBo9bOxiwDdIFI2HbEPXxNAJOLdYQhBZWOPVwQkqqD7i1ASdZcGo4bTRkcYawYGN7/0B8fNuPsdWTzeVQyOc4gJ/P5yXGMlyTW77uxz/aAK3HRfSUg9oJ7dAtHX6pCI2eFyL+Uh5RzMCEOR/Gb+6swde/NAG/uHkpMoUJnIU544gaNNQ60KJ+aNFKvPitB1CrURF3BIMrK1WKP72XimO3/1QDIjuC0dwIlHoQFSP46QTCNS6u+9M6KgunskcmFTvSkNJ1lh2LQWM9sIaPtWC7Q3YESisQaCl4by6H3ZZGlCRLi3YEE15fwL1a9JyFNW/4VEqDuGXjntw7w4YmWTAjRix0F4ce8DAH6YPIhqFR0N3iitPe2QEaLwOM5fug95Zn0HBqEg5aYGAVus720XoenfACeNkPw6x5GSFJu9AEBVSsRrEUlZJMbWE5HsNxBPqMOhG6no2Fy78Dzy2iWHKQSNq4+KLLxhSx3HrLi7jlIsp4I2kPSkKg029fuV4nwGtzHUyblMSy1Q522lbFpUivyDAinHpNHFfOchAGKeQcirRQDr5qD004hVEd/MDljVLJ5bvQjXo+Rj9z/+phW4Bj6cJksaTSaVZvoEd2bu8xcD2KhQBOECFhFBFoEZK6juef1bDzHnWc7RVFcSzrmYhbf/NnWEGEw07YnrXviq6P4lIDr76xEB/+1CQYDcra/mrLLIyvbWF5olzuPVKhOMsLv5fg/XCumY9NTkIzdHhPDKBpm8msOwhqyuWQpUIHVZLQd9FxySG4/xkbn9y/BY+9msdBe9bw0Y4q81+/8f+wx7EHAOjCc0c+hAaycKksgsogygdqOnwEGrUIoUMGsOvnGxF6HkwzBjfU8PP7VnF/JSKQGkSo4VJxHUlQB0iwK+tDZ+wLze0DqKbq3RUw6mthpFPsdtNNE9oaH6VeB0Yj6ZJRJpuGFW8WUW+YcNauw+M172kmDgemI0osB+93F6dccqYX5/qrbmiqQVeAQikO286XCyCVTljONVFj+/ACDYaWx6xziththwMxfSsde+/7qkoGCCnSQNdR6bPlqhc+LXIla6Bj/gIXA4VvIlWTwsMPPIQ33pw76sSyKZbAod89B9NTv4EeZlWiAiwYWu/6dgEnXRFDc7wfq3OTcd1pncjlYzj5yjr88swu5EoJmEaE2+5bh9aWOMY1xbDjttTDQWkKeSHpVvlwaLPzkujpp/CgzXP0zANrhmPdjblrHnHWVaitqVGHFc3A3O7/gRPEUCy4SNjUCjpAnLvPReXkER3Lsy3wtTS7Zh9++DWkrPHIFF3svvdE+HUlzH28C9t+rAlrl/Vhq23GoSNqx6GTj0bCtOEFHgq5QtkVlkMxX8QLtwqxDOfCOXBaGkadhvhrSS6O5PAI98ghaRcfYeByptj4sz+CIGpGFCW5JGLBE09iyZ/mQncDJohPX38ENKzCU998DE2UscXNtpQjn1+071E2JrvFyFsV4UOfaub+Kn+4Zw0cLQL1gCUiSVJxs0pSZ9c2FVfseNr2iFEiAX1+YC1AxJeMw6C0Y99A4Y0MzEYTWtpG0BXBSxl4/k0P20JHgmSc3nkHr0wc3pKLESWWgz5yG7MpZyppNnQChmtSVNX9qT9J4LzZBSTterhujuXJs1kL6XQfFz9yaQr7KqljZMj+bg5Ek/gk18joKtVPGSpltxiRjYk352Xx4l/2wfj2DkxtuwNzLi1tErF8atv64VzTG7z2Ll+ZjQMn3QstImkPpfVlGapCnoA56dJ2bN20GG+tmYKrTlqHG29fi65MBy6YuQ7X35ZDa7ONp95sh2nmUJ/WcfpRCkNKogiiej5FB34BRY9EKC0USlQIZuGZ+6XRF03OkWdfg1SSCJr6cABv9JyMN1etw84tSVqNsKjwl9LgqUYFEZbntuZeQwG1dyIFiSCEy1ph1JDNQCksslvMDynuR7VIFJo1cNzkc7kVNdWx5PM5jq/kcyqA/6IQywafk815w8d3reWShcQbNYiZcWYCar4Wlii+W84HCn20X7IvIq0JQZBG6JnI93TjqYtvZWuWtp7DLvkkdCuHx494FM26qlvivYvLLZRALhc50rdFVMDMVXzwIg2OFqLEIlekVQKWwqe/9SLgdve1MPCxLzTD2r5FFZYXM9B86tlSQJAD/IIFTY/DHdBxZ08Jlm6hWdexNQxQlI9WJxV3/jlctTlQbfCzIxa8p5EctO/tqipeI/4tV35ToSO1peKgO7m4Ylw9znGSMruzIBt7Cujv1PeesmuoUp8yuqmuhawbpcnEgQPK9C4H9kkllmQ4li2nDXMdk8xAzsKixzaITUW94bmVU3H7FXSPBYQBxY6oqU+W75b1i4IYb1rHXzwe15/eie9d0oTTvxlHIbsYV9w1gf2+odbC6bKWpeHimSvUGYr6O4S1bCVSLYvjGejPm8jmSDaigYn86T9Ke2IilnQqxQWStO7eLVyM3tw70CnpRKcDkqq5Iuu7qzCZrUqXik8pizHS4UY6nIh+iuAGPhzfp27GHLDVYhGSJp2QIxw76UyYmgHP95hQKL6Sy+e5+v6lW6+tqDVZbYP5xF6UnGHDfNJHPF3HLYD54FoqcdMucouF8LHVhbsBWhrL31iJ1h13wuPn3wWzvQEHHnsA9JCKWHt4K3r0yOfRrPFOx4RDrRLomSNNdlZjjzT0UqfQcoWer0WgoyKpwVEOIZWHU8Ue7X/UFq6RiYe6TWn4yo+3RzSQBdbm4XXrTICxcfW45cHV0JIpxBIx1FhxtBgG6jTV0pyC/mQtPVwc/ud5RImFFuKhB9zLFgdXx1OVPVUyc50KJU+QuUn97umd5FJQdRhctc8UT4yv9MAGda4GG36R3Av7MMuuCmqMw/+mlqJhiIFcGitW9qBzoAPja5fhtfsSY+q5+NJpF2FieAMi1lvToFPdj55Rlly5nqevz8TCJTraJ5oY35SFSYKH5UIWsupUUaSJomcjHnPWF596Ibl4fHZL+oGPXCmNTNGE61LmiYlnhFhw5NlXM7GQaxWRhbd6Z2FZwYbl9aM+TvqCpILroccZB4+yFhGn7rTs5sj31uHZF1/ElGnboTfXh613aEQxKMHWdBR9yvIxURuvR2Q6OGLyqSoTyAuQzWWQL7vDqNnXi0Isw/bMTlnmYvLnmrHkEbJCJ0GL0aGVeEDVe0WlEgLPh2GZmHDRrvzM5Tp1JFqSeOK8R/GJsw4CdBLOLah9S9fx0BHPoEUz2eLIU5kDpXOQAKRhsJVSUNK5SEH9mxzQFKexWAQ/YPkmxQWqrox0G0xN7YF0mNn1k3UI8jYe//NqeNTKgTLGbBM1cRsTp20Pr7ub5YdSbe1Y0bkCU9omIrt6NR79J/HJ4QB1o4llU+IB7zfQGedyq5lyOxoqhKQHUtmFXIiklaVdygIlrP/FtqMq5iGmJ8ckpWxSZhMnN5VT77hXArO/qtLnolkumNThOBYWLhng6wzkG5BOZvD6feu9nsOB7ZBe8+vf2RHN9SVoQR/8kJYYkSZlibnlB4DcgOp0EwakvkvkzakMqoiSNitWkmaxMc5MUWKeZLFQ5NjnfH0in5JrIlvU0Z91oZlpJvXn7v9HJdQhvbkxcDEillQyBdMyEAYG3uqbiVXdMfRptej1c9i3qQfPLG/FTq3Ua4jWX4J1pMKIeq6QP11HibXslPsjKph46tm/oqN2OibvGcMXO47FvZ2/xreIWEg81PW4OLJYKrB0PrUnFmIZvoUyfbmPcQfVo/uxPkzdaiJlvZQTNVRLCXpyvGwWum2j9fzp/LuBtXk8cOVbCIouqEcHPXJUNkHq4Qa759f75MuetAhN0EHNpWl3IscbPceKNDQmC6qDIiLhnzmtuJzqzI1idQ4fTP3CYVj63Avo6utDMtSxxHdxyEGfwDPPPo/p6SQmfnR/5PNFvL14CaZP7MBbXauw1bg2rOjqxE6WhQdyS4YPyPKVmViGijQ2ZrQzzkmwa4pVQqlSPopxAy9VF07+a5+D8QQy16uU3QsUJKPcf2XtUFyfXGrKbiG1UcUglCFGDzWdEQYLBFXlq+dFmL/QwdIVMUzpUB0nX72Hoq1j43X0jBbU1zUi8Lo5Lz7UyR3ow9KzKiOF07iVhloZFSVYSRkoLFOgKJeWMAXqV/fUo6U+o7LtgnrWb2PxF3JJUtq7E0euGEe+mIOm23j2/pVjA6hhGiWlG6dTSS5eJKXid7LnwPd6OE276GvoLAJdro1taiheaMCDyY27PFjlNGP6XIQSi4SqbCCyzLNBCTUmScWYiBsWDm+fye5Hj5WN8yjkC9yemIhGXGHDNLkAtl/mQ2uzEHV56Kivh51IQIuZHIwneR3yq1AGFjueDQ2lKMQC+OjJFuCWSuyKYlkM2sdI0UUDxkeUP0j2hTrOkXeFdh52hZWd2KqzuMZkxB0meR8rC1gNJiLxXqiea3OriWjdYSpWLV2Fnt4+1JSKWFTMs3Dl/gcdgjjJzdCBW9OQqInjr39biKamBqTSCaxYsxZb9fThiYQS4R3Ol/bJbeqGXYTy729gxtkWNEM1nOEukayyq7S/lNuLhCnJ+UV9pumTXGyhisfIJRYOcnyZPAaVjPk0bnEwmq/DJ3allaUkTTTMnWfgrUUhdtyWJtnBq/cOb2bEUE7c8bO2QcyMEHh9bD4r1TQTMb1fKTpzgJBrbhnXgc4OaFYc3rpOpNonIbQbEYteAQyK0WjwfEp+UEWSrkcbpuraSQWsdGryAh3Zgo7+nAPNSOPZ+4c32DeUWA3HtajyPpUilQKLZYLe6DkWr3dOQFIrotYKUZfW8XbOwpRkEStKaTRbPp5/18W0yVOxYFUX9mkLmGxKvo+AD0ga1pQ0NFChgpFEWo/B1m18sf0YXu+OSzEWIpY8E4vn+UIswzGx5WvusMzFitDHlFgCbYkEZ38Z8QQfWENSNOba7ACh68Coq2UXseMW0NvTi4yvWnWQRcE2CMUrKbmGLQ9luQySCu04vCORNUvvpjM2xYOZWJRHhp5uPaKCcXVQJBLiDNoIKE2ciK7ebuyw/Q7oWrEUrZMm4dm58/CZ667GA9/9LlpqmuDsvgc++uXP4s9zLkRmTSc8KrFoHofWyR2on/s3PN8+/J6aESeWI3+YQm2KhFkGzUTe3dhSIVXQgKwYTqGgk7ZicVUEqERIyE9AsmE0IarKnqyOcuyF3kF/YCn4MvuXJU6oUn/uvADz3nKxy87UaTLAa/eNHWI5cfb20KMMvLDA7jxKf6CMOlPrx+uv92P33RvKlhyxagxZZxeY1EitdhoiOhFraeTmP4qmCUt5qYdagGLWgmHTCZuMoKTCs1ywR1Dn3Tiy+RhKDiVTOHj2wXXD+GhX9qXJYqGsMLJYKDHkpbXH4NVVHdihNYmXVvdjnNGPPdopLZ507yi+YiKATYXP8EJyPar+K25IwXwDbuhiTd5BW7qO67liRpzrJr7SfgzHG106eWZzKBSK3PfeDwIhlmFeIi1Li9h9u+3gLl6K7lQKA9OnYb9YErEP7YS1b7wO/815nCHmOB5KFOvQNPQFIYs7cst0tkbIsFF7FruyeAdT7jT633vWi9r32JbhRmLKjT1YLEEWB5GJzodjpQ1Pf7OnTcPjC+az12G3jg40T98Jfe0N2GqnnVHbNgGeV0Ln2j4019cjXujF0jsfRFc2i56lyzF5oA+5+nF4q3F4a1h4mx5pi4W+9LhzqdnMoLS9wVIrHJCnrmgMItWlKKkWph8O4vMssckZ6XHo1CiMLR1VuKRrNls5SilZfVbXLA5Gq9N8iPnzp8CJFrPp+fyzWdg9Sq12LLxOnD0NUZBR7kMK43H7ZQ0xvQe9ffVoaMiwb4XiSaFmobNnf5TWPI1S3sHKBSmYtoegGThgf3I/0hmIJJHZsYjAtwCDyJbckCQhQe5FInYgk6eYlJILf+6hDcu2jwUsP8gYyWJJplOwTCJ1G39ZezjisW3h+jl2fQVRDl5Y4s6CC3LjMDUNPLnMQLy+FdNiSlonoZMbM4Y1HrCqJ6s2FSOGxvQETExTnZaFT084SvVUdx1lsVC/+2yOpdnFFfZBZm7jP7P10hImN49DqrEety9ZhM+1Tobbtw4vZ3qxWyyOPHQ84xfRYVjII0KbaaEU+FgUuGiMInyYGtJrIV6NAuyuG4hxko1SHTf4mSMNv3+Mu9DfB8mlbMsoRRLuEDmoXl6OQZevpZxiFJOhR95ULaosE9e7Dv6rbQJ2a2jCIy+9iPrxbSg01qMwkEG6WMTUZBLdho439Z6NB+UDvnN0iOV86iZJBFAGmvd9MhpJwK3cIZLdWeT6onagJnpOLqC4ZwvijS7CxzNoucxk60b5JFU9iwpcTwC0LuhUV0BmLMvFU6wmQi5fg3eX55DN26hNkVgbucPGRnbYiad2sE6Y6j1DGg1q0Vlav8p+K+fH0z1rgYGr73IxrRRil0M+hqfeehapdBL77bIj6rRX+HMUdpk/P8K221H8qYbVWlVSBElzl7P0QpN7tPT2uwgiDc8/RGHHLfP1jTOuZK0wksynJ3ruuiNgmdvA9x30OjHkS/1oq8lDQ5GTKEI9Bj+oUVYKK0gb8EjjLXThkPgqSekgRD70EI9qcOiEGUhZMY4/krgqKVhTjIX/l8lylfbLt163ZYI/gnd94DobYT6P2NQOeCtXInTVHkNx3HK/QfY4c/kDx02oCJviv6rYmw5n1CeKPS0GuaVVsw/6HX2ISym4HTgrwXJslHohpRrqQXldUSIBP5nCE9raEbzrof+qUSGWGWfHoBmJshJxOYrJTUWoFTFZHaoZGDH8qst7MHF2vTI1KetLMYgKfq2yELSZyOeBi64y8bUjT8f1l72B6669g6vuuRcJk5OaWDdIY+GCDPoG4mioJ5dSiFfvpf4Elf868bSpiIIsYwQ6pdDqZi4wEDP68dzLJj66N7V4JleNiYFuHwV7B6wpLMBEz0P9OMJMh2fvB8NqQpj5I4olC7FYCX7UyIROWXVk/ZG4HbvEwgh+aCBbMJDLOXju4S2337qSdKE22iqAy5YxFTj6NgYKy+AHDkrBMrggjSflxq0xdkM83oCYbnMbW3Z9sB++3Baaf6Zfq3qJwUI6Wo2lkoNcNoscS+ZnuMDy5duEWCr/SZUR8v48Gq6wY85shBWjdNdydhg399KwYEkNlr37JTz11ADrVbXWr8WPZj8L3aITs4vC0jj6rl+Hmq+1IzmliL7fFtCzug5XFT+DjikuDv74dnjwrlfQ3nI3vn1cDbtzuLmYTsGxCH6gYcEiCvpTzIDiKz5eu3fTm92MxtI5+fvTEPiZsmqBynhTVbzUEa4fnWs1jB9noFRzAmwjD/T9igU7uY0zS0qQiyyFYuobsAeuR+AlALPELkc/bEAUqAZqTCzkTqP3B/Q3Hdl8hGwhwvMPb5kWyx5f/S7a29owrnUcYtTPgmobuD4qgE/+wvVp7eV/lNvkqHz392RelJAR8YrqB01WCK1LUphQNdGKzMmSd30fBSIWCt5ns0Iso/HQyXd+YARGhVhotN89n6q9Kb2YDEAPvm/hgss/j1SyGzmnhFNOPgy/vOF5HLXP3Si8lUHr4fV459rV2ObEcSxuQJYI7a7Lvh9HdOKZmHPRXNi6gW0m5zDr1D8iIPnQclbYYB0Hqfr+7a0S3prrYOfd4li6vITu18ZGnOXE0zpYq4g6sJBTlYXtOAOMHCoJ2Hon/rZ0Anaa3A2/aRa0nl+ipO8Ky18ALeqEVvcVBH13Q9cCrmd55uW12G/PepQCyqx3OBOMjs+U+k3xFyIuyp4kpYJ8yUN/RsNzD2+ZMZaPfusUJFMppJJJpFNpWDHlxiWi8CkVlWQ7eD7KWe/0b4KTgrj8aJJr8b3kS9Ke4t9yp0H1OVW8quqKiNA9UpvOZZDJkMJxni0gsVg+8D4nHxxhBEaNWI4/v4GzY4xyLQod/BYtn4U7bluBY2duh9/++lYsmDcfk9ssnHZ6v5JAKMdRyHXABUtPRJh3q4NJtgWv1sa4SyOEnqsyLKjvhfoAu3a41QUiLF1ag2KRijIdPqG/es/YsFhOOHUStIhIRTVE40y4wZbMkQYjynBdRNGtR9zM8GYXxPdGqDUC/hrA+QtvbuQWfOddB1Mmk7tRgxvUc+IESd9w61NWOx5UPqYtz4Lj6+jqcfDCFmqxfPWHl/DmTxlhFGMJAqWzRi8iFKrG53RSkyqiiWSUpTJYIKfcXYM++cHcH2XOEEGV/WH8b7JiaK26nodMJqsUjnM5KY4c4Y1Rvm7zEBg1Yjnu3BQiLQ6dCv3KvudF787EtpMu4Z+pOx+lJekGHZt9lIxr0H/XzdDmLUXqm8chNvFu6MGbSk2WOhZwLxZ6gukEX06f0MoaYpQ5RkE0bvIVw/KVtPGqTn+kP/aXP6Y2D8UR+PT3Zm+NqEwsqrhKES2diolISWbbAhEw4PomtxN4e/5abLdtA7vDfD+G+x7N4L8/abM/n7Y1L6hTfSTJSqETNRdTqup7qhcqlYqw7Ri8yMbqziyg23jxkS0vznLMBT+HaRrc1pVjT4EP36faAmVlcB1CFMAigUqVNaqcXswoqjaBVbw5O/E9y0UJerz3KyIrhX3I/e4zuRzHV6hIUqruR+Ahk68YMgRGjVi+c7YFwyR3mKrroxOfH1DgvqxOHJD8BQWSSUGHYiTUMVLFFlQFOe2O9DerLF5Z7iYJSj2OI6SOk1yNbnIGlHIdURpnPRYtJpeOUkv23SRef5DiLpX9mjlrIkI/DzMW50C72rCUzI1KUqDuDT4CP4641ckxEsoei6ifBKsQKBUDlvx0DURmLW+Qg+dnwn4wTdsPNRSL4Nastu3B9TSs6KRCyQReeKi7soEahtEd85OfIxazVAYiFb+FZNmFSsuJM0GVG7H8r/UjYK0DLnIriz6VCfs7BVEAABDlSURBVGdQWEdxUNlZVo6tsAuSYjeeUjfuHxjgWpYXpXvkMMysXHK4EBg1YvnWj+qQpE5nVHnPEiwUwCRfM22OJRiGhTAgoWiqhqSUPFdVh3NzKkU+LPbGO6sqn2TxBKocp6wpPjqSVUL1MTp0nSQ1KDDdgLfepj4m6pRJ0m9jIYA/44TxMAxqGWwg8lRfCOWpJ9eV2tKIYHgjo/odH7D17nKfQrXpFZ1GJaLIpPpeQzQibdd34Lk+YjFKn0wil6e90ucki8APsabbR8kJ8crjw19cNVyL/YNe94izrijrhJFwKmmrUdC9XKQ76PDiyuhygVu5/kAVyQ12Sy0v1PV1DIqk1PotzwWtf0qiIIvF98uB+xweu/HCDzp0+ZwgMCoIjBqx0N1+d8541eSLrQqvnBxOmz/FD4hwqOshWR5UsKdkE5QaQlnUZL2GTjn+wsqfNoKAcs8HxarpvZbq1cKFkybmzSciI/FG8pXH8NoYEKP89gnjYBsqrqIZJqKgyF0fSWKd+jKwKhFjE1+fjMRFjlqoik7JqmGypWtQwZ4B1+nnAi7dtFEgDtcCxG1KV7bQnyVCjhC3qGeIj65u4OkHhl9jaFSego340hmX3aRqFcqpwRzroorpkFysKj2bYyqsrBOxkGQ50PJeK272kZV9ZeU6CJXWTda5+iwlYwzGXjwvxK3nnbQRo5O3CAKVhcCoEsvxc6j9bWJ9fYqhU3dnSnnN88lNo9qKssuKSYWzvIhc1EmQSvlUPidtqOTqYhlFPlVSwF71xyCxRjp9kyigkmFY0xlHb19ufRvjsSJGOXPWOLbOyJqjCvwgpMAxkWkCvk9uQYcJ2jTj8H2dLT/SzdNjTfDdAjyvAMOIseWXZw0wIB6zuUgrnyf8ioiZRFQmBrIqjmNZ5HaL8O6aEl5+tNzwqLLW8KiM5tjLfqkKcBEhZpgqZZjiXWyRqHbZFFMZDPKr6mqVwq2a0imLxQ89+C4RS4QbTj16VO5FvlQQGGoERpVYjj23DqZBUixEIsqiCAKn/MypRl+DDcDoxkM9gE5psZRKRi4DIhNdSZFz9TmdGjUKsHoc1KbsHXYNsXglNQgjTR4L67o1PP6kgZ13KpQPlTpeuecfpRaGGuihuN7MU9o52cDQqeEUYUUZcCyPitAnzVRSznU4McFxVMtnwhcowfNJ2cCEqUfQDIqh5BEFBmIxm4v++rMl3txsO4KhxZHJq+wz03TheBHuu2XLtVaGYu7kGoLAloTAqBLL0T/SkUy2/l0zKiIYH0FUYPcNnea4hxoFpim2woWNIW+sPknra6o6n3iGVZIVFTHhgDKoqC7DJ/IpZ+aQpD4phDo2Fr9bAw1d63XIXr238iX0jzmhWbWwNSmQbCLwHYqwKNeXnkIYudRphTFzXJN1hHRq+2x4cF26d527R1JKrOsWWIo9lqhhYTzHycENNFgmnazLoncErNmE312zdEt6JuReBQFBYDMRGFViobEfdz7FWVT6K5FHGJVUsxwmBtWzReXNkEuGrA5T/Y3be5bTiEnxOKSNlKr5KTZAQX7Kchr0W5N6JfnDqIcLWTXj8cbcHPcyoeD3K/dsJooj+PHvnT4eoUPtcElgs6QaCpk2PK8I3azhjDFq9ewHRCRUUxFCtwyUCgPQzSRMjse4jBVVjRsmudOovzdZeqRvFeIXly8ewTuSrxIEBIFqQ2DUiWXmT8aX5THIX00S7kQsFMgnIgmxZGE/pk1v4kA1xVZ6T47QeCWwrt/Az38X4awTKbPLwO/vymJ1F7BssYbrLq2DF8Xxo9M7cfkldSDJfFagDRLQdA9BmMb8heQm8/HSnRS1Hruv78xug2XGuFe3wVLbOjyq/6H0BC+P/710y27QNXZnVkYuCIxdBEadWI47r5miy6oq3M/hmhtWYsb/bMv6VyoVk+TxU4hC6naowQrS8IwswtCASX0QyB1GmTmsOGoqqWktKLf4tMt1MFTURoWW5BOjWEMaf3m9HolG4KXfb9ktd8fu0pWRCwKCQKUiMOrE8u0z62FaCZUN5mVUsyl2eynXlcr0p6B7oBLA+EcLbhCDpedVlbNOxYEUtCaZEpKUT0OLClwkqOtxwGyAAQeuG0MiGaJU0rBgcRueu/nFSp0XGZcgIAgIAmMWgVEnlu+cPR0ldwBe4MHQqO0uZWXa0IyY6g5tpBH4OdTUUpW5jkKxC789R+k0yUsQEAQEAUGg8hAYdWKpPEhkRIKAICAICAKbg4AQy+agJ58VBAQBQUAQ+BcEhFhkUQgCgoAgIAj8CwIT66gZ4gd7CbF8MNzkU4KAICAIVAQCm0MAw3UDQizDhaxcVxAQBASBf0KgEklgOCZJiGU4UJVrCgKCwJhHYEshgeGYKCGW4UBVrikICAIjioCQwIjCvcEvE2LZIETyBkFAEBhKBIQEhhLNyryWEEtlzouMShCoCASEBCpiGip2EPbeX/23YxNiqdgpk4EJAhuPgBDAxmO1pb7zP5HAcOAhxDIcqMo1BYH3QUBIQJbHhhD4TySw7pnb1n+01iYN8/d/jSSZ/P1IhFg2NDPy9y0aASGBLXr6N3jzI71xC7FscErkDYLA0CIgJDC0eFbb1UaaBIYav78nFbq2WCxDjbBcb8wjICQw5qdwWG9grJPAcIAjxDIcqMo1RwUBIYBRgX1MfamQwMhMlxDLyOAs3/JPCAgJyJLYEAJCAhtCqHL/vqnEMppzLcH7UVpHQgKjBPwY+trR3BjGEExbzFDHSuCeJkSIZSOW5dQmeyPeteG3OL50vtwwSmPvHUIAY2/OxuKIhVhGcdaGigSG6xaEXIYL2Y27rpDAxuEk76o8BIRYNnJOKp0ENvI2PtDbhGA2DJuQwIYxkndsGQhsanyFUBnN52ejXGFbMgEM57KtJnIZzUU8nHMk1xYEKgGBMUcsx394XFQJwG2pYxgNchES2FJXm9z3WEVgU4lltJ9xTYhl9Jfa+5HLaC+Q0UdHRiAICAJCLFvqGtj9y1vqnct9CwKCwDAjMJYC9wTFlmmxCAkM82MglxcEBIGhRECIZSjRpGsJCQw1onI9QUAQGGMIbNHEsqTXWT9dUw7+xhibOhmuICAICAKVh8CmxlfoDkY7Nqsdf/zxG5UV5rx8+wYRX5Xx/uE9Qi4bhEzeIAgIAoLA+yIgxCLEIo+IICAICAJDisCmEstoWyt082KxDOkSkIsJAoKAIDC0CFQ1sRBUm+oOE1fY0C4wuZogIAhseQiMtcD9JlksQixb3oKWOxYEBIHRR0CIBYAE8Ed/IcoIBAFBoHoQEGIRYqme1Sx3IggIAhWBQNUTi7jDKmKdySAEAUFgC0FgLAbuNznGIsSyhaxmuU1BQBCoCASEWP5uGiTOUhFrUgYhCAgCYxwBIRYhljG+hGX4goAgUGkIjMX4ygdyhYk7rNKWnoxHEBAEqhUBIZZ/mtm/d4dJoWS1Lnu5L0FAEBhOBIRY3odY6E9CLsO5/OTagoAgUI0ICLEIsVTjupZ7EgQEgVFCYKwG7j9wjGVj4iySGTZKq1G+VhAQBKoCASGW/zCNEmepivUtNyEICAKjgIAQy0YQi8RZRmFlylcKAoLAmEVgrMZXhtUVRhcXd9iYXdMycEFAEBhlBLZIYpE4yyivOvl6QUAQqGoEhFjeZ3olzlLVa19uThAQBIYJgU0hlkpoR/z3MGx0a+J/h92mdpSUOMswrUC5rCAgCFQVAmM5cL9ZMZaNcYVJnKWq1rrcjCAgCIwQAls0sWwMuUgAf4RWonyNICAIVA0CQiwv377ByZQ4ywYhkjcIAmMSgeuuuw4zZ84ck2Ov5EFvSnyF7qOqYiwbY7H8sztMNMMqeTnL2ASBjUNACGXjcPqg7+p77jb4ofp0ra1v8DJbPLEQQkIuG1wn8gZBoCIREEIZuWkZJJctklg2xmqROMvILUb5JkFAEKgeBIhcktb7WyyVZq0Q+puVbjw4fZuadiwWS/UsfLkTQUAQEAT+GQEhFlkTgoAg8C8IiMtLFsXmIDAqxCJxls2ZMvmsICAICAKVjcCQEIvEWSp7kmV0goAgIAiMJAIjRix0U1LPMpJTK98lCAgCgsDoICDEMjq4y7cKAoKAIFC1CIwasUicpWrXlNyYICAIbOEIDBmxSJxlC19JcvuCgCAgCJQRGFFikTiLrDtBQBAQBKofASGW6p9juUNBQBAQBEYUgVElFomzjOhcy5cJAoKAIDAiCAwpsUicZUTmTL5EEBAEBIGKRmDEiUXiLBW9HmRwgoAgIAhsNgKjSiwiRrnZ8ycXEAQEAUGg4hAQYqm4KZEBCQKCgCAwthEYcmIZjLPYpg7s/uWxjY6MXhAQBAQBQWCTERgWYtnkUcgHBAFBQBAQBKoGASGWqplKuRFBQBAQBCoDASGWypgHGYUgIAgIAlWDgBBL1Uyl3IggIAgIApWBgBBLZcyDjEIQEAQEgapBQIilaqZSbkQQEAQEgcpAQIilMuZBRiEICAKCQNUgIMRSNVMpNyIICAKCQGUgIMRSGfMgoxAEBAFBoGoQEGKpmqmUGxEEBAFBoDIQEGKpjHmQUQgCgoAgUDUICLFUzVTKjQgCgoAgUBkICLFUxjzIKAQBQUAQqBoEhFiqZirlRgQBQUAQqAwEhFgqYx5kFIKAICAIVA0CQixVM5VyI4KAICAIVAYCQiyVMQ8yCkFAEBAEqgYBIZaqmUq5EUFAEBAEKgMBIZbKmAcZhSAgCAgCVYOAEEvVTKXciCAgCAgClYGAEEtlzIOMQhAQBASBqkFAiKVqplJuRBAQBASBykBAiKUy5kFGIQgIAoJA1SAgxFI1Uyk3IggIAoJAZSAgxFIZ8yCjEAQEAUGgahAQYqmaqZQbEQQEAUGgMhAQYqmMeZBRCAKCgCBQNQgIsVTNVMqNCAKCgCBQGQgIsVTGPMgoBAFBQBCoGgSEWKpmKuVGBAFBQBCoDASEWCpjHmQUgoAgIAhUDQJCLFUzlXIjgoAgIAhUBgJCLJUxDzIKQUAQEASqBgEhlqqZSrkRQUAQEAQqAwEhlsqYBxmFICAICAJVg4AQS9VMpdyIICAICAKVgYAQS2XMg4xCEBAEBIGqQUCIpWqmUm5EEBAEBIHKQECIpTLmQUYhCAgCgkDVICDEUjVTKTciCAgCgkBlICDEUhnzIKMQBAQBQaBqEBBiqZqplBsRBAQBQaAyEBBiqYx5kFEIAoKAIFA1CAixVM1Uyo0IAoKAIFAZCAixVMY8yCgEAUFAEKgaBIRYqmYq5UYEAUFAEKgMBIRYKmMeZBSCgCAgCFQNAkIsVTOVciOCgCAgCFQGAkIslTEPMgpBQBAQBKoGASGWqplKuRFBQBAQBCoDASGWypgHGYUgIAgIAlWDgBBL1Uyl3IggIAgIApWBgBBLZcyDjEIQEAQEgapBQIilaqZSbkQQEAQEgcpAQIilMuZBRiEICAKCQNUgIMRSNVMpNyIICAKCQGUgIMRSGfMgoxAEBAFBoGoQEGKpmqmUGxEEBAFBoDIQEGKpjHmQUQgCgoAgUDUICLFUzVTKjQgCgoAgUBkICLFUxjzIKAQBQUAQqBoEhFiqZirlRgQBQUAQqAwEhFgqYx5kFIKAICAIVA0CQixVM5VyI4KAICAIVAYCQiyVMQ8yCkFAEBAEqgYBIZaqmUq5EUFAEBAEKgMBIZbKmAcZhSAgCAgCVYOAEEvVTKXciCAgCAgClYGAEEtlzIOMQhAQBASBqkFAiKVqplJuRBAQBASBykBAiKUy5kFGIQgIAoJA1SDw/wH9IiY85E3giQAAAABJRU5ErkJggg==;" parent="1" vertex="1">
          <mxGeometry x="-670" y="628" width="169.71" height="106" as="geometry" />
        </mxCell>
        <mxCell id="0DorSFAY3iXw3XI1K5tr-39" style="edgeStyle=orthogonalEdgeStyle;rounded=0;orthogonalLoop=1;jettySize=auto;html=1;exitX=0.5;exitY=1;exitDx=0;exitDy=0;entryX=1;entryY=0.5;entryDx=0;entryDy=0;strokeWidth=2;fontSize=20;" parent="1" source="0DorSFAY3iXw3XI1K5tr-26" target="0DorSFAY3iXw3XI1K5tr-38" edge="1">
          <mxGeometry relative="1" as="geometry" />
        </mxCell>
        <mxCell id="0DorSFAY3iXw3XI1K5tr-26" value="" style="shape=image;verticalLabelPosition=bottom;labelBackgroundColor=#ffffff;verticalAlign=top;aspect=fixed;imageAspect=0;image=data:image/png,iVBORw0KGgoAAAANSUhEUgAAAZYAAAD9CAYAAACfvFG7AAAgAElEQVR4Xuy9B7xU5bX+/91t6ilw6OVQbTdGjV1jcmOSm65JTOyJooKKAoIgKCqKIh2kt1iwxgJYYgzmarwxsceSxK5gBOnlnDNn+uz2+6z3nUP835vc/+8HiGD2JBQPM3v2rL3nfd611vM8ywjDMCR6RBGIIhBFIIpAFIHdFAEjApbdFMnoMFEEoghEEYgioCIQAUt0I0QRiCIQRSCKwG6NQAQsuzWc0cGiCEQRiCIQRSAClugeiCIQRSCKQBSB3RqBCFh2azijg0URiCIQRSCKQAQs0T0QRSCKQBSBKAK7NQIRsOzWcEYHiyLwPyMwbMQwgjCAMCQ0DQxAOP6WaRGPx5gxeUYUtigCn6sIRMDyubqc0YfZWyLw4CPLac1mcF0XyzTxg0ABiu/7VFyXdCpJNptn1LCRe8spR+cRRWC3RSAClt0WyuhAUQT+HoFHf/MrSqUSLZlmLNvGMAwFKL7r4vkBBCHbt21nwvU3RmGLIvC5i0AELJ+7Sxp9oL0hAg8/9gilcpHW1lYqlQohIV7ZpSjAUqlQKhQxLRPbcrjhuvF7wylH5xBFYLdFIAKW3RbK6EBRBP4egXsevJdYLIbveQpATNOkUinjuT5SE/M8n3KpTCGfp5AvcN0110XhiyLwuYlABCyfm0sZfZC9KQL33H8vyXQKyzJUGSwIAtVnCfwAz/XwPJdyqUKxWKQlk+G6sdfuTacfnUsUgV2KQAQsuxS+6MVRBP5xBARY0jVpLNtEfF7ll+d5ClikgS9N/bKUxgpFMpkWxkXAEt1Kn6MIRMDyObqY0UfZeyJwx7130r6hHY7jKCBpbm7mgV8+QO+e3QmxeP3Nv3L8sYeTTtaRL5aYNX3W3nPy0Zl8LiLwH/E4iYqrSq9I1ix/yl/lf4ZBLBmjy1mnsfb2ewjDgET37jy0dt1u+ewRsOyWMEYHiSLwPyOw5JbFxBNJOjXUYTopWlqbMbyQTZvXsHHTNhrataM1m2fiTZOj8H3OInCybeGriSRataT+pn6rru7qJ39/yEIvWa0plPQgVBoneeoWQjpgsjHw6WHKv4Z4QDmEmPzd0O9gyu/yf8Og96DzMTAJbJO1C5eoN+lxYj3+mjJWZxvCACddD+kU7tr1uFsNmjeW1PPC6nEed+Vddv4RAcvOxy56ZRSBfxqBGbOm4Urj3rZwbId4PI6pFhW9WywVS6q/Is37YqmEYZlMnzQtiuheGIEfx+IEqRSGXyQoeUro2v3igXz84MOY2RbwQ3pccjHP/GYlX/vut/DdCi8uvYcTLryAx5feyVHdG/HWfETPi87nN3fdy7ePhSdf8PjueQP46Be30/eigYQGrF98W1U6qwW0PgaBWuoNLAUeO5Z+MCyVZahbKpR7KlQiXMOwQAEQuDEbGuqwcmWI2yRDAzPTimMacnA808ByXULXxRXBLpAAcgqgTNJdO3Pn+o07dUUiYNmpsEUviiLwzyNw08QJ1NXXKDBpzbTS0LEDtmmqJUKa9sVSkVLFpVQsks/n1Q5VVpKKW2bOjDlRaPeiCJxv2dQmallVzlPu00Dq4+168Q9CmTlCYOhF3FBZieQJBpkOtbq/5vn0Tben0NpMqbWAXyzgOClcr0SXpIMTmriOje0HVIR67vvUVDwFJMUgwDRMzCp4iHFDYMh7otwbPAKs0NBZkWFhyBMELwwD0w9xCKiEYMq9Vc1CJCMKjIBAUKwKWkH17P3AxzMMkqbN/t86hq0vvINbW8/ktR/s1NWIgGWnwha9KIrAP47AuPHXUpOuwYmJKFJoxhamqVYDbetCSBCE5AsFKuUKZaEg+77aBcvu1AxllyrPM5g17eYozJ9xBG6e1Iu1k1pocisc2LMn2XUbafIrxE0Dx7CIGQa5IKDGkqxC9vwhFSllCQvQMLANubSyoFetfMIQS+jmgamzDfVLX28/BFuBFjuyW9mOeAJaAhKqXCa3ktxDurZmhCbynNDQwKbKYmYMI3DV69rsgwzHx7RN2h8ew+ngYNUYGAmwwoBY3CYoF6ntcjzF99uz8anf0/mbX+XD3z/HlC2bduoKRMCyU2GLXhRF4H9G4Kprr6K2plY17E1T72Fl9dALgl4cXM8l9H2lvtfsMI/A0/Vs0btImcz39a41DEKmTpkehfozjMDoDvX4RVmgQ3onEoT9DqTrV7/EG/NvoyTXVMpGjX2wN36s+xzVxRwpN5lgOLrEFO9ikO4LYdzCrjFUzSkUZGm7PwJfVnm1EQlkoyE/DwQywFClK9luBJKSKFAJPJNyPk5pe5HS+pBgc4XQE0ATPzpLAVToVzMcVUEL1UbHlg2PlM6knyP3WxjilkukDzxAlb6S/XqzZeVvqTnySN564WUWRsDyGd590Vv/y0fgymuuJJlM4DgxBSqyoRRAUU1YteMMScTjxBMJYgI8lqWzFAGbSkXRjysV+VVWYCNlMgGeyZOm/svH9rMMwOh0rVrIbcuisbE7DV/5Mu6W7Xz8xBP0Pudn/G3pPVSMAE8WbVOyB501+KqEZar+h6QgkrQKWKjKmVSthKUli7th4ks7PpAymmp9SE6rMphqLqKO1/YwHIu4LfeUqTYo8j6W6RCGLqHtgOer0qpkyX0Wz9JnY5rktm1j+1U3qvtQvZH6sU1Ycel+1uls+NXjZJtbSLevIywUqTvycEY89+xOhz7KWHY6dNELowjoCFx59RilspcdYDwWUyWOuro6knEBGhvbsjFMq40gpP5dymFKNOl5eIGvymIinCy7os73KBSKylts8sQpUZg/wwiMSdfR+Yc1bH00R8+e3Sk3t5BsV0fgVyhtbcHq0o26/XuTffc9uk+eQIjPpnvuwfhwE6WNm6ogA1YihpfPq/aMZCBh4Cs3hlASlURMgZf8PKj4GKGn8UjASLdQFBgpd2xF/pAfSlDkOPKnr0AsNE0CT/4uLzTpc+t8wlAoALBg2AguvXkiOElC4R2rDMnE91wsw2LVSy+y6e7l9DQNKk4Co1jkhlzLTkc+ApadDl30wigCID2VVDJOpw6dSNfWqIxFvqy+GE3qQoaul1fLYbJTVTWx6n+LGl/ApVIuU/G8avbiKaaYmFhKWWTK5Igt9lnda+f37kWncoWgtUD/Po1gxwmCMshu37fwcy10vn406YaOFEpFvdgbsHHceGp++h+k+/RT/bWN18+i3djLSXbppD+KSl0kn1CdNVXqUkBTLZ9Klqvvn7bfJReS0QvVSMgtFejMWKdAOiOac+5F/NiOq7/3uW0BCrkEWC4ZwpBFCxXoyO0n1kI7mM8YLLpsBN/IlrFjccL2nak9cD9GPb1yp8MeActOhy564b96BBYsnEt9uzq1W3RsWy0MlmEqmrFkI1LqkK++Ycqi0EYW1WUQxe6R0nn1ufIaMat0K65q6JfFqLJYUj+LgOWzu9NmzJyiFvMNV17LId/7Ln6hjNvSgmEbeJksuYMa2f/n5wt2qExTF8Lg+af/kxO++R297Ichvz7/Qn6w9BZ1FygKsWw8quVQ1YtRRDPdfg9cDzPmYEhTv43BJZmHrqpJMw4MHwJ5oTxH31tykJkDBvETJ6Xwp//SBarPIi+ad9EQht2ySGc94gIhTtt+gOXYxGyH1x77NftbDqaUZ12PyratXPrU73Y68BGw7HToohf+q0dg0eJ5dOjQUepaasdoWZbqnUi/JPD0z+RLrEofbQSgHVoW0amF6sstbLEwCCiXdX+lWC4pgBFaspTIpNcSNfE/m7tt+rRJbLlhCqkuXehz0AG4+YLeLAQhlXyOzleOxBCAkAxUiRuF4Se3hKea5LqXBm9eMoIvLJKeh2QQBovHT+CS8dfrnocCH+l56L7LoquuZsjUSarXooHKUiU2ebzyu2c4+ltfV+Usnd/onEWOOWfQYL4b2Dj4hEaMfrfPUWLIMDCZef4gQtskZlgMXTJPbXRs22bFgoV0buiIY5ocJFgn/RoL1v3X04zfum2ngx4By06HLnphFAFYtuw+DR7Vrqx8WcsV2Q16KoNRegdL/MLkr1qboDIWRQs1VKNVgGNHSaxSUU38clkLKEulsjrWlMkRO+yzuN9mzpxCuHoulec60a1XH/xSmdAtqx5FU+8e7P/jk1VZK/BDbr3qGjItGYKaBCOnV0kXITyz8kl6L3+IXrcvwtR9eeZecimXLVqoeiDSD5lx/iAFEY7lUPY9rrzjFzrHDWHaBRdq81JtxsLxtsOLXoXRty3GdiyduZgw5ZyBnGHGhTXC2u5dOXHSddUMxWDGgPM5xYoTxOP0mTeTmpT0WkJeWXonjYajSGyKXCC/4jHWPvk7JjSLZmfnHhGw7FzcoldFEVARuPPO24kn4iorUaBR3bXqyZGWAhPJZPTGVAOQ6rPoTaZiEYk5pWQusv8sFks7RJTifix9Fvn3SVET/zO54wRYCs1bqXv1DVKBlDqljCSbhpCGQQMFCVSWkc3kuWPsVfzQt/EqLn1unacyWdlvzBh8Cae6Br1vX6hKWUIznjvoIobfsljbvYQGU88dyBl2QmtTTIPet81XGhWhk804ZyCnGolq16XKGJPnLF2g6MLyWPPOOyybNI2fmCkFRo23zMVOiH2L7qnccdYAvpaoo3DOmRz5/f9Q5+YHHhvufgCnUsSwEgrIpPJm1tTy6gMPsjjYeVuXCFg+k9s1etPPUwTuve9upXw2TFvZt4QiTvO07kB0CZ98SA9GvsGqf1/9hzZLfdlBis5FSmL6V0UJKYWOLMebNjVq4u/p+2bajEmK8bffxu1sfOUVmS2NL818t0KXUcNV2UiAYc7QYfyoYiotifQ/+ty2UDXOpVQ184KL+Skx+giwKN5GwLShwxkzb576OFIum3z2OZxmxRXorO3Zma/ddKPIWvANn1nnXMhPTNHSt/FBDIg59LtlrjqebEhmnjuInxox0l9y6PjNOHNui3H53JsU+evj1e9RnjhH3W/9li5SjLRkMsmf//AcXVd/qES5SsOr1PsBZqqOCx+8f5dCHQHLLoUvenEUARBgsYTY4yrJNDHHVrtasdsQIDEsrZhuK4Ep8WPVMFAtNKKu9n1tqR8GagBYxa1QKBYpFwVgSop6HPVZ9vzddngqxVnXjqHPG++Ta23FzWQIKi5upoUeN12nsgjZGMy9bAQ/rIikXui9Ib1una9owGFoMn3ghZxuxel9y3zdMzFg1Vtvst8XvrjDoHLFz87jqHSNEsv2nj8TK53W/ZEQPn5sGQ2HfoHNNy7Eqvbze9+xSGwmq8BiEr4+FgxP0Y/FL+zmWVsYdfdtBF7I7IsG82Nfb3D6CrAIfcDzeHnl0xwkPaNKSdOVA2nmO9CuHRfedecuBTsCll0KX/TiKAJw191LlS+YMG2klGGZNl5VPS9lDavqE6bL2FUX2jZ3qapwTkph0viVRUp6LJKlFAoFRTuuyC/RtES04z16u41K1mL39AnX23Q/6AAScQevtYidSNAUlDjg6jFqly904ekXDOKnoaVdFgytIfkEY6OaoooS3lBeX7qupS1XpHGv3I0JmTFgIFfctVRpWfTuQzsjCxpNO3cQZ1gxxQrrc/t81SORn88eMozLBiUQneWMudsZdXkDc+c0M/Ku2wmkPzfwIs4IHVVi67N0gXrDIPCZNWAQ5574HZIpBzeXw3TihJaBmUpy8fIVuxTrCFh2KXzRi6MIwO2330JtbVqzwQLJPlxsw8J0tF+YWhaq8hVZeIR+rKoa1fq4oh4L76cKLtLMF11LQejG5TIl1cgvRSr8PXyzXZGu1ySLENLpBO16dMNvasaJJ0gPvoCaxsYdQsYF5w3i+5aUQQ0Mx6TPkrn6bKugIWVRJVxU1OC2HlubBaT4yOnsZuaAgVx591JF5lCUYqm1ab99pp5zPmc6abZ/7+scedqpyqBS8qPpAy7gimEdxXFSnY/cV/PmNjHizttUFjzj/As5zUyofk+f26UUplmIsy64iFNCmw4/+CZBtkAQGNjJBLH2NZx/T1QK28O3W/R2UQT+vxH4xS2LqK+t0xlHGCiqsGXbis4pzDAlolY1Cj1NUvVZqouFXmK0l5hihvmeKn+0lb9EgW9ZNtu3b+OmCZOi0O/BCIxO1WrX6TCkn4CKWHzVxKlsydB9yvWYyZTKMGUmyjPnXkg/O6b6ah/t38g3xo7dASB+qG3vVYYi/TUvUC4NUiqV/55z02zM9R/hindcscCYu5Yq7YmUzWYOugjXE9DRrz/TietylnKhDBUbbc55FzJyZA/KbsDc+RvVvJZzrriU7occqTYs0wcIsMTxE0n2WzRDTkA5HE8dMIifOWlivfqQ7N2NSmseOx0j2NrM0L+8vkuRjjKWXQpf9OIoAnDrbUtIpZJqd6gdjLUfhzTylYGg9nDR2Uuby60ETgwDlWeT/LumI2t2GIoN5rriIaZ9w1oymYgZtodvtksTaVXakiFbh3fqREOPnipjwS3TdfINykJF8XSDgFUDh2PhquvZcOO11HfvXj1bgynnDeTqO29VdiwCEEtnTOeC0aMVKMmFn3r+xWrhl+sfM6D30sUYIrCV8teAgZwu/2YEqoyGY9L31nlKdS+32dTzLuS0ULzCNG1ZTqnLnBkk6qRHI/eUx/KfXcAxiRqSY0fT9YC+SmMj2ck9A87na3ZanUeHLx+rymNygC1vv8/4rRt2KdoRsOxS+KIXRxGA2++4VXmEiU+T+H7FY46eAqjciv+uW2kz6FA9FyWik6VDvKBkWqCpdCuS9SibdfEPq7iqb1PIF2lqbmba1EjLsifvNwEWW4gXrkdjXTtS3bpS2boFvJAO148m1aWrykTlKn44aChiJ2mEFn1um6enQRommdYM20aMod/SxaonInuMmy++hMsXL65uPwKmDbiQMywZsSUq25Den+jPTBkwkDNNsULWr+1zh2Qr+u8q6zj3PM6wk5rGLPeUAX3vWqTs8AXlPnr7bdxp87Ax6HXnQlU+kye+/OR/0fG+hxSAybk6DR2JNdRhWDaVmhijX3h5l0IdAcsuhS96cRQBuOOO27BsPdFPwMKxZWisOMxqQZsWnumpfLKNVKWwqpa6zdlY7X6VXYd2RRZWmajupXmfy+UoF4tMipyO9+jtdlkyrYgYTqlI7yMOJ2jO4Ar453Ns71jP4RNv1E33IOT1QcPoWpuk9Rtf5YAf/lBRM+T/M0eN5qeZotalGLKIW8wZdBEjbv2FWuD90Gf6eRdyhvh7BSG5mhq+OE/KVbppP3vAefzESu0wMO195yLd7Sdg9ohRnJgp0U6ckn09kwXbpr+iOmvAmD7oQk4NZT4L9LlTwE1IAQEzBg7mNCOu+y3qvvVpd/AXFFFk1bo1LMoVdinWEbDsUviiF0cREJHkbTtMJdOplGrea0aP7p+o3/UM2R0zz4vFgtrpKuPBNitbQ/hF8jMLz61oOxcvZPOWjQqwbpowOQr3HoyA+IRJ+cm6+14s18TdtEE32b1AuSk0/kJ0JG2WLNphQRZ4q+1ai75k0GBOxaHXbfOUXkTZuUydzMVXjtWMsqp7sTqMKPjzeexUShM71G5EOxULRXjO6KsYMW2q0scoenD1vhKK+s3nDuInZlzdbQIgKhPBV9nQqYY2pey7dKESVMr/ppw7kDOtuCITaGd/YawFWL0buXLVe7sc5QhYdjmEn+0Brh7cg0o5p/yAlG17MqlMEKcu2bnJb5/tp9k3333pHVI/19TR2to6RRWWL/InLVykxFUqlvWcDlvTUlX/RZU1DGKWjR1zFLAowaQfkMtllaZFymDCCpsyOZrNsifvkBkzprD+nkc5yITcmg8JPFdnlVUHhZ4iUFT7B52dCBbcvWAe5w4bumOzMGPghfyUuHIaVvMlhT4sc7zUhkKXQvUepA1AlMppB2NQ9+SkN6N7dJJhKAKAut+0s4M8Jg44j59JZmNC39tE0a+zZ8mGTiUGjkE/lcnoCabTBlzAGWZSb3yqwCLHrO3bl8vee3OXwxwByy6H8LM9wMql36eSfQu79kjKbsjmj18jkzMoewmun/fuZ3ty/wLvvmDBXFLplPqkMoNFKMdqAqQMfZIhTmFAIV/QJS4rroWUnkciFicWj1WNKnWg9IJSdbr1fbK5vJrL0traSrGYZ2Jk67JH76jLkzVqIe7eoQErX1SsLSOU4VohtmHjWdD3lnnaCqU6Z2Xa4GFcsXieTPpSPOXp5w7k2+07cNjc6Spj+YTrfXXQl/xMMhchdnzC+VpLL3c4F085/wKuunOplr9I018GxAUBmUyRfKnCvVeN4mzDoeIkWdm+Fj/TgueVCCoeZ1oJ3BAeNMXjTMZfB8QCk1PEV6zq4C+gImW/eCrF5ds27nKcI2DZ5RB+tgf49cLDCdwtmImD8a0Gtq19itZyLZnWLOMX7bw76Wf7qfadd1/yi4XK8kMsMsQ6X4SMskDIXjSXa1WmgtKclzq8TJgU3zC9Q9QLSuah35F68deEYlQpNfauB9B55GDFMMvl8mSzOQUucqwIWPbsfSHAIiWpfu0bqOSyKgNQ5ScFEIESOr4fhDgDzqdXj0YemnY9fkVmy9t4oVDPZUJoyLlGgvvDCrbtqDEIPWMx1rgVbQNkmHjVP6VMdVIszeOVvCpZBVVPubZs2FRjh3WKI9oa9XogickhQUjfmPiJGRQCH8cwVYak1Pma7Kyo0FJZkw2PZi9rmLMdW4/HFjp1hw5cvn7NLgc6ApZdDuFne4BH5x2MEWYoumlKYSNe7g0851A2r3uD6xZF5bBP8+pMmTaJDg0NSnVfV1uv1Payqy3kc6pUYVuOymZUg7c6byN7/0oSr67UC4faeP69jm7GE5g1KZyx49SuVBr32WxWAUwxn+fGSMfyaV7O/3Hs05w4eeBbHTtTbm3RfbLqvHjdFtMNdumMPemX+DczTqNOPXX5StXHqiAkzxIpU7UPo+kbsr/QfbUdPRV5sTDKMEifWEPu91m9UVEg0uYupxW3+Zoc6WyNVue3ec9JmUzexxEee0Cs3iLRySfVrwbT8DE71GGm87p/Y9s42Rirb9uijxwKsNQxYsOuUY1VCMI22Nqjlyx6s90VgYdn709LzlULmtwdxRyk6zrTUmxHuRJyzfSnd9dbRcf5bxGYO3c29e3rSCaSxGNxWvNZtSNNp2u0Zb40RgMPd+woNZ8cJX40tfI+hNR4i2w+xvqFRXpXLNk6YqUT2GPHK7aQ0I2zrTkKxQK5bJYbbrgpugZ7MAKXxFNYYch+tfWUSsVqH0QP1GprTYiOxUiZpHvauMWQVB+bRKOJmbYxLJ+1s7M0Dm/Hqjs2EssnqDTmMYoQN1N0/UE7NtySof7kFNnflHAPLNL1gP5sfWwtphGn57AUH83KYEnz3jLodUEDHz32MWZTDMO36XV+LetubaXLhXVs+WsT3ksOfYfX8+GcFqwdrjFa36K3MBqY9OyXKq1EleCkFCezY8CLxbi6Zeft8tsuTwQse/BG/TTe6pE5fbCMIsmGr1HxLLZ8/BS+cyi5gknTlle4YXHzp/G20TEBUdzX1taSTqcpFPKYtqPAxHc9gmvHELqVNtKQipc0YHM9W4j95EBW3P4+5wzpQ8IpQ7xI63ittSNVR3z8jVos6Xq0tGYVBbQ1k2F8BCx77L4bkqih75B+bL17O11llIGUtkRAKLmEgIn4bSnl/Cf8v6RUJamDauTL6i2na9I4tB7KJutvaYajAsIWn3CVTfvvtqPlNxkC0VJuCjHiNkG5ghWKxYuQOqrD7tumxFUbNNoeqMoaq6YquqpVzX41xUzbCMkZiPhWMiMhlMiAMJ146fMUm/5qVEV35XbsxNVrVu9ynCNg2eUQfrYHeGTOfhhhK/H2X8HzLZo2/p5swaBYSpLNZ7hhcctne4Kf03efPWcmnbt0JplIqOxEZqbIulMcc7l2tZVpfPKFlrq8BXU32fzt6jIdHZvU9UkW3LCZs906YlaIecQBBJ07kN/vBGWH3tClm1JMyyPTnFFeYRkBlvETPqfR3Ps+1hWpWjr9vJ5eLV9m48onlfC1OlKnerLVccBKFNlW7tKr9Q4nayl/Vn3iNKNLT3xUpa+2n8ufMrve1K/7u3OlNNmrJLTqEDlNVtaoIEJIacKrhENjmQIIuWv0+GN974mXmNCfVW9lRzqxA/NUBq0nVaKcIt4vF1gig8x28REByy4G8LN++SNz+kPYip3+klqACtmNFAstFK1DaN70Z1w/IJv3SKSSTL81aubvruslVvmJeIxEIqnm08tutnz5cHwlhtQ7V8UKO90nt6lA16+3Z/Mqh5p78xg1ltpBVjyDzMARpFNJamtq1SyWltY8XTp11F5RhqF6LEI53t7UFAHL7rp4/xfHEWAJfJ/9e/chv170K3rUtJ5L30YD070R/d8WoSHLeFXaoqpPijxe5fvppr8qO1VBQP23LOvVnoyRSOCXSgp22oSXwiQT0GnryYiyX4OSHgynACQ0aFVsNXk3PfpY+88FbDNCtuNzHAlsASPBJT3dQc1+UTUx0cUAsVicyzO7XgZTudPnscdyybDBLJonXO7P52PEz+uUMV2HjnXUpjzijriaxnErBplshdas3JwWbqVMIplUDcNEzCBuJxg3/+PPZ1D28KdavvwBLNskHkuqoVw+AcXLLiU0RaNi8cGXPA79UR2bn9lCpms93e8pEiJUZNh0yQjsuIyQVS1+XvmgwI/+vT/PvFvkldV5hn+/M+mYXqBU8z6fJ9PSwvVRxrLHrvLodJ0CjR417ajkWhQoCEvLCmVqvQgUJSPQ1iqqzyJOlLLYK5DQMKBHVldTE1UiE0agNo9UjzbuseQwshmpSkp04lItdfltDX5dvnINA9fTwKOgRVW/NMBIViLML1+4YEJHNgLWhj4thHzZsNW8e1tYYG3AI/5jbbOBxBw1GWfULowj/uTF+UyBZfBll+xQrmoan74IwogR/r/s+BxbhERmVRsgUdTCIoWK6lHqP8YAACAASURBVILojyN/+JUKvpQfCk106t6bqdNm7bEbcU++0X3T+yjBnB+WscQnyLBwPVtZhdiGiycGdoGJkTiIcutqKq5PoegSei7jFm/Zk6f6uXyvRYvn06ljR9WETyQSuGUXzwgoDB2KH7d5OJfhvBkd+eBDh663bCc0LGX8t3HIKD0S1jCZPesD7HZdqdm/E159ggu+1sA7LSHvFEIG9Aro0z6uRhQLqIgh5bat2yJg2YN30+hUnVqbOnfoQND09128zk5MRfUNpEMuzvaqz6KRQprg1UkJVeCo5ieydFVd8JXvl5TPqrNW2kZVCxCVgoC48pczqcjBAwO3Sg2OVRc7GXEv65yAihStlDO2WhNDvGqmImunR8gGQloJOAKbFIYyuZQejmCf+iyqpKb1M3ZdPZdvXrdbovypAcvFQy5SXzxBRGW2J6j+CVAwBRQsg8CF++7+K2eef4hWlapSgoCLWFvI91DYTlX0qE7bcyue8mYSTYAZhqSSMYqtWbZt20rv/f+t2kALmTp1xm4J0t52kIenN5JIO1iGTr8lZYcaPF8awf2oZN+h6ILnJSkUs3ieSa6kxVZXz1u/t32cfe58ZM59uiatzlu0KaJdMQouraOHUzPZwS+nKN6Uk5GSqu+y7tLL1P2//Ncfsn59A3SvI96tnmS3NJVkDCtm8I1OcZ7Z6tIjZXB8TYEje9Yic1kkYymVK+revv76qMeyp26Wqec2sn1ZCx26dMbYtk2tTar5rUpf0rOoZgnamFotUZZvEphaKyKbCbFUUWu3+u/qgLcgpAJUZAw1AbWywrevIyiWCP2Qiu+qNU10KJKRqE2iIaulbpz4yn9O05wFTCSLkuN76ny04kV+eaq7AhtEKwV8EZM6DJJCCBCmMZJ5idDTUOMA1PHTKcZs3bxbQrzbgWWIlAOqpyYfNG7ZNPbqTcw0sGOiNDZVCUFPqUCBgxKNeR5mzNkBRLayvTDJZLaSFLdYaS4l65WyWYBH3GOVwlnRHgwShsE7732gREjyHDn853Xi3uPz+uJY4k1UtVuXe07YrAF4rhRlDCpeiOsnKbkOpVJeDY2ykv25YvKzu+XG+Vc+yL2/vEsJIpUVixOn4lXIXDUKM5dXmygRyPm+y8cXD8M0HWbMeJ9Yt97E9q/D6pLGqU9h2KLKl0VBl1D61dp8lPOR7sohtVm+fUCDIgQUcjlyhQKZlgzjrrvhXznse/SzTzu9G9sey7Lf975F829/t6M0VW2769KYAhS92knWoEtf+hml0KAYeFhY+IYUqCwajECMkdW/qz/FM1IU78LGUuLFam9ENfh1V14lIrLBrjK9qjIX9V5fvOcWBTavnTOwqtNvIxGYqtcni8IGI0RUVV/AImWYiJuYIwlLW3VIAEpKeo6l5geN3g1UYw2mu1HHMmb05eoL17lDLYl0A6YZUFvXXgm9ql5qVV5D27jNNkZDGz1Ol8HU6E75sIKqYYCtRrvqR5UgoS+kPKOa0tWla1j2y7vo1vdADVmmwZTP6SjXX83uSzwRx7IdfC+rG4ZBDN+vUPH0TSjmhcUKlMrg+ia5QkXVZq+dv+t2DXv0G74Xvtmy5ffjOI4aOaxEjkZAbvgQJZAUi/XtXbvinXUeN898G6N9I07/BpzGOtrVmxyZXcXXjz2Ece8GStvihBCPGYw92OLqRzbT6QtdaXS3cfaRXRTdWJyNpRTW3NSsMtProj7LHrkjBFgyjxep8aWKIhUXKX+1DWjTICJds2Zfr1NWdTCXVBEkF7BMaZ5rsaOCGik1KQSq/qZ977VfnCrpSw2/+tFk4Tdt5b6gGMcKhGRdNOl84Vl0PPYrvHvRUA68VWzw4bUBFysHGb2qyprpq5KYvN9afDKEHIpF2rBUKUyV1OT8qhUiRTSxbIq2xXV7I7A88MA9tBZKpC1o17Ezra25Km3SUGl9lTqtQEY+vNhdiDmfthbXQZVFUYnLlKeNpH5tQ6GVGY9m21Q52uoSSVqnZoy7vPr8H4jXyZ5P56YSv8mTpu2RG3FPv8lvF++HrZq/mmUSBpbK4PxAdtA+FbdErhAnu3o9VsJjaymO076jSpBvmPvRnj7dz9X7PfTwMlWGNKWUK+WI0CA7/BL8YoXmsddyx52vsX5bJ2I92hPr2o6bTuvM0ttX0ueL/Xkp341SQxwnDDjZLGB4BQ47vBvDb/gTnU4/hljo0z3MMPDITuqLr0thAiwtijU2fnwkktwTN9PUM3tgv1dH8S9/w0k41cxSZw9lTNzAJ9/WvK+q3mVxF2WiWK/YUr6SzW9VJyJrmZ4Lpo0kBXhEC6MeFvSZfgNmTXv+dskI9l+6mNXnD1E/D32PvrcsZPOKh+l++qkEFVdbsCiWms5w3hhwsTqMlMMExqTEJeuo/P1vhkcxDDkImzrJWGS9/ISAX1hnqk1hWlyR232at92asSxf8aCaQSFNR9/V9UU9Ya1a/xMEVtmHbnaprKPKo9M1TD0USaGzwoZqNVHFsM3hsy1d/Dt4SL5oWhZN25vYuGkTvuezeOEfIYjTkntmT9yHe/Q9pl/ZnZhVixnm8cO4EuJJYh4gDX1L3SSeNP18F8+PVcc36PKg/s1hwsLd06Tbox98L3mzhx5ejuPIflA7xcpI4ZYhF5O96nquu/YdrJoEiY41HH9AE6f+5CvMnvcqazv3RjwnbzipjlIF4pbBxD/5BGmbUG1lDRIEpBybTn6GQUe0V9lQa2uGcrlC0/btyrzy+kgkuUfugslnHQg9joTZj2LGLDoddzQtb7ypQGF7PE6YzZETt2NhimnxusaIUJyqLfzAw5HlTzIdARApe1ky4VGAxVdq+v63L2T14GH0XTRXuXkJIKwZNIzei2byzKwFfOPKURi+r3zkmn7/XzR87et/Jy/v0LgYvD3gYk07rh5D3ktW32Los4aAdkBnLOpNC2k26CSomi0J2vkBjhNjZOvuoRqru3l3lsIeWrFMlQUMXwOJJ7OaBUmlF6KAQdcgP9n4UqteNbv4BAhrEZDSAuwgjumcsErnk51Am9Co7bit2SzjrnmUY7/Wg0P374pph0yc+PmyGp85pifJpPSmYpim3D7ayttX7ThL9VYC38X1Alw3oOKJElzSY4m/q8VTqrFoMXlxBC7/r6vUkiUL6NixIzXpGkrlsvqCesUSD618i98+UeDARpfzLz6GWdOeI+PXQ22cm688mEzew6vkmTDrQ4KDu2PFHEhaWHGTVNohcEwSjknKsUhXWhh6dEc17Cufy1Isl2lubsaruBGw/L9esJ18/uTzjsHu+SWs+Q9BuwaCfEbshFWSsKlSUou9V7XQl2mNur0eKDGiNPkPWzIXLEeXpwyD1YOG0P/WBbqYAhRefInUccexauRo9ps5jTWXjaT33Jv58LLL6DdvHs9MmsyJY69Sz5c19J3b7+TfBg7YoYSUtU9W13BrM++NGqMpxopvXM2iDciK0wMBNWaM2jAgjkmyqpJs67FoQ8qAWE0tI7bsukdYW7h3K7DIQR9asVyVvzzFVJK6pFgh6Jqk+iWpoTLf+7vtQKDSFl0S07xsnY1khl5Ou3lzFLtC9uNy8dRkPhUMQVw5vhxTexdUKmU+eP99TNtg/s2vctFlRzNt8pSdvLX2zpfNHtuDWMzBkpTbUEREPco2lMxElxw9mb3uB3iqgQ+uJ9x3HXOZjS0KYEzZJseYumTXnUz3zkh9Ome1dOmt1LerJ+bYyj5dFonrxv2OMWOOV9fhkYfe5NkXc9w8/ctqEXrqyXf56OMif10XJ7AtSMVULcJKOIRxByNh4dTILBYNMPWpOJabZ+SX2yvfsUI+T7FUVpYulXI5ApZP57L+j6NOP6srVuPJsGQFoaw3jmagehWf5tDDVZmHnnEg9F1RwUsjXzyFHcfk3xbLELA2PQr8Zex1HDZ5Au8svpV/GzyQjf/5JN2+823WDB1J7/k379g9rxlyOX0Wzua5eYs4YdilCHqFtkHTH56lecVvcCo5goqvLGaUkl9cshXrWf9dwEVoxnJqlRC241EipK/qsZg4ar6LRjfZ5EtHSJKARG0twzfvxcCyYtn9qvkuNGGVsagGlAYAARjNapCPpkdnqtSwjZK3g1URkht2Ce3mxPCcxeAptrZu/LfRkc2AEZf9npqkwU2TT9xxEd94801+/dDrnHTqESy/+wVWrfv8sKCmjOpGIh5XZnFxW9LsStVBVQRRsjuS7DAk8AJFUxSQ8X1hz6Ga+qJ1keeIpkIBs6IeOkxbsnYPfV33/be59967SKaSyspFeh5yD1836W2uuvwAht/wBl5gUhOvcMFPG1l8x1qCeEz1EfUi4ysaarKzxayLm6k092Lkw56q4SfTcTp2SGDGHWJ+hmFf76bpxmrYl7Z0kZJY5Be2Z+6h6ad3pVePo/jbgqew03WY0s8UYpFhUQhcsvK9khUpCIlJP0UaF24Fy3RIX3QefY45ilUXD6W1oR1HTrmJt0Zdw8EzJ1bBSNoDHlg2q4eOJC7Vhdp6nNaMHiZmGGz/xokcfvZprBl0CWYqhZ8Vn+U2A/02S31tA6MkGYHWrahymFTeFHkAtiiBZMD+hmaFSXlOwEW0MLp8J+uASWg7jNlbS2FymsuWPYAfuCqrkIek84KIqmxVNbXZIYas1qhVs766826zfxYwanntdcyl91A7Z7oK1JgRz6ncZdasrzDq8hc4sHuZD7cm8c3tzJh6smpovfnmWxp8AotQSkVhyOQp0/fM3fgpvsv1Q3sQT5qkYiY1KZnH4CkNi0oMBayF5SAlLqmvCqh4Fd1n8dqyRZkJYqrMpVDWvS5tqieNO5upS6Ky2P/N5XvggXuVk7EM6ZISrzyuvfHPNLWU1S5W8u7AsJEWjGQ0yvJLvvymJCqSNposuuZtvD/+FwOW1XL3gnE8vBpefqqFdEOMdL1FjVVm8PcaVa8ynxdWWIWWlhaVwUTA8n9zlXbtOSNTtXT7YS1OzTcp3bWCWIf2ympFTzjxKWPRGnoEooCXuoxirupNr7ghG8kkB86foaoDbU3ktYNH0GvJHPKv/Zn4/gdheR7rRl9ZHR+pqy+N1/Rn+wM5iu9tJpCWgipf6/do0+trApSu0sg62u/GRsI1zZg9e+B9tBWjsT3vTngXz5eSGGxOp2nJtbA/DimRfBgaWNqcjqUkLndtwbK4LruXNu/lct73y7uxHUeLIpXeRMo1Wm8hTDAl6quWxdoAR3ZmwuXWjp7VpkrVsmDUsJdoqM/SUqhRXHDHCJk99zhGDH+WmbO/QmtLievHvczMOf+usqJ33nmP3zz2Kt/5wZe0qVtoMHnKvt1nuf6yRpKxkLoak3RCeUmoFNw0AmpqOqnwepVmXF/HW0Bd4izZCHYdmebNZHMCInrgj1L4ukJH1o1n5WFgWExesvtS4V37au+9r16x/AFFNZZ7XGx15CabMPV1mpvLZLMVvnTx4VzYfzWW9zTl4HyGTfkbgXR3PaF0mnipAndedgfr3jiHmsOOpN4dwV1bZnFKD5s5d6yifacUzU1bGXvhoaqcnM9mdSmstTUqhe2h22J0qoZ2R9TQpfZIWp59Xpfc9aQDtUWWrfJ2mQ+vvjompu9pPZ5UYNTMFTBq69lv5k28P20B8fff1Z5h1YNIf0OV72VFs6Uk7dN17Nexml9WFj/GZo91D2R39FfaMhVNXP67SjBIWPS7tD3hJpewBswKhHUx/EIFM+UQplO8++Iq+h91Mm/PWEnSN4gJiUBKHnKcKrFKNvbvVyr8olLYbRHe7T0WlbU8eD+TJryMk0iopaw1V2bg4P3p0jGhbFgEUNRIA0HdqmGfLHai95PcZeiwl7DjHoMHfoGFi1cxd/5xXD78BWbefAyjRjzHIUcUeP/tdkyZcbwqF4wZ/TzTZpygXEKbmppYv2EDzz33PCec8GW1iE7ZhzOWCSMaqUv71KVs0nFHxc6yPBKJOC2ZVmo7NGIEFRwBZtmiyNbYEh2LTtvlhvbcLKVsAZwUhVKdpiX7ZQqyYOXKBGranQhSbSYujpT5/9u365GHl6mFxnIcxe6R2fQ33vg625ryfP38Azml13WU/uSRPNbBbw44e05/auxvKqaeTJI86tR+XNRvFEHGpPXVntR/bQ2V9x3mfXw2+Y9rqUvHsZwcl557iLpOMoelXHFpbWlRZIEoY9lta98/PdCVJ32R9vkm7NeKqtIixQDlslUdqCVOx1tEHV8t7TvVSYxOVdQo37oqbqiusPCMlXVktXes+sLq3YXNatLjpjMwtj9PWGgmLPiY7RKE6cPYMOn3qpXQ1o9uGy4mpS45ft8JR+Bt34Qhm8maGGEpJCiUMaXeZZQwAukDGfiZALOrTZh1wapn3YL1egNffYiLycjW3ZetqBbO7mSFtZ3olBm38OJvV/Htsw+mU9rivtte409vlRk55kA6NdRqFlhVsyL+VgsWv0mnTnW89NwmKn5ITdqiVAiYO+8Yhg55ngULj2fUyD8xbebRXH3lnyiVZaZ4yAFfyHPRBd9izBXPM32GgIihnGbfe//9HZoZ2VHuy8Ayf1x3Gmot0qkGDDuORZ6m7Rupb9+lmv3pG1R2Q23uN0pJK5CiUmmxxLEIhBFmmmSbtxBL1FJ2LdywjlJJHHUzVColndGYMGFhJKL8Z6vOI4+uUJ5ssvmU2RZSarzxxpdoynjcfMN7WNtf4LRrk9yz+FJKH5UYPOPX3LP4TBz3l9y5/grO6zkZgi00rxtAum8a3pzLeQtr6dD7XJKOSU06hm1s4cphJ6jSV76QVz2Wlha5RlEp7NOHFZh5SXfC1s6Yj69V3yk9s62asohjtXh0+S5C8lel+2r2IoQapb8zNaVX5zfaykodSJ4r2atujCj3hR4TztYCys1P659ZLkboqBZM4dUSTa9kCctietlGEtaMW9nc9Jl0NP7mVZjip5grE9rSrTcwOsWg8zcI33sCLI8w3h7DyBGug1IBtv5OTF509iPrcCKW4LLm3esh+KkAy333/VJlWYsXvs3ZP+9DTV2cCde/SibvM3PmsUpBPPyyl3EcmDnzGK688hVVzjns4JAX/+Qxd+5xDBv+AvPnH8+QIc+xYP5XGXrps8ye9xXVsBdTygvOaeSu+9YrAZEEdsasr+K7Ilbzeffd97S5WnXk574KLLPG9qB7hwQ16U6ERgEjKKkmfMxuGyRkq8Wt7MLWVofnPujK2qYETX4NgV+hV22Fg7ps54s9t5NO6FqwstsWIoXvqR6M5zuU/HolxCsUMnr0qukwfkHEFvtHi9gjjyzHtmQ6oF5E5i98jvffNxVAL5j4EIQlWjcPZcSM7cqf/NY5zeSeeIn6bzez8cnDWfelUziqw3Xcv3YiZ/R5lMqzz3HpU6dSW9OdulptqpqwtzH60hNUNp5TPRbdvBdW2PgbJv7DtXXIkCEsWKDprLv6kGN98rGrx/3vx5Nj78ox/9HxduWY//14fctPUni5lfp1oWKaWqJb8SrVsYumohPnhJxUNYKU62wLoFimKofpvoj0QavFqyDEkvKTMGJVOUw5fdHt4kOwGveHwnbCba9j1PcjaPkbVkJYnQZGsgPU/ztrJt6KmY9VKzxaGNlrwUUEq1bg+A7+h3m8WvFPTOh2Qrs4ZsHF7/ElWPMKVreeeB9twHsnZOPrTVWlv6Yly/kkU2neO/2Uf3jb/P9dp392LT4VYHnwwV9imhZLl3zA9uatDL/iKBXoG657ne//pIb7795OwiyrXXPZd7DFuM2EmTcfy7BhLzJ//nEMHfoiN9xwMJMmvsUpp9Zy/z3NJNKtdKgLWLehHfPmn6AuZKVcwnZiylNHUkUBrbfffmeHZ4+U1ibto9Yu90/bj7p2XQkRhXarohRKqevZDzpzzxv7KbW9ts7WuyLNPqr2qeRGV50+YZCogeuqzCidltHHP0djJy3UkvKZGyYpVJKqD1MsbMWwEoyf9+Gurk+fu9ffcssiOnXshGMLsGgF9Y0TXqO5VWjBFWZPcbDdW1X2mH2uN5ObfszkH87h/o+nc2bjODav7EfNyReQLo9h3K9+yg0/fpKW3/Vk4p+/wiFnHchfH3yP2roY3To2M+jMY3e4G4uTdVaApVL5p3TjCFh2Hqz+B7AUH2bzfa10T6SUJkyU6aFha/uV0FOkjJJh4ioXEG1bb1UzFck6pBTWVuwSwaQCEmnu75jsGNLj+u/Cqmcx00nCrodC018J25+AUdkIrW+rlkGY8wmkiJCyFLtw4wzJKgxauod88ZpBeK8vw+5Qi7+6uZoVGSprMcSSsWITxCrKUlnWB/OjGGHM4qPfblVaG6FQtwFdJfTZOODcvR9YpA4tyHnX7W+SyQYMvvQg1cyfMumvtLQKDTlk5swj1QcZdtmLDL6oH7ff9hEzZ0vp6wXmLziOIYOfw467mH4cN3CxDYt0bYwLL+pB777dlBeW5mP/XZ2vLToNVn3wgfoSLpr/J0W3tU2fpuwf96mFbsn1fejSuT3pZAe80kfiPsS6pjjX/PZwxRaRLE3NfVA7Z0OTT4TX3qYTUjN8tBGdAhdFSdTzGtTPCJlx0kvERHgrY3CpJ1e0yOdLlF1pRsa5dtab+1TMPu2TvWPprbRr3w7LslV5RG7AMVe/Qi5ToVSs4IYGt89YgREW1S6nYs8i5l/OmaMbeGBGhnJlImZyPc722fzkxq4sm9rEupe/S8/jnuWJDWN44VfrcJIOcWcNIy/6Jp7rUigUKBSKVWuX8j+dex8By+4Dlv3abWfzrMfoVlePWyiqLFIV76tlLDF5zaj+iIUpcgophYVagY/j0nfEYayZ8Q5UxDPMVlUC6XmqBV0SF8Onx1XfIFj9KkafAzGKHyHGftJPMesbCAstom7Ukoy+XyV4948YXRsxs2v5eGmOriN7ERPx5cat0N6AtRbhNpPsJo+607vAto2IhbJUwYkHhJmQsOeBrJrxJ2KmVv+3lcIkk6oEPuvP+/neDyxyhg8/soxyCW5d8hcGDT5ILYJjr/6T8sgp5X3ad1zL2Ct/zPBRrzB//jFcMeIVJk87kuEjXmLUqD7MnfEBXuiQdCrMmPtVXDfUmhhTWGVyIU3cTJZ3n/k9B//oZD3y04TV67Msmv4s+dw2tYiOGHk8QXk6E6cLO23feTx4879RV9+V0N2osoo5/7kff27uxG2nr1T0h0EPncIvfvQrXV/1Da5cdggTf/ImfpAiHitw3rJvYQsrTBqOJiQpK31LLQXGfvslRjxygnJAPefQdzi6fxYRqXphLZm8Ta51E6bTLgKW/3a73H33HdTV1qo+VEya92HI8JEvKLFq09YiJ48+jIfn/ZXbJv4KM8hS+D2kToQpr41h7Jdm8MsN0zij1+00/bbM5Y904NghP6BbO4dTOl3NvGcGsO2tBK7h07PjRi656Duqaa8FkiVyreIZ9s+b9xGw7D5g6Rs8pFmtv3SV47rpu6oM1sYKk43aNkKESqNsWwJhWpk03vQznKY/EIQJglgPNkz63Q4xoh4KZtDt2pOwMy8TthQJ4kmsujRhczNhUMGoqSWsFNTclgAXQ1ohFvixjljdagjtOgxTaM8NeFteICha0Opjd60lKJUJnCROvCwNIIzQJtjk4nUICN928FyTj1/dRkxsZWRjKlpD5S7vkAldtv/87H0HWKSJfNdt7zHggv1VqWrcNS+rlE2YLpBgyswjGDXqFebNPZ6hl77A3PnHc+ng5+jbo8jlV5+oSg3yLZaL3GZSKbuE8po1bHvhD/Q8/efK/3nWrBdY9b7mmVuGh2mFDBrcE8OdQxh63Hufz98+1pqDfeXx2JKvEbdEc7WBTCHOsEeOUI6nd535uMqsBz3wHW458z+5+OaUoqhOPacJ35emsseDv85z2vdqGPz4j5nzzd9ixSqMuLMfX+7+Aqec2FGBzeDl36yaqQYMOfqvHNS9gB8YFCtp1QuTL8fVM1/bV8K1R87z/vvuIZVMqfiJEaDkysNHPU9QDpk0sQvhEzfxs/sP5ozxAzm95xiaV/al/fc/InQtCitreOiI8Xz7o0cYevcL1KXPpMsXa7hiUH8ato4laG8TrE9z4/KTOeWUThxyUE81/iGvBn0J3Vh6LFEpTC70p95jCR6DDz2C54rIRA9xsVbrUHU2vKxKYo5UkYwiEDNdg/2v6oO3vYjlyMa3FqO2E0GiPRuuf2yHO7Fhh3QfewZG9o+E67IYneoh16rZnPUNWE6KsOvXCf50J6a4RZZNrC9+ncrGp7Bk7HEirUWZrSWIpSluKBI4YMWT2CkTo74GSxqwG9fj58FqNaB9QLDF5M0nm0mbtsqqRI6gyuTyp2Wx+qzT/un3Z6/qschZLlt+n/KuunWJ9Eh6UVuTYOb0P+NWfK4a9yVGX6HLVJKuzZl3LE3bM9S3r9GNkiqnS/oHthD1qubHyiFZlbtMLrv0ad2EslDzBWKOwbTZXycsjsYtFXjvQ5df3OZy4eDRzJ07m6zQbfehx8olX8Egi+8XOPeXX1FaiAY7YN5Pf6OsIwYuPZZbz3uZgUsOwur+JX5x0gMMuu9EGp1NbGrJq3hvM/vSsO1JbhposWVjjHmPNRHv0pWrTs6w4rc2T+T/Xcl0hWE3+6QXVMrv+mnypTituby6DONmv7cPRe3TPdUH7r+XVEomdkrZQwuAJWMR/crCKXdjZGHumpu45IgYsdJV3LN+Oom4QyaAldeOoq72DKy4wQlDj+Rnfbey4fm36XF8I3ZuEU9lrudbHadz/7sX8bX9O9OpfRLPrZDN5tXo45ZMBvd/YYVFGctuzFjKK/E+yGK9KiVhbRclJSw1Q0q1OS1KXln12frfeBrWxhfx3QqBF8eMhcrl2unUnTBeT+4PH5L541q6X38WND8JRnvC1k0Ytd0JN2/QrDKBi24Hg7uBMN+MWbEIPE9ZuxthBbNzHX68I8ZHazE6g9FwNAGt4FpsfOKvoi7AaReQhLEZUAAAIABJREFU7pLAcjzCUJr3RYxam7ACrzy1jfh2h3VumbWWSRc/4KCaGupMBycW5/1Tf7TvAMv999+LY8dYMO8tUglLWVOtXdPMNeOP0oAixm2msJPa5g20eVlBKtPKtrUt1BzaW9oHil1TCkzGDPujatQHXlmh7oGNeS4Z+z2cymA8peGQjFWs+A3efqfCXQ92oJhr5qLBQ5g4cd/yDHt88TEY5NmSSTH88UOxLYM7TvkNb30Ihx0YcMnsGhYNzzH/gZC/pM/mlpOXM+iW/XCsjyl1+D7G+8sJen2P6778Oh1qPSY+Wk9H60XWuYdz5Q/ijH+0nmy8vb4GnqcUuTf/8CXFMsuV4jRnWjGtNNfOfv/TXa33oaOLPiuR0OwceUhZdshlz6q5KbMmvI7DG9r9IDD4Q342t1/za0y7kyrRjp9+NF3NO4h5b3PTU+cw7jt3kHXmkarcj/vB8zxacwOn91jMxN9+jUu/cxTppKH83rLZnCqFycx7mVR5wz9xN46AZTcCy4aH2PxEji4yeFDRfH0tfJTykfRBLIOKGdL3qoMJtzTj2zGc7ifivvsY1NZhUcZvKWJ1b8R06vl42h/pcd13CPKbMN1Wgsx2yIT4eTX6kTBp43RzCNsfAn97GUWX9S0Cq4ApGUhZXDbQfmWiyozFCYo5zVZLGhBP8dHjTSQ6N1Cby5HsEEI3A6No0fS0x3NrttE7FsP0fVKJpFLaS3VHspVkTQ3vnPS9fQdY5ExXrFjGvXe9xpZNMYrFVq4ad2zVCFGayQHZO+6j5twzyb21mm0f/436bh1pd8ih+kMa8NCvV/HHJ7erHbr6KocB02Ydh2O5WN5o1bTWTaiqNYmadaCZT2+8IanjJVTcgJhtMmnyvqO+/+XMo2lX40Locv59x1GxZIcc4+6fLNdsjh0PC9+rYfB//pDbvnMvoxYn2NZ4Coh1iIgjZTtUyqiSYtxJ44p3mPZ8wROvEWUO6unZDmHArJNeVI29UtmhKSsiSpNxcz7Yh5b+T/dUly9/gHhcXKX1/NOKGzL88uc4cvCh/Kz7YszgA2WbU3Qn8+sWh582vs9j6w/kJ10n4L65jb92ncrRztWcMqE7y6eu46kt0/mPLpNoeamOlsMupsfmcVxxeycmThpL3NYjvXOtrRTLFWVCKRqtCFg+/VJY78zDbF2RpUcqpYgviuElDErpSTgW3cccDNnNGKKctOOEiR4Y21arHrB6aiyJ+1EJ4mViX/gCbH4D+nwVNv+ZsLVJ05alf1Lw8B1bUZSDrjGsRFf8bAtW+zogRdi6FfJNyiXZPPBH+GsfhLzMqXII6nxMz9ajkOM2ZroTfqmJTb/L0qGzhdM3Rv6PBmZ3i6f/ayPdsKkxhcouYCmlMO174ljwwZln7FvAsnz5MtXwkkmSolCuTsvUcyw2bcPp1BFX2enrxrowL64Y+RzFskFdvUO54KlS19x5x+MVn8b0H1DFMamH/f4vHXjxpQ+56sJaJQQ0DXH09JR6XJ6zZWuch36zP8cec7z6Nzu8nQlTt326K89uOvr9Nx9ObUpXcs+971idh8sNuOp+TC9g8ZgGYrEKw+45kPnnvKcYcmKJc8HNtfgHnIQV6BGoopeSr4PyghZzO8U+9tVcD6kNK/pxKI2+kMCtELMCZvzwL4oCnsl5FIplrpsb6VnaLuuKFQ8qYGlz1b7xxifZ1JRk7rgHKa8s89evTOGI9FW0bh1JbWkORneTresG0bXfEtY8fQJdvvPv2O/cxC/K47nkoBuZ99oILjtqDts3DKWu6x/Y+pf9mPwwTJ12gib7+T4yCkLMJzMZ8QqLMha5Fp9mj6VP0wpIOWx7qEB3O66ugRjyGVZIt6v7Y8nwQisF64qEcQ+K8iUyIS5kDl8RZAzDxc9bFIwy9Uf/B2bcJCgHhG88gdX/EMJNb+GK72to4BzeiyC7jrDgyj4SOvbETqYI0t0JzXrsDU8SlIqQThN6ORAds6gnxVC2LGJMC98JseIhbk17jHia4otriPe3sOt68vjsP1NrmNSaJmnTIK4G1FkYtvSjLUqVCuvPOXPfApZly+5TYiL/vQ9xevfi3ZVPsN+Pf6CNEqsGfoI2V495iUJJqLIoa5KenfOMvOpEDHcYofgxVWccyAIrxosjxvycRbOXcuHQs5k/81ExLdHUW/Wndk4oFOt56vkT6dPYTQmZYpbNhIn/WFy2m/Bgtx5m5S3H4Lst/Pze49U0uoodU1TBQEacGhXMDx7BOOhn2C2rOa7hNZ5/18ba70fKZruckMnWMlPdx1JyfDXYmvHvPKrGkgoVXE+YC1Tp69rDf6pVv3jcfOJ/KtFkSzYgX/AZF+lZdlzXhx9apkcSS0eXgNGjX+Jbg/pzYsdxfPznHzHh7jjHXHE0A7vNpHntaTwe782jE6/jobk5CtZ8EsFyys//lj8fMI1j4uM45aY+PDJ5NYFrknu6nstWVqit/yk3Tz+mahfjV0cT6x6L7/7zeSxRKWz3lML6W7/DX9eC9wyk1ajFUMW9x5jDFI03zItIpExYCrAO+QbuxtWE2zdL5YpgXY6KZWKHAenvfZOweTVmuyPxNz+OVSzpzV1FymkuYZCAchmzZwNBcyvBxgCjLsA84GgMMwbtDsT88A78XIiVNQj7d8DftA0zLyOFDSqtAUbZxmznY7qm2nvSIcAsGWxbVaG+fYw3n95KU2CoccQCLmnLUkPIxHTWdAxsy6HgeWw449R9C1juv/8eRcvUljp6AqTYur/3YYYH716N63mqbqxYTud1Y/+DGjErQxVLQj68ZWhluU+CUWNP4mfn3sdRXwgYMuosNc9Z+OGzpz+keOHyPPlTd/oDikWT99cN5fFfraAU2Gxcu5rWfaiBv3LJ4fh+nnPuPZbQjKmekjTwZccR2raCUcuJ0WndKoZvf1UN7/JlToTMjPB9pn9zhCpzxQKD0X9cpIBVGimGJxmKttYW9X3FiVE6K0G3ugyGHeAHSTw/Tibrkyt4jJsXjTFu+9Y98vBybNtSv2QWxtARz/PzEf05vPYG8AzW23O4/uY/cOuoB1gbzmP86Oc57GcHM+KIcTyxYRLf7T5PVh/Kf4Cw1uae2vGEySRvPHo/zW82k6o7lq+ctT9nHi/jtSWzlIwlp23zpcfiScYSKe8/zYylb3YF4WaT+J8qGPEUYVjRa0vo0+OSvvhbM1TcBLGwgBkX8bGDXwSjW5z197XS7OZpOKKWXv9+PMGH/0WYrMWImRiZAmHMx2/1MdLgbwox60xIp3DfC8ivKpPqYhL7/gmYSXHBrsXMv0dQ2oCxrYhfkZGQphg7EJoBnmw2JeuxTBKdS1jxGEHF4O3XC3ToalETj/HhK81sU+OPfTrbNmnLwbFkXkxcz79yEqw+5aT/dUO817HC5GyXy2wW5b1msGTxW2RayorB0JLLYxlxbpx0JKH7MYY7tWqCaOAFLnc++H/a+w4wu6py7Xe3s0+bPpPJZMIkJAFClY5SFKUo13LtPyqIXJEgQSAQVJROpHdBhIsVBS7SpUqVXgWJISQhCekzydTTd/+f71tngpUkZMqZk+88j5KZOWeftd+19nrX196vFsvmH4B12Qb87PKb8dpfd0Nd03xc/7Ov4LKf/AYnnHIkPvO5X+HJp7+JS8+5g/vdczyVtLEoJbDc7mDeoghX/tTDccd9F3bcxgUXjJ0A/v0/m8738a2bP4yANjIiZ5PSBakCWEedW8BZi/+kUoZZMTrg2FIQ6SiFLjf5oYIsOqFQYmxu2nbo2WM71Dz1GnoCB7ue+j30fP90YKcsWg9VmU7k03f9eo6tDORCZPIezrlWerUMPnn33XMHdNOAZdJhKcCxM56DZgS47vxb4QZJGGEO62LXYlx4Ah7sugB3XvQmPjX7Q/hK449x+ZunINbShi9M0nDyjFlIpQ6HRYcBnbJ/QpgUU/GpoM7A9Td8lHvmUD+jgSypGrtMLHQQkxjLMLvCnAegWeOQvHcNPG4pTO4t2ug1hOkAk749Bcjk4Zcc6Nt+FuG7L0Crpb5R28Bd/gaSU6dByy6k9EropgV/3VoYtTZKvSZMUtBoqEXUm0VExZXNGvx+C/3P5+H3Woj0CONnbAfNqkFkp2CsfR6BW4KW0+AvDaElAT9rqDgOPfi2htJqH6mpEbTAxCMPd8LksADVrVF4XsNq7hUbYaJpoMYwYUWqEZlp2zATNhYc9qmRIZahPA3QtRa+2YSsF8KO6zDdAo47ZVcY3q+AcAkXBVF85KSzmnDhmR7OPOsgXH7RbTjxlK/hkovvxQmza3DTlctx6hn7oJibCsMIce1V9+AX/zsdh39tDdKptXA9C7ruKBEF7vdO/1XicH+b5yO0vocly97F1pMn4cIL/jGA/5/u9Z+R3hBrD75/Y683+P73u+791+/IVt6Rv98TIcngGwZ+8OaduGyPb+CKefeUZSZUdhIF4Si+RFET6ixXClUXOQraE7HEyMKJxdD/7SMxcVIHIidkBeRls7+PKSekoCUpI1+Z/Y5Xy0HpTM7DQNZFj/6Ff6vrtKn3uiFMN/d6/4zpUF2PrkvzRNc79JBPsIxQjDITQx/HzXwenuthl+P2wMyO74NmIFoTQp9Afc41BKs0YMKZeDZbjxtPvw2xxNbrdaSoXw4fubwAgZbBzBMmo6mlgbOOpm0zlTczSq/PZCjG4ihiCQJ0dw+tCu2Q+m+r4GJbZ+5HuCRAc28DBjq7OCuLCmEHW6iPP7oFmudC90yEcKHv8GV4L90JNzEB8e12hN71JMKeAiLPh0aB8gSpwASIbBOaS09ZBC0VoFhsho11CM0YivM9ZFcA9XvEkJ7SwNJNRErRwCqEuQhhV1kbkB2wGnLLAbvGg91uwnFinGJ8+11dVNLHbq84dNi66ha5MvKQ1C20awbqDA0Jy2blCMu2YDfU428H7D8ss/YvWmFDTSzbbbsj2tvrYIdXwA9dBEEJupnEOecfxERwzhl34Nr/3Rkr1qxGcWB//PTymzHzlINgxJegMLAnbrr2Tnz3xC/jogseRk1iLQfmKezCriEWUStr8SiBa7Z8AOpFbmLBIgMujlWZHWQRutfhwiuoE5t6bezmMxrEctdVWyOZaMA3f7sLPN2EVV8PxBKImyYuev4mHj+5CzkxztSgn38ecrNVj2yH3GEUY9FDxLQI6bPOwp2/uAm7fOQj2GWvvdB91jloOOPHuOXcs/FZN0LDLMp9p+VswvESKDkGBnIl5PM+eowvCbGUieWThx7EGWFUHEkn2e/MeBbnXrwrIiOJ2/+WxXHTfggt4+FX2avxtY4Alz6zFEvu7Od1ynIens+iqZ6fwbePbUHLuAY+IJAVyutZC5F1+rHn9ntwnxxqkkcdJEmEMtM/IMQyLFvgP160A/OQf+Qd1HQVYKdTqqGWRxmailxov5nwrfGI8iWANLy6AhS6PCQ+cQiM7N+guV1ASUNE1c2U2ZVbCyQjgJI+4hMRrlyBqDkJtB4IfckfoU/9HPIP3Y/YXntADxdwIlNELRa0OLRsJyKnGeHabj6oeCb1WYrgrTPglwIkOzygycTtv1jH40pBR4xKz2mNRoBjAF1hgFbDQoNuoMYyuRcLHYz0mMEZYnM/deiwoDrsxHLwvvfAsBrL3Qqpf4UFLXJw6pmfxn996VEctFseYWjjzAs+g4FeF5fMuQ+JRBYnnfoNXHbxH2DpJfIUcI92yoqlbNvA92CYMSCkSAt1dKZJVA3FlOQLndbptFeDl974OEgB4O47/oB0rYFVa94rlKxkYqHZfuiGHXH8/Qcgo9XyxqNZFvZ/+lZ8Luai9oLzoKdsBoRiV9efNAv/j5aVocGj2MuF57LF89xv/w9/XTAPB7sRVhy4Nz566Kew6sfn4I/jm3HoO0vRGLNQ/z3y21JLVMoSSaBQBHr6C+iMVFDv3xHrxmL3n1btP19zc683UhYLZd+x6Cl8XPxgJ2bteR7Ovu9wrHk6wM8vvwPe43l8/fdpNNR9EUG5bUEUUNyriGNm1CCVSnFxpR+FeCG6BjW2hpqYjjorBVtPgfwdB7T/mNc4ZVJSgy+qY6F0Y9/30d3TPywbgVxUIdCWexW9t83FxHQtrGRc9Sj0fejUlpjr71T68YQjWzje4XW5yHYHaPjMIYi63oaeXQXkSqDcJJ2IKaS+KGSxUIGlDi1NQpEWwkKRa/tCiplQQkCrBS2bh95cB+QLiCIHQZ+NWE0tvHV9iHxqMR4Avg57152QeWge7O08vHTXAPY750C8euGfobvK66A0ITRktQh5PUStYaGOWmLHbcRoFLoGPWbDy2Sw7Bv/OdV4c9bEsBPLxz5MRWXjOQuMe9xrMYRRCX44DRdesAMGcgEumnMLZv3gq1xJf+2lNyMk1V5iEVLiUaYGND3J3RFJ8I2sEpIuQUQQ0kmbThJUG0P/pY+o3gmZnI7vn1nEzJknorunDz1dK3DHPQ+OCYuFBnnfddOpZyaOeuhQ7lgY6Sa++eRNeORzJ6H1T1dj5nVX4+XzL0JHTw+aTzwJZscEeGHA2R4ca4oiPPGzX+CAY47EFeeeh8YJHfjYOwsRi/modW1eqErlNED9yWTtAUUnjWwhRHdfAb2GknoQYrkOP//5dZjQ1sbri+aCEkfOuG0RzjroCvhOEkYijXBlF27XL8MjF73IaaqRH6I2sQRHHbcHuyt7vFXorb8FW6VsJGJphKHF4qLLKanEsBFEtN51HD71J/x5iqmodgYFZAYybMWIK2xztrsNf7Zj9T3ofjiDKVtNQOjQMxEgorl0STafMrIUuTg1RUz573b4ViuCRStA8fAoEQPiNox1/XAzAfS0qsfTE4Be1OA6gNWuIUrrCAsutKIO7PIFJXC5/G5o9dOgrV2MwKb+LMRMOuA1IIx6YbZuheL8lTCTgD6F6mVszL2hkzXKdjh7T+iohR7P460fv8htyimHqQgNnVqAZstCrW4iYZLFYkKzDJjxJDKdnVhz1Dc2DMoHeMewEwuN6ZD97oNmpjg4TD1B6GG64OIv8QPzraNuxzaTYgg1SsFzygWPtClSKJpyw+kKpBfmcPyEXUDkDiOrhTfQgM1HIhZdT/DEU243xRxKLnDqaTkc891T+HN02pwz58IxQyx0ij9shyfw7Uc+zcF1s6YeME0kLAPnP/IzxK+iZIQIb559PnY558e4Z/YP8blLLsK8783CLtf/lDe2u+78A5J/fhbTdGDSN2rhO3mU7lZWHSHZPamAyZ9naWQEYQy5fArZfAH9OR+9hlgsg8RKkvmtLeM4ccIkZWlDwzHHPIvT5+yBtqdnIdP8BdxY7MD83yxjZYlPf6aIbadPQqbUi2zLjZiYVkkXUZSAH8awvOhyrRGRC02FEdWjqDvoCwOcNO0SPoiRVlgum0O+WOR+LPT8CLF8gF1uEz4y7uF7kF/Vj4ltE2BSV1bPoawZRG6JK8K4nYof8v5TShYx5ZB2PtqWOl2kiAuaDXhLQ6AjBgs5hB4laATQPFIkL2euJnVEMQ/GuFpExQIMI4GAss8yNsIcyR+Su54OyibCYoCgT4PZGsHY53Dkn3sCdmwtFt/Xx6UcVOc39UekFG9zfYvhZZBfFOHduxch1COs1DXUGSbqTR1p217feIxqZRasXoXF7QamHjL05DIyxHLAvWxdRFpciZ+FHFpGFJVUKh9rPKt4AWnjRBqZkFSaGucq0TAk7vVUcSRZI/SAUnkGB+rps1wCqKwVTmvmwg12uy1Y6GFZ539jYns7nx4u+LsA/sa6X0YjxkLPAo3vk9s/hkhPYsazn2d5idMm3oXu2xdgx6AZqasuxSNzzkfH2n5Mv/JS9Mz+IZouuxCXnXoadgpCbBeEKITALt9PYuXVLiyLI4nQwhCZ0MOkk1WvBpLUJ3eiQz1Z8hF6BoqcGdatf1EslrLF9oubbkBLi5JnoeAn5Wz/z3FPI3ID1r8LXEqbj3DkUUm0TqjHO/gdJjethWmqDp5RFMO7WY3rkKhjh+9TPREdgHT0RCZs2NijZl88k3scJ027eD2xsCusWMJAZpBYxBX2fjyx+NHfbwKN/Otb998xjf4H+7D11pMQOg7HVygOpkU6Ai9QcVyNMi+poNHFpC/XQ2/rQLR0NfKuDSvvwugLoe+/FbTMcoQrHOjKYw1YGqKU6gRJqf2w44BXZBeb5hqI9ICTQ4JcyBpflPkVFQwUVgeItwB2K4Dx47DopwuVJaQBU87YhxsAwmqA5q6D5ofwlvRgwR1d7DqfjwDt8SRqNQ3pWBwxSkagr65J4T7nH4ufh5JgRoRYDj3gLpBguxblWDWX24SEFGD3EPopGIaDgIobI5IZIC8gkQtJkngIyO0FyswoQSM5ao3cYaq4T7XkpTB1GkFQ5IpSqt1gNxDVm0c63pxHp4Nj8dSTT+LAAw/EhX/X9GssEAst/U/v/BSOe+oLuOGAmzjl+KWLHEwLEkhfcznuPeMMHJz3YFx4HvKzT+dIk0fNhkhQMgSoiQ+9EvE4xwY0yjAKHEw5lfDjpqhMzEGow3Ft9Od19PTmmKh7xGJZT6y/+tVNaGokbTUdhqmDPCMzTiBiceG7HnbaYQ0+/YV9sFq/FI1p8mNTzCpEEMWwoqhOnx6n3lsIQx0DgQE/ImkNUoqIsLXRiI70rpiXeRxfnnoRx1NKjqs6SBaIWPqxdi11/6uO1+YSwHCh8PE9mrDuni5Mam2FQRs/WfJF2rgNRI7qIknSLetKRVhWDE6UxR7f+xC8Nd0o9AdY8mQGA31Z7PeFcSw5VVquIf7pfYDFTyHKmtDJDVY3Dlq+F1ptDZDrRhRrQ7R2DReXhY4JMn38fgNGghZMCGv3g5G99zHEtwEG5rnoWVhgS4Vek0+eBisR52xCSg4BJXm86+KdJ3rRpxnotA10WCZqQK4wA/FkkuO18ZoU7s4t/rcwDgXBjAixHLTvXWX3FAXXlX+Qm1NR9hb3gaayVWqOpDK9VHof6V1RlauqvGeJSvodWSxUEBlRG1fKBKPUT+rTQn9TcRwlHEevEGu7k7juxhSmTZuMXT60Byxcj3MvzPBfxwqxHDr9T4iRqI82wMWNMJLomeMjdeWlKLkBCrN/wNkipCZN1fYUK/GjCG4UMcl4UQibso9MC0U9xLRTiMTJD0uYKqUCj7LBPA39OWAgQ3LhBjpDpXoqMZbr8Otf34SGhkY+vZI6xIsvr8BNN76DwF2F42fthELtzzExNgXtibUq9V1z8UZ+Curt3VBrbYW4WcuWtOfluDg172ZQY7fA8bMsZR43G1jckNwbSbuGiYUKI3P5AorkCssMjBqxVCoJDDW5bLvcx8Sj90bnL1/C1I6tOHOKlY3dshwS+UEc8pxEKHoBep0CilGEvWfsAG1hN17+00rlaooiECVtt1cz4juPh9bWiuCvr0PfehKiQje0wIPuWwj0PDQzBo2CL9O/jujNmxFQ3IUIpmDD6XVh1wN6K+D2prDqxTVwMuRlULqJzvgQu39nD+h6HIHmQPNdhO/2srWz4O5urCQpK8NAjW2jlupYYgmulyJWIjHKO0tLNwjhByUZ7fjjj1eBi2F8fXL/P7IVwY08NXJn0URRkVnZ3mPaUEVIXNtCjhma05BKe0h+JAFdKyIMuecmE4rq9kmuMEqwo4p7IiD6mf5N2WLEWAHy+RQWr/4WZ4nRq6evj4PbY+m1b8cDaKqrgecVYJlU5mug9ydATxAhTZW0FHsKDdW6mGRaohBrfAdF2sCMCANOhB3iFkqmgZ1OVT23KZNMuSM1eFEdAs9BwdWRyVGKqwfdMNEZvH9V7ljCcHPHus/eu6O+ntKDdW5Wd845f8K3Z2yLhfkLUB+nZJIinro1QtfqEub8qA25fCPSNWuxxPsc6uwpSBiNbJ2wqiwHgVWvIccLWczWyYewqacGPRkxW1kspSLy+QIKRRW8X7tuwxbLlkICmzuf/+7zO67w0fqZZvQ+mkV7SyMMapRHL9Zt81i1gn7wSyV4lEGpBeh3Xdbeo5gwp41zBpnPhYpWpGHbzzTz3lRcqiF5+CEAVeNnI+jbdCiFYj9kzbFgTQ+0uIFo2lcRPvUHRLEQZvM0FF5fAnvnEPnFCSx+blW5LxUdQHTs+qNt4LsF6FYSWuBDC0rw8zaCnhwW3N2DgZiFHj3EBCuORttG3Izx4YX2P6d/AI+lqS/Wxr02lWBGhFho6Ifsf6+qOyH3FQXdKaBCvkFyeXGQnvLuKFVcZXmp7gdKdVcF8MlloGpViITIPQa2VkrQ2J1Ar8EukeViSXIHeRpu+O0O2GuvPRG3Y8z2mYHcxqFZIe+67Xev4eYLehTJanGYWi96L+AepyrFml2Lyphb6zmYfLyBRD25CVW8iRIcgkCdhtXvCGf2yzCJez65Ej3kSyYGci4KJdXWeI0vxDK4BPbZZ0/U19fxj6Zp4p1330YufhWC0OFsrYRnod2agEQsh0efWILDDpmI/7urHzsctg9+eqYJy2zG5VcdhO8f/xfMuWIvnDn7dVx8ze4ca5nzoxfwxS9Nxq4fnqACsqbJ+lQUvCfZ/Hwhj2wmixdu+WmFrMjqHMaOKzy0fH4SBh5ag/bmcUqynnNcyAuiI6KYC2dqucgRyfgu8pELvzUOTAwxad8JaNlmK3Vo0IF533qSCxXJ9d+4ay1SezUjeKkf5if2AvJvg6TDjK32BFY8CmR1RNRLpaTDW6XDHKfBr03DfTWLKKXhby+RgC4lPlFTSepZr2HfUzqgGTFEhgnN1BGuXgfNsBD0e1j4aB+2m7EdEJjI9froenAd4iT/wu69CN1LluLlSSTtsmmvjSWYESOWg/a/Ezq5qDhgWRZGjMhsJEuF5NyNsgWiih4DKhQidxc3/1R1KUo7XxEO64/xJkn9xx3+PEKX30M94SlGQ6REG+q8t10g9j3VQzqKkMm8VyS5abCOzrv33GtXNOevgEVaXgHgui6KV1LmHEVed3cgAAAgAElEQVQEWbsFXb6LbX5AhECdMskVqLTZVCMhRSSU/MB5+PR7wi6k61GD1QQ8slicGPoGSuwSoyuvCT87OjdcYd9KVsDXz7gCdbV15UwcA2/3zYLjDSjfdqQhk3OxZ20ry3LEDY8VcV03gYVGG647oxEaWnH0URPx21/349Qfbo8FC9Zin30n8ecvO/sNTN7Gx7eP+zCnf5P7wvV8eK6DXC7PFosQy/Avih1XemjcrQFNuXEs2cIt7mk/ofoVSjFNxjhLbMKcD7HaMR2OI9QhpFr3CFi5YD7mPjUf/3Xcnuyh+evRT7O0Cp/nQqDtgAZoGSD2xU9AX/1nBC0HAYkY9K77Ea2gdWQgbE0iWOBymMBspahBLR7/5Tu8Lvxyz1c6Ph92/Paw4y4i6v9ek4Bm6Qi6XGglH6D6m7gF3w2gJ5LQljpY+noOMV9jEVUa67srV2J++2DIYNOx3RDBjBixfGLf22GZg7Uo5N9X5EBmWegVue0nTcYf7q/DVz+dR8lPYF0hhra0g8XLTNz4+9W45MwmGKRl7NfC0Hv4oRxsKk0SG1ySwSd02haV3InvhZi3qAHPvjIR+33kI7ypjrVukpFm4eNT7kJtTQM8dwCkYpe5WFldtATHzw4RkQgby+Lz/3P6tfo3EYxSM+ZjFP0cKkuF/r9QTHJQ3/dLyBdtDORdFEvUqdPEGv8/NwDa9KU4Mp8YLlfQEWdehXQ6xQkiph7DvJ4Z8AJSkoiQcXW0xvfF1tpriALKsgOcUh6WY2LduM+jPr4zYkZKWeZUaBdZcNwILz77Gnb+0BQ0Ntejr6+ApoYkH5YMkzJ3QuSLBeQyOc4Ky+XEYhnuFfQh0uSyDbSW4kjW18IkWRWyTHjOIgSlInTbxISf7M5JGJFTAz9ogOOUkGpIIAxdGDoVNw5AwwD+cvSTSHOqarkFbtlDMOUz9YBvAG3N0NonQyssQLi8H8jpQLsJNz0V7pNvw6wHHnhiLQJKSgooSUlnP00mCjFhPHDwlyciJJVi20bYWYI+qQGBQxm0gF4y4a7zgbSN0AyhBybWPlGEEZkcr72vuOH4ysbi/e9IZsSI5eB9/wjN8Li+RIvI12eyvIuhpTjWElB/EA249JoOfP/EpVyAlncaELfy/HtyOaiNUQXwAyISTuMsB/tZ7VgFtZSsi3IR0XvXdFpYlz+KNwHyjw+MMVdYU1Mbrr/mQdx8SQZRUEAYxlH6cwH2Ph5MkosAcPJlTfj8wS3YafJKnHtTLa48eTUH9ClQ/NIr69Ayzsbvn27Gj49QabH0KTppFws6rEQKpF1FLYkH8iEKBUrI13DBzY04+vC9N3Z9bfL7hosENnkgG/GBI8+6Gul0mn3UWmRiXt8MBL6Gfm5Ja8GPNM7y2qtUQrouhpff6kZy521Qb34MNdZUxIw63haoB4ZKPCF2V4cfTrNnDVUlehi3qNYlQKlQ5FovCuAXcjk8L66wjZipD/6WT+xXh9CsR/Z3i9A+der65oJUt8IuZPJd6UDb+Tvi3RVTMHErA9f+xoau5eB5Seyyo4v5i/ox80gDOtbg5aMeQx2ZPay8TiURtDepQ97Uj7fA3H83aFRwueyviKwiIkpBpx4rcQuBkcKvfrFEdbxgp3/E1g/pgJEemEEhA01HfZOGnb+5K5LNNYDbB42SPpb2wWhKQk/blBaKsCcE8jo6X3Fgx0xWRb/vP2SEfXD08A/1MCOSFUaD3Xf3m5FM1PKJjCX0Od1C+fn7fuBy5kXhQIvT9lJr0jCcCPnAh9XWjuaTe7H0x33Y+oI0V5X2/lBH608S6FkwgLqdYug+1UHjJbYK3HOasa+y0EKlv5TPJLCi+xg8/tgjmPvmXOyys4vnXgzHTFYY4XfLLS/g5jkFGLqPgAL1voe4XWJi5XuGgYefTuPQ/fpx2jU1OOsY4MbbHWw/PY4Hnklin11CfPXAdbAsSn2lWiDVypn6YweRyRLtOcdCpqAjl6fUbRtzfleP//nqnhhLBLA5D8b7ffaIs65GbU26nIloYW7/d1B0I7iuBo9bOxiwDdIFI2HbEPXxNAJOLdYQhBZWOPVwQkqqD7i1ASdZcGo4bTRkcYawYGN7/0B8fNuPsdWTzeVQyOc4gJ/P5yXGMlyTW77uxz/aAK3HRfSUg9oJ7dAtHX6pCI2eFyL+Uh5RzMCEOR/Gb+6swde/NAG/uHkpMoUJnIU544gaNNQ60KJ+aNFKvPitB1CrURF3BIMrK1WKP72XimO3/1QDIjuC0dwIlHoQFSP46QTCNS6u+9M6KgunskcmFTvSkNJ1lh2LQWM9sIaPtWC7Q3YESisQaCl4by6H3ZZGlCRLi3YEE15fwL1a9JyFNW/4VEqDuGXjntw7w4YmWTAjRix0F4ce8DAH6YPIhqFR0N3iitPe2QEaLwOM5fug95Zn0HBqEg5aYGAVus720XoenfACeNkPw6x5GSFJu9AEBVSsRrEUlZJMbWE5HsNxBPqMOhG6no2Fy78Dzy2iWHKQSNq4+KLLxhSx3HrLi7jlIsp4I2kPSkKg029fuV4nwGtzHUyblMSy1Q522lbFpUivyDAinHpNHFfOchAGKeQcirRQDr5qD004hVEd/MDljVLJ5bvQjXo+Rj9z/+phW4Bj6cJksaTSaVZvoEd2bu8xcD2KhQBOECFhFBFoEZK6juef1bDzHnWc7RVFcSzrmYhbf/NnWEGEw07YnrXviq6P4lIDr76xEB/+1CQYDcra/mrLLIyvbWF5olzuPVKhOMsLv5fg/XCumY9NTkIzdHhPDKBpm8msOwhqyuWQpUIHVZLQd9FxySG4/xkbn9y/BY+9msdBe9bw0Y4q81+/8f+wx7EHAOjCc0c+hAaycKksgsogygdqOnwEGrUIoUMGsOvnGxF6HkwzBjfU8PP7VnF/JSKQGkSo4VJxHUlQB0iwK+tDZ+wLze0DqKbq3RUw6mthpFPsdtNNE9oaH6VeB0Yj6ZJRJpuGFW8WUW+YcNauw+M172kmDgemI0osB+93F6dccqYX5/qrbmiqQVeAQikO286XCyCVTljONVFj+/ACDYaWx6xziththwMxfSsde+/7qkoGCCnSQNdR6bPlqhc+LXIla6Bj/gIXA4VvIlWTwsMPPIQ33pw76sSyKZbAod89B9NTv4EeZlWiAiwYWu/6dgEnXRFDc7wfq3OTcd1pncjlYzj5yjr88swu5EoJmEaE2+5bh9aWOMY1xbDjttTDQWkKeSHpVvlwaLPzkujpp/CgzXP0zANrhmPdjblrHnHWVaitqVGHFc3A3O7/gRPEUCy4SNjUCjpAnLvPReXkER3Lsy3wtTS7Zh9++DWkrPHIFF3svvdE+HUlzH28C9t+rAlrl/Vhq23GoSNqx6GTj0bCtOEFHgq5QtkVlkMxX8QLtwqxDOfCOXBaGkadhvhrSS6O5PAI98ghaRcfYeByptj4sz+CIGpGFCW5JGLBE09iyZ/mQncDJohPX38ENKzCU998DE2UscXNtpQjn1+071E2JrvFyFsV4UOfaub+Kn+4Zw0cLQL1gCUiSVJxs0pSZ9c2FVfseNr2iFEiAX1+YC1AxJeMw6C0Y99A4Y0MzEYTWtpG0BXBSxl4/k0P20JHgmSc3nkHr0wc3pKLESWWgz5yG7MpZyppNnQChmtSVNX9qT9J4LzZBSTterhujuXJs1kL6XQfFz9yaQr7KqljZMj+bg5Ek/gk18joKtVPGSpltxiRjYk352Xx4l/2wfj2DkxtuwNzLi1tErF8atv64VzTG7z2Ll+ZjQMn3QstImkPpfVlGapCnoA56dJ2bN20GG+tmYKrTlqHG29fi65MBy6YuQ7X35ZDa7ONp95sh2nmUJ/WcfpRCkNKogiiej5FB34BRY9EKC0USlQIZuGZ+6XRF03OkWdfg1SSCJr6cABv9JyMN1etw84tSVqNsKjwl9LgqUYFEZbntuZeQwG1dyIFiSCEy1ph1JDNQCksslvMDynuR7VIFJo1cNzkc7kVNdWx5PM5jq/kcyqA/6IQywafk815w8d3reWShcQbNYiZcWYCar4Wlii+W84HCn20X7IvIq0JQZBG6JnI93TjqYtvZWuWtp7DLvkkdCuHx494FM26qlvivYvLLZRALhc50rdFVMDMVXzwIg2OFqLEIlekVQKWwqe/9SLgdve1MPCxLzTD2r5FFZYXM9B86tlSQJAD/IIFTY/DHdBxZ08Jlm6hWdexNQxQlI9WJxV3/jlctTlQbfCzIxa8p5EctO/tqipeI/4tV35ToSO1peKgO7m4Ylw9znGSMruzIBt7Cujv1PeesmuoUp8yuqmuhawbpcnEgQPK9C4H9kkllmQ4li2nDXMdk8xAzsKixzaITUW94bmVU3H7FXSPBYQBxY6oqU+W75b1i4IYb1rHXzwe15/eie9d0oTTvxlHIbsYV9w1gf2+odbC6bKWpeHimSvUGYr6O4S1bCVSLYvjGejPm8jmSDaigYn86T9Ke2IilnQqxQWStO7eLVyM3tw70CnpRKcDkqq5Iuu7qzCZrUqXik8pizHS4UY6nIh+iuAGPhzfp27GHLDVYhGSJp2QIxw76UyYmgHP95hQKL6Sy+e5+v6lW6+tqDVZbYP5xF6UnGHDfNJHPF3HLYD54FoqcdMucouF8LHVhbsBWhrL31iJ1h13wuPn3wWzvQEHHnsA9JCKWHt4K3r0yOfRrPFOx4RDrRLomSNNdlZjjzT0UqfQcoWer0WgoyKpwVEOIZWHU8Ue7X/UFq6RiYe6TWn4yo+3RzSQBdbm4XXrTICxcfW45cHV0JIpxBIx1FhxtBgG6jTV0pyC/mQtPVwc/ud5RImFFuKhB9zLFgdXx1OVPVUyc50KJU+QuUn97umd5FJQdRhctc8UT4yv9MAGda4GG36R3Av7MMuuCmqMw/+mlqJhiIFcGitW9qBzoAPja5fhtfsSY+q5+NJpF2FieAMi1lvToFPdj55Rlly5nqevz8TCJTraJ5oY35SFSYKH5UIWsupUUaSJomcjHnPWF596Ibl4fHZL+oGPXCmNTNGE61LmiYlnhFhw5NlXM7GQaxWRhbd6Z2FZwYbl9aM+TvqCpILroccZB4+yFhGn7rTs5sj31uHZF1/ElGnboTfXh613aEQxKMHWdBR9yvIxURuvR2Q6OGLyqSoTyAuQzWWQL7vDqNnXi0Isw/bMTlnmYvLnmrHkEbJCJ0GL0aGVeEDVe0WlEgLPh2GZmHDRrvzM5Tp1JFqSeOK8R/GJsw4CdBLOLah9S9fx0BHPoEUz2eLIU5kDpXOQAKRhsJVSUNK5SEH9mxzQFKexWAQ/YPkmxQWqrox0G0xN7YF0mNn1k3UI8jYe//NqeNTKgTLGbBM1cRsTp20Pr7ub5YdSbe1Y0bkCU9omIrt6NR79J/HJ4QB1o4llU+IB7zfQGedyq5lyOxoqhKQHUtmFXIiklaVdygIlrP/FtqMq5iGmJ8ckpWxSZhMnN5VT77hXArO/qtLnolkumNThOBYWLhng6wzkG5BOZvD6feu9nsOB7ZBe8+vf2RHN9SVoQR/8kJYYkSZlibnlB4DcgOp0EwakvkvkzakMqoiSNitWkmaxMc5MUWKeZLFQ5NjnfH0in5JrIlvU0Z91oZlpJvXn7v9HJdQhvbkxcDEillQyBdMyEAYG3uqbiVXdMfRptej1c9i3qQfPLG/FTq3Ua4jWX4J1pMKIeq6QP11HibXslPsjKph46tm/oqN2OibvGcMXO47FvZ2/xreIWEg81PW4OLJYKrB0PrUnFmIZvoUyfbmPcQfVo/uxPkzdaiJlvZQTNVRLCXpyvGwWum2j9fzp/LuBtXk8cOVbCIouqEcHPXJUNkHq4Qa759f75MuetAhN0EHNpWl3IscbPceKNDQmC6qDIiLhnzmtuJzqzI1idQ4fTP3CYVj63Avo6utDMtSxxHdxyEGfwDPPPo/p6SQmfnR/5PNFvL14CaZP7MBbXauw1bg2rOjqxE6WhQdyS4YPyPKVmViGijQ2ZrQzzkmwa4pVQqlSPopxAy9VF07+a5+D8QQy16uU3QsUJKPcf2XtUFyfXGrKbiG1UcUglCFGDzWdEQYLBFXlq+dFmL/QwdIVMUzpUB0nX72Hoq1j43X0jBbU1zUi8Lo5Lz7UyR3ow9KzKiOF07iVhloZFSVYSRkoLFOgKJeWMAXqV/fUo6U+o7LtgnrWb2PxF3JJUtq7E0euGEe+mIOm23j2/pVjA6hhGiWlG6dTSS5eJKXid7LnwPd6OE276GvoLAJdro1taiheaMCDyY27PFjlNGP6XIQSi4SqbCCyzLNBCTUmScWYiBsWDm+fye5Hj5WN8yjkC9yemIhGXGHDNLkAtl/mQ2uzEHV56Kivh51IQIuZHIwneR3yq1AGFjueDQ2lKMQC+OjJFuCWSuyKYlkM2sdI0UUDxkeUP0j2hTrOkXeFdh52hZWd2KqzuMZkxB0meR8rC1gNJiLxXqiea3OriWjdYSpWLV2Fnt4+1JSKWFTMs3Dl/gcdgjjJzdCBW9OQqInjr39biKamBqTSCaxYsxZb9fThiYQS4R3Ol/bJbeqGXYTy729gxtkWNEM1nOEukayyq7S/lNuLhCnJ+UV9pumTXGyhisfIJRYOcnyZPAaVjPk0bnEwmq/DJ3allaUkTTTMnWfgrUUhdtyWJtnBq/cOb2bEUE7c8bO2QcyMEHh9bD4r1TQTMb1fKTpzgJBrbhnXgc4OaFYc3rpOpNonIbQbEYteAQyK0WjwfEp+UEWSrkcbpuraSQWsdGryAh3Zgo7+nAPNSOPZ+4c32DeUWA3HtajyPpUilQKLZYLe6DkWr3dOQFIrotYKUZfW8XbOwpRkEStKaTRbPp5/18W0yVOxYFUX9mkLmGxKvo+AD0ga1pQ0NFChgpFEWo/B1m18sf0YXu+OSzEWIpY8E4vn+UIswzGx5WvusMzFitDHlFgCbYkEZ38Z8QQfWENSNOba7ACh68Coq2UXseMW0NvTi4yvWnWQRcE2CMUrKbmGLQ9luQySCu04vCORNUvvpjM2xYOZWJRHhp5uPaKCcXVQJBLiDNoIKE2ciK7ebuyw/Q7oWrEUrZMm4dm58/CZ667GA9/9LlpqmuDsvgc++uXP4s9zLkRmTSc8KrFoHofWyR2on/s3PN8+/J6aESeWI3+YQm2KhFkGzUTe3dhSIVXQgKwYTqGgk7ZicVUEqERIyE9AsmE0IarKnqyOcuyF3kF/YCn4MvuXJU6oUn/uvADz3nKxy87UaTLAa/eNHWI5cfb20KMMvLDA7jxKf6CMOlPrx+uv92P33RvKlhyxagxZZxeY1EitdhoiOhFraeTmP4qmCUt5qYdagGLWgmHTCZuMoKTCs1ywR1Dn3Tiy+RhKDiVTOHj2wXXD+GhX9qXJYqGsMLJYKDHkpbXH4NVVHdihNYmXVvdjnNGPPdopLZ507yi+YiKATYXP8EJyPar+K25IwXwDbuhiTd5BW7qO67liRpzrJr7SfgzHG106eWZzKBSK3PfeDwIhlmFeIi1Li9h9u+3gLl6K7lQKA9OnYb9YErEP7YS1b7wO/815nCHmOB5KFOvQNPQFIYs7cst0tkbIsFF7FruyeAdT7jT633vWi9r32JbhRmLKjT1YLEEWB5GJzodjpQ1Pf7OnTcPjC+az12G3jg40T98Jfe0N2GqnnVHbNgGeV0Ln2j4019cjXujF0jsfRFc2i56lyzF5oA+5+nF4q3F4a1h4mx5pi4W+9LhzqdnMoLS9wVIrHJCnrmgMItWlKKkWph8O4vMssckZ6XHo1CiMLR1VuKRrNls5SilZfVbXLA5Gq9N8iPnzp8CJFrPp+fyzWdg9Sq12LLxOnD0NUZBR7kMK43H7ZQ0xvQe9ffVoaMiwb4XiSaFmobNnf5TWPI1S3sHKBSmYtoegGThgf3I/0hmIJJHZsYjAtwCDyJbckCQhQe5FInYgk6eYlJILf+6hDcu2jwUsP8gYyWJJplOwTCJ1G39ZezjisW3h+jl2fQVRDl5Y4s6CC3LjMDUNPLnMQLy+FdNiSlonoZMbM4Y1HrCqJ6s2FSOGxvQETExTnZaFT084SvVUdx1lsVC/+2yOpdnFFfZBZm7jP7P10hImN49DqrEety9ZhM+1Tobbtw4vZ3qxWyyOPHQ84xfRYVjII0KbaaEU+FgUuGiMInyYGtJrIV6NAuyuG4hxko1SHTf4mSMNv3+Mu9DfB8mlbMsoRRLuEDmoXl6OQZevpZxiFJOhR95ULaosE9e7Dv6rbQJ2a2jCIy+9iPrxbSg01qMwkEG6WMTUZBLdho439Z6NB+UDvnN0iOV86iZJBFAGmvd9MhpJwK3cIZLdWeT6onagJnpOLqC4ZwvijS7CxzNoucxk60b5JFU9iwpcTwC0LuhUV0BmLMvFU6wmQi5fg3eX55DN26hNkVgbucPGRnbYiad2sE6Y6j1DGg1q0Vlav8p+K+fH0z1rgYGr73IxrRRil0M+hqfeehapdBL77bIj6rRX+HMUdpk/P8K221H8qYbVWlVSBElzl7P0QpN7tPT2uwgiDc8/RGHHLfP1jTOuZK0wksynJ3ruuiNgmdvA9x30OjHkS/1oq8lDQ5GTKEI9Bj+oUVYKK0gb8EjjLXThkPgqSekgRD70EI9qcOiEGUhZMY4/krgqKVhTjIX/l8lylfbLt163ZYI/gnd94DobYT6P2NQOeCtXInTVHkNx3HK/QfY4c/kDx02oCJviv6rYmw5n1CeKPS0GuaVVsw/6HX2ISym4HTgrwXJslHohpRrqQXldUSIBP5nCE9raEbzrof+qUSGWGWfHoBmJshJxOYrJTUWoFTFZHaoZGDH8qst7MHF2vTI1KetLMYgKfq2yELSZyOeBi64y8bUjT8f1l72B6669g6vuuRcJk5OaWDdIY+GCDPoG4mioJ5dSiFfvpf4Elf868bSpiIIsYwQ6pdDqZi4wEDP68dzLJj66N7V4JleNiYFuHwV7B6wpLMBEz0P9OMJMh2fvB8NqQpj5I4olC7FYCX7UyIROWXVk/ZG4HbvEwgh+aCBbMJDLOXju4S2337qSdKE22iqAy5YxFTj6NgYKy+AHDkrBMrggjSflxq0xdkM83oCYbnMbW3Z9sB++3Baaf6Zfq3qJwUI6Wo2lkoNcNoscS+ZnuMDy5duEWCr/SZUR8v48Gq6wY85shBWjdNdydhg399KwYEkNlr37JTz11ADrVbXWr8WPZj8L3aITs4vC0jj6rl+Hmq+1IzmliL7fFtCzug5XFT+DjikuDv74dnjwrlfQ3nI3vn1cDbtzuLmYTsGxCH6gYcEiCvpTzIDiKz5eu3fTm92MxtI5+fvTEPiZsmqBynhTVbzUEa4fnWs1jB9noFRzAmwjD/T9igU7uY0zS0qQiyyFYuobsAeuR+AlALPELkc/bEAUqAZqTCzkTqP3B/Q3Hdl8hGwhwvMPb5kWyx5f/S7a29owrnUcYtTPgmobuD4qgE/+wvVp7eV/lNvkqHz392RelJAR8YrqB01WCK1LUphQNdGKzMmSd30fBSIWCt5ns0Iso/HQyXd+YARGhVhotN89n6q9Kb2YDEAPvm/hgss/j1SyGzmnhFNOPgy/vOF5HLXP3Si8lUHr4fV459rV2ObEcSxuQJYI7a7Lvh9HdOKZmHPRXNi6gW0m5zDr1D8iIPnQclbYYB0Hqfr+7a0S3prrYOfd4li6vITu18ZGnOXE0zpYq4g6sJBTlYXtOAOMHCoJ2Hon/rZ0Anaa3A2/aRa0nl+ipO8Ky18ALeqEVvcVBH13Q9cCrmd55uW12G/PepQCyqx3OBOMjs+U+k3xFyIuyp4kpYJ8yUN/RsNzD2+ZMZaPfusUJFMppJJJpFNpWDHlxiWi8CkVlWQ7eD7KWe/0b4KTgrj8aJJr8b3kS9Ke4t9yp0H1OVW8quqKiNA9UpvOZZDJkMJxni0gsVg+8D4nHxxhBEaNWI4/v4GzY4xyLQod/BYtn4U7bluBY2duh9/++lYsmDcfk9ssnHZ6v5JAKMdRyHXABUtPRJh3q4NJtgWv1sa4SyOEnqsyLKjvhfoAu3a41QUiLF1ag2KRijIdPqG/es/YsFhOOHUStIhIRTVE40y4wZbMkQYjynBdRNGtR9zM8GYXxPdGqDUC/hrA+QtvbuQWfOddB1Mmk7tRgxvUc+IESd9w61NWOx5UPqYtz4Lj6+jqcfDCFmqxfPWHl/DmTxlhFGMJAqWzRi8iFKrG53RSkyqiiWSUpTJYIKfcXYM++cHcH2XOEEGV/WH8b7JiaK26nodMJqsUjnM5KY4c4Y1Rvm7zEBg1Yjnu3BQiLQ6dCv3KvudF787EtpMu4Z+pOx+lJekGHZt9lIxr0H/XzdDmLUXqm8chNvFu6MGbSk2WOhZwLxZ6gukEX06f0MoaYpQ5RkE0bvIVw/KVtPGqTn+kP/aXP6Y2D8UR+PT3Zm+NqEwsqrhKES2diolISWbbAhEw4PomtxN4e/5abLdtA7vDfD+G+x7N4L8/abM/n7Y1L6hTfSTJSqETNRdTqup7qhcqlYqw7Ri8yMbqziyg23jxkS0vznLMBT+HaRrc1pVjT4EP36faAmVlcB1CFMAigUqVNaqcXswoqjaBVbw5O/E9y0UJerz3KyIrhX3I/e4zuRzHV6hIUqruR+Ahk68YMgRGjVi+c7YFwyR3mKrroxOfH1DgvqxOHJD8BQWSSUGHYiTUMVLFFlQFOe2O9DerLF5Z7iYJSj2OI6SOk1yNbnIGlHIdURpnPRYtJpeOUkv23SRef5DiLpX9mjlrIkI/DzMW50C72rCUzI1KUqDuDT4CP4641ckxEsoei6ifBKsQKBUDlvx0DURmLW+Qg+dnwn4wTdsPNRSL4Nastu3B9TSs6KRCyQReeKi7soEahtEd85OfIxazVAYiFb+FZNmFSsuJM0GVG7H8r/UjYK0DLnIriz6VCfs7BVEAABDlSURBVGdQWEdxUNlZVo6tsAuSYjeeUjfuHxjgWpYXpXvkMMysXHK4EBg1YvnWj+qQpE5nVHnPEiwUwCRfM22OJRiGhTAgoWiqhqSUPFdVh3NzKkU+LPbGO6sqn2TxBKocp6wpPjqSVUL1MTp0nSQ1KDDdgLfepj4m6pRJ0m9jIYA/44TxMAxqGWwg8lRfCOWpJ9eV2tKIYHgjo/odH7D17nKfQrXpFZ1GJaLIpPpeQzQibdd34Lk+YjFKn0wil6e90ucki8APsabbR8kJ8crjw19cNVyL/YNe94izrijrhJFwKmmrUdC9XKQ76PDiyuhygVu5/kAVyQ12Sy0v1PV1DIqk1PotzwWtf0qiIIvF98uB+xweu/HCDzp0+ZwgMCoIjBqx0N1+d8541eSLrQqvnBxOmz/FD4hwqOshWR5UsKdkE5QaQlnUZL2GTjn+wsqfNoKAcs8HxarpvZbq1cKFkybmzSciI/FG8pXH8NoYEKP89gnjYBsqrqIZJqKgyF0fSWKd+jKwKhFjE1+fjMRFjlqoik7JqmGypWtQwZ4B1+nnAi7dtFEgDtcCxG1KV7bQnyVCjhC3qGeIj65u4OkHhl9jaFSego340hmX3aRqFcqpwRzroorpkFysKj2bYyqsrBOxkGQ50PJeK272kZV9ZeU6CJXWTda5+iwlYwzGXjwvxK3nnbQRo5O3CAKVhcCoEsvxc6j9bWJ9fYqhU3dnSnnN88lNo9qKssuKSYWzvIhc1EmQSvlUPidtqOTqYhlFPlVSwF71xyCxRjp9kyigkmFY0xlHb19ufRvjsSJGOXPWOLbOyJqjCvwgpMAxkWkCvk9uQYcJ2jTj8H2dLT/SzdNjTfDdAjyvAMOIseWXZw0wIB6zuUgrnyf8ioiZRFQmBrIqjmNZ5HaL8O6aEl5+tNzwqLLW8KiM5tjLfqkKcBEhZpgqZZjiXWyRqHbZFFMZDPKr6mqVwq2a0imLxQ89+C4RS4QbTj16VO5FvlQQGGoERpVYjj23DqZBUixEIsqiCAKn/MypRl+DDcDoxkM9gE5psZRKRi4DIhNdSZFz9TmdGjUKsHoc1KbsHXYNsXglNQgjTR4L67o1PP6kgZ13KpQPlTpeuecfpRaGGuihuN7MU9o52cDQqeEUYUUZcCyPitAnzVRSznU4McFxVMtnwhcowfNJ2cCEqUfQDIqh5BEFBmIxm4v++rMl3txsO4KhxZHJq+wz03TheBHuu2XLtVaGYu7kGoLAloTAqBLL0T/SkUy2/l0zKiIYH0FUYPcNnea4hxoFpim2woWNIW+sPknra6o6n3iGVZIVFTHhgDKoqC7DJ/IpZ+aQpD4phDo2Fr9bAw1d63XIXr238iX0jzmhWbWwNSmQbCLwHYqwKNeXnkIYudRphTFzXJN1hHRq+2x4cF26d527R1JKrOsWWIo9lqhhYTzHycENNFgmnazLoncErNmE312zdEt6JuReBQFBYDMRGFViobEfdz7FWVT6K5FHGJVUsxwmBtWzReXNkEuGrA5T/Y3be5bTiEnxOKSNlKr5KTZAQX7Kchr0W5N6JfnDqIcLWTXj8cbcHPcyoeD3K/dsJooj+PHvnT4eoUPtcElgs6QaCpk2PK8I3azhjDFq9ewHRCRUUxFCtwyUCgPQzSRMjse4jBVVjRsmudOovzdZeqRvFeIXly8ewTuSrxIEBIFqQ2DUiWXmT8aX5THIX00S7kQsFMgnIgmxZGE/pk1v4kA1xVZ6T47QeCWwrt/Az38X4awTKbPLwO/vymJ1F7BssYbrLq2DF8Xxo9M7cfkldSDJfFagDRLQdA9BmMb8heQm8/HSnRS1Hruv78xug2XGuFe3wVLbOjyq/6H0BC+P/710y27QNXZnVkYuCIxdBEadWI47r5miy6oq3M/hmhtWYsb/bMv6VyoVk+TxU4hC6naowQrS8IwswtCASX0QyB1GmTmsOGoqqWktKLf4tMt1MFTURoWW5BOjWEMaf3m9HolG4KXfb9ktd8fu0pWRCwKCQKUiMOrE8u0z62FaCZUN5mVUsyl2eynXlcr0p6B7oBLA+EcLbhCDpedVlbNOxYEUtCaZEpKUT0OLClwkqOtxwGyAAQeuG0MiGaJU0rBgcRueu/nFSp0XGZcgIAgIAmMWgVEnlu+cPR0ldwBe4MHQqO0uZWXa0IyY6g5tpBH4OdTUUpW5jkKxC789R+k0yUsQEAQEAUGg8hAYdWKpPEhkRIKAICAICAKbg4AQy+agJ58VBAQBQUAQ+BcEhFhkUQgCgoAgIAj8CwIT66gZ4gd7CbF8MNzkU4KAICAIVAQCm0MAw3UDQizDhaxcVxAQBASBf0KgEklgOCZJiGU4UJVrCgKCwJhHYEshgeGYKCGW4UBVrikICAIjioCQwIjCvcEvE2LZIETyBkFAEBhKBIQEhhLNyryWEEtlzouMShCoCASEBCpiGip2EPbeX/23YxNiqdgpk4EJAhuPgBDAxmO1pb7zP5HAcOAhxDIcqMo1BYH3QUBIQJbHhhD4TySw7pnb1n+01iYN8/d/jSSZ/P1IhFg2NDPy9y0aASGBLXr6N3jzI71xC7FscErkDYLA0CIgJDC0eFbb1UaaBIYav78nFbq2WCxDjbBcb8wjICQw5qdwWG9grJPAcIAjxDIcqMo1RwUBIYBRgX1MfamQwMhMlxDLyOAs3/JPCAgJyJLYEAJCAhtCqHL/vqnEMppzLcH7UVpHQgKjBPwY+trR3BjGEExbzFDHSuCeJkSIZSOW5dQmeyPeteG3OL50vtwwSmPvHUIAY2/OxuKIhVhGcdaGigSG6xaEXIYL2Y27rpDAxuEk76o8BIRYNnJOKp0ENvI2PtDbhGA2DJuQwIYxkndsGQhsanyFUBnN52ejXGFbMgEM57KtJnIZzUU8nHMk1xYEKgGBMUcsx394XFQJwG2pYxgNchES2FJXm9z3WEVgU4lltJ9xTYhl9Jfa+5HLaC+Q0UdHRiAICAJCLFvqGtj9y1vqnct9CwKCwDAjMJYC9wTFlmmxCAkM82MglxcEBIGhRECIZSjRpGsJCQw1onI9QUAQGGMIbNHEsqTXWT9dUw7+xhibOhmuICAICAKVh8CmxlfoDkY7Nqsdf/zxG5UV5rx8+wYRX5Xx/uE9Qi4bhEzeIAgIAoLA+yIgxCLEIo+IICAICAJDisCmEstoWyt082KxDOkSkIsJAoKAIDC0CFQ1sRBUm+oOE1fY0C4wuZogIAhseQiMtcD9JlksQixb3oKWOxYEBIHRR0CIBYAE8Ed/IcoIBAFBoHoQEGIRYqme1Sx3IggIAhWBQNUTi7jDKmKdySAEAUFgC0FgLAbuNznGIsSyhaxmuU1BQBCoCASEWP5uGiTOUhFrUgYhCAgCYxwBIRYhljG+hGX4goAgUGkIjMX4ygdyhYk7rNKWnoxHEBAEqhUBIZZ/mtm/d4dJoWS1Lnu5L0FAEBhOBIRY3odY6E9CLsO5/OTagoAgUI0ICLEIsVTjupZ7EgQEgVFCYKwG7j9wjGVj4iySGTZKq1G+VhAQBKoCASGW/zCNEmepivUtNyEICAKjgIAQy0YQi8RZRmFlylcKAoLAmEVgrMZXhtUVRhcXd9iYXdMycEFAEBhlBLZIYpE4yyivOvl6QUAQqGoEhFjeZ3olzlLVa19uThAQBIYJgU0hlkpoR/z3MGx0a+J/h92mdpSUOMswrUC5rCAgCFQVAmM5cL9ZMZaNcYVJnKWq1rrcjCAgCIwQAls0sWwMuUgAf4RWonyNICAIVA0CQiwv377ByZQ4ywYhkjcIAmMSgeuuuw4zZ84ck2Ov5EFvSnyF7qOqYiwbY7H8sztMNMMqeTnL2ASBjUNACGXjcPqg7+p77jb4ofp0ra1v8DJbPLEQQkIuG1wn8gZBoCIREEIZuWkZJJctklg2xmqROMvILUb5JkFAEKgeBIhcktb7WyyVZq0Q+puVbjw4fZuadiwWS/UsfLkTQUAQEAT+GQEhFlkTgoAg8C8IiMtLFsXmIDAqxCJxls2ZMvmsICAICAKVjcCQEIvEWSp7kmV0goAgIAiMJAIjRix0U1LPMpJTK98lCAgCgsDoICDEMjq4y7cKAoKAIFC1CIwasUicpWrXlNyYICAIbOEIDBmxSJxlC19JcvuCgCAgCJQRGFFikTiLrDtBQBAQBKofASGW6p9juUNBQBAQBEYUgVElFomzjOhcy5cJAoKAIDAiCAwpsUicZUTmTL5EEBAEBIGKRmDEiUXiLBW9HmRwgoAgIAhsNgKjSiwiRrnZ8ycXEAQEAUGg4hAQYqm4KZEBCQKCgCAwthEYcmIZjLPYpg7s/uWxjY6MXhAQBAQBQWCTERgWYtnkUcgHBAFBQBAQBKoGASGWqplKuRFBQBAQBCoDASGWypgHGYUgIAgIAlWDgBBL1Uyl3IggIAgIApWBgBBLZcyDjEIQEAQEgapBQIilaqZSbkQQEAQEgcpAQIilMuZBRiEICAKCQNUgIMRSNVMpNyIICAKCQGUgIMRSGfMgoxAEBAFBoGoQEGKpmqmUGxEEBAFBoDIQEGKpjHmQUQgCgoAgUDUICLFUzVTKjQgCgoAgUBkICLFUxjzIKAQBQUAQqBoEhFiqZirlRgQBQUAQqAwEhFgqYx5kFIKAICAIVA0CQixVM5VyI4KAICAIVAYCQiyVMQ8yCkFAEBAEqgYBIZaqmUq5EUFAEBAEKgMBIZbKmAcZhSAgCAgCVYOAEEvVTKXciCAgCAgClYGAEEtlzIOMQhAQBASBqkFAiKVqplJuRBAQBASBykBAiKUy5kFGIQgIAoJA1SAgxFI1Uyk3IggIAoJAZSAgxFIZ8yCjEAQEAUGgahAQYqmaqZQbEQQEAUGgMhAQYqmMeZBRCAKCgCBQNQgIsVTNVMqNCAKCgCBQGQgIsVTGPMgoBAFBQBCoGgSEWKpmKuVGBAFBQBCoDASEWCpjHmQUgoAgIAhUDQJCLFUzlXIjgoAgIAhUBgJCLJUxDzIKQUAQEASqBgEhlqqZSrkRQUAQEAQqAwEhlsqYBxmFICAICAJVg4AQS9VMpdyIICAICAKVgYAQS2XMg4xCEBAEBIGqQUCIpWqmUm5EEBAEBIHKQECIpTLmQUYhCAgCgkDVICDEUjVTKTciCAgCgkBlICDEUhnzIKMQBAQBQaBqEBBiqZqplBsRBAQBQaAyEBBiqYx5kFEIAoKAIFA1CAixVM1Uyo0IAoKAIFAZCAixVMY8yCgEAUFAEKgaBIRYqmYq5UYEAUFAEKgMBIRYKmMeZBSCgCAgCFQNAkIsVTOVciOCgCAgCFQGAkIslTEPMgpBQBAQBKoGASGWqplKuRFBQBAQBCoDASGWypgHGYUgIAgIAlWDgBBL1Uyl3IggIAgIApWBgBBLZcyDjEIQEAQEgapBQIilaqZSbkQQEAQEgcpAQIilMuZBRiEICAKCQNUgIMRSNVMpNyIICAKCQGUgIMRSGfMgoxAEBAFBoGoQEGKpmqmUGxEEBAFBoDIQEGKpjHmQUQgCgoAgUDUICLFUzVTKjQgCgoAgUBkICLFUxjzIKAQBQUAQqBoEhFiqZirlRgQBQUAQqAwEhFgqYx5kFIKAICAIVA0CQixVM5VyI4KAICAIVAYCQiyVMQ8yCkFAEBAEqgYBIZaqmUq5EUFAEBAEKgMBIZbKmAcZhSAgCAgCVYOAEEvVTKXciCAgCAgClYGAEEtlzIOMQhAQBASBqkFAiKVqplJuRBAQBASBykBAiKUy5kFGIQgIAoJA1SDw/wH9IiY85E3giQAAAABJRU5ErkJggg==;" parent="1" vertex="1">
          <mxGeometry x="-318" y="628" width="170.58360574581434" height="106.53722222222223" as="geometry" />
        </mxCell>
        <mxCell id="0DorSFAY3iXw3XI1K5tr-13" value="" style="rounded=0;whiteSpace=wrap;html=1;fontSize=20;fillColor=#00FF3C;strokeColor=#66FF2E;strokeWidth=2;opacity=40;" parent="1" vertex="1">
          <mxGeometry x="-182.99879069170555" y="631.8521582191781" width="32.51058732942636" height="41.02890410958904" as="geometry" />
        </mxCell>
        <mxCell id="0DorSFAY3iXw3XI1K5tr-19" value="" style="rounded=0;whiteSpace=wrap;html=1;fontSize=20;fillColor=#00FF3C;strokeColor=#66FF2E;strokeWidth=2;opacity=40;" parent="1" vertex="1">
          <mxGeometry x="-233.99508320143732" y="629.5727746575343" width="19.506352397655814" height="46.34746575342466" as="geometry" />
        </mxCell>
        <mxCell id="0DorSFAY3iXw3XI1K5tr-20" value="" style="rounded=0;whiteSpace=wrap;html=1;fontSize=20;fillColor=#00FF3C;strokeColor=#66FF2E;strokeWidth=2;opacity=40;" parent="1" vertex="1">
          <mxGeometry x="-276.9999054626342" y="639.9992815068493" width="19.506352397655814" height="34.95054794520548" as="geometry" />
        </mxCell>
        <mxCell id="0DorSFAY3iXw3XI1K5tr-23" value="" style="rounded=0;whiteSpace=wrap;html=1;fontSize=20;fillColor=#00FF3C;strokeColor=#66FF2E;strokeWidth=2;opacity=40;" parent="1" vertex="1">
          <mxGeometry x="-308.74261025794584" y="645.5284595890412" width="24.382940497069765" height="32.671164383561646" as="geometry" />
        </mxCell>
        <mxCell id="0DorSFAY3iXw3XI1K5tr-36" value="" style="shape=image;verticalLabelPosition=bottom;labelBackgroundColor=#ffffff;verticalAlign=top;aspect=fixed;imageAspect=0;image=data:image/png,iVBORw0KGgoAAAANSUhEUgAAByAAAAD4CAYAAACkLPE1AAAgAElEQVR4AexdB9jdtNWmrEIgAcLeBAiBEHYIK+y9QiiE0LIhJOw9AmGPhB1GIIQRCJuEsGcZZZU9S6EQNmW0lFWgrJbqf173P0ZXV/a1fWXL9n39PN9nX1uWpVevjqRzpKOpFA8iQASIABEgAkSACBABIkAEiAARIAJEgAgQASJABIgAESACRIAIEAEiQASIgCMEpnIUD6MhAkSACBABIkAEiAARIAJEgAgQASJABIgAESACRIAIEAEiQASIABEgAkSACCgaIEkCIkAEiAARIAJEgAgQASJABIgAESACRIAIEAEiQASIABEgAkSACBABIkAEnCFAA6QzKBkRESACRIAIEAEiQASIABEgAkSACBABIkAEiAARIAJEgAgQASJABIgAESACNECSA0SACBABIkAEiAARIAJEgAgQASJABIgAESACRIAIEAEiQASIABEgAkSACDhDoFAD5L/+9S/15Zdftvz76aefUmXwhx9+UN9++63673//G/sewqWNOzZCPiQCRIAIOEAAsumjjz5Sb7zxhnr++efVo48+qu6++241adIkdeWVVwYy08FnGAURqBUCP/74o/r444/VlClT1AsvvKAee+wxdc8996ibbrpJXXPNNerrr7+uVX6Zmc5CgPzurPLu1NyS551a8sw3ESACRIAIEIFyIJClL5LlnXLktvNS8dVXX6lbbrlFXXbZZeqDDz6oFADUE1aquJjYFggUaoAcNGiQmmqqqVr+TTvttIHysEXaw8dnnHFGGOcMM8ygZp55ZtW1a9fgD9ddunRR00wzTRBm3XXXDd/jBREgAkSgDAhccMEFoQyzycjXXnutDMlkGohAqRC44YYbYuvNI488Uqr0MjFEIA0C5HcatBi2qgiQ51UtOaabCBABIkAEiEA9EMjSF8nyTj3QqlYuXnrpJTXffPM16AyGDh1amUxQT1iZomJCEyBQSgMkFPDTTz+9evjhhxNkQSndAGlT3uv3+vTpkyhOBiICRIAIFIUAOxZFIc3v1AkBDvzqVJrMi4kA+W0iwt91RIA8r2OpMk9EgAgQASJABKqDQJa+SJZ3qoNIfVLat2/fBuOj2AbgMSnJAS+LP//8c/CXJLzrMNQTukaU8flEoFADJFwL3nnnneHf0UcfbRUGIhS6d+8euFZrBdDbb7+t7rjjDnXdddepsWPHqt/+9rdhvEsttZQ699xz1cSJE4MwXBHRCk0+JwJEoGgE3n33XXXrrbeqCy+8UHXr1i2UXyILuQKy6BLh96qAANwW33bbberSSy9Vc889d1O9YXtfhVJkGqMQIL+jkOH9OiFAntepNJkXIkAEiAARIALVQyBLXyTLO9VDptop/uabb9SvfvWrJh0BdGyHHXZYosydfvrpwfszzjhjovCuA1FP6BpRxucTgUINkGZGJ0+ebBUGonTHuWfPnurzzz83X439/dZbb4XxHn/88bFh+ZAIEAEiUCYEtt5661B+iSykAbJMJcS0lBGBPffcs6ne0ABZxpJimrIgQH5nQY3vVA0B8rxqJcb0EgEiQASIABGoFwJZ+iJZ3qkXauXMzXfffRd4VhSdmn4+6KCDEiV62LBhgY7BlwFSTyT1hDoavK4iAqUxQGKvRl0g6Ndrr722wia/SQ9sLCvvn3LKKUlfYzgiQASIgHcEfve734XyS+QYDZDei4UJKDkCBxxwQFO9oQGy5IXG5CVGgPxODBUDVhgB8rzChcekEwEiQASIABGoAQJZ+iJZ3qkBVJXIwoYbbtikI4CODZ4ZkxwbbLBB8H4ZDJDUEyYpMYYpMwKlMUDefPPNauWVV7YKBwiIXXbZJTGONEAmhooBiQARKBkC7FiUrECYnEogwIFfJYqJicyIAPmdETi+VikEyPNKFRcTSwSIABEgAkSgdghk6Ytkead2wJU0Qx9//LFaYYUVQjvD1FNPrUaMGJEotfDECMMj7BE0QCaCjIGIQCwCpTFA3nvvvQrCYcEFFwyFg6z+kfOpp54amxl5SAOkIMEzESACVUOABsiqlRjTWwYEOPArQykwDXkhQH7nhSzjLRMC5HmZSoNpIQJEgAgQASLQeQhk6YtkeafzkPWb4ylTpqi77rpL/fWvf02ckFGjRoW2CRogE8PGgEQgEoFSGSCRypdffllFuWPFBrITJ06MzIw8oAFSkOCZCBCBqiFAA2TVSozpLQMCHPiVoRSYhrwQIL/zQpbxlgkB8rxMpcG0EAEiQASIABHoPASy9EWyvNN5yFYrx//4xz/U/PPPTwNktYqNqS05AqUzQAIv+GOeZpppwsouKyBl6fPTTz8dCysNkLHw8CERIAIlRoAGyBIXDpNWWgQ48Ctt0TBhDhAgvx2AyChKjwB5XvoiYgKJABEgAkSACNQagSx9kSzv1BrEimfu008/Vcsss0yDPYIrICteqEx+KRAopQESyJx33nkNFV43Qs4999zq/fffjwQwqwHyL3/5i7ryyivVwQcfrHbccUe1zTbbqG233Vbtvffe6vjjj1cTJkxQEEatjg8//DBY3n3jjTeqyy+/XJ1//vlq5MiR6uijj1aHH354w+s//PCDuvvuu9UFF1ygDj30UHXIIYcoLPWGS9qff/65Iaz8+OKLL9Ttt9+uzjnnnCCtJ554orriiivUE088IUFSnz/55BN1//33q3PPPVcNGTIkyPcRRxyhLrvsMvXoo4+qf/3rX6nj5AtEoJMQQB35wx/+oE4++WS1ww47qIEDB6pBgwapoUOHBvXqzTffDOo1DIyQC1FHKwPkd999px588EF10UUXBTLjyCOPVJdccol6+OGH1X/+85+oaK33Xcm8559/PpBJ1113nbr00kvV6NGjAxyGDx8eyD75OGTzVVddFdw76KCDAv/7kI/Iz08//STBMp0pw/4HmysemoWAtu/aa69VRx11VNBGbL311mr77bdXw4YNU8ccc0xi/rninJm+dgZ+vrmDthf9gIceekg9/vjj6qmnngra80ceeUTdd9996rbbblPPPfdcQ5ZRX3AffQXUfbT/Tz75ZHCNuG699daG8HX6kQfHXfEbOOfB8Xb4jTT55jh4CrdHkPWPPfZYyHH0Lx944IHg2Z/+9CcrTREGExNRP/74xz8GdQR1Bvx/6aWXrO9U/WYeHAcmrnieB8eRvnZ47pvjSP/vf/97ddNNN2X6mzx5crAVSdW5q6efbZuOBq+BANsC8iAKAcrPKGSqfR86AvTXrrnmGnXxxRers846S51wwgnqsMMOa9DnYpwDfSj0sKeffrrCGCjp8dVXXwXjIOgt8f5vfvMbtcsuuwR6V3zzvffeSxpVEC5LXyTLO6kSVaPARemN/vnPfwZtDvpl0PGPGTMm4Naxxx4bcAP9RvOAvg52iF69ejXZIqaffnpr/+6VV14xo4n83W4/vEg9YWQmSvqgyP5Fu+Ogzz77TN18880N+h/ocWRcLLocGee+9tprQVjofDAWhq4IOiOMjRH2jjvuaLIdYXytj58lfozHP/roI2+lWFoDJBDZZ599miq+GCL79Omjvv76aytwaQ2QCP/b3/428lvyTZyxae0666wTFLr140oFjaf+jn4tMyf+/e9/B0p4GFP15/r1sssuGwxm5TsQojBQRrmoxbtrrLGGeuaZZ+SVlmc09vqmvPr39WvszTlp0qSW8TEAEehEBKDsn3POOSPrsl6XcL322mtHwhTVsYDBAZMO4mTG0ksvHUwkiIz8/x+4lnnrrrtuZN6XXHLJYOCx6qqrRoYBJt26dQsMqlFyPSpPlGG/IOOShxIrOsrbbbedggt0k8fm7znmmCMYVMq7+tk15/S4cZ1l4FcG7rz11lstcQXOe+yxR0OWb7jhhtj3pK/R8FINfrjmuCt+A9o8OZ6F30hTGTgOw6IpK2y/0VbYjvXWWy/y/QMPPND2SqXvueY4wHDF8zw5jnRm4XkZOC6EW3jhhSO5auO8eQ9j0bocbNvqUpLu8sG2wB2WdYyJ8rOOpapUnI5g3LhxgT4XCz/M9hC/11xzTfXll19GAgPD4hZbbGF914yvb9++gXI/MjLtQZa+SJZ3tE921GUcJ1zqjWBwMXmg/zaN3Jgkrz9Peg27RKvDVT+8CD1hq7yU8XlR/QtX4yAYEZPwa//99w/ghvxqFR6TfPVj+eWXj3xnzz331IMWel1qAyRW82yyySaRwOGZbcUPiCEFdMopp8QC+v3336vFFlssDI/3MLsBqxexyhCrebAScKaZZmoIA0Pk2WefbY0bs3fk++YZSsFvv/1WbbbZZmEYKFdGjBgRGCRnn3328D7exXcwgxSb5cIgiXtwT4vVVSeddFKwqhLp1b8DQwis6nEH0oAZQqar24033jgwcmAmLlZymcYOPMcKLB5EgAj8DwE0DFL/5pprrmBmH9xEY1YVZsdgVgoMOKjLEg4d6qjD1rF49tln1aabbhq+v8EGGwSrzk499VQ166yzhvcR/69//Wv1xhtvREWv8pB5cR1JybOcV1llFbXvvvsGsxNtRtv55psvkRGVMqyxiF3zELGjHTTLqEuXLsGsUqzUx+pV20Sh0047rSFxeXCu4QMpFddl4s6UKVMa6q/UE/NsGiCx2tgMo/9GOdXtcM1xV/wGznlzPK1io0wcf/HFF2O5Krzt2bOnlbK2NlHeqZsB0jXHAagrnufNcaQ1Dc/LxHEhbteuXRu4jok7vXv3Vhg77b777oFHHXjVEf6a5+OOO06iqvyZbVvli9B5BtgWOIe0VhFSftaqOMPMxOkIsDoROk20hdBnDh48uKl9xD3zwEKOM844Q2Gso7ejmOANnSomaWIsOmDAgIbnCAsvVejPxB1p+iIST5Z35N1OO8dxQi9PXLejN0prgMQKWvP7SX6jnxd3uOqH4xu2MZFLPWFcPsr8rIj+hctx0Ouvv66mm266lnzDuBDHiiuu2DIsvAjoR5wdDWMSX0epDZAABav+MKsgqvJDkW0eaQyQmPlgxg2jnLkK5+23327YhBbvYGCJZa3m8c0336h33303WB67wAILNMQPAySMEXgfS7uxNFY/sHzWTA9WKArp+vfvr0w3VWhgzXf22msvPdqma92YIXkZP358UzgYMs08wOUeDyJABFTgHkTqHgx/f/vb3yJhufDCC8N6mtYAKW4gllpqqWCpvf4RrEyWNMgZ9TvqyEPm/f3vf1eQkXAtK2kwz1g5/uc//7khWXBBbRtsYMIHVjXEHZRhv6Cjl6krHsJtuFmGSyyxhEJZ6wcMkWa4lVZaSQ/SUE8kbLvtbMMHUiquy8Sd//73vwr1AH/Y7B6DGMFIzsAT/Qr9+PHHH4NJQhJmhhlmUJAxmHwAN+1w4VinwzXHXfIbOOvpkzJxyfG0io2ychzKJsFHzuhLv/rqqwqcth1Y/Q+XNBIee7LAfRN43q7rbtv3fN3TOUQ5PlVY3sDFdpSJ40gfFKLCUZxXXnllq7ccuADTw8k1lGxRdcCW/7LfY9tW9hIqPn06J9gWFI9/mb9I+Vnm0mkvbRg3YkU8FnVIeyfn1VdfPbiHcf/LL78cuOOXZ3KeZZZZFGSHfmB7G3kuZ2wjZTuwqs1crAEXrVFbXSGOtH3urO/Y0tsJ94rSG6FPhVWyMNBBhyZckbPZvwQnZEyu2xMkPPT48lw/x/XdXI83bQZIl3rCqvKviP6FPk4TTrQz1scYFjzCll0Sn5wxcRHP0DbiAMfwG9t9SRg5Y0EAnpkyDfGD/+LtEroiuF+FvimOs3lzoPQGSAAA4MyVeAI4zgBdP3SB0WoFJFY56nHJ9TvvvKNHGVzDQCfP5dyvX7+mcPqNjTbaqOkdvIv82PxOY0UnhJvEr59BHpDLPGyzTLFaMuqwLS+PMyrC17C+egtpgvKHBxHodASwOlrqKJSirY7FF188CJ/WAIlvzDPPPE3GH3wPDYhZP+HONOrIU+ah8Z922mlDTASb3XbbzbpaHWnEO1tttVXTO5CRmIBiOyjDGlFxzUMMFNFJkfLDGb8xODQP7G2sh8M1VgLrR56ck+8kHSyWnTvoe5irToGp6ZoPZYFBOZ6h84v9Vep8uOS4a34D97w5npTfSEuZOY72av7552+SGa0mzWFlmMgZDJ7qeLjkOPBxzfO8OY40J+V5GTkO91rCUazkMSfrIH/wjmEqQvEOvN+8//77daR1mCe2bSEUvPj/sQvbAlJBEKD8FCTqe8Z4H+MVaSf1M7y64MC+9/p9XJs6DSzeMMPAK1zccckllzS9c9RRR0W+krQvokeQ5R39/U68LkpvBGxt3idMA6ReBlhUYPIMOvo0h+t+OL5tM0Aina70hGnyV9aweY018xoH2YyK0O1GjQvgpljnJmxEUcfnn38e6vR23XXXqGCF3q+EARKIYAm1qRAV4NGY6QqJNAZIrPAzFebzzjtv00wbpAGzreWb+tlcmaCXYJSQgFvVqMPmAx/7PmJTXNsBN0R6enANlwQQ6uYBYdq9e/em8MA37oDLR/0bEOI8iECnI4AZdFIvsIoDM9tt9U5wEneVcMEcddhkBuI2/Xrr79sMFlGrMfOWeVi5IZjIOaoBlTxgQoOE1c/Y89I8KMNMRFTgzlZwc8FDc2UJ4h4+fHjzh5UKNneXb8sZBmX9yJtz+FaSgV9VuIN9AWz1SNzzoT7BVbHgjYF13Q+XstY1v4F93hxPwm+kowocP+uss0LuCofRv7dNykOe0MeVfutyyy1XW6q75DhAcs3zvDmONCfheVk5jtXnwmebYhNKANv4Dm32PffcU1te6xlj26ajwWu2BeSAIED5KUjU+2wb28Adpxzw3rLggguGbSnaVH2RBHSuiyyySMNzhMFilbgDK37MydrQlUK3azuS9EXM97K8Y8bRib9tnHCpNxJM05YP+prSp5NzWgOk63448pK3nlDwqvo5j/5FnuMg06gIzh1zzDFNxQA986KLLtrETUxwtB3YMlD4+9RTT9mCFH6vMgZIIAN/3hioCYj6GbNNZXVGGgMk4r3lllsUCh1+eOErPKoAEdbcbw1peO211yILziYksAoq7pC9HvX8mQpd833bjCLbps02lycwuLY6sJJUT0/UXj2t4uFzIlAnBLBqQ68XuMbKPaz4u/7664M9IPV9auHaGQoYKKKiDpvMaFXfZGWlnpYXXngh6hO5yjxbRxIzW1sd2LdBTz+ue/To0WTQpQxrRtIlD1955ZWmckBZ3Hvvvc0f/v872IsUZYUOEfYq/PDDD5vC5tnO4mNJBhZV4s61115rLYfzzjuvwY3MiSee2IR1HW+44nhe/AbmeXI8Cb+RhipwHAqk2WabrYnfRx55pJW6o0ePDsPKLHlrwIrfdMVxwJAXz/PkONKdhOdl5bi+19Ctt97awEYoDGyKKLStMrGk4YUa/2DbVuPCTZk1tgUpAatxcMrPGheuljWbjsD0ZPfXv/5VHX/88cF4EltTiQtCRHPNNdeE/UHRGWBiT5IDbs7lHTljGyvbkaQvYr6X5R0zjk78beOES72RYJq2fNo1QObVDy9CTyiYVfmcV/8ir3EQXEiLXJIzbDS6/EN52FaJI7xtdSPGHtAh43ncKsmiy7lSBkiAc/LJJzcVjhQSZsxgBnVaA6SAHrdyCTNyELe5HyK+be7JKPHhbBMSpis1PTyuMcNb8iTnVq5kzVWceM82q0dWYEm8OKNBbnVgdq7+DgzBNnewreLhcyJQJwRgZNTrhe0aKzvgchWbpaMxbHVkkRk2A2QSN8l5yLysHclDDz3UiuVHH33UABllWAMcwQ+XPISC38bjKHe4zamJv5MH5/DFJAOLqnEHA3BbWcg9GCw65XDF8bz5jfLIg+NJ+I1vV4XjuktV4TPcbH311VcNlMb+FdLvxgQHfUJPQ8Aa/HDFcUCRN8/z4DjSnYTnZeW4vjfMX/7ylwZGRo1dN9xww6Y9WxperOkPtm01LdgM2WJbkAG0Gr5C+VnDQrVkyaYjePfddy0h7bd0V/XSd1xvvfXsgY272223XdOYKurdJH0RI/pE/RfzHf5WVo8/SQyQSfVGgnHaMm3XAJlXP7xIPaFgV9Vznv0L1+MgLBzDqmyRa3K+6aabGuAfOHBgUxiExepcc/EZPG5KPOPGjWuIx+ePyhkgAdZOO+0UgimgynnllVdWr7/+evi8leHOBB/CBu5csWHs4MGDg5UGNjLI93BOa4A888wzzc82/LYZIO++++6GMOaPpAbINdZYI8RG8gClz4EHHhj7Z9vLEljxIAKdjAAmJtjqq9Qt84x9fmxuRXUMbR2LVjIjqwES33Ut82yDiyQdScyANPHC78cff1yHR1GGNcAR/HDJwxEjRjSVQ1qXI80pbLzjmnOIPcnAoorcwYQlW73AoNncbLwR5Xr9csXxIvgN5F1zPAm/8d2qcBzusGx9a/S99eOKK64I+T927Fj9Ue2uXXEcwBTBc9ccR7qT8LzMHH/11VeDMaFuKMd+VabrN8h0GNaT9I1qR/T/zxDbtrqWbLp8sS1Ih1edQ1N+1rl0/5c3U0cA73NxinwTkU022STsE8rYKG5bG/39XXbZpelduHO1HUn6IuZ7Wd4x4+jE3yYnUK5J+kZJ9UaCadryQR9XOCbnNPqQvPrhResJBb8qnvPuX7geB+2+++5NnFt//fVD6LE6XLxerrbaak1hsYpSP2RrD9h6kiyC0d/N87qSBkhsLIoVRSIMzDOMkHIvqQHyxhtvVChg2yAR9+AWdeuttw7jlfhxTmuAhPuguMNm0HjsscfiXmnaxxLpsq2AhAFET3vWa5Df1YqY2IzxIREoOQLwU29zmxxXt+IMiraORSuZkcUAmZfMy9qRnDx5slU2YQaZflCG6Wj8cu2Kh9tss01TOcBdoosjL84hbUkGFlXkzvfff69sncyll15awaVzJx0uOJ4nv1EWeXE8Cb/x/SpxHBPfzHYSLszBeRxQSi211FJBGP1+8LCm/1xwHNDkyfO8OI50J+F5lTgODw5zzTVXE8+hdIU7/k4+2LZ1cuk35p1tQSMe/PU/BCg/68cEU0cw//zzp8okwpv9RqwISnIMHTq06V0YlGwG0CR9EfObWd4x4+jE3yYnUL5JDJBJ9UaCadryadcAmVc/vCg9oeBW9XMe/Yu8xkHPPPNMk4yC18kpU6YExXDssceGz+Hit1+/fuFv1BuMmeXAdkiyQA2eY8p0VNIACQCxCahN6W42Sq0MkFj2v8466zQUHuJAYWOl5e23397gEsq28XGVDJDwk25itMwyywQDYQyGk/612uy5TCRnWohA3gjAHTFWNoqy1Kxj5m9ManjooYesycq7Y5G3zMvakbzyyiubZBNwg69z/aAM09FovHbBQ9uqBKxUaufIm3NIW5KBRVW5s//++1vrBvYU01fatFNGVXm3XY7nwW9glzfHk/Ab6agSx7FdAgwxZvt40UUXBXTEPnrybNSoUVWhaNvpbJfjSEAePM+b40h3Ep5XhePYt6V///4hh4XLOGNfU/2A+1241G41ZtXfqcM127Y6lGL7eWBb0D6GdYuB8rNuJfq//Jg6giWXXDJVRjEZTW9Lcb355psnisO2uqhr167Wd5P0RcwXs7xjxtGJv01OoEyTGCCT6o0E07Tl064BMo9+OPKSt55Q8KrL2WX/oohx0EorrdQk4+BuGFuSYE9I1A+MLXDoXoJELj788MPBsxNOOCGMJ85W5aOcK2uABFhwtYqVGQK47Rw3mMMKvl69ejW937t3b/Xoo49ay6PqBkibsXWttday5pU3iQARSI8AZpxMmjQpcIEGtyBzzDFHk4yBrIqajZJnx6IImZe1I2nz0w6czE4oZVgyTmbl4dFHH93EV0zIgXvALEcRnEO6kgwsqsidyy67rKk89L4O8t2pRxaOu+Y3sC+C40n4jbRUjeO77rprE7979OgRGNZXXXXV4Nkss8zSsR43snAcPHDN8yI4jnQn4XlVOB61P9G2226LrDYcW265ZcB1ePfplINtW6eUdLJ8si1IhlOnhKL8rGdJmzqCtAbIVVZZpanPuMEGGyQCy6ZfgbLfdiTpi5jvZXnHjKMTf5ucsOl+bLgk1RvJu2nLJ6kBEgsQ9t57b3XttdfKp4Kz6364RG7jcR6e0uR7dTi76F8UNQ6y9Y3h+eXqq68OZZ9w7bvvvmuyhWELQUzgkdXi2LaibEelDZAA88EHH7TOoBYFXZwB8vDDDw8LUsIvtNBCsW7Nqm6AhNFD8irnWWedteNWUZStIjI91UTgtNNOC/bxgZ/3qAP7tGET4BVXXLGh7vXp08f6Sp4diyJkXtaO5I477tiAD+QT9kgyD8owExGlXPJw/PjxTeWAskBbm+UognNIV5KBRdW4g/2oxX0G2mmUs81NvKwYy1I+VXnHFcdd8xv4FcHxJPxGWqrG8ddeey3wOCL9UTnrrrKGDx9eFZq2lU5XHEciXPO8CI4j3Ul4XgWO33zzzdZ2dIkllrCOMaGEBffhsqsTDrZtnVDK6fLItiAdXnUOTflZ39I1dQRpDZA77LBDU9vas2fPRIDZ9o/eY489rO8m6YuYL2Z5x4yjE3+bnEBfyJx8bsMlqd5I3k1bPkkNkLItHMYt+uG6Hy5x56knlG/U7eyif1HUOAgT/jHxVsbD5nnOOedU2I5QjoMPPrgh7PTTT69gkJb3YLgs21F5AyQAtVmKBfQ4A6TpNxfvYBZD1AFCoFAlbjnHLWvNIiTy3APy+eefb0o/8gGfw0kOLD2Gm0nMTIebKB5EoJMR2GKLLYL6BBcemIUSd+A59m0TuYFl9LYji8ywuaNGXTePImRelo4kGlJM/hBs5LzVVluZWVCUYU2QKJc8/PzzzxVcrkoZyBmuHJIc6AhtvPHG6oknngiCF8E5fCjJwKJK3EGbPNNMMwXlgDr1yCOPBHjCdZ+UiZxhpPz973+fpHgqG8YVx13zG4AWwfEk/EZaqsRxITHonCkAACAASURBVGPU/urg9wwzzKCgBOiEwxXHgZVrnhfBcaQ7Cc/LzvE333zTqjxAu2obL/71r38NJ5rAuFr3g21b3Us4e/7YFmTHri5vUn7WpSTt+TB1BGkNkHfccUfTGAh9RWzNFXfAfSH6kzJukvPYsWOtryXpi5gvZnnHjKMTf5ucQNm0MkCm0RsJpmnLJ6kBcrXVVgt4ZRogXffDJR956gnlG3U8t9u/KGocBOyjtidA3TjyyCMbigceQUWemWesnCyjvaYWBkiUwhFHHGEFP84A2b1796Z3sA9H1AEFn1mw+G0bUEocWYREngZIpEtmauh52XnnnSXJsWf4Wcd7aCy+/fbb2LB8SATqjoDUB9SJs88+u2V29QYlakl8FpmR1ABZhMyzdSRfeumlWGwuuOCCJtmKeF5++WXre5RhjbC45uGwYcOaymOeeeZpaQjQ92y79NJLg0QWwTl8KOnAogrcgQIGM9wgV7DiceLEiQ0Fjr3C9PYb15gthxl+dT1cctwlv4F3ERxPym+kpwoc13n69NNPN/FZ+A23Rp1yuOQ4MHPJ8yI4jjQn5XlZOY6JZrYxHPg8YcIEK5X18euJJ55oDVOXm2zb6lKS+eSDbUE+uFYlVsrPqpRU9nSaOoK0Bkh4lbLpPMQlYVTKHnjggaZ+JiaFRynnk/ZF9O9leUd/v1OvTU6gv+RabwRs05YP5BG2oJHxCM4Yk8O9pX7AWxeeweWqebjsh0vceeoJ5Rt1PLfbvyhqHATsX3311QbeCQfBx7fffrupeNZbbz1r+MMOO6wpbBlueDVAXnfddSFYt912W1t4oEGyWbbjDJBYpSEFKueddtrJmg40ULbweO+pp56yvoObWYSEbfD62GOPRX4DD8RNm+QD5y+++ML6zjvvvGPdlw4rK6KO//znPw1GXghUHkSg0xHQFYZYrfTKK6/EQqJvLBzVKGSRGbbOOFYJmIdNhrmWebaOJGTa3//+dzM5wW/M/odxS5dduI6TR5RhjVC65uEnn3yiFl544aYywT4baGttBzb5lnfmm28+9dVXXwXBiuAcPpR0YFF27nz88cdqscUWC7E/99xzm+DG4GfDDTcMw0jdWXTRRdU//vGPpvB1uOGS4y75DWyL4HhSfiM9Zee4jY+2wdM000xjHWjZ3q/DPZccBx4ueV4Ex5HmpDwvK8d33333JrkM+bznnntaKYpxsKx0R7hW+/hYI6nITbZtFSkoz8lkW+C5ADx+nvLTI/gFfdrUEaQ1QCKZDz/8cJNHutlmm0299dZb1lxgJZsYiWS8BL2pTU8iESTti0h4nLO8o7/fqdcmJ1BGrvVGWctH9tET3uCsew3EpCoxUtpcXbrshws/8tQTyjfqem6nf1HUOEiwX2uttZrGE5tssok8bjhPmjSpKSx4CX6W8SjUAAkjGirn5ZdfrmAYXHnllUOwsHz55JNPVmPGjAlmib7//vup8YKLVF3BDyERZ4BEOnSBItfY1FafEfPnP/9ZQfGK59NNN13TOxCSZ5xxRpBuKNPfeOMNdc011wR/sixb4sZ5t912C59/+eWXQT5hlZd3bK4Ijz322OC5vg8XVmTKO7Z9ocaNGxc8tzWwKAvsKaWnC8qeo446SiEPcgDTG264IXC5KmGRX8wK4UEEOh0BXWGI+jHjjDOqCy+8sGl1MOo59hmQOgSFE5QxcmSRGXBxKfV/7rnnDuOWbxx66KHBc3HdiG/lJfMkHzjbOpJIE/ZowF6Y+nHPPfdYJ0MMHDhQ/fe//9WDNl1Thv0CiSse/hKjUmj3bD7oBwwYoF544YWwfNAWYGWHGJHR4bnzzjvDqPLk3HvvvRfWAVvHEO5gpY7ofMqDO3AHc+aZZ2b6gxv5888/Xw0ZMqTB/S1c9kUppHX//lLnccbKaskzyrAuh2uOu+I38M2L41n5jTTlwXFgloXjjz/+eEsaom3QeYxrDLI76XDNcWDniud5cRxpzMrzPDgON21ZOI69fqL2+8GY7sMPPwxcxKHfh5XqN910U7Dfo8n5W265pTaUx5YdbNtqU5yFZYRtQWFQl+pDlJ+lKg6niUGdlnGJuWACE1blGSbk6HubxSUC+mRT9wlj5r333htOlMW4DzqQvn37NvQvkQbbJOcsfZEs78TlqxOf5ak3Slo+UR6EsKrR7Kf1798/mFT/9ddfh/YB6EuiJgC76IcXpSesO//a6V/kOQ6y4Q6vnCb3ohbsYeyCrb308JioXtajUAPkoEGDGoDRQTKvMQsqy4HBnT7L5dRTT42N5qSTTmpqwJAW+MyFgNH3bOvVq5eaMmWKwtlMr/zeddddlc2doDw3z+Ji0OZSzQyL31DuygoUmwsi2zvYs9F2YEAMS7rtnW7dugUu4GRWh3wbRhT4tOZBBIiAUqbCUOoS6g0MbqhfK6ywQsMKZdQtzN7TjywyA26T5XtxZ+x5oB95yDw9fltHEntkShqxugszkOaYY47wnjyD7MYAJOlBGfY/pFzx0MQdCsSouMErdHb0wSQM6zY3OHlxDpNjhDutzqbLFNfcwUCkVRpszxdccMHY9zCpwXboq2Zs8eIe+gh1OaJ4mFbW6ni44jfizIPj7fAbaXLNcUw0iOJa3H1MoEtymEoi6R8nebcOYfLgOHBxxfM8OI70tcNz1xz/5ptvMnEcY0XbRLC4emF79sc//rEOVA7yoHs5suWVbVttitp5Rjq9LXAOaAUipPysQCFlTOK6666buF01t5yI++STTz5pdXk+/fTTKxg2bXs+YlwUtXVWlr5Ilnfi8tSJz/LUGyUtHyw0sh3oEw4ePLiJvxh76ouSsPgg7mi3H16knjAuH3V41k7/Iq9xkA1XTMaYa665Qu5BXwSPlFHHMcccE4ZFn3vy5MlRQb3fL9QAidUIaBSwTB6KSyibASb+cI17WJWHMDDkZT3gNxodGQiGm2++uWU0WPE3atQo1bt374aCkwETVnZgXw5ZrQhXgthodvnll29YRYjvYSUkZrBCKTvzzDMHhkykBUu48QciIf9Y2YDnstoQKzXxPhT1UMzjm8AEDSjeAS4YrEHgCfnQiAIrGDTwjmCKM/aPwmwMCPVW7g2wkgp709mWmQMDpBOrXjDbmAcRIAK/ILDddtsFMgPL5GFUxKpDTF4Q2SFn1FvIC+z1A1cg5pFFZsAA2UpmoPNtGiDxbdcyT8+PrSMJ95ynnXZaIM8EE5yBC+T/RhttFKxWx4rrLEenyzBXPIzCHitVwTcbt1GOPXr0UGjf9VW9Zlx5cA4DC6zchzEOaZO2VtpNtLXgP37LxB0zXa64g/ixEXjaP+RB6jHSL+0+8oN+whJLLGEmOfiNdh15Q99A3pM+Btp+9A0wiaouR54cd8Fv4Oya4y74jXS54vg///nP1PxGfYiaFWxyU18Bsdlmm5mPa/87T44DPBc8d81xpMsFz11xPKsch3JpnXXWaer76f2dJNdRLuSqSH70idm2VbHk/Ke509sC/yVQfAooP4vHvKgvwgBp6itF/4txC3SeGK+hvUB/IM2ByaWY+IpFLvpkZ2lvMY7CRHB41MBKy7gjS18kyztxaejEZ3nqjczyAdfAOegFoCuHDh3cXH/99WOhv/TSS4OFBcIrOcPDRRJbg0SetR9etJ5Q0lvHc7v9izzGQVE4n3POOYGuFPrSsWPHRgUL7sM+JXo6yDyxF8W+5OlhoQZIT3lM9Vm4XoX7V/h3xt+nn36a6v2qB/7++++DPXcwmH/uuecUDAfmypGq55HpJwKuEMA+d3CfrLt3RNxQRmFm3qOPPhrUozKvGnYt82wdSV2OQokNt9Bw4/ntt9+6Koownk6UYUXxEDz/7LPPArd+mJACtyJJjQthASkVuDgvYzvbidzRy6XM10Vw3BW/gaNrueqqbMrM8UMOOSQ04HTihLciOA4eueI5Oe6qVjIeIkAEdAQ6vS3QseA1ESACyRCQvs2rr76q4Pofuhjc41FuBHzrjdKgg0UEL774YsAv24KCpHEJV6FHaUefkvR7DPcLAi77F0WMg6BDTaprgytWTGQsu9yjAfIXPvKKCBABIkAE2kSgVUeyzej5OhEgAkSACFQMAUxku+uuu4I9km17rWAgL26FsY8pDyJABIgAEagfAmwL6lemzBERIAJEICsC1BtlRY7vmQiwf2EiUs7fNECWs1yYKiJABIhAJRFgR7KSxcZEEwEiQARyQQCutfUtDuDu6IEHHmj41m677RaufrzjjjsanvEHESACRIAIVB8BtgXVL0PmgAgQASLgEgHqjVyi2blxsX9RnbKnAbI6ZcWUEgEiQARKjwA7kqUvIiaQCBABIlAYAvfdd19oXJR9U7bffvvw+88++2ywxwWerbLKKqV3HRMmnBdEgAgQASKQGAG2BYmhYkAiQASIQEcgQL1RRxRz7plk/yJ3iJ19gAZIZ1AyIiJABIgAEWBHkhwgAkSACBABQeDOO+9sMkAOGjQoeIw9gfv27Rs8n3rqqYP9geU9nokAESACRKA+CLAtqE9ZMidEgAgQARcIUG/kAkXGwf5FdThAA2R1yoopJQJEgAiUEoHbb79dYVNnfWNnWemC81577RU8GzlyZCnTz0QRASJABIhAPgh88cUXappppmkwQk6YMEE9+OCDDa5Zx40bl08CGCsRIAJEgAh4R4BtgfciYAKIABEgAt4RoN7IexHULgHsX1SnSGmArE5ZMaVEgAgQgVIisO666zYol3Xjo369+OKLlzL9TBQRIAJEgAjkh8Do0aMb2gjsAyltQ5cuXdTFF1+c38cZMxEgAkSACJQCAbYFpSgGJoIIEAEi4A0B6o28QV/rD7N/UY3ipQGyGuXEVBIBIkAESovA0KFD1aqrrqrWWWcdtfHGG6vNN99cDRgwQG2xxRbBb3Q0V1ttNbXvvvuWNg9MGBEgAkSACOSHwMSJE1W/fv3UDDPMoOButXfv3mrPPfdUH3zwQX4fZcxEgAgQASJQKgTYFpSqOJgYIkAEiEChCFBvVCjcHfUx9i/KX9w0QJa/jJhCIkAEiAARIAJEgAgQASJQeQR+/vln9eOPP1Y+H8wAESACRIAIZEeAbUF27PgmESACRIAIEAEiYEeA/Qs7LmW4SwNkGUqBaSACRIAIEAEiQASIABEgAkSACBABIkAEiAARIAJEgAgQASJABIgAESACNUGABsiaFCSzQQSIABEgAkSACBABIkAEiAARIAJEgAgQASJABIgAESACRIAIEAEiQATKgAANkGUoBaaBCBABIkAEiAARIAJEgAgQASJABIgAESACRIAIEAEiQASIABEgAkSACNQEARoga1KQzAYRIAJEgAgQASJABIgAESACRIAIEAEiQASIABEgAkSACBABIkAEiAARKAMCoQFy0qRJ6qqrruIfMSAHyAFygBwgB8gBcoAcIAfIAXKAHCAHyAFygBwgB8gBcoAcIAfIAXKAHCAHyIHEHPjxxx8b7J6hAXLeeedVU001Ff+IATlADpAD5AA5QA6QA+QAOUAOkAPkADlADpAD5AA5QA6QA+QAOUAOkAPkADlADiTmwBdffGE3QD7wwAPq97//Pf+IATlADpAD5AA5QA6QA+RAIg7cf//9icKxj8k+dlU5QI6Tu1XlblS6Oe4np01uUM6REyYn+LvenGCdr3f5Zqm/5AQ5kYU3rd4hrzqXVz/88IPdAPmHP/xB3XvvvfwjBuQAOVALDqCho0yjTPfNASj5fKeB32c9yJMDTz/9NDnOfkOtOfDkk0/WOn95ygfGXc7255lnniGnKbcbOEA5V8666lOGPvTQQw0c8ZkWfts9P1nn3WNadZ4+9dRTrPPsGzjnAHUFnStrfvrpJxogq94wMP2dW4FZ9snLngbI5FiRV/lhRQNkftiSt+XAloOKcpQD60N+5UAlXX7Ykrd+sKUB0g/uZeY75Rw5YfKTBsh6c4J1vt7la9bnJL9pgCQnkvAkbRjqCjqXVzRAckaD8xkNaQUQw3euACqy7GmAJM+K5FvUt2iAJA+juFGX+xxUkON14XJUPqikI8ejuFHV+zRAktMmdynnyAmTEzRA1psTrPP1Ll+zPif5TQMkOZGEJ2nDUFfQubyiAZIGSBogyYGO4AANkJ3b0KXtFOUZngZI8jBPfpUhbg4qyPEy8DDPNFBJR47nyS8fcdMASU6bvKOcIydMTtAAWW9OsM7Xu3zN+pzkNw2Q5EQSnqQNQ11B5/KKBkganzrC+JRWKDJ8/YQiDZD1K9Mq1lMaIMnDKvI2TZo5qCDH0/ClimGppCPHq8jbuDTTAElOm/ygnCMnTE7QAFlvTrDO17t8zfqc5DcNkOREEp6kDUNdQefyigbIEhog77nnHnXTTTep8ePHq3PPPVeddNJJ6rjjjqOhsIRllVbYMrw/YVuEAZJ111/5VqVu0QBJjlSFq1nTyUEFOZ6VO1V5j0o6crwqXE2aThogyWmTK5Rz5ITJCRog680J1vl6l69Zn5P8pgGSnEjCk7RhqCvoXF7RAFkyo9a1116rpplmGjXVVFM1/V1++eWVNkIuv/zyqkuXLpn+Zp11VtWnTx+1+eabq7333ltVHYu0Qprh2xfSeRsg61x3yb/2+ScY+jRAwkAOnmJiy5lnnqmuuuqqwtuUu+66S1188cVBGm677ba2v3/HHXeoMWPGBPFNnDix7fiknHjOzvmyDCquvPJKNXbs2EI5cf311wd1a9y4ceqWW24p9NvkbHbOpsXOp5KuDHLchhf65uuss04m3t94441q9OjR6oILLsj0vi09vJeuPvg2QPqUnUX1I9qpIz747FPOZc2vb/nomseu48uKq7xXBgNkUZjsvvvuauONN1Z33313bn25srV9Vazzwk2ci+j3X3jhher2229PxAmMs6+++urIsEVwTMcny7VPA6Rvee77+1nKqyrv+NYVlEH2upZXruPLi0s0QJbMAInK0LNnTzXPPPPUzgC54447ql69eqmFFlpITTvttE35m2666dRiiy2mevfu3fC35JJLqhlnnLEhPN7/zW9+oyZPnhzZqOdVaRhvOqVGWfDK2wBZ57pbljKsQzp8GCAxUBoyZIiaf/75G+QoJrrMNddcarfddlMujIFR5QNDzE477RS0bZDzMsFm6qmnDmQ+vn/nnXcmluVQBkCRt/DCCzdN2OnWrZsaOHBgYGiNSg/v5yvDfQ8qUL4HHnig+vWvf61+9atfpeJWFm5ccsklqn///mqOOeYIuS0cn2+++YL6dcMNNyTmd5Y08J18OW3i60NJ51uOmxjov88666ygroH3SScIXnrppYHBcuaZZ26qN7PPPrvacsst1XXXXcd6U9A41YcB0qfsLLofkaWO6HXMx7UPOZc1nz7lo2seu44vK6a293wZIH1gAn0V2jSMNQYMGKCGDh0a9C0POeQQddhhh7X8w2RLG4ZlbvuqVOdNbIvo96N/A05gfLH66qurww8/XIGb8FwHGYSyPfnkk9WwYcMUFl5gnIvxgZlW+Z0XxyR+F2cfBkif8hyY+f6+i3Irexw+dAVlkr2u5ZXr+PLkDw2QBQ3sshTi8ccf3zAov+yyyyIbsCzx+3wHhkMo5kRJh/MRRxwRmT8MFDHjaO211254Z5ZZZglWvvjMC79drOIvK955GyD1dNW57ur55HV67hdtgIQCFxM/IGMxkWPQoEHBikGsNBk8eHA4uaNHjx7BzFHXZYoVaHPOOWcot1dddVW11157qaOPPlqtv/764X1MPkmyghEDvcUXXzx4b8EFF1S77rqrGjFihDrqqKPU9ttvr7p37x48m3766QPlgOv8ML7WnPcxqEC5YMA4fPjwYNCv9y3ymqiEmbEwhEMRge+hnsFossEGG6h555035DaezTTTTHSlX+L+dtp6XbSSzrccj8MH9U6f3IIBflx4PIOshmIOkwmxavLggw9WI0eODGT2EkssEdYd1C1MUGkVH5+3lsutMCrSAOlbdhbdj8hSR1qVVxHPi5ZzWfPkSz665rHr+LLiGfde0QZIX5hgUqRtsrzet2x13bdv36a2q+xtX1XqvHC06H4/vJu0Knf9Ofow5513XhMPkP68OCbYuDoXbYD0Jc8FL9/fl3TU/Vy0rqAMste1vHIdX1GcowGyxAoRuKrD7H1pyOpkgATBTWNi1EwxvTKgI7rddtuFmAAbzJSGOw49HK/bV0bUDcMiDZB1r7t140aR+SnSAIlVjWIIwcpDzMA384qJHbLCHLIUszjNMFl/QxEtcaMts00ywYxiaeNghIQrtKjvYSUl8gPFNWZ6oT0wwyIMjECIE+7MMRPVDMPf+bYPRQ4qsLJ3pZVWUgsssECksigvAyRcJ4FnWPk4atSoJp4de+yxCoZw4TfOhx56aFM48jFfPuaBb5FKOt9yvBV+mNSic7yVARJGe4Rfdtll1YQJE5rqA+Q6Vhboce67775N4Vqli8/T1asiDZA+ZaePfkTaOlIW7hYp57Lm2ad8dM1j1/FlxTTuvaINkL4wQTumt0FZrs0xTxXavirUeZ/9/jQGSHh3OOeccyL7LnlwLK7uZn1WpAHSpzwHPr6/n7WMqvhekboCn7LXtbxyHZ8P7tAAWWIDJAihu6urmwFyvfXWa+jcYUZqkkoA5YS4LJAO4SqrrJLo3STxM0w6pUVV8CrSAAlM6lx3q1LmZUxnkQZIXekFg10UHlg9KLJ0ww03jAwX9b7tPlaty8pLxA2joC0c5Dncbsv34arbFg73ZMUkOpJRYeS+KLAxAERa5D7P+cv3IgcVcMUO7mCF4XLLLRe4yNp2221DPuFZHgZIuGGCcRErbsePHx/JL+y1qk8kwztQYJCH+fMwT4yLVNL5lOOtMDz//PMb6hrqW5wB8tZbbw0nCvTr1y/wbGL7BlwWYwKJtAuYdJJkhbwtLt5LVteKMkD6lp1F9yPS1pEy8bVIOZc1377ko2seu44vK56t3ivSAOkTk+OOOy5sf6QdSnNec801G/p5VWn7qlDnffX7UTeSGCDRd9liiy1aLo5wzbFWdTfr8yINkL7kuWDj+/uSjk44F6Ur8C17Xcsr1/H54BoNkBUyQKIj5oMkeX0zqwES6cEqAr0jCGNP3MqZvPLAeJMpNsqAk08DZN3qbhnKs6ppKMoACc6JAne22WaL3QcPbmCwd6LI1Ch3MWkwh2tUiQ/nuAkmY8aMCcNCltsUzehAiss+uJxolRa4UJHvu8hPq+/x+S9tQVGDCmAOA7ZpYIY7Ryl7nPMwQIqBG/u/tCp7CStpcmXkb/VdPv+Fk66xKEpJ51uOx+GGdgOuu4XXco4zQJ566qkN4bHqPuobcLEtceIMV9tRYXm/fa4XZYAUeehDdhbdj8hSR8rE5aLkXNY8+5SPrnnsOr6smLZ6r0gDpE9MZAyz6aabBu7Bzz333GD7CniNifrbc889gzYLXjFMbzJVafvKXufBT1/9fnxbDJBwFY/tFvr06aMWWWSRYOuHgQMHBu7kr7jiikR9Fdcca1V3sz4vygDpU54DG9/fz1o+VX2vKF2Bb9nrWl65js8Hf2iApAEyUSOZBznbMUBKB0BXTmClQR7pZJztKzbKgCENkPUoxzJwqZ00FGWAxP6OIh8ha1ulWdyW4p3NN9+8Zfi4+GAglH3xEN/cc8/dMj7s5yvp3WeffZrCQ77jedeuXZueRaVlnnnmCd7ZY489Er8TFRfvJ5cfRQ0qosqkCAPkrLPOGnALZ6y4xIAgKj1nn312yG1wGKsgkxjRo+Lj/eRczAuropR0PuV4K+ywWh18ltm4Ir/jDJDDhg1rqAt4B6sdbd/CfsESJ86//e1vreFs7/Je+jpSlAHSp+wsuh+RpY6UibtFybmsefYpH13z2HV8WTFt9V6RBkifmGDchEmccNncChM8nzRpUrAlEDxenH766U3vVKXtK3udjyqLIvr9+LboH9Hvj0pL0vuuOZb0u2nDFWWA9CnPgYnv76ctl6qHL0pXUEbZ61peuY4vb27RAEkDZNsNaFaStmOAxGoaXTGBa+71lV7hkLXsqvgeDZDkRxl4W5QBcq655gplJPZZbJX3/fffPwzfrttSyGJdPq+zzjotv7/00kuH7yy55JJN4ffaa6/wOQw6rfKD57KCZrfddksUPkmcDNNajhQ1qIgqi7w74ldffXXIReH5iSeeGMkx7Cki4eQctyI4Kl+835p7RWFUlJLOpxyPw3Ls2LGBK9UVVlghVMgJt+MMkNgPScLhvOiii0bWm+WXX74h7PDhwyPDxqWVz5LVmyIMkL5lZ5H9iKx1pEx8LUrOZc2zL/nomseu48uKZ5L3ijJA+sakZ8+ewTYSSTBBGFmtGWWYqkrbV/Y6H1Ueeff75bsuDZCuOSZpdH0uygDpS54LXr6/L+nolHNRuoIyyl7X8sp1fHlzkAZIGiC9DejbMUDqe5aJMgOd1bwrDONPpsgoI040QFa37MrIp6xpKsIAedVVVzUobo844oiWstHci+Liiy9u+U4UBrqSD/J5k002aRkX9ksRWT7ttNM2udTed999w+dYURmn5Ea6rr/++tAF7UknndTy+1F54f30cqOoQUVU2eTdEb/oootCLgpnWxn59RW+eGfkyJHkZMn731H8wv0ilHS+5XhU/uHyGO7HZphhBjVhwoTAvbbUA5xbyWbsRwzj4mabbRYYL23fgetKTITR47322mtZZ3KsM0UYIH3LzqL6Ee3WEVud8HGvCDmXNV8+5aNrHruOLyumSd4rygDpGxMYI9BGJcEEbRraqsUWWyx2u4sqtH1lrvNxZZF3v1++7dIAmQfHJJ0uz0UYIH3Kc2Dl+/suy6sqcRWpKyib7HUtr1zHlzeHSmmAhCEJBiYodIYMGaKOOeYYlUQZetdddwVKRzQOo0ePbug0wIUC7sG/c5yrLACOMFDG4tt77723gssWuFZopzCy5gn7YckAHOlqJw3mu9gj69hjGAC2fwAAIABJREFUj1XwQQ6F8fnnn58oflc4ZzVAovywQkZwwXmZZZZJlHZgAIUJ+AVf/fjDyoWk/tpNDPk7vXLaF2ZlMUCi/qAuYxUXOjyt5FErvMjn6nAQZVmEAdI0Jp5yyikt5SP2N9FlKjozrbgX9Ryu8vS4ttpqq5ZxYV88/R3sC6nHb7qx7NKlizrooIMi6w/cyCI+7MWCFWh6XLzOt84UOaiwlWXeHXEol+EKWOdr3KpcyHi4XdXDn3baaeRkjsYUGy9c3itCSedbjkfhBZfW4DLGRwhjeiRpZYCMile/f8IJJzTUl/nnn5/1Jef6UoQB0rfsLKofUUQd0etLXtdFyLmsafcpH13z2HV8WTFN8l5RBkjfmEBviD1jW2GC8Twm42DbiTq0fWWu83FlkXe/X77t0gDpi2OSl6TnIgyQPuU5cPD9/aRlUadwvnUFJpZFjjtcyyvX8ZnYuP5dKgMkjEDLLbecgv90XVEj15hZBIOZDgL2DsHAFDNl9fdmnHHGIBxmzMJF0NRTTx3GiXhsq+VgoNRd/mAVhv4e3CvAaKd/v9V1ljzpcbYyQCK9cF2HPK688soKe6bgD/dXW201a1oPOOAApS8z1/fqApYYOJlGEZc4S/6yGiD322+/sCzBDXT8khioEaZ3794N7+qcwUbSo0aNasIMhnAYPIFxv379AnyBtWC/0korNeznBPeDCI/nUiYIAyMpZo2fd955Td8QTHjOTzHu2wCJTeuxygtyRWQazqh/a6+9drCpfZryJ5/z40qackgbtggDpLkC8YILLmgpc9BW6bzE3kVp8ybhf/e73zXENXDgwJZxbbHFFg3vHHrooQ3voE2ad955G8IgvegzmBNIDjnkkLA/MGLEiIZ4JI0851d/fA8qiuiIo071798/+MPANY5P5sxa8BYTR+Le4bP8+OkC2yKUdL7luA2nyy67LDCmY9wh44Q8DJBw2y3tEfpMcQZ+Wzp5L339KcIAiXLxKTuL6EcUVUeK4HgRci5rPnzLR9c8dh1fVlxbvVeUARLpKDsmmFDcq1evoK3CNhatsEvy3HfbV+Y6H4dfEf1+fN9mgJw8eXLQRznyyCOD/T+j9rWOS3/Uszw4FvWtqPtFGCB9y3Pf34/Cvs73fesKTGyLlL2u5ZXr+ExsXP8ujQESK9KwogEDTgw2sSoPg9rbb789EPYwis0222zBc30/JxgEYXzERtEyWMUZBkgYGbGBNWaqb7fddg3PYUzUwcSG0TD2IR4oXsePHx8MrjE7BbN8xUiHbyVxZ4e4s+ZJT1crA6Rs0K3nXa4XWmihhjzefPPNgaFDngODK6+8MggDQ+36668fYgSXeaJcQHpc4aznLa0BEi6ZBg0aFCqWkQ+Uh7naVf+GXMNoKSsQYAiEIfumm25S6DRgxgMMhYIL8o4GX97dYYcdgu/oxmgJizOMmBMnTgzDowOiPzevsaJW4uY5vZIkK2Y+DZADBgwI5NpMM82kwCesNsMKGOwVoU8GgKEGsz5b5ZF8Lo43rcoi7fMiDJA777xzgwxKMkEDbYAuq37zm9+05GFU3s2OUBI3Ruuuu27D9+GBwIwfq9X1NMo12meERxux++67BxOHIJcx2caMg7/zrzu+BxUm/9DO+yx3fX9VcHbxxRf3mh6fWNTl20Uo6XzLcbOsMCaA4RF9aRhZ5LlrA+Txxx/f0M+nHM9fZqMsizJACm+SnPOQnXn2I4qqI0mwcxGmCDmXNZ1lk49x+XDNY9fxxaXdfFakAdL8dtxvH5hggjr6dGm8cMXloQxtX5nrfBx2RfX7dQMk9HmLLLJI07gU+kIsBnHhuc41x+IwjHpWhAHStzz3/f0o7Ot837euQMe2aNnrWl65jk/HJo/rUhggYVAURSKMjJjxZGYWQlxX1MNAqIeB4nHYsGFhPDBAYgUaFJNQ9sOQKd/AeYEFFgjfh7EJhizcx8q1G2+8MXwm34CxQN5HwwKDpTyznV3kCfG2MkBilo0YR5E+uJtDYwW8dAMi8Fl00UXDPNhWpCA8VgFKPmG0NfPWDs5mXKYBEkZBrBLT/7BaEKtZYMBZcMEFw7ShDGAoTLIiVVzxIV99+/ZtWK0oaQIH9JkP6Djo+CEcDJbmyp5u3boFbn8lHpzxHoxMgiPSuvXWWwecQRx6WF4Xo1gBzj4NkODCUkstZZUtkDeYLCB8wcplk3s6T8jn4jij4+7quggDJAzbwiecoSBulX7smai/k2Tfxqg49fYScWJyS1RYuY8BvP59uHGVZ/p5p512aginvyPtJfaITOJ2Vo+X1+7qle9BRdk64vC6ofMUfTTyzR3ffGBZhJLOtxw3ccVkTPAYkzz0Zy4MkLKCYPvttw+9RGCCJY2PxdWTMhog85KdefUj8qwjep0r6roIOZc1L2WTj3H5cM1j1/HFpd18VlYDZNGYYOI5dIeY7GjTW5q4Rf0uW9tX5jofhSHuF9XvFwMk+kIoe+hvDjvssGCcDZ0kFqlAN4jn0EW344XHFcficEvyrAgDpG957vv7ScqhbmF86wp8yl7X8sp1fHlzzbsBEoYyURpCWGNPJ1umt9xyywYFjm1QCuMY4tD/dDducH8pz3Tl5jnnnBPex/MoxatuoFp22WWt6UTaXeZJxwbxmtjAQIcGEOnGKpMof/WyHwXCwY1d1J5YcGUnKwXh2tRmMMuKs5l20wApZZPkjNUuWLFjxmn+hktViQ8zt++4447Id7DyDG5WJXyUklA3LgL7k046qSlOpA/xdO/ePVjpZqaLv4tTqgjWPg2Q6KDa6pKkDZ1WTB4Q7umrvCUMzuRz8bzR8XdxXYQBEm2BcAlnfbVKVB5gCNffgbvgqLCt7kPOygAMcfbo0SM2LrQpMglI0hC3byRWrevxyztyxkAiTta3Sj+ft1fPfA8qytQR12U2+Al3XbqHBXKtPa75wq8IJZ1vOa5jC28pGBP07NmzyUtDOwbIfffdNzQ4ivzGGYq7JCv39TTyur26VDYDZN6y03U/Iq864pPXRci5rPkrk3yMy4NrHruOLy7ttmdlNED6wARjFLRV8KBlw6nVvbK2fWWu83GYFtXv1w2Q8BRk81qFvossDsEihKwu5NvlWBxeaZ4VYYD0Lc99fz9NedQlrC9dQRlkr2t55Tq+vDnm3QC54oorhkpPKOltghwgbLjhhmE4NPgA2gaObrCDQlNXQmImCd7Dfj1QeMr7cJWqD3yjXClghouEg5tYed88u8yTnh/TAIlVJnDpiEYuboYNXNFCcSBpb+VCVk8/DJdm/vBbT1dSnM14TAPkMcccE8wggjLD/IORGLOusZei5ANlsM022yi4yTXjxm+sep1vvvnC8FhJaQun39O5gDxec801Te9gdRpWSEo6kH9xZYu4kHYoT6AgN/cm07/F6/aUJWnx82mAHD58eBOPzPTrM7LBbZ1TCEs+F8sXs3xc/S7CAKlPloGcMtsOW17QPopMw3mNNdZoyVlbPHIPAzOJDxM1Jk2aFBkfVr9LWDlHTQRC/Jhos+mmmza9I+/ijP7EmDFjIr8p6eTZfb3yNaiQsixLRxz9T+yrLbxEv8D03iFp5tk9D/PEtAglXRnkuGCIyXnol4wdO7ZJprZjgIQyD5P98IeJoeK5RuoM9sfGGEbSwXN+9aRMBsgiZKfrfkRedcQn54uQc1nzVyb5GJUH1zx2HV9UuuPul80A6QMTTOqUrZ+gN4rDK+pZWdu+Mtf5KCxxv6h+P3Qz6J9gDBqXHmwZJf2YOeecU2EbrLjw5jMXHDPjzPq7CAOkb3nu+/tZy6bK7/nSFZRB9rqWV67jy5tXXg2QmBEiwhlnWKSjMoywUN4gHNynRgly3TCGVZNR8en3sZJO9p9E/NhfTX8u13CxoKfXZvhynSc9P7oSGcY0KAPgogirICWNtjNcGkm6MRMHimZbOLmH/TclfJQSWk9XUpwlfjmbBkgoMeRZ3PnAAw8M9viSNGKVoe1dcYWDcFCAw8VgXLx4Bl4BV4l7l112sb6D1WxYSSrhsKcTDERYzg2FI+I466yzrO+2SgOf56Ng8WmAHDlyZEsuoH4Ln3DWV2mDE+RzPrwour4VYYA0ZavedkTl11wBmXVWr8QPeSv7NoPP++yzj7UOYNIRPAro3Me1zU044oaLbnHHDlercBWuf0ePB5NzsMpB0sRzMXXI16BCyrcsHfHBgweHvAYXW7nul/TzXAxP28G5CCVdGeQ4MJL6BO8fNszaMUDa4kN7JTIe8hyT+Wi4z79OlMkAmbfsdN2PKLqO2OpNHveKkHNZ010W+RiXftc8dh1fXNqjnpXNAOkDE2wrgbYJup4oj2JR+MXdL0PbV+Y6H4edyGAZA0IfFxe+nWdXXXVVy7hNfXCUbjkqHXlxLOp7cfeLMED6lue+vx+Hf12f+dYV6LgWLXtdyyvX8enY5HHt1QC51157hcoZNBgYEMRlErMVWylSdcMYCiMuPv0ZVqrBsBWXBjQ40rDhbJuV6zpPen4k77IPIYymSVbYQZEs6Z599tlbYgKXohIePvV1nORaT1canOV9nE1hbzMi6uH1a7jqlTTijJWOpotLPX6shtHfj7uGq1aJG/tORoUFV8RdLcJvvPHGapVVVgneBZei3uP9/BUpNozLboBEmsFT4d4888zTwCHy2Q9vbFxq514RBkjTZXkSF6xwAyzcw3mttdZq4F+WPGOVPia9ID6swrfJeHF7Ajet+vexIbz5zRNPPDFczQ8XsTIRCbIfs1HFHbkeD2Q0XfkVW3d8DyrK0BHXN7SH8RF1weQzfxfLS5d4F6GkK4McxwRNeFpZZJFFGjzH6Fi6NkAiboy39MmAmNjXavKkniZep69bZTFA5i07XfcjfNWRIjhehJzLmo8yyMe4tLvmsev44tIe96xMBkgfmMCwhT4dxhnQF8VhleWZ77avzHU+Ds8y9Pv19MHTnu59Lkqfqr8j13lzTL6T9FyEAdK3PPf9/aRlUadwvnUFJpZFyl7X8sp1fCY2rn97NUButNFGDQpH24rCtBnWDWOnnnpqpo4BXGxi9RpcfmJJNlyywhBl7lEFoprpc50nPT9QoupGCAzO4wymkjZ9bzkoaKGojfvr06dPWC6zzDJLUx4Rr56urDjreUFHzqacljyYZ5SR7toM75urNXVjTppOohgRESeU53H7NcHQiHD6X5zrQDMf/J1eSZIVsyoYIOF+TLiEugrXMpJf8rk4rgjmeZyLMEDqM4LBpyQGOLibFu7h3Mq9TFJssDcLVuojTngxQLt6yimnBC730LbiPva50F224p7pEWHChAmhFwS44rbJ5TPPPDNoq/G+/rfkkkuG9Shpuhkue33zPajw3RFHfROPHVBA0PiYnUtlrYdFKOnKIMex3QD6weeff36kDM3DAIlyN11iLbfccpFpKCtPqpSuMhgg85adefQjfNaRvPmVt5yDVwC44E/yB0Ovnt8yyEc9Pfq1ax67jk9Pa9rrshggfWGy//77h+MLjFvS4pckvM+2r8x1Pg473/1+W9rgsU8fiybVcxfBMVt6o+4VYYD0Lc99fz8K+zrf960rsGFblOx1La9cx2fDxuU9rwbInj17NghmFxnTDWPonKSJEw3DjjvuqHSDHZRHUHbCzRtcIuoNic0A6TpPen5sbuZglIDrz6h8YmWInmZcY0Vk0j/k2xa3nq60OEt87RggEQdc+ul5Q5oEC5xl5Q3CYF9L+W6rM/ac0eO1lbMeh7k/qW2PHD08r/0oI6tggMSqLp17suqZfPbDmTzqahEGSBj5dB7BfXirvGA1vf4O9tdt9U7S51hdifjgSk//RteuXQPXwphQghXk+jMYE/X4xViJdlBWPurP5RpGe+y9Ya6GTIKBxMFze/XN96DCZ0cc/QV4mgCXMYGLvGuPS2Wti3kr6ZBv33L8yCOPDHi87bbbNshis0zyMkDq3likbWB9yq8++TZAFiE7XfcjfNcRsy66/p23nFtiiSUa+n1Sz23nESNGNMgh3/IxCmvXPHYdX1S6k94vgwHSJyY6Z6O2lkiKZVQ4n21fmet8FF64X1S/H2NMfXJ4XJqwPZMuy5LqS4vgWFy6zWdFGCB9y3Pf3zcx74TfvnUFNoyLkr2u5ZXr+GzYuLzn1QCpr+iBgIYSst3M6YYxUd4niROr+ERphLTISg0xaCEOdHj0hgS/zbhd50nPD74Nxero0aPDza9xD8vGzXTIbyzj19MMY6o8a+espysNzvo32zVAmv7Vkc8zzjgjyJ+5nxlWlunfjrs2jUCt9o5EeegYgwNwFxz3DT7LT4kShW0VDZCy7xH5XDxfonjU7v0iDJAHHHBAg0xKsgLr3HPPbXjH5gK13byjjccsduxbDIOn3ub37ds3/P4000zTsK+K3vZG7ctrpg37JOtymW6xi6tDvgcVvjrikyZNCt1oY49okd8mN/m7OC7mhXXeSjqk26ccRx9WJoygPg0fPjzyb8iQIQ2yFntFSni4yDPLAGOGJOMG07AJeb7bbrs1xWfGz9/Z6pdPA2QRstN1PyLPOlIWDuct53RFu95fs12bBkif8jGqfFzz2HV8UelOc9+3AdInJroMAUePOOKIVO1RFdq+Mtf5OJ4W0e/Hile434UHulYTs5BWeN/RZdk555zTki/tciwOo6zPijBA+pbnvr+ftWyq/F6RuoKyyV7X8sp1fHnzyqsBUlc4QkCbe/hlyXwWw9jJJ5/csNfICiusoGxGJ7NRwG8zja7zpOcHwlG+h0G43qjBYi/PzDP2b5GwWKFpPs/yW09XEkWC7RvtGiBtygnBCIpt8dGPvPfq1StxvvU9M2GI1pXkZj7QEcZefeZqGyzhNsPydzaliCvcqmCAxEpdqavY41W4Rz775Y4rDiKeIgyQMDgKj3CGe6tWeTjuuOMa3jn66KNbvtMqzjTPxU0r0mu6TEVaJD9pjDoYIMp7AwcOLDQ/afJet7BFDips2PnoiGOymuwfjb1ebH1IpBUGeMy0TbJ/ty1vvFeOtiBvJR3K2accB09FdrZ7lln/6C/rXmIwMVCf5Gly25xAiXRsscUWlOP35lMHfBkgi5KdrvsRedQRsw74/p23nEPfdNddd030B7x1PHzKRz0dcu2ax67jk3S2e/ZpgPSNCSbW6O0h9IdJ8KxS21fmOh+Hdd79fpu8t+mB9TQuuuiiDXyRvpAexrzOyjEzHpe/izBA+pbnvr/vsryqElcRuoKyyl7X8sp1fHlzyKsB0tzwFSsw2s1wWsMYOjNzzjln2EB0795dTZw40ZqOKAMkluJjU3vsSeU6T3p+kFbBBwYJfb84KG+jFF76DEPsYylGDYkry1lPly8DpKkwR6dQ55C+GhVudZPmc+GFFw75gP0wo94DjmJwhuHzhBNOaDBE7r333pHvRsXJ+/koVoBrFQyQPXr0CLm37LLLNvCHfM6PG0XWuyIMkHAnrrug3muvvRq4ZMvvfvvtF3IPsrRIA8nVV1/d8G2kRU/j9ttvHz6/8847G57p4cxr7JEsyoK89moxv8nf96oiBhVxOBfdEb/77rvVaqutFnANxnMYTqLSJy77sAo4Kgzvl1/W562kAwd8ynGMN7C6I8lf//79QzkLebvHHns0vCeTS9EnFnks5zgFLvIv4eQctS0E60z7dcaHAbJI2em6H5FHHSkbj4uQc1nz7FM+mml2zWPX8Znpbee3LwNkGTAZMGBAQ5sED1hJsKxS21fmOh+Hdd79fuyDLf0QObfSf8ITioTFoghwOC4PeJaVY63ibed5EQZI3/Lc9/fbKZ+qvluErqCsste1vHIdX96c8mqAxObjIphxxqzwJBk+6qijVJQyMa1hTJ8RiTTAbVtUGs4666yG9MrMF7h2w7sYZLvOk54f3QCJNGI2DgyKgiFW7tnSPnTo0DAMwo4bN84aznwXirJNNtnEGlZPV6sG2IxXfre7AnKzzTZryBcad105DTdQgg3OSWYemTOctt56a2v+kQfZE1RfWaOvuIGLhqSdU8GE5/aVKFEYlt0AaXZ+zD34yOf8uBHFmTzuF2GARLr1iScY0LTKC9x7i7zEoKlV+FbP0V5hQg4M51gRLkpo23t6G4VV56gLejh9xT9WvuvP4q4x2JPV6UWv6IxLV92fFTGoiMOw6I649EWwAtLkrplO6SPE7WNqvsPf5ZP9RSnpfMvxJNzbf//9w7YDbcill15qldG6AUjamkMPPdQaFt819yXGOzaXrknSyDCt65APA2SRstNnPyJpHSkbT4uSc1nzXRb56JrHruPLiq/tPV8GyDJgYu7pd9lll0W2Xzp2VWr7yl7ndVz167z7/aZ+MErnKmnC1jn6ROCllloqEVeycky+m8e5CAMk0u1bnvv+fh5lV+Y4i9AVlFX2upZXruPLmzdeDZBYQTb//POHA1fswdhq7zw8n2WWWYL3bOCkNYztuOOO4fcxuI1Tbg4bNqwhrBggZWABBavrPOn5MQ2QyL9pQN13332bGjis6NTdkUYZb3U8MYMfOGM1oH5frvV0+TBAXnTRRQ0NO8oOBk1JH84oH+wlJoqOJHvHQBki4YFZVN6w+hKK7WWWWSZY+SrfxSpYccOGeMBpdELkOc+tlSB5YeTTAJnE+KHvWQcjzIQJExp4Qz77445LThZlgJSJMZBDSQyK+urb3/3udw3ck/xjgsdhhx2mVl11VYUwcUZFc0Ul2lqJRz+jzdRX99rC6avdDzroIGs8epxyra+AxCpLuc9zvnWpiEFFXBm20xFPw3GkQfqQ8EjRqv+K8HDJhH5BXPr5LF9+usC3KCWdbzmeBCsZA0nfOcoACeOhhMEZfey41cKYbKqHx3WUp5ck6WSY+HpVtAHSpexMIrd99iOS1pGycbQoOZc132WQjy55DBxcx5cV26j3fBggXWKSRFZE5V3f0gjt0Q033JCoL1eltq/sdT6qbPLu92OsCm9qKHfd21pUejBW1vsvUeNq8/2sHDPjcfm7KAOkb3mex/ddlkPd4ipCV5CX7G2nHUE5tiOvbDxwHZ/tGy7veTVAIiOjRo0KVyhAUGNVWVwGhwwZEgh0uPixhdMNTnHGRHlX4pNGAgpLeaaf0fDA2CThcBYXdTBswRglBkKXedLzE6XcgjJY0jX99NMrm2svGCYlDIwbUfmUPMNIifBYmSL39LOeriQ46+/KNVbFSJpwTrJCEe8C90UWWaThXRiybSsPdtlllzAclPBxygs8w36OkqYot4XYswIGWPxdeeWVTfhgllS3bt3CeKCYTOJ2QXDhOV5JkhUfnwbI3r17N6zONfMAJdx8880XcgadIDMMfpPP+XDDhnVe94oyQKK90FfIw31MVJ5g7Ba5h/bhmmuusYbVO+cIv8Yaa1jD4TsYbEmcOGM1pO37uqFywQUXtNYTuDkXmQrjTZSbdDN+rODHt013xmY4/nZbr4oYVMSVGVyi69xLyhfEmYbjeljMzoc3BPNvq622Cri/4YYbhpOTsM94XPr5zC0f88CzKCWdbzmeBDt9fIF6F+VlBRNWZEUAVg/EtUn4rr7NBOLl3ur51osiDZCuZaceH7hi65v47EckrSNJ6luRYYqSc1nz5Fs+6rxz0QdwHV9WXOPeK9oA6RoTPb4oWWHLPxTOCK//4Z4trHmvSm1f2eu8ia38LqLfP3jw4KD8k0yEXWWVVUKuQEcpOmJJr+3cDsds8bm6V5QB0rc8z+P7rsqgjvEUoSvIS/ZmbUekHNuRVxKHfnYdnx53HtfeDZDIlLiyRKMOA9qIESOsDTr2WcSMWRiSbI0+DGF6xwCzT1qBNmbMmIZ3NthgA+s72CQdcUM5K9+Q+DHQWWCBBRrec5EnMz9R7jxhEJM04TzbbLOps88+uyE9wGHttdcOw0GZO3bs2KYwCIdKBfehPXv2tBrOzHQJDq2w1p+jIdZXvSDdrVaJYSUhVol16dIlzAfeQ16iFB4wHEPRIfhAwW0zQqLR0ZfeL7fcck17ZWIFDVwZigIFinCseNTzJdd6+ePbUD7edttt1rDyDs/5Kld8GiDBgdVXX90qt9A46tzr169fJE/I53w5UkQdLMoAibxg/y6RfXETIfRJLJipH4WDqRCea665IsOOHDky/DbakzPPPLMp7DnnnBO2qTCWxk1CQXyIB/lZccUVVSsXlpikhLBYyY9JIVF54n33daqIQUVUuaFvqPd1wAGspIoKb95PynHs+Sx9AaljSc8wSprf5W/3PMwT0yKVdD7leCsM0SdB/1bnfpxbVezhiLDwrnLddddF1gPULz1OTA5sJfNbpZXP4+tYUQbIPGRnUrntox+Rto6UiadFyrms+fYlH13z2HV8WfFs9V6RBsg8MEkqK0wc0F7pbRKu00wur0rbV4U6b5ZNUf1+6C6hG8VYFG2JmQ75rU/AxTghyYpJvNsux+T7rs9FGSCRbl/yXDBz/X2Jl+fm/mdRuoI8ZG/WdgQ8aFdemVxyHZ8Zfx6/S2GARMaw0k5X5sCd5mmnnRYoDiG4sXoCq+5gQBo/fnwo9DGzfaWVVgpmluvGQekkwMiFlYswLEZ1FPS9r/DeRhttFLg/xKABCtG11lor6HRsvPHGQYMjcUNhCkUXVj+C3GYBZclTXH5mmGEGhZVUMGTIQBzGQlkZIunCGWmCgWzTTTcN04X8yMpGhEH6saIKxju4kUBHTxTRMIjoLuvi0oW4kuCM/RQx83/JJZcMlc56mlF+KCsYDPU/lC8U3XpYXIMPUOTBgGNir/+GkRA4yPswYO+8886BkRarKbHXpbgfBAdRlpgpK3EAMxiYganEIWfgJOHkjDTZwsKtAsqvb9++Te/Iuzw3N1CuMPFlgITRXFZiocGCoX3SpEnBit1jjjkmNMSjQ7vTTjtFGrUFB/I5P44IxnmeizRAIh9ot0Re4RqTLSR/GEzpbcJqq63WNPFCwuIsPJb40F7oz/VrxC0Bo9SVAAAgAElEQVQrMCFT8VueIw3YGBxtGuJCuKgJNvIOzhgYiGzt3r178Fuf2IE2DoZO8VaA+OMGiXrcvHZXr4oaVKDMTjrppKC/gElDaI/NCUrC1bnnnjtof2G8Rv8SHXZbmSfhOCYxCXcl/jTnOCO/LU28546brrAsWknnS47b8MKYTMZd4pLM5L8+JtAn6kFGr7nmmoHcR58ffXHZzkK+hUmN0nYgXkyqbLVaUt7lOXtdKcIAmZfsTCK3hRtF9CPaqSOSzjKci5ZzWfNctHx0zWPX8WXFMcl7RRkg88IkjazQ8cCWPGY7h/ZMDxN3XZW2rwp13ke/X8oWHoLQJ4G+ELpp3Q0vOLLNNtuEPMGiGbhGlHdbndvlWKv4sz4v0gCJNBYtz01cXH7fjJu/f+mjFqUryEP2pmlHXMsr1/H54GRpDJDIPFYjYmCqGyKlscc9GALN/UKwsgEKSaycxIB11llnDXx0zznnnIEBDr+hKEIYm4tOAR2rLkVpKd+UMwxHMNRJRwMGS0kj4oUySx9gS5xZ8iT5QaPVtWvXoJHDAB/GRKzkQF7wbVnxB/d1MMRhII/nCIeGEVjARajNDQ1WR8I1gChyJZ844x2s8tMNcMiHpKsdnGF81L+V9hoGGhgK4YZJDKc61q2usdpGXw2pfx/5xt6NtllKcN+H58AU2ELxDaMvyghKTfO7MEAirVCECh9RLrhGOdneMePg718aKFdY+DBAQiEOuYHJD/vss0+DUk34Bx5Bed7KLbKJA/nsniMmxnn8LtoACf7tvvvu4X64kF9YsYJJOZBF4CHaAqzaljYuKt9QCECGQr5hIkXcikXEgedoi/ENtF2YfAIZLu0n7qNdiHL5aksHDIqIR+oP4oJ7G8SLuiT3+/fvnype27d4L1sdK2pQgfJBHwh8lPYZbS04h0lL8qf3odAugzO60kAv5yQcxx53wrMsZ9tqYD0NvM7GuyJxK1pJ51OOm7hiTxXUIfRn0SfW65zUNekjo20xx20YL8FdEN6T+oOJgUsttVTQv5Z7eHfzzTdvet9MD3+7qS9FGCDzkp1J5LbOk7z7Ee3WET2tPq+LlnNZ81q0fHTNY9fxZcUxyXtFGSDzwiStrBBMoEPUtx9C+yXPkp6r0PZVoc776PfrZYwJUboXNxlrSN8FZ+gUZasu/d24axcci4s/67OiDZBFy3MTF5ffN+Pm71/6q0XqClzL3jTtiGt55To+H5wslQFSAIBi6IwzzghcgQJkrMxDQcvzPM/Y0+/UU08Nv439HM3BM76PZfIw5CV17eYzT1F4AdPTTz89UARgRj4s6q1WE0bFVaX7KAsoALF6FDOTYPiJWg1RpXwxrb80ajYsijZA2tKAVWDouIJ3WBkJN8hRkxds79vukc/x5W7DzOe9og2QklcY+bDCFgY/KHthtMPkCriKSTtIkjiTnOE6GysOsDceVoDDlR4m+2DmaDurWqBAxGQgrNrEQBB/8EiAPZltLsiTpJVh3NSlIgcVLDM3ZUYc0+HoS0nnS47nwQ/0h9APQtuACS3YBxvuzTD7HCvko7aJyCMtjPNeVYQBsmw4sx8RL/d8ybmsPKmTfMyKQd7vFWWAzDsfWeLH2B2THTG5+OSTT86slyxz21e1Op+lHF28g4nl8NaAybzgA8bV8FCHBRJoV2DEyvIdVxzL8u2od4o2QEo6fMtz398XHOp69qErKLPsrWs52/JVSgOkLaG8Fz9IID7EhxyI50AZDJAso/gy6gR8fBkgOwFb5rEc9cvHoIJlX46y75RyoJKOfKsb1zvRAFm3MnSdH8o5yjmTU51sgDSxqONv1nnWeZPXvgyQZjr4u17cpK6gXuWZpn7SAHlv5xZ+GqIwLHlSdQ7QAEkOl4HDNECSh2XgYZ5p4KCCHM+TX2WIm0o6crwMPHSZBhogyWmTT5Rz5ITJCRog680J1vl6l69Zn5P8pgGSnEjCk7RhqCvoXF7RAEkDZCYXAWmFDMN3rpApS9nTAEkOloGLNECSh2XgYZ5p4KCCHM+TX2WIm0o6crwMPHSZBhogyWmTT5Rz5ITJCRog680J1vl6l69Zn5P8pgGSnEjCk7RhqCvoXF7RAEkDJA2Q5EBHcIAGyM5t6NJ2ivIMTwMkeZgnv8oQNwcV5HgZeJhnGqikI8fz5JePuGmAJKdN3lHOkRMmJ2iArDcnWOfrXb5mfU7ymwZIciIJT9KGoa6gc3lFAySNTx1hfEorFBm+fkKRBsj6lWkV6ykNkORhFXmbJs0cVJDjafhSxbBU0pHjVeRtXJppgCSnTX5QzpETJidogKw3J1jn612+Zn1O8psGSHIiCU/ShqGuoHN5RQMkDZA0QJIDHcEBGiA7t6FL2ynKMzwNkORhnvwqQ9wcVJDjZeBhnmmgko4cz5NfPuKmAZKcNnlHOUdOmJygAbLenGCdr3f5mvU5yW8aIMmJJDxJG4a6gs7lFQ2QND51hPEprVBk+PoJRRog61emVaynNECSh1XkbZo0c1BBjqfhSxXDUklHjleRt3FppgGSnDb5QTlHTpicoAGy3pxgna93+Zr1OclvGiDJiSQ8SRuGuoLO5RUNkDRA0gBJDnQEB2iA7NyGLm2nKM/wNECSh3nyqwxxc1BBjpeBh3mmgUo6cjxPfvmImwZIctrkHeUcOWFyggbIenOCdb7e5WvW5yS/aYAkJ5LwJG0Y6go6l1c0QNL41BHGp7RCkeHrJxRpgKxfmVaxntIASR5Wkbdp0sxBBTmehi9VDEslHTleRd7GpZkGSHLa5AflHDlhcoIGyHpzgnW+3uVr1uckv2mAJCeS8CRtGOoKOpdXNEDSAEkDJDnQERygAbJzG7q0naI8w9MASR7mya8yxM1BBTleBh7mmQYq6cjxPPnlI24aIMlpk3eUc+SEyQkaIOvNCdb5epevWZ+T/KYBkpxIwpO0Yagr6Fxe0QBJ41NHGJ/SCkWGr59QpAGyfmVaxXpKAyR5WEXepkkzBxXkeBq+VDEslXTkeBV5G5dmGiDJaZMflHPkhMkJGiDrzQnW+XqXr1mfk/ymAZKcSMKTtGGoK+hcXtEASQMkDZDkQEdwgAbIzm3o0naK8gxPAyR5mCe/yhA3BxXkeBl4mGcaqKQjx/Pkl4+4aYAkp03eUc6REyYnaICsNydY5+tdvmZ9TvKbBkhyIglP0oahrqBzeRVpgHznnXfUlClT+EcMyAFyoBYcePPNN2uRD8rlardLb731FnlImVprDrD/WG0ZxTamdfmR460xIo+qhdF7771X63aJfEzPx3fffZecYH+1gQNvv/12w2/Wq/T1qsyYsc7XqzxdcI2cICdc8MiMg33OzuXVzz//rPRjKv0Hr4kAESACRIAIEAEiQASIABEgAkSACBABIkAEiAARIAJEgAgQASJABIgAESAC7SBAA2Q76PFdIkAEiAARIAJEgAgQASJABIgAESACRIAIEAEiQASIABEgAkSACBABIkAEGhCgAbIBDv4gAkSACBABIkAEiAARIAJEgAgQASJABIgAESACRIAIEAEiQASIABEgAkSgHQRogGwHPb5LBIgAESACRIAIEAEiQASIABEgAkSACBABIkAEiAARIAJEgAgQASJABIhAAwI0QDbAwR9EgAgQASJABIgAESACRIAIEAEiQASIABEgAkSACBABIkAEiAARIAJEgAi0g0ChBsj//ve/6ssvv1Rvvvmmeuqpp9Sdd96pbr755nbSH777zTffqHfffVc999xz6t5771XXXXed+vTTT8PnnXLx9ddfq3feeUc9++yz6p577lHXXHONev/99wvJ/o8//qjuuusudfDBB6tBgwap1VdfXS2//PJqwIAB6sADD1S33Xab+vnnn5vSMm7cOLX++us33WeZNkHCGyVDIE+ZVrKsMjlEgAgQASJABIgAESACRIAIEAEiQASIABEgAkSACBABIkAEEiNQmAHyo48+UtNOO62aaqqpmv7eeOONxAm2BVxwwQWb4sR3rr32Wlvw2t6bffbZrTjccsstueb5448/VkOHDlXdunVr+P7UU0+tunbt2nBvkUUWUTfeeGOYnj//+c/q17/+dcCN8KZSimWqo8HrMiKQp0wrY36ZpuohAAM5eIoJPw8//HBhk1FsSH3xxRfqhRdeUI8//ngwEckWJsm9Tz75RD3yyCMKbQcmqfAgAoIAJl+9/PLL8jOX84svvqi+++67RHG/99576oMPPkgUloGIQBQCZZLjehrPO+88tf3226eWw2XNj543XueLQBk5kJXPJlKu+jpmvPxtR8A3lzDZ/YknnggmwOfVJ3XFTTuC5b/rs9//ww8/qOeff149+eST6rPPPksNFvuMqSFL9ULV+v2nnXaa2n333dV//vOfVPnslMC+5bnv73dKOfvIZxFtdat8uZZXruNrlX5XzwszQKLQV1ppJdWjR48GgxQMhe0aIDfZZBO15JJLKhi8dANnpxkg11lnHdWrVy/1q1/9qgGHvAyQWM14yimnqJlmmin8HgyOw4YNC5Td//rXvwKefvjhh2ry5Mlqn332UdNMM00QdsiQIYESD5xAmcE4rR8sUx0NXpcRgTxlWhnzyzRVB4Hvv/9enXnmmapnz56hbJa2caGFFlIjR45UIp/zzNVPP/2kLrroIrXyyis3pWOxxRZTZ599dqLPv/baa2qbbbZRCyywQFM8iy++uBo1apT6+9//niguBqonApdccomaccYZg/4PvDHkcaCvinrUpUsXtfXWW6urrrpKvfrqqwoKZxgl//KXv6i7775bjR49OvDqgD4peMuDCGRBoCxy3Jb2Rx99NBxrJB3DlTk/tjzynnsEysqBLHzW0XHV19Hj5HU8Aj65hLYeky9mm222pj7p/PPPH+g7MDnbxdEuN12kwUccPvv9MA7B6Lv00ks3LZ7AZH949cLkzlYH+4ytEGrveRX7/UsttVQgM8Ct/fbbLxgHIx/jx49XV155Zcu/V155pT3QSvq2T3kOSHx/v6TFUvlkFdlWtwLLtbxyHV+r9Lt8XpgBUk/0rbfe2tBhe/311/XHma+nTJkSKKBE0dppBkgBDo3T9NNPH2KchwESs/y23HLL8BvAfPDgwS2VwOhIy+pGfcWkaYCUvLBMBQmey4xAXjKtzHlm2sqJAJQe/fr1C2TzzDPPrI444ohg9i7ckx911FHhqvRll102cNedVy7gBnyZZZYJ0oFJMQMHDlTnn3++Ql2BgWbFFVcMnu21116RScBMRLwDwxLaGORr3333VTvvvLOCAVPaepxnmWUWZy7dIxPEB6VCAEY/uNuHC3edC1999VUu6cSqW/07ra5hqHz66adzSQsjrTcCZZHjNpRR75ZYYomwLmCA3+ooc35apZ3P3SBQVg5k4bOOiIu+jh4fr1sj4JNLRx99dDCZGnoWGCEvu+wydd999wWGg759+4ZyEf1WTPZr52iXm+1829e7vvv9mFQm4xMsbjj11FPVpEmT1PXXX69Q9vPOO29QxjPMMIOaMGFCLEzsM8bCk+lhlfv9mKgy3XTThTKi1RjC9hwLNOp2+JTnwNL39+tWnmXJT5FtdVSeXcsr1/FFpTvv+14MkP/+97/DmbMQrq4MkAALew6KwO5UAyRw0JUDrg2Q2GdSOmeC9VlnnZWYq1gtIApyeT/KAMkyTQwrA3pEIE+Z5jFb/HTFEMCqRjHMwbU1JnyYB9ygimtszNTGvsyuj/vvvz80Gs4999yBeyr9G1g9P2bMmLCtjnKbCVc1aCOw8hFxmgdW1kMJIO0IzldccYUZjL9rhABW9m600UaBt4eogXwZDJCzzjqr+uMf/1gj5JmVohAoixyPyi8mtegyt5UBsuz5icon77tDoMwcSMtnHRVXfR09Tl7HI+CTS5gQB9kHj1PvvvtuU0JhPMNkO10+oq+b9WiHm1m/6fs9n/1+6LcwhoL3CqwuwVjFPBAGHr1QxtBd3XXXXWaQ8HcaAyT7jCFsTRd16fejr6TLhizXV199dRM+Vb7hU54DN9/fr3LZlTntRbfVOhau5ZXr+PS0+rr2YoBEZqEcFcHr0gC5xhprhPF2sgFSN8S6NEDaOtcnnHBCav7CtYbOgTgDJMs0Nbx8wQMCOp9dyjQPWeEnK4qArqzA4DnqwExeaX932WWXqGCZ7mMvHFmxCEMnVrGbx+WXXx5+H+mwTWCB6yIYFzHb+M033zSjCH9jP0jd7TjewaCfRz0ROPjggwPuYMXruuuuG7gvOvzwwxv45NMAib7M3nvvrf72t7/VswCYq9wRKIMcj8rkM88801DXIL9bGSDLnJ+ofPK+WwTKyoEsfBZkXPV1JD6ekyHgi0vffvttuHpp8803D/Y0t6UY2wGgHyB9bGw9849//MMWNPZeO9yMjbjED333+3faaaeg3KC8bnWIoRmGw6j9/JIYINlnbIW0UnXp9998882hXBD5kOa87bbbtgarYiF8yXOByff3JR08u0Og6LbaTLlreeU6PjO9Pn6XwgCZdP+QJADRWPU/lPIyQMrMNGkwV1hhBesMsSRlhf0jJR4aIJMgxjBlRkA3QLqUaWXOM9NWHgTAOVF6zDPPPAquXqIOPJtjjjlC+evKTSQ6fdiTUeQ69rSwHXqHH2FhsDEP7LGHZ9hnr9UhYeW7ro2qrb7P58UhgElQprLHNGjnbYCEmzW4AV5zzTVVnz591HrrrRfsCQRXbG+//XZxYPBLtUOgDHI8ClTsrSputUXW4hxngCxzfqLyyftuESgrB7LwWZBx2deROHlujYBPLt17771h3xZyb7755otMMFx36jISLjzTHO1wM813yhZW+vI++v2o0zAWw7Uu3Ny1OuC2Uco4agwlBkj2GVuhGf+8Lv1+uPMFZ/bcc8/AbfOTTz4ZbJHy4osvqqg/TNDFO/AEBA9ydTp8ynPg6Pv7dSrLMuWlyLbalm/X8sp1fLY0F32PBsiiES/oe3kYIDGrD3uKSYcLZ6w+yXpACd6jR48gPhogs6LI98qCAA2QZSmJzkzH8OHDQ9m8ww47tARBXAhBjsftw9gyIi3AoYceGqYBst3mvgjB0TnUVy3ecMMNWiz/u5xrrrmCuHA+7LDDFDpgUcfjjz8efhf5wSpIbCjPozMQKNoACT7yIAJ5IFAGOR6Vr+OPPz6QszIbV8YCcQbIMucnKp+87xaBsnIgC58FGZd9HYmT59YI+OQS9i4XmSdn6EVsx4ABAxrCHnPMMbZgkffa4WZkpBV44LPf//DDDwdl1r1798RIiQ7r9NNPt74jBkj2Ga3wtHWziv3+HXfcMZgoDDe+SY7PP/9cYasUjJcfeuihJK9UKoxPeQ6gfH+/UoVVocQW2VYnhcW1vHIdX9J8uApHA6QrJEsWTx4GyAMOOKChQ73KKqu0nev99tsviJMGyLahZASeEaAB0nMBdPjnF1pooVA+n3322S3RGDt2bBg+zoVQy4j+PwBWnekTVM4444zYVzF5BYN22ySWDz74IEybKHruuOOOyPiwh4OEkzPcfPPoDASK6ohTmdQZfPKZS99yPCrv2KcXe65usMEGgYtrkbM4xxkgy5qfqHzyvnsEysiBrHwGOi77Ou7RrneMPrmEPZ11ubfccstFgg2vCHrY6667LjKs+aAdbppxVem3737/ueeeG5YZJjUmOWSl68iRI63B2We0wuLkZhX7/SuttJLq169f4vzLimBsM1HHw6c8B56+v1/HMi1Dnopqq9Pk1bW8ch1fmry4CEsDpAsUSxiHawMkVpN06dIl7JyhY33yySe3nXMolREXDZBtQ8kIPCNAA6TnAujgz7///vsNsjnJJvXYG1hXkPzpT39qC0FxEyNxvvTSS5njw7sSj5xbGVXnnHPOhnfuu+++zN/ni9VCoKiOOJVJ1eJF1VJbBjluwwwuj+FCbqaZZlLvvvuuevXVVxtkbZQBsqz5seWR9/JBoIwcyMpnQchlX0fi5Lk1AmXgEvZWh3Fx6NChkXuNw30qJvVJ3xXnDz/8sHUGlQrcy2eRtYkiL3kg3/3+MWPGhGW2yCKLxE6sAZSffPJJuO3FnXfeaUWXfUYrLE5uVrHfD4PXsGHDEuUfsgayA1tdQabU7fAtz31/v27lWbb85N1Wp82va3nlOr60+Wk3fOkMkP/+97/VlClT1GOPPabee++9WLdrtsxn3QMSvtwnT56s4J8bs6Cw+XfaA76kscHwmWeeqbCBNdw5YPl8OwdmhME9HZSvWFFy0003qSSK4jgDJPzcP/vsswo+6yGAkxzoXOmdaVy/8MILSV6NDfPNN98Es6rzMkC2W66uyhSuCMEFxPfEE08o5Fs/4Ncd5ZGmTOR9rP6B7/iJEycq7NGJVUUwLvzzn/8MgoA/cHmY5MiKF+rt3/72t2BAhvzpB/KKe8h7nBtF/Z0qXkcZINuVaSYWUABef/31CkoQ/MGI/9Zbb5nB+LuDEDA3tr/nnnta5h57T+gyHZ2Zdo7VV189jA8rIc19+tLEjXfhBklPX9yMZMgVuF3Vwz/44INpPsmwFUagqI44lUkVJkkFkl4GOW6DCX1KyFaMa3AkNUCWNT+2PPJePgiUkQNZ+SwIuezrSJw8t0agjFyypfr2229v6IsuscQStmDWe+1y0xppRW767vdD76iPIbp166YuvfTSSL0Ftq5AeOzNBz2M7WCf0YaKm3tV7PfD9Sp0sK0O6Msw4QsLP6ImeLWKo+zPfctz398ve/l0QvraaavT4uNaXrmOL21+2g1fGgMkDCiDBg0KjFF6B2DGGWdUgwcPDgwsSTKb1gB58cUXq4UXXjjsdOir/Hr27BkYc1oZTWBcWX/99cM4sIH11FNPHf7GEnoYdtIcMCisu+66Dftk6bhgRgwMplGHzQB51113qWWXXbYhbYgT+b/iiiuiogruY8aO/n00jK6OtddeW80yyyyR0aUtU0TUbrm6KlPMZMTKHGxsruMnxluU4dJLL93wLGmZYEYUDI7i9hAzLhFX165dg/jwe6ONNgqut9hii0h8s+KFvS9QR2abbbYGniI9ODDjE+669LyDtzCq1/EwDZCuZJpg9corryhd8QGe6Pvorbnmmur++++X4OH5nHPOUauuumpQFptvvrnC3iSbbbZZILNQt8ARfb88yAm4V8Ys30033VRtueWWauONN1ZrrbWWWnnllQMjeRg5L0qBgO46CLzABJNWx9tvv90gd0444YRWr0Q+/+677xTaPZFx4CkOTLxAJx/7LOy8887BGaszzQkYtoife+45tc022wR/mFARd5gzGZEOGOp5dAYCRXXEbcokuOOD4uraa68N9miJ2hOqM0qCuWwHAd9y3Jb2119/PZjcgb6C7Omb1ABZxvzY8sh7+SFQNg60w2eglEdfJz/06xVz2bgUhe72228f9oXhthr9gyRHu9xM8o2yh/HZ70f7tuiii4ZlJ+MZ6OLMSb7jx48Px9+TJk2KhJV9xkho2n5Q134/Jq3DTSv4h61S6nr4lue+v1/Xcq1SvrK21Vny6FpeuY4vS57aeacUBkjsA4hOGoxQxx13nMLKjAceeEBh02bdP/OBBx7YclVFUmMVVofBsCkdDBgJ33nnnQDLjz76SO20007hsz322CMceJtgY1NgGB6wgg8K3DfffDMICwUrZguLQRPGoCRu8RA/Vjdh5hXSBqUuVmViwA8jATozmCE3zzzzBM9HjRplJin4bRogDzrooCD8iiuuqMaNG6fgHxlGR9nwG98aMWKENS7chPFBsMIZnTRXB/IVtyFz0jJFelyUq8syBX91xbxgCAPkkUcemblM0FFeZ511gvdhwEWnXQ7MIoTxa6uttgrLDAYn29EOXjCqg9fgvuQLZxggYWQEt7CKSfIpYVDX6njoBkiXMg1YXXjhheEKL9RFGK6xahbK79tuuy0wFAq+Q4YMUejAygGZinLSJ0VIWJxhxPzss88keKBI15+b11jZzaNcCJx00kkNdRDG6lYHJgjoZXvwwQe3eiXy+R/+8IeGuGDkRjsKwze+gUkIyyyzTMhhyAjsmSIK7ciIEz7Q97PE99DO8egcBIrqiOvKJMjBPn36NPBeuI5JG5jBzIMIpEHAtxw30wr53L9//0BuQzkuR1IDZNnyI+nnuTgEysSBdvkM1Hz3dYorufJ9qUxcikLn1ltvDQ1T6A9gMnSSwwU3k3ynTmHy6PfLtkAoO/0PiyHghUwmfmNMg7Ez9GlxB/uMcei096yu/X5MGgf3oNur8+Fbnvv+fp3Ltgp5y9pWZ82ba3nlOr6s+cr6XikMkBC0q622mvr000+b8oF7vXv3DjsCMKrEKS2TGKt++uknhc3DpXMBw6Z54BtYUSRhYEQxDyj5sfoLYbBiyJZ+GFIlDhgAYNyKO2BQlPBzzz13g2FJ3oOLWt0wC6OneegGSDFUwaCLvOuHvlErOlRYFWM7Fl988TBdSB8Uy0UdScoUaXFRrnmUKbiEZd66AUhWlGYtExikUA4olyh3DsADK94QzmaAdIEXcEeHfPTo0SE/YFzAimAY35966qnAcC6cxrlXr15FUafQ7+gGSOTTlUwTNy//x955QF1SVGtbSZIcchwyM8SBkRxkyFFyBhmy5CgZZBjikIMDzpAkZyRnkSCIgCKIXIKiEhQzIKhcQX/7X0/fu/tW19fxdHVX9zm71zqr+3RXfGvXrvBW7SLMjTfeOLZbUTKI3JoreSCA7J3bH374YTBu3LionAhv9tlnD03nSjjc8QdpyXd+yC0LGNBdhKFX+xBAj0h5cX/ttddyE8n5JaYfFtr0el133XWxsNjtiM5BB1xzzTUhWU7YLDTZa6+9IrcbbLBBqv4qkxZ2Vpt5YQCn1+Ag0FRHXCaTkDUmn+ibXnvtteECMRbksMgMncp3LBFkrYwfnNLRnBZFwLcet9PJIkpkGUsb5lWUgGxbfsw86HMzCLRJBqrKM4j57us0U1UzjmAAACAASURBVGrtjKVNsmQiJFYQTjjhhGjBMQtw88gpMwwXsmmGNwjPdfX7TznllNh4whxbyDifMyKLHHWhfcb6JLEf+/0sBherYubGgvpQ9Beyb33uO35/yA9uzC7a6l7Rc62vXIfXa7569dcKApJJnKyJbSZ2sLEunYC0XX+AUISsEhv7hMdOvjTb7ZhckHOlMDnKjiPzMsk7wmLnUdJlEgOQgWkXxKJ0bggP2/NJ14EHHhhhgbukTq5JQOIG4iLtMslFDuFOuuzzuFjh39RVpExJi4tydV2mJkaLLrporNyqlAmmTSlXJvOzLkwx4i6JgHSBl8QNCUk85s8064spWvmWtdNWwuvi3ay7rnQaJlUFN+rBP//5z1Ro2PkqcoEfzo1NukxykUl0zne1L1Z6EsY888wT7ka3v+v/diGw7777RnJCuZm7VdJSyoIZkS3u2223XZrT3PeyYlPCY8ctC1pYeGFfENzoPnG7yy672E5K/TfrCGFiusbcAVwqMHXcSQSa6oibk0lHHHFEokUOzugWyxfUgayzSzsJtia6NgR863EzY1iEYdyzwgorDJHzogRkm/Jj5k2fm0OgLTLgQp5BzWdfp7lSa2dMbZElQYf5kiQLRyw+oh9Q9HIlm0Xj6wd3dff7GbvIYjIZq5h3yIus8bhgrH1GQcL9vR/7/Yccckg4Nk6as3OPoN8Qfetz3/H7RX+wYnfVVldBzbW+ch1elbz14rcVBORNN92Um3ZzRRLmWsVcqu0xj6zCNCSDaulI5JlFZYeGuIWwMS9Mpco37mnb5dkBIu7orKZdZlxLLrnkkEG/+Ntjjz2i8AgXIbQvk4CEGEnDC3+QiZK+o48+2g4q/M85huKGOzusmrryypR0uCpX12VqYuSyTOaff/6wPJCTvE4w5nrtzowrvMz8mQQcK7jMdLGq68orrww4yw2ysh8vM/8udBqmic3FAZw5kXeZ8kt6fvOb3wzxAgFE/ZX6TFmZ+oHJRXaxzjbbbKk7oocEqi+8ImAucqFcWcySd1EnRQa4b7PNNnleUr+zqMAMi2c692kX6TPdc35eLxc6ZrHFFovCQm6TLAL0Erb66Q4CTXXE0ZPI7T777JMJzjHHHBPJJG01ps71UgTyEPCtx830sZiJsdbLL79svg6fixKQbcrPkEzoi0YQaIsMuJBnAPPV12mksFoeSVtkSWCCXIKQ5nfiiSdGln+kb8sxP4y18y5XspkXT798b6Lfj2Up+nlSlkl35l9+8pOfZMKqfcZMeCp97Ld+PwuH5UijW265pRI2XfDsW5/7jr8LZdQvaXTVVlfBw7W+ch1elbz14rcVBOQjjzySm3Z7wjJtF1UeWYWJDOlIYFrQPPssKRGcvyju7QlazriSsxpxg1nMpEt2oUk4nA9pX6ySl+/c03Yi4g+3TLTiDnOWSZNbJtm10kor2dHF/o8dOzaKO23SmPO7zPStvvrqsTDq/JNXpsTtqlxdlqmNicsyMTHhgHTMY6aZJoZ8tHfnusLLzKNJwLFLd9AuM/8udJqY5KHesVPxD3/4Qy6k6AJzRe5pp52W6Icd5+z+ljrNmXkQnpgnGDlyZBjGU089lehXX7YPAXYRSllyL0JA2jsg7UUKZXJ53HHHxeInDXk7v2QRBW7ZId3Ldfzxx0fxckZLnonzXuJQP+1HoMmO+Ntvv50LyNNPPx3JJfKd1jfMDUgdDBQCvvW4gM1iMeQWawlJV1ECsi35ScqDvmsGgTbIgCt5BjFffZ1mSqvdsbRBlvIQ4uznBRdcMGr/WciZtSjOpWzmpa1fvtfd73/ppZeiMsTUKkcwsZCbNtH+Ye0iydKLibX2GU003D33W79/1113DeWLhV9plvncoec/JN/63Hf8/ktgsFNQtq2uipZrfeU6vKr5K+u/FQTkd7/73ULpZrWRNP4LL7xwoh+TmEnaVcEkq4QxfPjwxDDMl5gnFPcQSPbFmYmXX3558OKLL9qfov/vvPNOFAZhJa2Iu+iii2JussIjYFZnZU0ym2RXnpnO3XffPYrbJqokE5tttlnkhjywM6upK69MSYfLcnVVpjY+LsvEJBBFPuedd97g4IMPDth999vf/taOPvbfJV4SsEnAMagatMvMvwudZnaOMOla9DLryxJLLJHqDR0jJqaRIfSE1HN0ml7dQcA2y13EBCumzUV3cN9hhx16zvCECRNiYWG6N+8y5Zv4GfSXucwDxCEfOW9Zr8FEoG0dcc5XNi1tJPUdB7OkNNdZCPjW46SNvuNMM80UjBo1KtVaRVECsg35ycJbv9WPgG8ZcCnPoOWjr1N/KXUjBt+yVBQlCCdIBOlfs6gzabG7a9ksmr4uu6u733/fffdFfbftt98+WuDPol12RLIYWMpV7oyjy5jcTcJf+4xJqGS/66d+P4u/GcciU8zhDMLlW5/7jn8QyrjteSzaVrvIh2t95To8F3ksE0anCMj11lsvavjpBJgmHiXT5uR7EgFpniVJGHQosn5jxoyJ4sQMadbFDjR2DZ111lkBW7sxyQoBwHlY0lHhnrQaas8994y5+fjjj7Oiyv1mkl2c55Z1mQRkGlkJsWXmgTMOXF1MPGPCJO3KK1P81VWuVcrUzo/LMmGn29JLLx0rE7N8eGbQY57DaKanDrxMAu7hhx82oxuIZzP/RQnILJ0G6ShlWqZDKiQifjmDLOs8PIhGiUPuaYsQBqIQO5pJc0Uw5VhkMIx5Xilz7rSDvV7s2DfDKrJDHnPfph86U0Uv8kcbhH+IHiUfiyLXn+7a2BHHOoUp31X7dP1ZcporEwHfepy0cCQD/YYf/ehHZtJiz0UJyDbkJ5Zw/dM4Ar5lwKU8A17TfZ3GC6zmCLFScccddxT62QtpfctSGWhs835YKrIv17Jph99v/+vu97/11lvRuGLDDTdMHDt///vfD+f1zL4dz6uuumpluPu1z1ilzmeB2k/9/smTJ0fjBc6XH4TLtz73Hf8glHEX8likrXaRD9f6ynV4LvJYJoxOEZDbbbddpKBp8JN2AGaRVaxgsjsN7AQr+sMMQ9KFSdXx48fHSDAmRTfaaKPQdIN9ZkQSAbnCCivE0pYUT5l3JtnF7sqsqwgBedttt8XSB47YVHZxsQqFFWRpV1aZ4qeOcnVRpnZ+XJcJO2vNnYy2bMv/NddcM2C3k1x14EXYJgFXhACR9PTL3cx/UQIyTad98skn4SSglCHnwxa9OHdE/HFP0jdmWGb9x33SmU+me31uHwIsejHLHLPfeRc7vU0/Rx55ZJ6X1O+cpWyGhVznXePGjYv54QydIhd6D+sFxMeioCJ5LRKuuukuAk11xFn0lrTwLQk5zFqbdWIQ28QkXPRdOgK+9TiLNpHZtLPgJeVFCUjf+ZH06t0fAj5lwLU8g2KTfR1/pVZfzBwJY7aLWc/MO5iXT1ky01Hk2bSeJXl84YUXIq91yGYUeB8+NNHvZ66EspprrrminY9JUNIH5JxvezekWb7iT/uMQVClzguOSfd+6vebGF188cVJ2e27d771ue/4+65AO5qhvLbaVbZc6yvX4bnKZ9FwOkVAYg5BOnLck+zqZ5FVbHE3/bPCqerFTi9MX0q47MpAqXGemly2CdYkQsA0L0tY//nPf8R7T3fXZNenn34aTvZKPrmTTxcX50sut9xyqUFllSmeXJerqzK1M+S6TCT8J598MjSfueiii0ZyaJYTz6y+lDMiXeMl6TAJOGxrD9pl5r8oAZmm0+zz+dZdd93CcNph5p0d+cMf/jAmN+y8xMSzXt1B4NJLL42V4WOPPZab+GeffTbm59RTT831k+bAPsMY86p5F+eTmnqqyM7b999/P5C2kjNMk/oAefHq9/5DoImOOKuSOe+HM3aPOuqoXBBZEW/K9zPPPJPrRx0MNgI+9ThtPueVIbOY0MeUf9oPqyqmbHNWpLjFRJ5cPvMjadC7XwR8yUAd8gySTfV1/JZafbGbE+2mDkl6tglIX7JkosHC9yLjW3uRBvk788wzw6Dqkk0znf303ES/n3k5kcHTTz+9EHxXXXVV5Ae/9tEl2mf8Hxir1PmsguiXfr89R3zDDTdkZbtvvvnW577j75uCbGlGXLTVLrPmWl+5Ds9lXouE1SkCkl1A0kEYNmxYIkmXR1ZxtomEwa7DKteDDz4YTkZJeOuvv36QNNlvNy5JBOTGG28cpYvw2KVW5aqD7GLSTfLKfY011qiSxNAvHUtWkWVNPueVKQG5KleXZWqD47JM2PWDXNkXeD700EPhWZBiolDKzCTFXOFlxm8ScEUGaKbffng2829inZW3NJ3GAgQ5D4DyW3nllbOCiX0zd8XOOOOMEfEcc/S/f5AXztO1V3LuvPPOSc71XUsRgHCUes4dE1d515133hnzc+utt+Z5Sf3OhMoUU0wRhbfFFlukupUPTFqbaYaQzLrYFSxtAQtWktpa/L/33nvh4phf/vKXWcHptz5CoO6OOKbgTFnlOakfZ0I6evTomB/dAWmio89JCPjU40kybst80f+vvPJKmD2f+UnCV981j4AvGahDnkGvib5O86XUXIz0Tc8444xCP9sEqy9ZAh3GSqalKo7PMBea2wjaC33RnQcccEDorC7ZtNPQD/+b6vcz/pH2rczCRnNe7LDDDosgTyrjQe0zVqnzEaAJD/3S72fxlsge9wceeCAht/33yqc+B03f8fdfibYjRy7bapc5cq2vXIfnMq9FwuoUAbnssstGSnrttddOzJ9MUKLEk86ANFficDZjrzsN6XjOP//8UXrmmWee4M9//nNimsyVVaRLOiGYZuDAa85oO+igg6KwcMPulCqXS7JL0sGELqZSSR8/SIvnnntOPvd0v+eee8KwWImSduWVKf5clKvrMrXz47JMkL2tt97ajiL2nwl6M04m/OVygZeEJXeTgFMC8rsCS+Y9S6eZZ0ByZmfRyzwblDNs0y52xMrCh8suuyy49957Y0TkxIkT07zq+5YhwPlyJgGYZ3ab5E+aNCnS5ejzqoQd5x1L21CEMMeEkbjnTluQdv373/8Ottxyy9A9O8uY3Em7xLTV888/n+ZE3/cZAnV3xDkPz5RVnvPaOHboih8WkyDDeikCWQj41ONM9GJesshv2223jWQbGT/77LNj/mQBpc/8ZOGs35pDwJcM1CHPglqdfR2JQ+9DEfAlS6SE8ZC053LPIgo4xkXcyV2O8alTNoei1t03Tfb7TzjhhKi8Pvvss8KgvfTSS5E/8+w+7TMWhrBnh/3S7z/44IMjGUJXYJVqEC6f+hx8fcc/CGXsI48u22qX6Xetr1yH5zKvRcJqBQH5yCOP5KYVRTHllFNGSjrtvKo8sur888+PwkDRFz3HkElNc5eeuVqKcDDFkHY99dRTsTiFgMRcA34ZrHNIM8/yK2re9JZbbgnMTo+kwSSe8iajzTPg9tprLwki8W5X7FVWWaVnEpdOHhPVnJf5m9/8JjE+XuaVKW5clKvrMrUz5LJM5p577tAcXNYKTOJnN5DsbuPAe7lc4CVhyV0JyC9E9deFTrN3iBXZQUN5iw7hfvjhh0vxDLnL2bTmqk3OfhL/U0899cB0hIeA08EX5qICBjR5l0kAQpZUvWiTRXY4mzHvGjt2bOQef9IuJvnbd999Q7fsuqcvkHXJiuSPPvooy5l+6yME6u6I23p1k002yUQPE9rmgoDVVlst071+VAQEAd96XNKRdZ88eXJMd7/++uupzruQn9TE6wcnCLRdBsrIM4DU2ddxAngfB+JLlkyCSvq5V199dSrS9hnr+DHNU6d6tD6UlU3Le6f/NtnvxzyulOtrr71WGDdIUpljMa3IaJ+xMIQ9O+yXfr99Xvwbb7zRMyZd8+hLnwtOvuOXdOjdHQK+2uq8HLjWV67Dy0u/6++tICDNRjstg6atdUxLvvXWW4lO88gqdimapg2//vWvJ4ZjvmS3BROq7CySa/z48VFnhU5LVoflwgsvjLmViVbpWEJAshNz5MiRkTvOlcTUS9bFd9KFP/tySXbZYZsmHsn7ueeeazsp9P+4444L8wsZlnXllSl+XZSr6zK18+SyTCAgwf6uu+6yoxnyX3bE7bPPPtE3F3hFgf3vgxKQ/0dAutBp6Impppoq0gkTJkywIR/ynwGxDKI4rwwb6EkXcsOgac011wx3YIsbdmND8kgYw4cPD5hM16v9CMiCFsquCKFo7r4dN25cYgZZJHLNNdcELF7AzQcffJDojpeY3RO54Z4mexLAQgstFLnnOe06+eSTQ3ecg5rXJhIGpi+RW70GB4EqHfEiMk7/jF3oyHURqw/XXnttJNv4Satfg1NCmtOiCPjW40XSKWMX0fdZBGQd+SmSRnXTHgTqkIEiersoAmXkmTDr6usUTe8gu/MlS5CHou+4M77KssTB4nDTPc9pxwZklWdZ2cwKq0vfXPb7i+gKxsRSXldccUVhqMwdkO+++27kT/uMERS1PfRLv988EgkZ/OMf/1gbZm0L2Jc+FxzqiF/C1rsfBOpqq4u0I1k5rqKvksJ1HV5SHHW+awUBufrqqwcUbNpFJ2/EiBFR5wCFkXaxI086EUwCJV2XXHJJ5IYz0l588cUkZ9E7dhgSpkmUQbpJPNzTwqATstZaa8XcsjKOC0IBEgBzHFyPPvpotJKKMNmhlHVJGjB/ZF/LLLNMFKeZbtsd/3fZZZfIbd4OSNzTOJqT16SVTnKZ6+GHHw53CHCWV55psiJlStxVy1XwlHJ1UaYmJi7LRAjIUaNGxQgkMz55FlPBtknNqnhJ+HI3ybJXX31VXg/M3SRgXem0008/PaqbkEpZA1i+cZ6jyG/azmfOYyCt/H79618PKR/Orph99tmjcDjrJK+ODglEXzSOAOQcZsWl/DEBlHaxgEfcsaAnbQe62TnH/TbbbJMWZPgeklDCZUVx2oW5V3HH/f777090asbPamh269q/Qw89NDjwwAMDdvLLYhXOY9ZrcBDAhLQpT3/5y18KZ96UMcJIk/Hjjz8+jKPI5NRmm20WpWexxRaL+niFE6UOBxaBNujxPPDNviN1JsuSTB35yUuffm8XAnXIQFG9XQSJMvIs4bnu60i4es9GwJcssfhOrBpgASGrf00OTPlAR+68887ZGUv52otspgTVmddm3XbR7zfDS+vjcSSSjHvZAJB2pJINIpbRCDPpWCjtM9pouf3fD/1+5r6RH/P36aefugWqxaH50ucCSR3xS9h694NAXW11kXYkK8dV9FVSuK7DS4qjznetICBRvJxnl0RCsjvQ3CK96aabpuKBIplzzjkjRY4ptrRrxx13jNzNNttswcsvv5zoFIHDFCGHj5uT8D/5yU8i/6R/t912S/TPYet8Z5JXGhh2lHAx0bX44ovH/IlZRNxy3uJtt90W+y5/ODuSnZyLLrpoYDdWELbmihomZtMuzoGDBJS0MYFr5jPNH2bw7J2Qe++9d2hONs0P7ykjCF3M6bJ7k9VjWVeZMiWcKuVaV5mSLtdlIgQk5ca5EhDdSZcoKDrWSR3qKniZ8bEDWGSIu8i46abfn00CEgxc6DTqp1nPOHvm97///RAoqScrrrhiVAbrrLPOEJlgdSamOWUQzS4xdjwmXaYeIi977LFH8I9//CPJqb5rEQKc3yX1kAmQNF2+xRZbRO6yFo/YkygLLLBAZm4xHSP1gDYvaRckumqDDTaI4t9+++0Tw+RMSNPsuuSryP2QQw5JDFNf9h8C9BvNdgz5YPdB0auojLNQjH4g/cEsE9vsdhQZRX6rnuddNB/qrn8Q8K3Hs5BEf9MfEBnnnmWKkLBc5ycrffqtnQi4loGiejsPjV7kmTBd9nXy0qjf4wj4kiXG2ug7rAr97ne/iyfK+Eff1dSPLAzt5UiAXmXTSErnHuvo9xfVFfTr6N9RdoxR8sqMxf+4ZS4Lk6v2pX1GGxF3//ul348eMXUFz2njdnfotSskX/pcUHAdv4Srd38I1NFWF21HknJdVV/ZYboOzw6/if/eCUhMq0JcoXTZaYPpwvfffz/gAO/vfOc7wVJLLRV+o1NwyimnJE6Y77TTTgET7ib5SHjsLmSnHrshvv/978fwZGJfdjbidpZZZgnYbcRKXnb43XvvvaHZOb4xsW+aVpCAzDO0cLfnnnuGpmEJGxMtO+ywQ5h2dhXSscGNxMWEGemTQ8klTO7sWBSSAPeclfXYY48F7EzC/Be7PdhtBhnx5ptvRl4hPFiFJau4JD7u4AgOkyZNCt1zhgV4M6FsuuOZHXNUtG9+85tR2EkPNJKkXyac8QuZS9gvvPBCVFacU/jjH/84jFvio7yyOvC9lClprFqursu0rjIxCUhw33jjjYOnn346PB8NxYRJLMgm6g2ToGkTslXwYpfJhhtuGJrsNAl2kacll1wy3P0LOT8IHSqpBy50mlnfIAkxnyu4shPy1FNPDcubnWScTys7kilr6iSrOeVCz7HQAX0jYcidxR32xY6yJLcsamBnJ7KmV3sRoL2R8uUZcloudLHZ7m255ZZDiGpxy13aZgkP4jLvuu6666L2C5L7iSeeiLywMg3dLuFxNl7Srl7ecTawuCt7zyJVo8ToQycRYLcsOxDoQ6C/hg0blignmPVFXzGRhJUHe6GWZL6MjLNTeK655grb1IMOOihmKunnP/957GwwTLRdeeWVEo3eFYFSCPjW42ZiIdE32mijsK8npohtnWz295IWNrnMj5k2fe4OAi5loIzethFyIc+E6aKvY6dN/xdDwIcsQQiyYA7dh/UsxmFypI6kGstbpiUSxup5uyXFL3dXsmmG2ZXnuvr9ZXQFZISMf+eZZ55w8Yy5+JY5E+YTOb4EOWCc8t3vfjcVYu0zpkJT6kO/9vsZN9h9KWRs0C4f+tzE2GX8Zrj67AeBOtrqMu2Ia33lOjw/pRKP1SsBCbGHkEBOXHzxxSEJaCtidvkx0ZS1U44OHpP/TJAzOcQAmY4DZBidRMg6OopJ1w9+8IMAc1nS4TDjJ0xIHHMy3w7j9ttvH2JiVcIgPZCa5JELckt2dBAfk2JJA3XcshuPjq5JREq4hAG5aZ8/wESc4AAZy+QvOEBIQhCBg5hrZRJ4mmmmCSfvWL2FyQl+PBMO3zAdW+RiR9bRRx8d2+VJWik7yEzTNKeURV4DW6VMSXOVcnVZpnWVCWXFIAeiF0KB3bIiH6YsY742q+5I+faCF4Q4cRE3aUHmqHuUObLHfzrnuGHHbL9f1D1XOi0Jq2eeeSaceJdyNu/EzdmNSbttWJTAd8qIeiW6kfqZdPYeu8dEN0iZSnmiT5P8JKVX3/lBgPbmrLPOivQu5c2OFRYCUHbIDXXyxBNPDBdsZKWSCQHIHuQB4pmFNUUudChticgocrT88suH4fCONuykk05KXZjAAgrx28v9ySefLJJMddNBBFhExcIaFo3R30M30eawuEl+tENmf4Z+VNq5KmVlnMlEyBaRywUXXDDgJ/+5o4tZHKKXItArAm3Q45J2zlRBZzOOsOscdY06yDgD0p22xR6bEI7L/Ei69N4tBFzKQFm9bSLlQp4lvKp9HQlH7+UQ8CVLzNlceumloc6TNp9FoSymo68t79CD+++/f6IuzMqpS9nMiqeN3+rq95fVFRCKq666alSW9B9HjhwZcIwO42Yp42233Tb1+AoTX+0zmmj09tyv/X7mxsw5UsYtg3j50ueCtcv4JUy9+0XAdVtdph1xra9ch+e3ZP4ndm8EZFLmMVdAQ82qcXYRYRY1jaBL8l/lHSTa448/HmCykt0TsM2Yfy16cZYa5xpishVB4TzHpEE4u/4geyBvilxMmrGDRMJlZ2aSCcYiYdXtBrzYjcXEMgQnpl0xPULHHDIVXP/0pz/VnYxY+FXKta4yjSWwxz+Y5jXP3WE34kMPPRQOjJAVVuilTbhmRVkFr6xwB/VbHTqNcqV8KWcOIYZgZterXoqAiQArb7EawM53JkgYQENGYyKyCXKE3Y7I53777Re2BZA27OZnsdEgnhFrlo0+dxsBFs1hZhxSn0UnmMLfaqutwgVnTF7lLbDqdu419U0i4FuPu85rv+XHNT6DEF6/yYD2dfxJrS9ZwpoI81ScSc7ivBEjRoQm2tlJM3HixNRjffwhpTGXRYC+HBsHsBTD+AVLYlgvmzBhQjiPVyY87TOWQaudbusqQ+a8sWKFRZcHHnignZlvKFW+9Llkz3f8kg69u0NA22p3WLoMqVUEpMuMaViKgCKgCCgCioAioAgoAoqAIqAIKAKKgCKgCCgCioAioAgoAoqAIqAIKAKKgCLQPAJKQDaPucaoCCgCioAioAgoAoqAIqAIKAKKgCKgCCgCioAioAgoAoqAIqAIKAKKgCKgCPQtAkpA9m3RasYUAUVAEVAEFAFFQBFQBBQBRUARUAQUAUVAEVAEFAFFQBFQBBQBRUARUAQUgeYRUAKyecw1RkVAEVAEFAFFQBFQBBQBRUARUAQUAUVAEVAEFAFFQBFQBBQBRUARUAQUAUWgbxFQArJvi1YzpggoAoqAIqAIKAKKgCKgCCgCioAioAgoAoqAIqAIKAKKgCKgCCgCioAioAg0j4ASkM1jrjEqAoqAIqAIKAKKgCKgCCgCioAioAgoAoqAIqAIKAKKgCKgCCgCioAioAgoAn2LgBKQfVu0mjFFQBFQBBQBRUARUAQUAUVAEVAEFAFFQBFQBBQBRUARUAQUAUVAEVAEFAFFoHkElIBsHnONURFQBBQBRUARUAQUAUVAEVAEFAFFQBFQBBQBRUARUAQUAUVAEVAEFAFFQBHoWwSUgOzbotWMKQKKgCKgCCgCioAioAgoAoqAIqAIKAKKgCKgCCgCioAioAgoAoqAIqAIKALNI6AEZPOYa4yKgCKgCCgCioAioAgoAoqAIqAIKAKKgCKgCCgCioAioAgoAoqAIqAIKAKKQN8ioARk3xatZkwRUAQUAUVAxjNCwgAAIABJREFUEVAEFAFFQBFQBBQBRUARUAQUAUVAEVAEFAFFQBFQBBQBRUARaB4BJSCbx1xjVAQUAUVAEVAEFAFFQBFQBBQBRUARUAQUAUVAEVAEFAFFQBFQBBQBRUARUAT6FoGIgPz444+Dv/71r/pTDFQGVAZUBlQGVAZUBlQGVAYKyYD2H7Xv3O/jB5VxlfF+k/GPPvqokH7vt3xrftLrsuq5dGwGVW5UT/S3TGj59nf59qK3tB1QmehFbvL8qFwNrlz95z//iZGpEQH5xBNPBA8//LD+FAOVAZWBvpCBRx99tC/yoXq52+3S9773PZVD1al9LQPPP/98X+dPdXC3dbCL8nv22WdVxlWP95UM/OhHP+qr/Lio54Mehuo5bevsOvD444+rnujjtk/rvNZ5u84/99xzWuf7uM7b5d3Uf50rGFxd89lnnykB2VRF03gGt6Jp2fsveyUg/ZeB1oOHAyUgVQ77vR7ooEJlvN9lXCfpVMb7TcaVgFSZtmVa9ZzKhC0TSkD2t0xone/v8rXrc5H/SkCqTBSRk7JudK5gcOVKCUhd0aCrWlQGBkIGlIAc3IaubKeoTvdKQKoc1ilfbQhbBxUq422QwzrToJN0KuN1ypePsJWAVJm25U71nMqELRNKQPa3TGid7+/ytetzkf9KQKpMFJGTsm50rmBw5UoJSCWfBoJ8KqsU1X3/KUUlIPuvTLtYT5WAVDnsotyWSbMOKlTGy8hLF93qJJ3KeBflNivNSkCqTNvyoXpOZcKWCSUg+1smtM73d/na9bnIfyUgVSaKyElZNzpXMLhypQSkEpBKQKoMDIQMKAE5uA1d2U5Rne6VgFQ5rFO+2hC2DipUxtsgh3WmQSfpVMbrlC8fYSsBqTJty53qOZUJWyaUgOxvmdA639/la9fnIv+VgFSZKCInZd3oXMHgypUSkEo+tY58uuuuu4JrrrkmuPjii4PTTz89OOaYY4Lrr7++deksq2jb6B6sr7322hDrM844IzjuuOOCW2+9tS+xboKAfOihh4LvfOc7wVVXXRVcdNFFwamnnhqcdNJJfYlnG+W5C2lSAnJwO1xdkE8XadRBhcq4Czlqcxg6Sacy3mb57CVtSkCqTNtyo3pOZcKWCSUg+1smtM73d/na9bnIfyUgVSaKyElZNzpXMLhypQSkEpCtIkemn3764HOf+9yQH0SOrdi+9KUvBbjv5TfzzDMHo0aNCjbddNPggAMOCL797W8PCd+Or9/+zzHHHENwBvtjjz22L7Gom4C88cYbgymnnDIR00GUr36rL67y45OAhCBHTiHHzz333OC6666rva5/61vfCu69995C8ZCerMUme+21V7DRRhsFDz74YKHwXJWZhlOuk9yWQQULmSZPnuxFVuqMmz7L2muvHbCASGWznGy6wsvnJJ0PPW7jxkK1Cy+8MFy8Vpccqpw3K9tdJyDr1Lm2/Mv/m2++OexLXXbZZX2pj33qOcG47N23fnStG9smY20gINuACYuNGd+cf/754cLjInLahTFMF+u8iX0T7cCgjWt9EpC+9bnv+E3Z7rdn33MFrtvqXsrHtb5yHV4veSriRwlIJSBbNYG19NJLB8OHDw8+//nPx4icJAJy7NixweKLLx4ssMACwVRTTRVzD5E29dRTB4suumiw1FJLxX5LLLFEMN1008Xc43+bbbYJ7rjjjlbhUaQS9+pmxRVXDOaff/5giimmiGGhBGRvkz40ZCNHjgzmnnvuGJ7IohKQvWHaq2y32Z8PAhIC8Gtf+1qoW+0FHnPOOWew5557Bvfcc49z3YfcE98XvvCFYPXVVw+OPvro4PLLLw8H66TpiiuuCE477bRgv/32C1hQgi5aY401UtOBrie8BRdcMNhiiy2CfffdNzjssMOCI444IjjqqKNyf5deemlq2G2Wma6lzfegAryQC+SOvsT999/faLnXGfd5550X9Y+0XfHXrviYpPOlx0X/oK8hvmecccYhfZzZZpst2HzzzYObbrrJSV1TOW9etrtMQNapc0X+5U4fhn7K7LPPPqQezDvvvGF/6pZbbnFSDyROX3cfeq7XvPrUj651Y5tlzBcB2QZM6EsefPDBwWKLLTak7s8zzzzhmCRLfrswhulSnbexbqIdGMRxrQ8C0qc+R658x2/Ldj/+9zFX4LqtrlIurvWV6/Cq5C3PrxKQHSAgIcUwR1rHBHGegPj6PmnSpNhusiQC0kwbGDHwMyfXMd1qujGf2UHDCqa11lor5memmWYKdweZbpt8rlLWvfqlM8VErWCnBGT1iZ/x48dHeILrlVdemSqLTcqXxlW9bKti2DQByYQwCzWQQxZebL/99sEll1wStik77rhjtBhj4YUXDk1fV82f6Z9dAaJXitzRQ9/85jcT6woD/6SFJkXCFTcsujDTp8/11AcfgwrKkgEjZsQhs6XMudM21l3WTcRNHCzQkrwxkKo7Xxp+ch1pepLOpx5HBnbaaadwgQg6GBLy61//ejBhwoRw0Yc5GYsOZ0FLFblROU+WuSqYFvHbNQKyCZ1r4sZOCHblyniJfhWk+/rrrx9APohe5j7DDDP0xfELTes5E+8yzz71o0vd2AUZa5qAbAsmzMMxTqJ+s7CNRZXoA8b7LKIcMWJE+A3LWkmy25UxTFfqvGDcdDswiOPapglIn/ocufIdv8h2v9+bnitw2Vb3Wjau9ZXr8HrNV1l/SkB2gICEEKLDA2FWtoC77N7cSZZHQJJPm0wsstuFju0OO+wQGziykhvzHj6wq1LWVfyyU1QGz0pAVp/8eeCBB6JdKuCqBGR1TH3UxzribJKAZNGKTIyxI5xdJXaeaFdkRzi6D7NCtpte/5cZqLGr5oILLkiNG7JFdFSv96xFKb3mUf0NrdtNDirY2bvCCisE8803XypBXRcB2XTcLB4wZV8JyKGy11R9bHKSzrceZ5IVuVt22WXDM8NtjOlHMxlryuZBBx2Uqstt//Z/lXM/ct0FArJpnWvKJuYTkXF2Pp555plD5HvcuHHBNNNME6sHRx555BB3Zphtf25Sz/WKhU/96Fo3dkHGmiYg24AJ9V0WHswyyyyh+XFTXmkDafOkDUwy/d+VMUwX6rzPdmAQx7VNEpA+9Tl12nf8pl7p9+cm5wpct9Vlysa1vnIdXpm8uHKrBGQHCMi999477NQMGgG50EILRZ25IgTkuuuuG7mnE4i5jiIVhY6jmMWQzuMqq6xSyG+R8Mu4qVLWVfxi+lbyrgSkm8kfCB/BVAlIN5iWqUttddskAWlO5GKaIQ2T448/PpLVDTbYINVdmv+090UGapybutlmm+Uu+jjppJOiNEq9KnMfM2aMs3yl5Vff/089b3JQgel05IAdJ6NHjw5NYG233XYxWamLgGwy7okTJ8byRJ6VgPTXrjQ5SedTj999990Rsb/yyiunLoTE5KR5BjbmtG+77bbSOlfl3J9Md4GAbFLnmu05lmIgF2edddbgqquuSpVrztY2jxDBD/0gM6wuPTep53rFxZd+dK0buyJjTRKQbcCEs46FfGSxJmmyZRWLAOZ4ZJ999hnipitjmC7UeV/tAOU+iOPaJglIX/pc6rTv+CUdg3Bvaq7AdVtdtmxc6yvX4ZXNjwv3SkB2gIDcaKONwo6NEpDZA/NeCUgqEqtUzc4j5NF99903pAPpotJlhVGlrKv4VQIyW7ayyiztm0lAJg1Y0vzpe/dl0SZMmyIgkTmZEGbFbtY5eHwbNmxYpAPTzKCWxVEGapjow0zZqFGjAhaWYCJzq622Cs34XX311YX07B577BGmb5NNNglN/1100UWhKVnaxbQfkwDodXYsuNzZWRaHQXPf1KACXFlAhEl1E2N7MqguArKpuKmfYvrL7KcoAemvrWhqks63Hj/jjDOidgHZY5e8WdfMZ84UN+XzG9/4Rqpb0588q5z7k2fKoAsEZFM6V2RS7rLDl3Os5V3aXdxKXXC5qCstzrreN6Xnek2/T/3oWjeK3LRdxpokIH1jwsS1ebwP580nyapJWlDvWVRpu+vKGKbtdR5cfbUDxD2I49qmCEif+pyy9R2/rTP6/X9TcwWu2+qy5eJaX7kOr2x+XLhXArLlBKQ5MawEZPbgvAoBKR0KGTByZyWri0pWNIwqZV3FL+lTAjJbtoqWoelOCUj3mJr4dvW5KQKS8x1Fn6Eb8/DiLCNxn3aGSV4Y9nfRq+xIs7+V/U8eIFTvuuuuQmHdfvvt4WQ5uxHOPvvsQn7KpkndJ9fxpgYVafg3RUAmxV9H3GPHjg3rpqx6lHqqBGSy/CWVi+t3TU3S+dbjnG0l8iZ3djsm4bnqqqvG3O68886J7pL88k7l3J88g38XCMgk2alD59rxzDzzzKFsc6c/wwSQ7Ub+n3/++bF6wC5IzumR7126N6XnesXEp350rRu7ImNNEpC+Mdl2222jusyxQGn1ngluc+czVmVsme7KGKbtdd7GVf430Q4Q1yCOa5siIH3qc8rWd/wiy4Nyb2quwHVb7aJ8XOsr1+G5yGNWGEpAtpyAxPSoDPqVgMwenFchIDHXKjjL/bTTThvSgcyqTFW/VSnrKn5JtxKQ2bLVS9kqAeke017KoW1+miIg55xzzkin7bvvvrm67JBDDonccx6jvausFxxdDtRGjhwZLL744rn5kHTKymkX5KeEqfdidbqpQUVaefjsiLuOm7OEpppqqmC55ZaLJj6kj6IEZDF5TJOTKu+bmqTzrcc5l1fkjfsiiyySqoPZ2W66Pe6441Ld2tirnPuTZSkLJSCTy+D666+PyTUyfsopp6TKNmdImfWA56JHgkhZtOXelJ7rNb8+9aNL3dglGWuKgPSNCZYzMLkqdZlzt7LklEXrHIWTtni9K2OYttf5tDJw3fdOi2cQx7VNEZA+9Tnl7Tv+NJnr1/dNzRW4bKtdlYVrfeU6PFf5TAtHCcgWE5C33nprMNdcc0WdHyUgkweHItxVCEjzDDTpbNL5lbDrvlcp6yp+JV9KQGbLluBU5q4EpHtMy+DfVrdNEJDXXXdd1G6gz4455phcXWafT3LppZfm+snD2OVAjYHBV77ylUJp4rxL8r3oootmmp7NS79+760ONzWoSCsfnx1xl3GzCADzxdNOO21w7bXXhpPY0j/hrgRkb/KZJjdl3jcxSdcWPY4+hVxE/6LTk3DCCgcLV0z5vPHGGxPd2v5Vzv3JsVkWSkAml8OkSZNico2M5y3qmmmmmWJ+JkyYUKgumOXRhucm9Fyv+WyDfnSlG7skY00RkL4xkSMcpE0jPb3KKv66MoZpc53Pwt9l3zsrnkEc1zZBQPrW577jz5K5fv3W5FyBq7baVVm41leuw3OVz7RwWkFAYtIAc2nYXuawZ9vEGmc3cSbVxRdfHNx8882pJhDIJINgVtLCdnO2VJFdHMRPHLgnHsJIA4z3pA9FdckllyQeRm36ZSUkxCFnoey1117h6igmeu+8884wDogvTDeYfnhm4L7UUkvFBjBVCEiwJV5WcB1wwAHhCi0wt+PN+v/AAw+E+NP4Uk6mWzDhHfGkmagw3ZvPYIlfsDLfc1aYdPzY4Wd+S3rulYAkvUsssUQUF3Eus8wyufGZaWBykLKkw8qP1bFFzzarUtZV/Jrp75WAvOmmm4Jx48YFnG2w//77BxMnTiyFm5mGup8fffTRRtOWRkBSj6gnmGlC9svWFxunKrJnh6X/kyegXOLSBAFpk4mnn356ruxzpqLoW+50Zqrm2+VAjTaG81jy0kTdgrD5whe+oASNpwVWTQ4qkuTBZ0fcZdyspqcu0mcjn7alBiUg69fXSfLFuyYm6dqix9MwMN+ffPLJsfZj+PDhubpa/Kuc+5NjKQPuSkAmlwPzCF/84hdj8k3/3cTOfKZPj9lVsz911llnpbo3/bbtuQk912ueu6Ifi+jGLslYUwSkb0zMOTh2QhaZT8yS5a6MYdpc57Pwddn3zopnEMe1TRCQvvW57/izZK5fv/meK7BxLdJW2356/e9aX7kOr9d8FfXnlYBkZTerBKeYYopYR12INoiNBRdcMPaNDj3vbPMn+Bk9enRoqsrs9A8bNiw8V4RJfxsU4se+POdKmX4wRWe7hdyaddZZh4S/0UYbDXGLX0hMCEcx38DKYNJt/l9hhRXCeFdZZZUoDEw3QAaZtuQlbfPPP3+4o4NdHfIbNWpU5NdOM/8h9kyzSJjyMvHGTB0kUpJf3nHWCxMJpN9ME/ngOwQYpsHMMElb1u5BBmesRFhppZXC8pf8kTaIQEhS3DRFQB588MGx8mfyuujuH9yZnVTyYuJE+Zx55pmJ+FYp6yp+k8q6LAF56KGHxkwVMNkv5Yi8MKFUlVhLSmeVd74JSHTUmDFjhugQsFtrrbXChQpl8ter7LFym3pGvV155ZUDzm2iLqInkAP0knleDaaIcc933OEeN5D06FAWbZRJ96C7bYKAZDGA1EfuLN7Jw50FE6YfzuPK85P3PWmghlkjJu+OPfbY8GzGtPPE8sJO+k47j5lW8pHUjif50XfJk65VcPE9qPDZEXcV95VXXhlOYqOTpS1VAtK9rPYq501M0rVFjxfBaO21147aD/ryWQSNGZ7KeXtkWgnI9LKgD7XGGmuEPyYqTRm2n+2dFPRHWChou+vC/yb0XK84dEU/FtWNXZGxpghI5MIXJoyBacdkTMQ8D+mhL0b956y49ddfP7xjYQZysVc5Nv21YQzT5jpvYmU/u+p72+Ha/wdxXNsEAelbn/uO35azQfjve67AxrhoW2376+W/a33lOrxe8lTGj1cCEnMEZgMvDT0T9TvssEPY8I8YMSKA7GBH45FHHhkShuKODgCZBXQIsNlnnz3goFHIGXYcLrzwwlHnwST5BCDiN3cpSbgoIXEjdybe7RWNuE8iIOmgLLvssmHcTNKbk7+soCJ/q622WpQ2wpZ4WOk+yyyzhD85fFvSBVEh3+ROPOLXvp999tlh/iBYmUy+6qqrws4THSXiEdIIcjHNRB/kJN9tkhYCEpKRNLIyVMpL0gqxaaeH/wzMhBCFqIOQgUxm5xykpODCnfKR8OrYAQlJvP3228cIQ/Jq7+5MygfvIC5FJihnCHN20jLBzioKylXSv/HGGwc2CV6lrKv4TcpPUQKSnbuQZZIvyvmaa64Jyxoyer311ou+kWeZOE2Ks+l3PgnILbbYItR1M8wwQ7DLLrsE7DZjRTTn05lyvtVWWxVaZVlF9ogfOTcXDUh5cqde3nbbbVH9hSgyv9vP6Numy7LL8TVBQO62226xMiuyoIL6a5btNttsU7lczYEacmIuKpG4kENIbXYuVi1XyHXCLbuDvWq86j8+cet7UOGzI+4ibtpN2mT6FxA0Il9KQMblTHDxcW9ikq4tejwP3/Hjx8f60YzZ8vzwXeW8PfJMeSgB6aY8zPO06Y8wj1GkPrTRTRN6rtd8d0E/9qob8zDxKWNNEpB5OJjfXWJyzjnnxMZDjFEYI4m1LMYtzDHKHBBzYnvuuWflOY82jGHaXOfN8rafXfS97TCT/g/iuLYJAtK3Pvcdf5Ks9fs733MFJr51tdVmHOaza33lOjwzrXU8eyUgyRADUMgaczKcc0botDM5b5tDNQ8SZaIcwPELEQL5Y4KEuVbZcUh4xGN+l2fISr7LL4mAFLeQh0zei9skAlJ21M0777ypJuPIF7uPCMckICUe7hCFEg934ja/Zz1Ddkk66TBxTqDtHgJEwgdDCEvbjfwnvZC74h5cIRIhMSFTWC0m37jPN998Q8JiAlrKQ8pOwjfvmDI15YHweiEgIQTBzPyxW+uII44IIITYUSppJj4Is6zdoGYaN91008jviiuuGNsxJu4oA3M1BR3YNEKuSllX8StpLUJAIgOLLLJIlG/IMvEvd/LHrk/BFWJavvm++yQgwWPJJZdMrIfUzQUWWCDCDPI9TU7A0JXsoS+/+tWvRvGSRnaMozfNsiItkJZSptSVrbfeOtQXts41/elz8mRWEwQkbaeUF3eIi7zyoNxNP+jDPD9532WgRrjofOT8qKOOCtODrmXhCzLHd9oG2uK8MNO+Q5rT5hGPuegnzb2+T5ZPF7j4HlT47Ii7iJsFRtQJrGiY5aEEZH0ya+Jc5LmJSbq26PEkPGQn+0477RQtJGVBYlHykTBVztsjz5SHEpBuygMrQGZfKu+8yKT61ZZ3Tei5XvPaVv3oQjfmYeJTxtpKQLrE5Oijj47VYXY7MlfHnBdjGBn7Mv/CPKDU9+WXXz513i+vTNsyhmlznc/C0EXfOyt8+TaI49omCEjf+tx3/CJfg3T3PVfQRFudVp6u9ZXr8NLS7eq9dwJSMjLPPPNEDTgNOaSOfLPvEHvS2HPHr2ky0HSPyRRxu8kmm6SGOdtss0XusghIwv7yl78cuU0iIDFtSJxJ38y0MUmKuzoISJOoJY60yWSTIMvaTUm6IaAES7mzK1XyhDlGeb/zzjtH7/lOJ83c6cVuR/GXdJdVYBJeLwSk+C1yx+wrq9uS0mK/w6SqhAlxd99996X6Y8eryAN+0gaiVUjEKn4lb0UISDmnh3xQ5+wzOyUsTDnKqkDM2UpHXb77uvskICFesnCAjGEHt8gVKymTcKpD9kxyEfImqa5RP0gbZqi7epZNEp4+3jVBQMoiHpEncxdVWp4hwsU9d3anp7kt+t4cqLGjMukMFXZnym58yO2ipvvsNGy55ZZh+tPaU9u9/ncz2ZqEo+9Bhc+OeNW4sShAuzly5Mgh9UUJyPpkNkmOs941MUnXFj1u4nDQQQdFhKPZXrCApMhOewlL5bw9sixlogRk9TIx++jUD0zC29ZvBO8u3JvQc73i0Db96Eo35uHhW8baSEC6xsSegxKrQUkbGViky5yltIcc2ZRXhknf2zKGaXOdT8JN3lXte0s4efdBHNc2QUD61ue+48+Tu3787muuoKm2OqvMXOsr1+Flpd3Ft9YQkObKJcyiilnHpEyyk0waeu6nn356amMPESZuObcsKTzemTuQ8gjIDTbYIAoziWScY445wu+EmUVOES+mVNMmTKsQS+wilHxzTzNJx0oucYc53DR85L1pspYOmZk/Vm9RAbCPD1kpfrhDgEo8EJXmt6RnBmym2dckUsT2R6dP4uB+4oknhjttmLSzfxC07C6QczhxT/633XbbTFv+EN0mAc5uSjsd9n+zLMDvhhtuGOKnSllX8StpzSMgMbfLpKjgm2ayV8JjFaC4hbiU9z7vPgnI4447LheDXXfdNcIMWbR1YF2yx+DJ1KnUazNu6g6Ti+xUg1z2WYb9EHcTBKS5sIR6WMS8Kfpb6ix3FtpUxRs5IqysxT/EgSlsiZv2E1PPZeKGYJX2An1bxq+6rT7pamPoa1Ah6fDZEa8aNwuW0P+TJ08eIsdKQLqXVZGZsvcmJunaosdNbJh8Y3KWH+MrsYQi+hsT/VlnwEtYKuftkWUpEyUgq5UJ4+Hhw4dHfRn6zRx9Ivh28d6EnusVl7bpR1e6MQuPNshY2wjIOjAx5w6lbYOgSCsbxljijjtHl6S5TXrfpjFMm+t8EnbyrmrfW8LJuw/iuLYJAtK3Pvcdf57c9eN3X3MFTbTVeeXlWl+5Di8v/VW/t5KAzCOoTKKJnRNZ5gpl5w4dAkyRpgFmmpasSkCaZM7o0aNDU4VpaYR8TNudWIVYYjff9NNPH3WIMAublHfZhSkdJ+JMcifvTAJy8803z3QrfuxJs7S0iHu5M3iTdPVCQBKvhJV1ZzemafKVXV5pfsVkFOlit5htrjIpHibTmVCUvOy+++5D0lWlrKv4lfSaMpvUccbMlqQfrCArxG/SfY899ojcuyAykuIo+84nATlhwoRMvMiLPYCxdxHXJXvEze5Mcxc6Z9ZAeGKegAkV5Pe8887LzUPZMhlE900QkGYbSb0tQkDaOyDTFsaULTPO/c3zw65H0S/ci7YREq6cPYucpu3MFrd6rzbJWgQ/X4MKSZvPjniVuMUvu9IlL+bd7ktdccUVie5MP/pcj7w3MUnXJj2eJUe0L6aFExYrZREvKuf1yGRWGRX5pgRktXLZcccdo34McxNZx5oUKY82uGlCz/Wazy7ox7K6MQ+LNshY2wjIOjAxw5SxSZ51Ftl8gPu8eUy7nNs0hmlznbdxM/9Lv0LKi/kL87vL50Eb1zZBQPrW577jdymfXQnL91yBiZPrttoMO+nZtb5yHV5Sml2+ayUBmbSr0My0uQMRM1XmN/vZNKOQ1SEwd2BWJSBNskYaQky8cu4gO6GKmvqsSiyxWwlyLevsSBpRSSP3vJXLJgGJsNt4J/1nl6AZR1EzTU0RkKT58MMPj6WRXY5JJjPNBoodrkn5TXpnEnycPWm7qVLWVfxKOsz0JRGQkBFShsiy+Eu7QxiLe+pWmrsm37edgAQLcyf23HPPHcOtLtmTMkBPiOlcyg49vMoqq4TlmGcyWcLQe/4EVhMEJItDpP5xL2KCFTPApp8111wzJn91li075s0d1mV0BoNMMeGKHqsznRp2vnyDke9Bhc+OeK9x0y+cYYYZgoUWWmiIBQmROyUgi8mf4FXnvYlJui7pccYS5kI7Fi4lLVRTOW+PDNv1QwnI3stm/Pjx4aJU+lD0R/rlqIIm9Jwth0X/d0U/FtWNeflui4y1iYCsCxOOQTHHQyxMzysfc4yO36y5NzOsto1h2lznTdzs51773nY4rv7307i2CQLStz73Hb8ruetSOL7nCmysXLXVdrhJ/13rK9fhJaXZ5btWEpDsWszKpElA0uBnuTUJyCyy0iUByY63BRdcMNZ5MTsyPDM4N89PTMqDC2JJwmUHJjuYMDvKNnNMskKEYW7RTBuVT/wk3U0C8owzzsh0K/5tpZ5E7Ilb894kAQk+pukcMEnauWcSRGUmu4XIIVx2ENpnglQp6yp+Be88AtI8n5Cdn5hUzPqNGjUqkquZZprl3sGlAAAgAElEQVSpkJxIWuq6d4GAxJyZ1EdwNk0c1yV7Jt4QjRK/3NN2aJv+9Ln4xFUTBKS9erfIog9MQ0uZc88zm+q6zOebb75Y/Oi1InEccsghkT/OmSziR90Ul9desPI9qPDZEe81bsxg0zeYOHFiqgwrAVmv3JaR9SYm6bqmx20TVliAsTFVOW+PDNtlUzcByY7AcePGFfoVXahLHnrVuXb+e/1P/0rGqyyk6hfyETzq1nNVZKJL+rGIbsySvzbJWFsIyDox4Ywwczy01FJLDWnL7PLabrvtYn7QS7abpP9tG8O0uc4n4SfvfLcDkg7z3i/j2iYISN/63Hf8ptwMyrPvuYIknKu21UlhJr1zra9ch5eUZpfvWklAVt2BaALkg4Akfog8c9eY2ZExnyEC2XliplmeXRBLhDF27NjAJJAYIHH24Q477BCe4WKmpwwBWWRSm7wsvvjiUacMUiXNHK3kW+4yoCN9dZpglfgOPPDAKJ3ECdmKGUr5zrNpqpVzDuVb3p1zcbJwrlLWVfxKurMISAhjM+08I9tFf8iZxOPz3gUCcsyYMTGsxXRmnbJnl4m5wIOyTjqLzPaj/4tPKjZBQLLQxKyzmNrOKyN2zJt+OA83z0/edwh0k0TPco/ZXzP+ou0Llg3EHzo8Kw79VlxOq2Dle1DhsyPeS9xYHUCGmcDKwl0JyGbkN6sM5Fvdk3TE0xY9LnnOu5uWL0Qnm22Pynl75DepLOsmIM22WuQj7f6Nb3wjUxea6e9F55r+qzwzZsYqDPlgsaUp71XCbYvfuvVcFZnokn7M041Z5d02GWsDAVk3Jsccc0w0rqBuMzbPKiO+ffWrX435sY9RSfNv1oE2jGHaXOfTMOR9U+3AII5rmyAgfetz3/FnyXa/fvM9V5CEa5W2Oim8tHeu9ZXr8NLS7eq9EpAP/8+A0OUOSLNwzj333NCUoXm+mj3gYpVwEilXlVhih6IMjIgTQg8Fa5JqdOLM9PDfTL/9bO6AFHLEdmP/N3duTTnllJnhm36bJiDtc8jA5ZxzzonSa5+Rxm41M71ZzzaxZJ8dWaWsq/iVNGcRkJgHMWUE8lr8deneRQJSzlGqU/bsMrzwwgtj5U39vfvuuztZ5nbe2vC/CQLy0EMPjZVhkRX5F110UczPbrvtVqnM2Y2IKTLM8uURK5QLZzSbeuaCCy7Ijd9uv5g0aEMZD3oafA8qfHbEy8aNbuXMPGQfv5jpT/uZZ5rjnrMixS2myAZd7prMf92TdOSlDXqcdNDXL9LftwlyZBRTdoShct5u8pEyUgKyXBndfvvt0bEJjPGlvw6W/fKrW8+Z5IvZ/0t6tknpNuhHF7oxS1baKGO+CcgmMLHng/KsrVGGu+++e2wMU8R6UBvHMG2u81l1pWzfOyustG+DOq5tgoD0rc99x58mc/38vsm5grrb6rLl5FpfuQ6vbH7KulcCsgYCkhWQSUQenabTTz89PAvSJNfoaE+YMGHIgKUIscQ5XXanHCE47bTTYuexLLfccoFNeuHO7vwkpdsUql4ISAgrczBBvsww055NjJrYAZk0eUKDJOmDJJazxsgPOzvlW97d3A1LvmzCuUpZV/Er6c4iIHHD2VRShlmmjCW8Nt67QECyq1Zwnn766SM5qVP2zLJCR3H2JDuVJR3cMUlgutPn3ieYmiAgIRzN8sPsWV6ZnXTSSTE/J5xwQq6ftDAxn2bGz3Ne27LIIovE/BTZAQn5YsZDu5eWJn3fu8yWxa7JQUVS2nx2xMvGnVRXTJku81ykziThpe/K1426J+koE996nP4A/T2RQRbdmQsYbbmxF6vhb7PNNgt1ssp5eRmz8a37f90EJP2QPfbYo9Cv7SZYqQcybmIBc9L4mvIiHyz8xcJE3eVXR/h167kqMuFTP7rUjWnl1lYZ80lANoUJC2ZMi1eYDk8rJ3nPgjBpK7lDSMq3tHsbxzBtrvNpOPK+bN87K6ykb0l9mEEZ1zZBQPrU55S37/iTZK7f3zUxV9BEW91LObnWV67D6yVPZfwoAdkDAbniiitGnYyNNtpoSAdjjjnmCFZfffUh782CYbBi7rqk42J+57kIsURcMsAX/3TQeC8dIQ7Pvu2224aEj/s0AhITA6eccsqQswp7ISBJn6SF+7XXXpuYFkm/3JsmIO0JeNLKriBJD3dzNydmbc1vWc/mmaCcj2i77bWsCaeKX0mHDKTJM2ay5L3czVWqnBtqE6jirs33LhCQCy+8cFRXll122Vg51CV7UmaUqeg2iPeTTz45RkQecMABsfSIP72Xm1hsgoBEJ5iD5zyz5pThwQcfHMkeeqDKhBnn2BGG+cvbQWNaCWChx4MPPpgrb1tssUUsDnbvqjyWk8c68GpiUJGVbp8d8bJx019j526R3xprrBGT97333jvmr+j52lnY6bdi9afuSTrKwbcep803dTjPWYs87L4o7sUEv8p5MbnyWf/qJiDryltZnVs1HfRNVltttbBuYLkB4j0tTDE7/M1vfjPVTZrfNrxvQs/1mk+f+tGlbkzKf5tlzBcB2TQm888/f9T+FVlwvv3220fuafsYQyeVrfmujWOYNtd5Ezv7ue52YJDHtU0QkD71ObLkO35bngfhfxNzBXW31b2Wk2t95Tq8XvNV1J8SkP9LQC655JJRxyFvstacKE0iIGeZZZZwpxwD7qyCYDWN7DRKWl1lD+YvueSSIeFBLtoEJDtXzEmDI444Yog/Sdd5550XcyureQ477LDwvT2h1QsBye5OMz3mrkJJR9K9aQLyK1/5SiydTILff//9MezsFW5FdhzYq6a23nrrWJjkvdeyrupXcM8jIM2zVCnLyy67bEgeJCzzzuC7iBkS009dz20nIO3Oj30GX12yJ3hzXgVlu9VWW0Vli+lMqbuY0lSCp/okYhMEJGVqLhpgkCvlnHY3B8+0cWnuiry3dR47wLP8YWLYJExpj7Pcyzf73Mgrr7yykD/xr/fq8pyEYRODiqR45Z3PjnidcR9yyCGRPkYvX3HFFSrvnswdNjVJ51OP77TTTjF5Q+aOPPLIVJmzzxHGfS+mgVXO69HLoh/T7kpAFsNdxoqMm+i3p+HJe+lD33nnnZnussLw+a0pPddrHn3px7p1Y5tlzBcB2TQmjMFl/Mv5rnkyiplWcc9d5tOy/LVxDNP2Op+GZ519b+Ic5HFtEwQkGPvS5yJTvuOXdAzKvYm5grrb6l7LyrW+ch1er/kq6k8JyP+dvMC0kHQcOGcnDUAaIHOiNI2AJCx21KWFI+9lZ9wmm2wyxC07kpj0l3RxnqT4485qMM5UlBXG8m3s2LGRH/xiWlS+2ff99tsv5lY6TDIB4IKAJB+YdZR8LLPMMqnpkfQxWDNxrtsE66RJk2LxkdYkm//gA+aSFznfRtKddGfCRtxDaibtBOq1rImvil9Jbx4ByQ5a0/wsdvDFb9qdVcF02pHxNDdNvvdJQBYxZ8lCAZETyHd7p3BdskcZoKtYDEHdfOCBB6Ly4tmUDc6UhSxqstz6La6mCEhZRIJMFSEUzd23X/3qVxPLmAUZRx11VMCCGdzY7YOUFTqJHeLEbe8iFzfmnTBF9rmnxW/64dk0DY2/W265JTHdtj/9X2yitVecmhhUZKWtSke8qIynxV8l7rQw5b30y6SuKAFZrxwL7kn3pibpfOpxyEORNe70AbN2ex1//PEx9/hJM02ZhKm8Uzn3I9eDSECW1fcyvmbOoMjZ6JiWp98sst21e1N6rldcfOnHOnVj22XMBwHpEpOidZ4F5mb7lzR3Y8rtXHPNFbnn2fyW9tzGMUzb63wallX63kVkYpDHtU0RkL70uchUHfFL2Hof2q9tYq6grra6iM7IKvMq+iopXNfhJcXh8l1rCEhz8pPdVlmZNFcZrb/++pluIROlA5F1dt2WW24Zudtxxx1TwzTdEW7S2WjsgOTbQgstFJvMT8qTmEpNM284fPjwKF2YyDPDYLcH8Rx00EGx92ae+f6tb30r9l3CoDGFcMCN/MTsHsQahIS9i9Mk37KITYlD7phtkjgId/LkyYlpwj3polzFPfekcy4lbLlTFqafIrsT8UueKSvTL7inrWw1DxpnYj9rgoVvJvmatbu2l7KWvFfxSxiYEZL8QwZIuOYdORM3EGRpciV+IClxn1efxX3dd58E5FJLLTVkN62ZXyb15p133ghfOkHmd3muQ/Y4g4WdzfyuueaaIfGy6GLYsGFR2ph4YfGDpEnvQztVWZg0RUAyOYa5ZKmzmI9JSxdkt7ijbt9www2Jbs3OOe6//OUvJ7ojHtpR3Bx++OGpbiQ9q6yyShQ/usxud8SdeafzJ2mWO+9MN/pcTjZd4dXEoCIrrVhZEJngnmaCPimMMjKe5L9K3Enhme/MNph8FbVEYIahz27qRFOTdD71OAtMZCEgu9iz2hDkylzIiXwmjY+KyJ/KuRsZLYK16aarBGQVnVtG35tu2Y2FtRD7xxzB5ptvHmywwQbR4r3llluus/2SpvScKYdlnn3px7p0YxdkrGkC0jUmZni0U1njGLNNy1pwbu/+L7Jovq1jmLbX+TT90EQ7MKjj2qYISF/6XGSqjvglbL0P7dc2MVfQRFud144klX0VfdVEeElxuHzXCgKSyXdzFRAd97RMQk6ZZydCKvIuzf16660XTUSxGwvlkuTWPHyW8JPcnHnmmcE000wThYfAQUDdc889MfdCQPKd3Ylp6RPhY3I/bYKMgQzh8GNruBmWmHaxV2VhqlX8cE8jaffYY4/QnWnqVMgnOmTzzTdfLF8Qjma44jYJq6R3pjkLMLLTjR/yZ5OPxAkOSWHKOyaszTPy8JO364ydXOw6m3766WP5ojyyJvZII5MxggXnBCSRkMiauZ1/9OjRsfKTtMu9l7J24Zd0zjzzzFF+kCsJ176vtdZakTtwSiOS6eCze5f62RayyicBiaxwLmwSQULjaMrJyiuvnIq/S9m7/vrrA0xzygQjq7TN3Y9m2Yt5VpF5dLSt90z3+jy0oyWYNEVAEh/nykmZZRHH7GgUd+w+kbTad3Mwjvs555wz1S06mfqPHsAMtx2W/Ge3o8SNLBbZMYnfm266KfIn/tuiayRvg3pvYlCRhi061mynkA12ZqW5t9+XkXHbb9W47fDM/+h+9K7IOvcsc5imX31O18e9YtPkJJ1PPc4YBlnDkgU6Nw0vzrsyZZOFd72YnVQ5dy+raWVmv+8iAVlV5xbV98i39JVNOS/yDClpY92V/03quV4x8aUfXevGrshYkwRkHZgUrfPIIwv95egh5srS5q2WX375qP0bM2ZMofre1jFMF+q8rSuaagcGdVzbFAFJufrS5yJTruOXcPU+tG/b1FyB67aasizTjthlX1Vf1R2eHX4d/70SkEzIL7vssrHdNdKZh0xi1aDs+oO8orCZ8BQ3cucd32R3Gatn8WsTUriHNGHX3xprrBHrIDDxziHTEuY666wTdjx4T4djr732Ck1vslNTdnaJWzol7HCSnV4mAYmbFVdcMTj//PPDHXUIHWazmPhnYpYBTdbkGCSBuYuF8/Q4h+3AAw8M/RJ2kmCY53mRhg033DA06cjgnp2Ba665ZphXTMiaZzQSF5N37FKkwkKMrrDCCuFKTpOolLyDMXhCGhaZ/GUHF2HjH8IDzOjgQQaCgxB7pME0P4t7ypm4xLQtZylSzuzeS0ob73BPmOaP/CTJEbs7GShCCCVhar5DLjCbKzhARO+2225hObMSjrMPZVcvZQyW9913X2a4vZY16erFL6vTIUVN8pH8UD6kHWxts7/Ijyn/yAtlCmGL+UMGC0JmQKqRLhM3n8++CEhIbuot2KKnIMZvv/32UB+ceOKJkZ5C3nfddddUElCwqyp7lB+LC6Qeigxzp8wkHrlTJ5LcsmgEvZemg8S/3uOdriYJSLBHx0sZ82wuwmEwZdbn1VZbLXORhMixhJd0drFZ3uykpD1EB7LAwjSRSrtqLkrBvB8mJEz/Wc/4l3TIHf2U5Ue/xWWxLjyaGlSQflaa077TlqG/7AVFIhuYxEJfMVGEFQ36Ykn5LyPjruO20wMZL/0vMWks+ZG72QejbbDD0P/1yHzTk3S+9Dg6lQlV5I0+Nf1cOapBZIvFiOY4BZ2ft1tS/HJXOa9HRk2Mizx3gYB0rXOL6HsWmE477bRD+huig/PuWYu6ipSLTzdN67le8+pDP7rUjV2SsaYIyLowKVLnTTk8+uijo8UHzFudc845UT+L+SLT+hbn1yctSDfDk+e2jmG6UOd9tANSboM4rm2SgARnH/pcytd1/Ga4+hzv6zY1V+CyrZYyLNOOuNZXrsOTPDV590pAMlHEyiImsiFBaNhnnXXWkCRkoAshtPfee4cNPQ08E/T4YScjbvnxzDu+QTYBHmYS8EsYEI6EiVviYJBMnBAsNtCQbUxM2cQXgwsm4CFM6WzssssuiQMRiZ+4iOfiiy8OJ3fNXZPmRD7EWZ4ZS9LILjMhs8yBDjs1s8gyzJaSJtOPPIM5xJFM2EJYyupO0ggOTGZhfpH/5IE8gSETYZiOFUwZmOEmzWSpjTMEKib3TCwkXcQh6aL85L15F3O1EGTm+7LPlDO4IltCotlpzft/wQUXRKSpHT9yxvl5RXf0VCnrXvwySST1j2fK1a5/TDYlYQChnlaGhAnBnke4JoVb5zsfBCQT4tQxyHkWDSDftpxAvDB5XkQXmPj0Knss+qCMSAvlLmVOOpLOrYCAFN0r9V/qPnU0yY+ZTn2Od7iaJiCRP1lAg+xR3uykYtEIZcc7dDG7XKU9SCszBtaQPcgDxHMRM9dMRJuLgVj8YS8AQU+K+e+0uO33tDemSXBk0naj/+Oy1xQeTQ0qyA+L1JBH0WfIAf0TkTPutG28l/4ifR2TDDdxKSPjruM208EzZ1eQVvQsutrMm+SJPi66mzqcdT6fHbb+r1Y3mp6k86nHGQtgsQX5k/4Li+6YbKU9kXfI4KabblpaDlXOq8miq7rcBQLStc4tou9ZNCwy3svdXsjpqryaCKdpPddrnnzpR1e6sUsy1hQBWRcmReq8LYfMp9F/lPrPWHjEiBHRfCH9NOYGiyzEl7DbOobpQp330Q5IuXEftHFt0wSkL30uZewyfglT70P7uU3OFbhqq6Ucy7QjrvWV6/AkT03evRKQTWa0TFxM4nBmIeat2FXJzjxWKkkY7OpiMM7uJQYWTMIiiLKino6KacITYvP0008P/WCaEj9pk18Sh31HGUJEkhZ2eEJu8s52l/Sfc93OOOOMgLgRWkzJJk1UYQ4CYgnSMSkc1++Ih7SwOpRzwjCDy44ciYe0srIaph8SjzKAcC2abwmniTvlSbmCMbt4IJNEHsrGX6Wsq/gtm07cI/dnn312KNuUI2WVRYr3EocrP00TkEnpRr7puCIj7IykTtMoJrkt+s6l7BWNU90N7UgVxaRpAlLSxapNdtiycIPJY85ahIzGBGpZ8k/CLHpnUI4uh/SElCd+FvSw8IMd+L3qdOoRi0gIkza7aHrUXe/yWwS7JgcVRdKjbuot70HE19cknU89Tv+Ffgvn3rEAhXOrMbPNanUWBqaZ5B9E+ehinrtAQHYR1y6n2Zee6xUzX/pxkHRjUwRkrzJQlz/mNhhzcP4rGwBYWMlifRYXc0RRL/G2cQzTtTrfC+4u/AzSuLZpAlLKx5c+b0v8ko5+vfuYKxiktrrNcqME5MM6MdNmAdW0qXy6koE2EJCu8qLhdLde+CIgVWa6KzNdKzsfg4quYaTp7XZ91Em6bpef1r+h5acE5FBMBl1OVM+pTNh1YFAJSBuHfv2vdV7rvC3bvghIOx36v79kU+cK+qs8y9RPJSCVgOxp1VYZIVO3g6tg2lT2SkCqHLZBHpWAVDlsgxzWmQYdVKiM1ylfbQhbJ+lUxtsghy7ToASkyrQtT6rnVCZsmVACsr9lQut8f5evXZ+L/FcCUmWiiJyUdaNzBYMrV0pAKgGpBKTKwEDIgBKQg9vQle0U1eleCUiVwzrlqw1h66BCZbwNclhnGnSSTmW8TvnyEbYSkCrTttypnlOZsGVCCcj+lgmt8/1dvnZ9LvJfCUiViSJyUtaNzhUMrlwpAank00CQT2WVorrvP6WoBGT/lWkX66kSkCqHXZTbMmnWQYXKeBl56aJbnaRTGe+i3GalWQlIlWlbPlTPqUzYMqEEZH/LhNb5/i5fuz4X+a8EpMpEETkp60bnCgZXrpSAVAJSCUiVgYGQASUgB7ehK9spqtO9EpAqh3XKVxvC1kGFyngb5LDONOgkncp4nfLlI2wlIFWmbblTPacyYcuEEpD9LRNa5/u7fO36XOS/EpAqE0XkpKwbnSsYXLlSAlLJp4Egn8oqRXXff0pRCcj+K9Mu1lMlIFUOuyi3ZdKsgwqV8TLy0kW3OkmnMt5Fuc1KsxKQKtO2fKieU5mwZUIJyP6WCa3z/V2+dn0u8l8JSJWJInJS1o3OFQyuXCkBqQSkEpAqAwMhA0pADm5DV7ZTVKd7JSBVDuuUrzaErYMKlfE2yGGdadBJOpXxOuXLR9hKQKpM23Knek5lwpYJJSD7Wya0zvd3+dr1uch/JSBVJorISVk3OlcwuHKlBKSSTwNBPpVViuq+/5SiEpD9V6ZdrKdKQKocdlFuy6RZBxUq42XkpYtudZJOZbyLcpuVZiUgVaZt+VA9pzJhy4QSkP0tE1rn+7t87fpc5L8SkCoTReSkrBudKxhcuVICUglIJSBVBgZCBpSAHNyGrmynqE73SkCqHNYpX20IWwcVKuNtkMM606CTdCrjdcqXj7CVgFSZtuVO9ZzKhC0TSkD2t0xone/v8rXrc5H/SkCqTBSRk7JudK5gcOVKCUglnwaCfCqrFNV9/ylFJSD7r0y7WE+VgFQ57KLclkmzDipUxsvISxfd6iSdyngX5TYrzUpAqkzb8qF6TmXClgklIPtbJrTO93f52vW5yH8lIFUmishJWTc6VzC4cqUEpBKQSkCqDAyEDCgBObgNXdlOUZ3ulYBUOaxTvtoQtg4qVMbbIId1pkEn6VTG65QvH2ErAakybcud6jmVCVsmlIDsb5nQOt/f5WvX5yL/lYBUmSgiJ2Xd6FzB4MqVEpBKPg0E+VRWKar7/lOKSkD2X5l2sZ4qAaly2EW5LZNmHVSojJeRly661Uk6lfEuym1WmpWAVJm25UP1nMqELRNKQPa3TGid7+/ytetzkf9KQKpMFJGTsm50rmBw5UoJSCUglYBUGRgIGVACcnAburKdojrdKwGpclinfLUhbB1UqIy3QQ7rTINO0qmM1ylfPsJWAlJl2pY71XMqE7ZMKAHZ3zKhdb6/y9euz0X+KwGpMlFETsq60bmCwZWrVALyX//6V8BH/SkGKgMqA/0gA6rTVI7bIMcqhyqHbZDDOtOgMq4yXqd8tSFslXGV8TbIocs0qEyrTNvypDKhMqEyMVgyoHV+sMrbrt9J/1UmVCaS5ELfqVz0KgOBdX3O+q9/FQFFQBFQBBQBRUARUAQUAUVAEVAEFAFFQBFQBBQBRUARUAQUAUVAEVAEFAFFQBHoGQElIHuGTj0qAoqAIqAIKAKKgCKgCCgCioAioAgoAoqAIqAIKAKKgCKgCCgCioAioAgoAoqAjYASkDYi+l8RUAQUAUVAEVAEFAFFQBFQBBQBRUARUAQUAUVAEVAEFAFFQBFQBBQBRUARUAR6RkAJyJ6hU4+KgCKgCCgCioAioAgoAoqAIqAIKAKKgCKgCCgCioAioAgoAoqAIqAIKAKKgCJgI6AEpI2I/lcEFAFFoCAC//nPf4IPP/wwePPNN4PnnnsuuP/++4M777yzoG91pggoAoqAIqAIKAKKgCKgCCgCioAioAgoAoqAIqAIKAKKgCKgCPQnAkpA9me5xnK17rrrBsOGDevpN+eccwZjxowJ9t9//2DixInBL37xi1jY+kcRGFQE3nvvvWCqqaYKPve5zw35/fznPx9UWDTfLUIAghw5hRx/8skng3feeaf21L300kvBJ598Uiiet99+O3j33Xcz3boOLzMy/dhpBH79618HL7/8cmN58FG/GsucRtQaBNogZ7///e+D73//+8F//dd/BX/7299KYXPWWWcFe+21V/Dvf/+7lD91rAgkIVBFFpPCy3pXd/+jybxk5bPL33zrxz/96U/BD3/4w+CFF14orRuzcG+6P5OVFt/f2lBPPvjgg+DFF18MfvCDH4QLj3vFpA156TXtbfTXRD1x2Q5ofyhbinzrc9/xZ6OjX6sgUFdbXSZNrvWV6/DK5KWKWyUgq6DXEb8nn3xysPLKKwdLLrlkMM000wwhS77whS8EX/rSl4LVV1899ltllVWCGWecMeZ+6qmnDo444ojgr3/9a0dyr8lUBOpBgIZshRVWCBZeeOFYHYGQVAKyHsw11GII/Pd//3dw7rnnBiNHjhwimwsssEAwYcKE4B//+EexwEq4Qu6R/+mnnz7Yeuutg+uuuy549dVXAwbukJKvv/568OCDDwYXXnhhsN566wVTTDFFsO2226bG4Dq81Ij0Q+cRuPzyy4Ppppsu+PznPx98+umntebHV/2qNVMaeOsQ8C1nr732Wqif55tvviHtyIgRI4Izzzwz+OMf/5iLG2MP2oWll146OPjgg4Pzzz8/oL5eddVVwTXXXJP7e+WVV3LjUAf9jYArWSyDUl39Dx95KZPvrrj1qR/py+60007BLLPMMkQ3Dh8+PDjwwAOD3/3udz1D2WR/pudE1uyxDfXks88+CyZNmhSstNJKQ8p50UUXDduyIjC0IS9F0tk1N03UE9ftgPaHkqXMpz4nRb7jT0ZF31ZFoO62ukz6XOsr1+GVyUtVt0pAVkWwY/4hDpk4MHdt3XDDDam5YMUyK7523HHHmJ855pgjePbZZ1P96QdFYJAQuPvuu2P144033hik7GteW9uHwS4AACAASURBVIQAkx4sOEHHs4DkmGOOCX7yk5+Eq7OPP/744Itf/GL4bdlllw1YOeXyYneM2bbkPUNUPv/886lJcB1eakT6oZMIQGrfdNNNIZltylqdC6R81q9OFpImuicEfMoZK8CxeAKhT72iPTnooIOC3XbbLWDS1axrM800U6bZeSZwWbho+in7vPHGG/eEoXrqPgIuZbEsGq77Hz7zUjbvbXfvUz+ecMIJwZRTThku6IaEvPLKK4NHHnkkXEix4oorRroO/cliv6KXj/5M0bQ16a4t9eTHP/5xsMwyy4TlycK2rbbaKmwXGe+ziHL55ZcPv2EhLO1qS17S0tfF903XE5ftgPaHkiXOpz4nRb7jT0ZF31ZFoK62uky6XOsr1+GVyYtLt0pAukSzI2HZZOLPfvaz3JTTiTr22GOjjjUTCPPOO2+AKQm9FIFBR+Bf//pXuPNGJtaUgBx0ifCTf3Y1ygQxO9ufeuqpIQlhQYmQkKzU5gxTV1eZgdrMM88cPPPMM5lRuw4vMzL92AkE2Nm74YYbBosvvngqsVEXAem7fnWigDSRlRHwLWeYCKMvw87HRx99dEh+7rjjjmDaaaeNjQeuvvrqIe54wepj6Rf1er/++usTw9aX/Y+AS1ksi5br/ofPvJTNe5vd+9SPLMxAj6299trBW2+9NQQm5kogqkxdd8kllwxxJy989mckDW27t6Ge0O7JApy55porNLFr4vT//t//CyhXKec00/9tyIuZ7q4++6wnLtsB7Q8NlUCf+pzU+I5/KCL6xgUCrtvqMmlyra9ch1cmL3W5VQKyLmRbHO4uu+wSdZroPGEaoshFh0tMB0ina7PNNiviVd0oAn2PAISP1AslIPu+uFuZQXY7igximiHtuvnmmyN3u+++e5qz0u+LDNQ4N/WAAw4I/vCHP+SG7zq83AjVQesR+PrXvx7KLjuv1llnndAE1tFHHx3JM/JfFwHpu361vnA0gU4Q8ClnmBuDXJxnnnmCN998MzU/nAfJrhBpb/CDvravO++8M3Ijbsvct9tuOztI/T8gCLiWxbKwuex/+M5L2by32b0v/fj3v/89WvS06aabhtahknDCLDX9XNFz7Jb885//nOQ08NmfSUyQ55dtqCec5ynkI4s1f/GLXwxB5dvf/nZUvpTzeeedN8RNG/IyJFEdfeGznrhsB7Q/NFQAfelzSYnv+CUdeneHQB1tdZnUudZXrsMrk5e63CoBWReyLQ63VwKSLLHKWTrV3CFd/vnPf7Y4t5o0RaAZBEwCkoGHXopAkwggczLpMffccweYekm7+Db77LNHujzLDGpaGEnvZaCGGSrM9Y0ZMyYYNWpUsO666waHHXZYaKrqV7/6VZLXxHeuw0uMRF92CgF2GGAa3rzsyaA6CMg21C8zz/rcnwj4ljPO7qVvz/m9eZe4lTFB0mKWM844Iwxvn332Cc0UcnQDJsFfeuml1B+TuYTJDkzOD9ZrMBEQ+XIli2VRdNn/8J2Xsnlvq3uf+vHhhx+O+szoJ6xApV1LLLFEzO3tt9+e6NRXfyYxMS146bueMHFtHlPEOcVJl0laIAssqrQv33mx09Pl/z7rict2QPtDcSn0qc9Jie/442joP1cI1NFWl0mba33lOrwyeanLrRKQdSHb4nCrEJDSEMuEA3dWQuulCAw6AkpADroE+M3/cccdF014oOPzrgMPPDByn3WGSV445ndpH4466ijzdc/PrsPrOSHqsdUINEFAtqF+tboQNHFOEPAtZ3POOWfYLnBHjzPwTbt+8IMfRG0IYwF2Qf73f/93zPnYsWPDhTEff/xx7H3an/fffz/ANDi7Kx9//PE0Z/p+ABBwLYtlIXPZ//Cdl7J5b6t7n/qRc//MuQ+e2e2YdG2xxRYxtyeeeGKSs8R3TfRnEiNuwUvf9eTII4+Mym3hhRcOsPyVdDHBbVoAuOWWW4Y4852XIQnqsxdN1ROX7YD2h+JC6FOfkxLf8cfR0H+uEGiqrS6TXtf6ynV4ZfLiwq0SkC5Q7FgYVQjIV199NeqcSUf8gQce6BgCmlxFwD0CSkC6x1RDLI7AAgssEOnm888/P9fj5MmTI/ecx2jvKssNIMGBy4EawbsOLyHJ+qoPEGiiI96G+tUHRaVZyEHAp5y9++67UZsg/fv77rsvNcWcnSPu5G4f6bDCCisEK6+8cmoY9gfZNYJZZb0GF4E6ZLEsmq76H23IS9m8t9W9T/3ImeWi57iPHj06FSasfphub7rpplS39ocm+jN2nG3477ueYDljxhlnjMrtnHPOyYSFxfdnn3124iJ833nJTHiffGyqnrhqB4Bd+0Nx4fOpz0mJ7/jjaOg/Vwg01VaXSa9rfeU6vDJ5ceFWCUgXKHYsjCoEpHl2mHSu6WjppQgMOgJKQA66BPjL/zvvvBMNmtHL119/fW5i7rrrrpifn/3sZ7l+8hy4HKgRl+vw8tKv37uJQN0d8bbUr26Wjqa6KAK+5eynP/1prE2gLclbzDLHHHPE/DzyyCOx7DLBs99++8Xepf3h3GLiXG655YJPP/00zZm+HwAE6pDFsrC56n+0IS9l895G9771I5igoyAX991338Qzb3GD7mJRn8yRcP/tb39bGNK6+zOFE9KwQ9/1REx/S7mRnl4v33npNd1d8tdUPXHVDoCt9of+T8J863Pf8f8fEvpUBwJNtNVl0u1aX7kOr0xeXLj1RkCycpYzQG677bbgrLPOClcRMSH60UcfhfnCnAEmDpIuTAJ9+OGHwS9/+cuAs6uyzrrC/9/+9rfg7bffDs8dwd5z0euTTz4JXnjhheDHP/5x8Kc//SnmjQ4mK9o4GHTbbbcN85C1g4R4OXz43HPPDSZOnBg8+eSTAaaGylz/+te/gj/84Q9hp5dDss2LPPKOeLJMJuGnVwKScFdZZZVYp3qttdYyk5H5/NZbbwUQmHTy+LGymjLUSxHoBwTSCEjqLYfYP/3006EeyqufeVhoPcpDaPC+2wfbP/TQQ7kgcBaXDLS505mperkcqJEW1+FVzZ/6bycCdXfE21K/2om+psoVAr7ljDHMrLPOGmsXMLOadtGXweyq2Y489thjMeeYXuVcrbyLscsMM8wQTD/99MHrr7+e51y/9zkCdchiWchc9T/akJeyeW+je9/6sSgm9957b0wnLrbYYkW9hu7q7s+USkyDjn3Xk9VXXz0qN3ZCkp5eL9956TXdXfLXVD1x1Q6ArfaH/k/CfOtz3/H/HxL65AuBqm11mXS71leuwyuTFxduGycgIe4gHMXMAavEll566eCLX/xi2PDzf8MNNwyfN9tss1geV1xxxQCb6lNNNVXUSWDgiyk5+8LO9jzzzBNMM800Mbd77bWX7TT2nwH1lVdeGSy55JLBlFNOGfO71FJLBVdffXVobmH++ecPvy2yyCKRm/Hjx8fC4g+k4HrrrRe5IT1TTDFF9B9zQ7/73e+G+JMXnC8wcuTIYJZZZonZmwc/LlbVrb/++rG0sno4a1dirwTkpEmTonSDO5MFRXbNvPLKK4HZscOvaTt/zJgxwaOPPipZju4XXHBBsOqqq4b523TTTQPOVPjKV74S4vnlL385lBPzvBlMwUKQsjpxk002CTbffPNgo402CtZcc81gpZVWCsnqKHB9UAQcI2ATkCyw2H777YOpp546Vm+mm266YMcddwwXYJRJgtajMmgNltuLLrooJmMsmsm7fvWrX8X8nHzyyXlecr8nDdQwawT5fuONN4ZneqWdmZMUuOvwkuLQd91HoO6OeFvqV/dLSnOQhUAb5IxFlyyq5Mei0KzLXkFO354FUmUvFmlhpjVtPFc2PHXfHwj4kEUTOZf9D995MfPV1ec26Mci2O20005R35rxH/3fMlfd/ZkyaWnara96woYDc76QOSsuzoCEqOCsuN122y28Y2GGRf95l6+85KWrX743VU9ctgNFsB+U/pBvfe47/iKyoG7qRaBqW10mda71levwyuTFhdtGCUga8rXXXjvsmLFzjsZZLlYLMWG/5ZZbRh03yCbzWnDBBQNzkp/BKj+UiH3h116Zi9ssApJdlZBhEi6CiTmhyy67LEq3fGNFG+QinRYh0yC7zOvxxx8P0wthyuTum2++GXZm6LiwC5KVvoQH6ZpmMg9yku826QoBCckIIcuK5WOPPTZKN2FCbKZdZQlIdpgec8wxUT4lzfYuzKT4vvWtb0XlABF4xx13BB988EHApPQ999wTEoWC6de+9rWAhleuk046Kcy7SdiKW+7g/pe//EWchxPc5nf7mV2neikCdSFg6qaDDz44JB5nmmmmADlmt9n3vve94KijjorZnD/ssMMKrbLUelRXqfVHuKeeempM/0NW510sXjF1JLv5q17mQA19O2rUqFgcxMfCHhaHFLFG4Dq8qvlT/+1EoO6OeFvqVzvR11S5QqBrcmaeI4xuX3755XuCgsWG+C9jUaWniNRT3yLgShZNgHz1P+rIi5mvrj53QT/efffdsbmSSy+9tDTcdfdnSieopR5c1pMnnngiNlZhwft7770XLoKXccsyyywTzWcxBzdhwoRwTs8FPC7z4iI9XQijqXrSdDswKP0h3/rcd/xdqGP9nEYXbXUZfFzrK9fhlcmLC7eNEpBMotOQjxgxItUkD2QXu91wZxOQkmHMtvJdfkkEpLiF1GT3oLjNIiC32267yN2hhx4qQYR3CFJ23Uk4hxxySPR9n332CWafffbQvKi8hEiTeNmVZ5twxR2EhIQHyQZhmXaxc/TCCy+M3NP5YWclJOZzzz0XsBNQwuK++OKLpwU1xAQrpCA4mT9M21511VUBRMoSSywRhc3kMURh1q5NiXj//feP/G288cZhGuWb3MHJXIFAp882UQkxPG7cuCgs8gfemKM1L/xB9ggOYHr44YeHuBKGXopAnQiYBCQyuNpqqyXWe3QBu6lFTll0weKMtEvrURoy+l4QgNgWeeL+2muvyafU++9///uYn7333jvVbdEPMlAjDSwQQc6vvfba4NVXXw3bDBbaoLv5jtWD22+/PTNo1+FlRqYfO4tA3R3xttSvzhaQJrwQAl2TM6ytmO0OE2dlLxYRioUXc1Fq2XDU/WAj4EIWbQR99T/qyIudty7+b6t+FCsfJ5xwQrSLjsXhLF7v5aq7P9NLmtrox2U9ue6662JtGbsdmYNkju2aa64JF86DASY0mUeUdm+DDTZInc8sg5nLvJSJt8tum6onTbYDg9Qf8q3Pfcff5brX1bS7bqvL4OBaX7kOr0xeXLhtlIDEVCiNdhYJSKYwH4e7NAISN/POO2/UAcgiIHG7zTbbRG7T4oYJlw4Fuw3NnXUCtKQLd5BbL7/8snwacn/mmWei8HAPaZd0meQbu0OzLkhISaPcMQkrFyZq5f03vvENeT3kbu+AFD9F7uecc06hw9QxqSrhQdz+85//HJIOeQG5K7KBn/PPP18+xe4mucjk9v333x/7zh/SRxiY34Xg1UsRaAoBk4CEeMkivSHw55tvvqiOnHnmmYnJ1HqUCIu+tBDYd999I1lC/73xxhuWi6F/IcJFR3NnAU7VyxyoHXHEEYm7ezHbLbv/WdCSdcaY6/Cq5k/9txOBujvibalf7URfU+UKgS7Jmdk3of3AhKppwaQoJizmxH/WeK9oWOpuMBFwJYs2ej76H3Xlxc5bF/+3TT9ecsklEeFo9qVZXFfkeJq0Mqi7P5MWb5feu64nsutMyhHLY4xPOCPMvljszqJ6ccucWpXLdV6qpKVLfpuqJ022A4PUH/Ktz33H36W61vW01tVWl8HFtb5yHV6ZvLhw2ygBKecmcr5iFiFFxuaee+7MAam5gyiPgNx9992jjkIaASlKnw4F5w4mXRBlclYl7tiRmHbdfPPNUZy4TTMtxMoq6cRgfz7vMkkOVg2bOEKacn4l57ZAVqZdNgH5ne98J9wxw64Z+weRypmdmJeVdHKmwZFHHhmuBEuKg92Y7HIV9+ykzLtMvMjjb37zmyFe6PSxQ1LCJf+//vWvI3fssmFn6GyzzRZwvpleikCTCJh186abbsqN+pRTTolkmTplyjKetR7lQqgO/hcBcyEL+vEXv/hFLja0F6JLubNQp+qFDBMWVgGyLkx6S9z0Cz766KNE567DS4xEX3Yegbo74m2pX50vKM1AJgJdkTPGHRxDITqcfjdHTJS9WCgjx0vccsstZb2re0UgHAO7kMUkKJvuf7iqV0l56Yd3bdOPEBMQV/xOPPHEyCqV6MUdd9wxPCqnLPZ192fKpqdt7uuoJyzal3KTOwRF2sUYS9xx54z7Xq468tJLOrrop6l60lQ7MGj9Id/63Hf8XaxzXU1zXW11GTxc6yvX4ZXJiwu3jRKQpgnTddZZJzSNmWZ6kNWwabsGyfjo0aOjxt8FAYm5ROlMbLbZZqnYQp6Ku1133TXVHbbjhw0bFrnF/GzSZe6qJNy8g61NkuPAAw9MCjL3nU1AFjHXR6CXX355uCJM8s8uwyS/nG8pbtipaJtKTUogE9DmAeCnnXZakrNwV9kiiywShc+ZMxA1bKseOXJkGMZTTz2V6FdfKgJ1ImDWTc6OzbvsAYy9a1nrUR6C+l0QsHV6EQLS3gHpagfK22+/LclKvT/99NORDqetSGsfCcB1eKmJ0g+dRaDujnib6ldnC0kTnotAV+Ts+OOPj/T3dNNNl3l8RFamGUOh/1mA9Y9//CPLqX5TBBIRcCWLiYE33P+oOy9peezK+y7oR842X3DBBSP9yILososz6u7PdKW809JZRz057rjjojKT+ass6yykTTZV4B4LZL1cdeSll3R00U+T9aSJceig9Yd863Pf8XexzvVTml201WXwcK2vXIdXJi8u3DZKQGIfXxp2uWNKlXMG2TH029/+tnCevvSlL0VhuSAgN9xwwyg8zqBMuyC5JO377bdfmrPwPbvwIO1efPHFVHfvvPNOFB7hvvvuu6lu+WCSHOx27OWylW4SiZgW7hVXXBFLLzsdP/jgg5hzM3x2qha9TIKacyfTLvCcdtppo3SwqxXSGPzAWy9FwAcCZt387ne/WygJ5oKGhRdeOOZH61EMDv2TgQCLUaRd4l7EBCtmgE0/O+ywQ0YMbj9x1vMMM8wQxU97XuVyHV6VtKjf5hGouyPetfrVfAlojC4Q6IKccVwFCwtpOyAfez3qgEWD+Ccc+v56KQJlEXAli2Xjtd276H+0JS923tr0vwv6EbwgK1hUIf1r5o2SjvVJw7bu/kxavF14X1c9mTBhQlRelBsL7PMuc4yOn5deeinPS+x7XXmJRdLHf9pWT6q0A4PYH/Ktz33H38dVszNZq9pWl8moa33lOrwyeXHhtlECkl1uSy+9dKyRlw6a3OmomecapmXSNQF56qmnRulaaKGFEqOlcTFNsBZJpwTETk925mHOlG3fmGSFZMPOvOSde94qG5PkePjhhyX4Une701SGgCQfprkb0myb7jPN45aZWBASkTCxvZ91ngxEo4kbz1k7ZksBpI4VgR4QMOtmUQJyvfXWi+SYST3Mscil9UiQ0HseAuYqWnRhkfNnMHNt6tA8s6l5aSj7ffHFF4/F//HHH5cNIubedXixwPVPqxGouyPexfrV6gLTxCUi0HY5o12RMRALSHolH8n85MmTI/3PecF69R8Cjz/+eHDHHXcU+pVZgAxSLmXRBfJV+h9ty4sLPNLCqCITbdePZp5t835Y/Sp61d2fKZqOtrmrs55wRpg5Hlp99dVzs3/00UfH/FBuRa8681I0DU25q1Lns9LYxnrSazswiP0h3/rcd/xZsq3fmkOgSltdJpWu9ZXr8MrkxYXbRglIEsyOP0y9mQ190vOaa64ZsEMj7XJNQL7wwgvBFFNMEaWL8wTtC8JP0sogvMiACZOq48ePD+abb77ILwN3zlQ89thjA9vufBkCkg5ML1cVApL4Lr744igv4AHxghlUrk8++SRmpnWDDTYonETOSxB8uedhYZ7tifuXX365cFzqUBFwjUAvBOR2220Xk3kxnan1yHXp9Hd4LGwxdSemvfMuduibfjjXt+oFgW6S6FnhYT7bjD+pPXMdXlZ69Ft3Eai7I96W+tXdEtKUF0GgzXLG2G348OGhzp5jjjmCIm1MVp5XWmmlSP8zptCr/xAwy9hs65Oeb7vttsIAuJbFtIib6H80lZe0PDb9vopMtFk/2jjef//9kX4TeWeeqchVd3+mSBra5qbuenL99dfHyouxed41bty4mB/OAS1y1Z2XImlo0k2VOp+VzqbqSRPtgInRoPSHfOtz3/FnybZ+aw6BKm11mVS61leuwyuTFxduGycgJdFPPvlkgOnMRRddNNaAS0eNOyvG0s6IdE1Akq6TTz45SguNgbkDj/OyTHOJN9xwg2Ql9Q5hiYlZyROkJQpPyDo80hGR79zzSDeT5MB+cS9XVQLSPr+LdD/xxBNhUuxzxdZdd93CSdx+++1jWOSdHfnDH/4w5p4dY3//+98Lx6cOFQGXCJh1s+gOSFvm5awQrUcuS6b/w7r00ktjuvCxxx7LzfSzzz4b84MVgCoXu1imn3768Bzeo446KjeoVVddNRb/M888E/PjOrxY4PqnrxCouyPehvrVVwWmmUlEoK1y9v7770fjH85gl35KYiYKvLTHPUXGUwWCVSctQ8CcVDXHuUnPRQlI17KYBlkT/Y+m8pKWRx/vq8hEG/Qji0SLzL2wiN2W8zPPPLMQ5HX3ZwolokWOmqgnnPdolhfzZHnXaaedFvNTxApXE3nJS3fT36vU+ay0NlFPmmgHBrU/5Fuf+44/S7b1W3UEmmiry6TStb5yHV6ZvLhw2ygByYpZFK190SA/9NBD4VmQYt5HOgJpE/l1EJCYVJV4uc8111yhWc9jjjkmfObdjDPOGO4AtPNg/3/wwQfDiVgJb/311w+SCDW74ekCAZnUsb7ssstCCP7zn/9E57qQ95VXXtmGJvW/uTMWnNPIZwJAZjgzT86iEZx33nnn1PD1gyJQJwK9EJDsEBbZHTZsWED94dJ6VGdJ9V/YEI4iR9wxe5Z33XnnnTE/t956a56X1O9YAzDj5zmvLRs9enTMj7kD0nV4qQnXD32BQN0dcd/1qy8KSTORi0Ab5QxrDHI++3LLLZc4jiFj7733XrjA8pe//GVuPm+66aaY7n/ggQdy/aiD7iFAP+SMM84o9CtiUagOWUxCtYn+R1N5Scqfz3dVZMKnfmTOYYUVVoj0FsdnmIvJbUw5083uEx9wwAG2s8T/dfdnEiNt6cum6gmL100raFtssUUuIieddFKsjCEks66m8pKVBh/fqtT5rPTWXU+aaAfI36D2h3zqc3D3HX+WbOu33hFosq0uk0rX+sp1eGXy4sJtowTk/PPPH2y99daZ6YakM8lFGviki4GwdO4uuuiiJCfRu4033jhyy67LtGvUqFEB4b7xxhvB3nvvHYwYMSLskMw000zBmDFjgsMPPzzg3Ky8i04peZX0cZj1n//850RvTNKKO+4yacuW//vuuy+2C5MATJKjyCq8pEir7oC0J65J93PPPRdFZZ5dh+nZopd5Pih4p10Qk1KmEJ/33ntvjIicOHFimld9rwjUhoBZN9MWTtiRL7vsslH9X3vttWOftR7F4NA/GQhwfqI5eM5rEwlq0qRJkeyhw4tMHKcl4Uc/+lEsLMLLa5/YSYM7ftNNN13w73//OwredXhRwPrQlwjU3RH3Xb/6stA0U0MQaJucoZO33HLLUEezY51J9bTrxhtvDN09//zzaU6i9wcffHCk+9H/WDPRSxHIQqAuWUyKs+7+R5N5ScpfV9/51I/MK0h/Ve5ZCyc4fkfcyZ1jd4pcdfdniqShDW6aridLLLFEVGZFFs+zOUHKlvs999yTClvTeUlNSB99qLue1N0OSFEMan/Ipz4He9/xS/nr3S0CTbbVZVLuWl+5Dq9MXly4bZSAnHvuuUMTbVmrxsgUK2llZ9vmm2+emM/VVlstavjzJltNM69pBKQoIgbbVS92kpidkquuuio1yKeeeirmVgjIyy+/PHz/4YcfxvyaJEfeBG/Mo/GnKgG57777xtKM2b3PPvssisFeFWbubIkcWQ+UuYkZZG/aJedmHnbYYZET8zDwqaeeWic0ImT0oSkEzLr5yCOP5EaLzplyyikjubfP4NN6lAuhOjAQMM3cMKDJu8zBM2RglcvW35tssklmcJgYNglT2nPzch2eGbY+9x8CTXTEfdav/isxzVEaAm2SM+nrr7HGGuFkTVqaeY/ZbfrwH330UZaz8Jt9/i+LPvVSBLIQqEsWk+Ksu//RZF6S8tfld7704wknnBCN1WSuAqtZaZd9xjp+7r777jTnsfdN9GdiEbb0T9P1hDG4lC3nHOddY8eOjdzjT+bvkvw1nZekNPTbu7rrSd3tgJTHIPeHfOlzwd53/JIOvbtDoMm2ukyqXesr1+GVyYsLt40TkDTSd911V27aZTfcPvvsk+gW8xfSUTj33HMT3fCSBsSc5E8jIF9//fUwPDodrFSqco0fPz5KG2l87bXXUoO78MILY26lAzN58uTwfdsIyJ/+9KcxPMkfnTDzIg9TTTVVlK8JEyaYnxOfTfO3EJrYbk66kB3I6TXXXDO2O5TzOpkkEZkYPnx4wCS3XopAUwiYBGQRc5YsTBB5xfT0W2+9FUuq1qMYHPonBwFZtIJMFSEUzd2348aNSwydhSXXXHNNwEIg3HzwwQeJ7jAZzG534jZ3wyc6DoLg2muvjWQfP3b8rsNLS4e+7w8EqnTEi8p4HfWrP9DXXLhEoA45KyrjZj5OPvnkUEdzjnuRs9UxqU2/u8iFVRnp+3D/4x//WMSbuhlQBFzKYpG6UGf/w2VeBlEcfOlHyENTZzFPkbUj/JZbbom5x2/SMTxJZVilP5MUXhffuawnReo8GL3yyiuxMkub7LzPTAAADnlJREFUhxI8F1poocg9z2mXy7ykxTGI76vUkyIyUWc7YJbXIPeHfOlzwb+O+CVsvftBoK62uojOyMpxFX2VFK7r8JLiqPPd/2/vTkKjdv84jt9EaVGLS9FDPVgVBcENXEDUgwu2iIj7wQURRdGDN0HErehBPCiIoCBYRKjiyQ0tbnUBtYqgB0EFPdSLIggFvfj8+MT/k/8z02QmY5+YTvMOlGmnzzxJXnmSPJPvs2QSgNRQpwoYlVrsEKZxw2nu3r07vPHv3bs3Nis3nSqAa9eujUyr7dEwcEqzcuVK8+rVq6CyqCCWhk/VcBql5iR0M1VA1K2ovnz50v13+LtubvPmzStIq1ZzWhS0U6BNY8a7ixvY01yMf7PIwN0+VbqSLNo2HTv3s+PHj49sGX3kyJEwnR6Gl6p463+az9HmG9ejVePIK8ijn48fP/bYZI3XPnz48DAfBal7G0zusRLeQCBGwA1Azpkzp6BXcPFH9MVVQzzbMq9KUNTCeRSlwntRAnpIPHTo0LBMafiYuEXBblv2FPyOG1rcrZwr/YoVK+KyNLoPK83Zs2dj09h/NDc3h+vXPaT4Pqd0vvOz6+a1/wloKHZbnvX69evXxDuZtIyncX4l3kgS5kYgjXKWtIxbZDe9em5otJHiH3232rFjh9m4cWM4R6Tmui+36Eu8e67q91+/fpX7GP/PqYDvsujmp7IXV6dJo/7hrtv3eZWX4pHV9VGN7+yoHRrho1T9WsdCDTfc69y6desSH6Le1GcSr6QPJ/R9nrj5lTrni4/b0aNHY5U0ZYV7fK9duxaZ1l0353wk0V+/2ZvzxD0upcpEGvcBd4fzXh/K6npuj0Ea67d585qNQFr36qTXjLi97s31KipP3/lFrSPN9zIJQOpir7HwFYCLWiyqgklxcye2t7eHN3/NGRm13LlzxwwcODBMp/UqGNbd3R2VPOjl4VYoon5XkEHBUQ3Vqh5MUXl1dnYWrHPDhg2R62tpaQnS6QGwXZd6m2jRl6IJEyYUfE49KW06vdq0BYnK/KHhbydOnFiQT7neWgrCal8HDx5c8Llhw4aZN2/eRK5RwdqlS5eG6TW2/pcvX3qk1cV/xowZYboFCxb0KBefP382GlLQVv7VyjougG2HZ7VOmzZtijxGPTaENxDopYAbgFT503y3qlwWL+rV7A770NTUVJwk/JvzKKTglwQCra2t4bVUD0DiGmAsW7YsTKfe9nFL8UOUhoaGuKRBEHH69OlGQ2CXGoJYvR3t9VmjEzx9+jQyTwUlfeYXuRLerHoBXWPXrFkTlimVLfU+SLpUUsZ9n19Jt5F0+RLwXc4qKeOax8odNcZeq5O87tq1q+yB6urqKjhXlW/cfapsZiTo1wJplMWk54Lv+kca+9KvD36Jncvq+qjnVrpeaYQuXcfiFh1r93qpBtZJhqZWfr2tz8RtU7W8n8Z5kvScl5GGA7ff5fVsLqoXpJ5dLly4MDzGq1atiuRNY18iV5TDN3t7niQtE77vA8WHivqQMVldz+2x8L1+my+v2Qmkca9Oes2I2uveXq+K8/SdX3H+/+LvzAKQqpwtWbLEdHR0BD3ohKlhUBVo0gNMfQEu9RBJAShNEm0reevXrw8qDnpfcyMeO3YsGAZUw8zt2bMnTKf0qlSoh9KJEycKjBVoGzBgQEFam3/cq+a1fPDgQUE++sOdX0uf3bx5czDEogIK6nG4evXqYD0aElYPa23+dXV1wcM09X7UCaSW/IsWLQqGF3UDlTa9gonqRakgZ9yXeM2nqJbJs2bNCvbdfta+Kl/loVZ97o/WqwfONp19VS9MPWiIG47PYuhYaAhd+zkFfw8dOhQcc7Ueu3jxorHDAOp4a39//vxpPx4cNwVh7XygNh+9KoBTvKhFdlRaDW+g463yxoJAWgL2S4uC9Vu2bAnKvXrhKsD/7du3oBf1lStXzKRJk4L/6Tp38ODB2GC63U7OIyvBaxIB3VPstVK/q5GHXdQAxb0fqiFNXEMgfcaWY5ufApelFvWkrK+vD+7fO3fuLBhaT/dld44VDWF17ty5UtkFPTN95ldyZfyzKgTU0lz1FDVWUj2guGGULasaEkv3fT0o0rzXcb2sKi3jPs+vqgBnIzMR8FnOkpZxjUZSU1MT3j/suZT0tVRjFouo+0BxfklHl7F58Nr/BdIqi0nPBQn7qs+ktS/9vxTE72EW10fVlRVs0vWrtrY2eJ5hp82xW6rpBdyRSPSMqFRvSd/1Gbsd1fia1nlSyTkvtwsXLhQ0eL93717Iqede7ihimr9e2128pLUvxevJy9++z5NKyoSv+0DUsaI+9Ecli+u5ezx8rt/Nl9+zEUjjXl3JNcP39cp3ftkclcK1/tMA5OjRo4OK2YsXL4KHoG7vRDdwNHPmzGAI1MJN7fmXgnOaf1AP8ou/0Cq/5cuXB0Gy/fv39/i/0ivoZpcnT54YzWGi9xUM04OtxYsXBz8KImjOQU0UXDxWt9IraBk1jOnly5d7DLFqt1P5aHhF+/BXAUvb6ljbrgdmCjxoWFH9LStVakeOHBnMtaVemOoJqL/1wEBpfvz4YXen4FXBR7vev3nV/k2ePDmodB0+fDi212PBSp0/Hj9+HDwwjFq3gjaauzGqF8z8+fODlmjab1XiR40aZdTrUkPlRo23r6CotlUPJK2TNdKXhajPOJvJrwj0SkBlWb15dU6rMcCpU6eMGhQUl3uVXz081zDPlSycR5Vo5Tetyp9tgKOyp+umeoKrkYqugXpP94t9+/aVHVZcX6IV7NF1VQ04ou5zxdJ62OL2sh8zZozRj3se6JqvRihJFt/5JVknafquwOnTp4M6n66tCk7rHq/6kBpL2R/NR6r6pub0Vn1AoyfEzTNXaRn3eX71XWW2LGsBn+UsaRlXI1D3Ol3p7/fv3y/Lpu8p7lQSOk9ZECgWSKssJj0X7Pb4qH+ktS92G/P4msX1Uc56LnPmzJmg3mGvj2pcrUCU6tr2PdWxt2/fXnKeSOXnuz5TzWUhrfOk0nNehnp+p/qjPZ56pqRngPoupPf0vE7PFuMa/qe1L9V8fHuz7b7Pk0rLhI/7QNT+Ux/6o5LV9dweE5/rt3nymq2A73t1JdcM39cr3/lle2T+rP2fBiDb2toKglcKIN68eTOozGlsXfUkjHtIVApL86nduHHDnD9/3mj+wEuXLgW9IO1nNISnhnVV7yN9QdZDVA0Hql6XWp4/fx62op87d65R+lKLtvH48eNBMMxWTtSTJG7RfIW3bt0y2kcVIg0NGzV5ubriP3r0KAg6xuVVze/LTcdYDpo8VQEYewyqeb/YdgTiBDR8hyqu6umlnpGvX78u2+MxLi/7PueRleC1lIBabaqHrRqg6AHJuHHjjBp1aAjUpMG/UvmX+p++lGuIcAU9FZQfO3Zs0CBIjW5u375dNvBZnLfv/Irz528EKhXI8vyqdFtJX70C/bGcqT6k0U/U0PP69evVe3DY8lwIUP/ou4c5q+ujRhPRdzrNjavGeY2NjcGUAepJc/LkyeC7Xt9VY8uSCKi3o55Vbdu2zUydOjVoWKlOD2pc/Pbt2yRZkKYfCaR1H6A+9P9CktX13G5B1uu328GrPwHu1f4sfeb0TwOQPjfcZ17qjaFAonrZlRtW1F2v0tqeHeqZx4IAAggggAACCCCAAAIIIIAAAggggAACCCCAAAIIIIBA3gVyH4B0u79rvsJKFw1jZ3tBfvjwodKPkx4BBBBAAAEEEEAAAQQQQAABBBBAAAEEEEAAAQQQQACBfiWQ+wBkd3d3OIdkU1NTxQdXwzEoAKlx4b9//17x5/kAAggggAACCCCAAAIIIIAAAggggAACCCCAAAIIIIAAAv1JIPcBSB1MzYtlg4iaIzLp0tnZaWpra4PPNjc3J/0Y6RBAAAEEEEAAAQQQQAABBBBAAAEEEEAAAQQQQAABBBDotwIEII0x79+/N3V1dUEgcdCgQaa1tdVosuG45ffv3+bq1atmyJAhwWfq6+uNgpEsCCCAAAIIIIAAAggggAACCCCAAAIIIIAAAggggAACCORdgADk/0rAu3fvzOzZs4OAonpDNjQ0mAMHDpi2tjbz7NmzIMCooGNLS4tpbGwM002bNs18+vQp7+WI/UcAAQQQQAABBBBAAAEEEEAAAQQQQAABBBBAAAEEEEAgECAA6RQE9Wxsb283mtdxypQppqamJgw0Kihpf0aMGGG2bt1qOjo6nE/zKwIIIIAAAggggAACCCCAAAIIIIAAAggggAACCCCAAAIIEIAsUwa6urrMw4cPzd27d416SXZ3d5f5BP9GAAEEEEAAAQQQQAABBBBAAAEEEEAAAQQQQAABBBBAIL8CBCDze+zZcwQQQAABBBBAAAEEEEAAAQQQQAABBBBAAAEEEEAAAQS8CxCA9E5KhggggAACCCCAAAIIIIAAAggggAACCCCAAAIIIIAAAgjkV4AAZH6PPXuOAAIIIIAAAggggAACCCCAAAIIIIAAAggggAACCCCAgHcBApDeSckQAQQQQAABBBBAAAEEEEAAAQQQQAABBBBAAAEEEEAAgfwKEIDM77FnzxFAAAEEEEAAAQQQQAABBBBAAAEEEEAAAQQQQAABBBDwLkAA0jspGSKAAAIIIIAAAggggAACCCCAAAIIIIAAAggggAACCCCQXwECkPk99uw5AggggAACCCCAAAIIIIAAAggggAACCCCAAAIIIIAAAt4FCEB6JyVDBBBAAAEEEEAAAQQQQAABBBBAAAEEEEAAAQQQQAABBPIrQAAyv8eePUcAAQQQQAABBBBAAAEEEEAAAQQQQAABBBBAAAEEEEDAuwABSO+kZIgAAggggAACCCCAAAIIIIAAAggggAACCCCAAAIIIIBAfgUIQOb32LPnCCCAAAIIIIAAAggggAACCCCAAAIIIIAAAggggAACCHgX+A/uBxhqhQZmLgAAAABJRU5ErkJggg==;" parent="1" vertex="1">
          <mxGeometry x="-671.6" y="810" width="522.19" height="71" as="geometry" />
        </mxCell>
        <mxCell id="0DorSFAY3iXw3XI1K5tr-41" style="edgeStyle=orthogonalEdgeStyle;rounded=0;orthogonalLoop=1;jettySize=auto;html=1;exitX=0.5;exitY=1;exitDx=0;exitDy=0;entryX=0.5;entryY=0;entryDx=0;entryDy=0;strokeWidth=2;fontSize=20;" parent="1" source="0DorSFAY3iXw3XI1K5tr-38" target="0DorSFAY3iXw3XI1K5tr-36" edge="1">
          <mxGeometry relative="1" as="geometry" />
        </mxCell>
        <mxCell id="0DorSFAY3iXw3XI1K5tr-38" value="CNN" style="rounded=1;whiteSpace=wrap;html=1;fontSize=17;" parent="1" vertex="1">
          <mxGeometry x="-470" y="737" width="119" height="35.46" as="geometry" />
        </mxCell>
        <mxCell id="w7rPTe5otXGatCVl7lIB-2" style="edgeStyle=orthogonalEdgeStyle;rounded=0;orthogonalLoop=1;jettySize=auto;html=1;exitX=0;exitY=0.5;exitDx=0;exitDy=0;entryX=0.75;entryY=1;entryDx=0;entryDy=0;fontSize=17;" edge="1" parent="1" source="w7rPTe5otXGatCVl7lIB-1" target="0DorSFAY3iXw3XI1K5tr-38">
          <mxGeometry relative="1" as="geometry" />
        </mxCell>
        <mxCell id="w7rPTe5otXGatCVl7lIB-1" value="Camera Pose" style="text;html=1;strokeColor=#000000;fillColor=none;align=center;verticalAlign=middle;whiteSpace=wrap;rounded=1;comic=0;" vertex="1" parent="1">
          <mxGeometry x="-355" y="777" width="90" height="20" as="geometry" />
        </mxCell>
      </root>
    </mxGraphModel>
  </diagram>
</mxfile>
